<?xml version="1.0" encoding="utf-8"?>
<!-- Generator: Adobe Illustrator 23.0.1, SVG Export Plug-In . SVG Version: 6.00 Build 0)  -->
<svg version="1.1" id="Capa_1" xmlns="http://www.w3.org/2000/svg" xmlns:xlink="http://www.w3.org/1999/xlink" x="0px" y="0px"
	 viewBox="0 0 386.7 362.6" style="enable-background:new 0 0 386.7 362.6;" xml:space="preserve">
<style type="text/css">
	.st0{clip-path:url(#SVGID_2_);}
	.st1{fill:#000333;}
	.st2{fill:none;}
</style>
<g>
	<g>
		<defs>
			<rect id="SVGID_1_" width="1493" height="120"/>
		</defs>
		<clipPath id="SVGID_2_">
			<use xlink:href="#SVGID_1_"  style="overflow:visible;"/>
		</clipPath>
		<g class="st0">
			<g>
				<path class="st1" d="M31.7,35.6c4.7-0.8,10.8-1.2,17.3-1.2c10.7,0,17.7,1.9,23.1,6c5.9,4.4,9.5,11.3,9.5,21.3
					c0,10.8-3.9,18.3-9.4,22.9c-5.9,4.9-15,7.3-26,7.3c-6.6,0-11.3-0.4-14.5-0.8C31.7,91.1,31.7,35.6,31.7,35.6z M44.5,81.6
					c1.1,0.3,2.8,0.3,4.4,0.3C60.5,82,68,75.6,68,62.1c0.1-11.7-6.8-17.9-17.8-17.9c-2.8,0-4.7,0.3-5.8,0.5L44.5,81.6L44.5,81.6z"/>
				<path class="st1" d="M123.6,67.4h-20.8v13.4H126v10.5H90V34.8h34.8v10.5h-22V57h20.8C123.6,57,123.6,67.4,123.6,67.4z"/>
				<path class="st1" d="M147.9,76.8l-4,14.5h-13.2l17.2-56.4h16.7l17.5,56.4h-13.7L164,76.8H147.9z M162.2,67.2l-3.5-12
					c-1-3.3-2-7.5-2.8-10.9h-0.2c-0.8,3.3-1.7,7.6-2.6,10.9l-3.3,12H162.2z"/>
			</g>
			<path class="st1" d="M208.3,76.1c-0.7,0-1.3,0.1-1.6,0.1v9c0.3,0.1,0.8,0.1,1.3,0.1c3,0,4.8-1.6,4.8-4.8
				C212.8,77.7,211.2,76.1,208.3,76.1z"/>
			<path class="st1" d="M272.5,57.5L272.5,57.5c-0.2,0.7-0.4,1.6-0.6,2.4l-1,3.1h3.2l-1-3.1C272.9,59.1,272.6,58.2,272.5,57.5z"/>
			<path class="st1" d="M292.1,61.7c0-2.8-1.6-4.4-4.5-4.4c-0.7,0-1.3,0.1-1.6,0.1v9c0.3,0.1,0.8,0.1,1.3,0.1
				C290.3,66.6,292.1,64.9,292.1,61.7z"/>
			<path class="st1" d="M278.4,76c-0.7,0-1.2,0.1-1.4,0.1v4h1.4c1.6,0,2.5-0.8,2.5-2.1C280.9,76.6,279.9,76,278.4,76z"/>
			<path class="st1" d="M197.1,76.2L197.1,76.2c-0.2,0.7-0.4,1.6-0.6,2.4l-1,3.1h3.2l-1-3.1C197.5,77.8,197.2,76.9,197.1,76.2z"/>
			<path class="st1" d="M262.3,47.9c2.2,0,3.5-2.1,3.5-4.7c0-2.4-1.2-4.6-3.5-4.6s-3.5,2.1-3.5,4.7
				C258.8,45.9,260.1,47.9,262.3,47.9z"/>
			<path class="st1" d="M200.9,43c0-2.8-1.6-4.4-4.5-4.4c-0.7,0-1.3,0.1-1.6,0.1v9c0.3,0.1,0.8,0.1,1.3,0.1
				C199.1,47.9,200.9,46.2,200.9,43z"/>
			<path class="st1" d="M216.4,40.6c0-1.4-1-2-2.5-2c-0.7,0-1.2,0.1-1.4,0.1v4h1.4C215.5,42.7,216.4,41.9,216.4,40.6z"/>
			<path class="st1" d="M290,76.2L290,76.2c-0.2,0.7-0.4,1.6-0.6,2.4l-1,3.1h3.2l-1-3.1C290.4,77.8,290.2,76.9,290,76.2z"/>
			<path class="st1" d="M317.9,67.9V49.6h-27.1V31.3H187.9v59.9h155.4V67.9H317.9z M318.7,71.4h2.5l-2.3,2.2H317L318.7,71.4z
				 M296.5,55.7h7.3v1.9h-5v3.3h4.8v1.9h-4.8v3.7h5.3v1.9h-7.6L296.5,55.7L296.5,55.7z M270.2,37h2.6l3.3,5.4
				c0.8,1.4,1.6,2.9,2.2,4.2l0,0c-0.1-1.7-0.2-3.3-0.2-5.2V37h2.1v12.6h-2.4l-3.3-5.6c-0.8-1.4-1.6-2.9-2.3-4.3h-0.1
				c0.1,1.6,0.1,3.3,0.1,5.4v4.5h-2.1L270.2,37L270.2,37z M262.7,34h2.5l-2.3,2.2H261L262.7,34z M262.3,36.8c3.7,0,5.9,2.8,5.9,6.4
				c0,4.2-2.6,6.6-6,6.6c-3.6,0-5.8-2.7-5.8-6.4C256.3,39.5,258.8,36.8,262.3,36.8z M252.1,37h2.3v12.6h-2.3V37z M247.1,36.8
				c1.5,0,2.6,0.3,3.1,0.6l-0.5,1.8c-0.6-0.3-1.4-0.5-2.5-0.5c-2.6,0-4.4,1.6-4.4,4.6c0,2.8,1.6,4.5,4.4,4.5c0.9,0,1.9-0.2,2.5-0.5
				l0.4,1.8c-0.5,0.3-1.7,0.6-3.3,0.6c-4,0-6.4-2.5-6.4-6.4C240.4,39.3,243.3,36.8,247.1,36.8z M236.6,36.8c1.5,0,2.6,0.3,3.1,0.6
				l-0.5,1.8c-0.6-0.3-1.4-0.5-2.5-0.5c-2.6,0-4.4,1.6-4.4,4.6c0,2.8,1.6,4.5,4.4,4.5c0.9,0,1.9-0.2,2.5-0.5l0.4,1.8
				c-0.5,0.3-1.7,0.6-3.3,0.6c-4,0-6.4-2.5-6.4-6.4C229.9,39.3,232.8,36.8,236.6,36.8z M220.9,37h7.3v1.9h-5v3.3h4.8V44h-4.8v3.7
				h5.3v1.9h-7.6V37z M225.6,55.5c1.5,0,2.6,0.3,3.1,0.6l-0.5,1.8c-0.6-0.3-1.4-0.5-2.5-0.5c-2.6,0-4.4,1.6-4.4,4.6
				c0,2.8,1.6,4.5,4.4,4.5c0.9,0,1.9-0.2,2.5-0.5l0.4,1.8c-0.5,0.3-1.7,0.6-3.3,0.6c-4,0-6.4-2.5-6.4-6.4
				C218.9,58,221.8,55.5,225.6,55.5z M210.3,37.1c0.9-0.1,2.2-0.3,3.5-0.3c1.8,0,3,0.3,3.9,1c0.7,0.6,1.1,1.5,1.1,2.5
				c0,1.6-1.1,2.7-2.3,3.2v0.1c0.9,0.3,1.4,1.2,1.8,2.4c0.4,1.6,0.7,3,1,3.5h-2.4c-0.2-0.4-0.5-1.4-0.8-3c-0.4-1.6-1-2.2-2.3-2.2
				h-1.2v5.2h-2.3V37.1z M209.9,55.7h7.3v1.9h-5v3.3h4.8v1.9h-4.8v3.7h5.3v1.9h-7.6V55.7z M205.3,37h2.3v12.6h-2.3V37z M192.6,37.1
				c1-0.2,2.3-0.3,3.7-0.3c2.4,0,4,0.5,5.1,1.5c1.2,1,2,2.5,2,4.6c0,2.2-0.8,3.9-2,5c-1.3,1.1-3.3,1.7-5.7,1.7
				c-1.3,0-2.4-0.1-3.1-0.2V37.1z M192.6,55.7h7.3v1.9h-5v3.3h4.8v1.9h-4.8v3.7h5.3v1.9h-7.6V55.7z M200.2,87l-1.1-3.6h-4L194,87
				h-2.4l4-12.6h2.9l4.1,12.6H200.2z M201.3,68.2l0.3-1.9c0.4,0.1,0.9,0.2,1.4,0.2c1.3,0,2.1-0.6,2.1-2.8v-8.1h2.3v8.2
				c0,3.5-1.7,4.6-4.2,4.6C202.5,68.5,201.7,68.4,201.3,68.2z M213.3,85.4c-1.3,1.1-3.3,1.7-5.7,1.7c-1.3,0-2.4-0.1-3.1-0.2V74.5
				c1-0.2,2.3-0.3,3.7-0.3c2.4,0,4,0.5,5.1,1.5c1.2,1,2,2.5,2,4.6C215.2,82.6,214.5,84.3,213.3,85.4z M228.1,87l-0.2-5.1
				c-0.1-1.6-0.2-3.6-0.1-5.3h-0.1c-0.4,1.6-0.9,3.3-1.5,4.8l-1.8,5.5h-1.8l-1.7-5.4c-0.5-1.6-0.9-3.3-1.3-4.9l0,0
				c-0.1,1.7-0.1,3.7-0.2,5.4l-0.3,5.1h-2.2l0.8-12.6h3l1.6,5.1c0.4,1.5,0.8,3,1.2,4.4h0.1c0.3-1.4,0.8-2.9,1.3-4.4l1.7-5.1h3
				l0.7,12.6L228.1,87L228.1,87z M235,87h-2.3V74.4h2.3V87z M230.5,62.9v-7.2h2.3V63c0,2.5,1,3.6,2.6,3.6c1.7,0,2.7-1.1,2.7-3.6
				v-7.4h2.3v7.2c0,3.9-2,5.6-5,5.6C232.4,68.5,230.5,66.9,230.5,62.9z M247.6,87h-2.4l-3.3-5.6c-0.8-1.4-1.6-2.9-2.3-4.3h-0.1
				c0.1,1.6,0.1,3.3,0.1,5.4V87h-2.1V74.4h2.6l3.3,5.4c0.8,1.4,1.6,2.9,2.2,4.2l0,0c-0.1-1.7-0.2-3.3-0.2-5.2v-4.4h2.1L247.6,87
				L247.6,87z M247.7,68.3h-2.3V57.6h-3.6v-1.9h9.5v1.9h-3.6L247.7,68.3L247.7,68.3z M252.6,87h-2.3V74.4h2.3V87z M252.8,55.7h2.3
				v12.6h-2.3V55.7z M258.1,87.2c-1.3,0-2.7-0.4-3.4-0.8l0.5-1.9c0.7,0.4,1.9,0.8,3,0.8c1.5,0,2.3-0.7,2.3-1.7s-0.6-1.5-2.2-2.1
				c-2.1-0.7-3.4-1.9-3.4-3.7c0-2.1,1.7-3.6,4.5-3.6c1.4,0,2.4,0.3,3,0.6l-0.6,1.9c-0.4-0.2-1.3-0.6-2.5-0.6c-1.5,0-2.1,0.8-2.1,1.5
				c0,1,0.7,1.4,2.4,2.1c2.2,0.8,3.3,1.9,3.3,3.7C262.8,85.4,261.3,87.2,258.1,87.2z M260.6,68.3l-4.1-12.6h2.5l1.7,5.7
				c0.5,1.6,0.9,3.1,1.2,4.6l0,0c0.3-1.5,0.8-3,1.3-4.6l1.8-5.8h2.5l-4.4,12.6L260.6,68.3L260.6,68.3z M273.3,76.3h-3.6V87h-2.3
				V76.3h-3.6v-1.9h9.5V76.3z M270.5,64.7l-1.1,3.6H267l4-12.6h2.9l4.1,12.6h-2.5l-1.1-3.6H270.5z M281.3,87c-0.2-0.4-0.5-1.4-0.8-3
				c-0.4-1.6-1-2.2-2.3-2.2H277V87h-2.3V74.5c0.9-0.1,2.2-0.3,3.5-0.3c1.8,0,3,0.3,3.9,1c0.7,0.6,1.1,1.5,1.1,2.5
				c0,1.6-1.1,2.7-2.3,3.2V81c0.9,0.3,1.4,1.2,1.8,2.4c0.4,1.6,0.7,3,1,3.5L281.3,87L281.3,87z M283.7,55.8c1-0.2,2.3-0.3,3.7-0.3
				c2.4,0,4,0.5,5.1,1.5c1.2,1,2,2.5,2,4.6c0,2.2-0.8,3.9-2,5c-1.3,1.1-3.3,1.7-5.7,1.7c-1.3,0-2.4-0.1-3.1-0.2V55.8z M293.2,87
				l-1.1-3.6h-4L287,87h-2.4l4-12.6h2.9l4.1,12.6H293.2z M303.2,85.3c0.9,0,1.9-0.2,2.5-0.5l0.4,1.8c-0.5,0.3-1.7,0.6-3.3,0.6
				c-4,0-6.4-2.5-6.4-6.4c0-4.2,2.9-6.7,6.7-6.7c1.5,0,2.6,0.3,3.1,0.6l-0.5,1.8c-0.6-0.3-1.4-0.5-2.5-0.5c-2.6,0-4.4,1.6-4.4,4.6
				C298.8,83.5,300.4,85.3,303.2,85.3z M310.3,87H308V74.4h2.3V87z M318.1,87.2c-3.6,0-5.8-2.7-5.8-6.4c0-3.9,2.4-6.6,6-6.6
				c3.7,0,5.9,2.8,5.9,6.4C324.1,84.8,321.6,87.2,318.1,87.2z M336.1,87h-2.4l-3.3-5.6c-0.8-1.4-1.6-2.9-2.3-4.3H328
				c0.1,1.6,0.1,3.3,0.1,5.4V87H326V74.4h2.6l3.3,5.4c0.8,1.4,1.6,2.9,2.2,4.2l0,0c-0.1-1.7-0.2-3.3-0.2-5.2v-4.4h2.1L336.1,87
				L336.1,87z"/>
			<path class="st1" d="M318.2,76c-2.3,0-3.5,2.1-3.5,4.7s1.3,4.6,3.5,4.6s3.5-2.1,3.5-4.7C321.7,78.3,320.5,76,318.2,76z"/>
			<rect x="317.9" y="28.5" class="st1" width="25.4" height="21.1"/>
			<rect x="174.6" y="19.8" class="st1" width="13.4" height="11.6"/>
		</g>
	</g>
</g>
<g>
	<rect x="-553.1" y="116.3" class="st2" width="1493" height="120"/>
	<g>
		<path class="st1" d="M172.5,180.6c-0.6-0.2-1.1-0.5-1.5-0.8l0.5-1c0.3,0.3,0.8,0.6,1.3,0.8s1.1,0.3,1.7,0.3c0.8,0,1.3-0.1,1.7-0.4
			s0.6-0.6,0.6-1c0-0.3-0.1-0.6-0.3-0.8c-0.2-0.2-0.5-0.3-0.8-0.4c-0.3-0.1-0.7-0.2-1.3-0.3c-0.7-0.2-1.2-0.3-1.7-0.5
			c-0.5-0.2-0.8-0.4-1.1-0.8c-0.3-0.4-0.4-0.8-0.4-1.4c0-0.5,0.1-0.9,0.4-1.3c0.3-0.4,0.6-0.7,1.2-0.9s1.2-0.3,1.9-0.3
			c0.5,0,1.1,0.1,1.6,0.2c0.5,0.1,1,0.3,1.3,0.6l-0.4,1c-0.4-0.2-0.8-0.4-1.2-0.5c-0.4-0.1-0.9-0.2-1.3-0.2c-0.7,0-1.3,0.1-1.7,0.4
			s-0.6,0.6-0.6,1c0,0.3,0.1,0.6,0.3,0.8s0.5,0.3,0.8,0.5c0.3,0.1,0.7,0.2,1.2,0.3c0.7,0.2,1.2,0.3,1.6,0.5c0.4,0.2,0.8,0.4,1.1,0.8
			c0.3,0.3,0.4,0.8,0.4,1.4c0,0.5-0.1,0.9-0.4,1.3c-0.3,0.4-0.7,0.7-1.2,0.9c-0.5,0.2-1.2,0.3-1.9,0.3
			C173.8,180.9,173.2,180.8,172.5,180.6z"/>
		<path class="st1" d="M179.7,172.4c-0.2-0.2-0.2-0.3-0.2-0.6c0-0.2,0.1-0.4,0.2-0.6c0.2-0.2,0.4-0.2,0.6-0.2c0.2,0,0.4,0.1,0.6,0.2
			c0.2,0.1,0.2,0.3,0.2,0.6c0,0.2-0.1,0.4-0.2,0.6s-0.4,0.2-0.6,0.2S179.9,172.5,179.7,172.4z M179.7,173.9h1.2v6.9h-1.2V173.9z"/>
		<path class="st1" d="M183.7,180.6c-0.5-0.2-0.9-0.3-1.2-0.6l0.5-1c0.3,0.2,0.7,0.4,1.1,0.5c0.4,0.1,0.9,0.2,1.3,0.2
			c1.1,0,1.6-0.3,1.6-0.9c0-0.2-0.1-0.4-0.2-0.5c-0.1-0.1-0.3-0.2-0.6-0.3c-0.2-0.1-0.5-0.1-0.9-0.2c-0.6-0.1-1-0.2-1.4-0.3
			c-0.3-0.1-0.6-0.3-0.9-0.6c-0.3-0.3-0.4-0.6-0.4-1.1c0-0.6,0.3-1.1,0.8-1.5c0.5-0.4,1.2-0.6,2.1-0.6c0.5,0,0.9,0.1,1.4,0.2
			c0.5,0.1,0.8,0.3,1.1,0.5l-0.5,1c-0.6-0.4-1.2-0.5-2-0.5c-0.5,0-0.9,0.1-1.2,0.3s-0.4,0.4-0.4,0.7c0,0.2,0.1,0.4,0.2,0.5
			c0.1,0.1,0.3,0.2,0.6,0.3c0.2,0.1,0.6,0.1,1,0.2c0.6,0.1,1,0.2,1.3,0.3c0.3,0.1,0.6,0.3,0.9,0.6c0.2,0.3,0.4,0.6,0.4,1.1
			c0,0.6-0.3,1.1-0.8,1.5c-0.5,0.4-1.3,0.6-2.2,0.6C184.7,180.8,184.2,180.8,183.7,180.6z"/>
		<path class="st1" d="M193.7,180.4c-0.2,0.2-0.4,0.3-0.7,0.4c-0.3,0.1-0.5,0.1-0.8,0.1c-0.7,0-1.2-0.2-1.6-0.6
			c-0.4-0.4-0.6-0.9-0.6-1.6v-3.8h-1.2v-1h1.2v-1.5h1.2v1.5h2v1h-2v3.7c0,0.4,0.1,0.7,0.3,0.9c0.2,0.2,0.5,0.3,0.8,0.3
			c0.4,0,0.7-0.1,1-0.3L193.7,180.4z"/>
		<path class="st1" d="M201.1,177.7h-5.6c0.1,0.6,0.3,1.1,0.8,1.5c0.5,0.4,1,0.5,1.7,0.5c0.8,0,1.5-0.3,2-0.8l0.7,0.8
			c-0.3,0.4-0.7,0.6-1.2,0.8c-0.5,0.2-1,0.3-1.5,0.3c-0.7,0-1.4-0.1-1.9-0.4c-0.6-0.3-1-0.7-1.3-1.2s-0.5-1.1-0.5-1.8
			s0.1-1.3,0.4-1.8s0.7-1,1.2-1.2c0.5-0.3,1.1-0.4,1.8-0.4s1.2,0.1,1.8,0.4c0.5,0.3,0.9,0.7,1.2,1.2s0.4,1.1,0.4,1.8
			C201.1,177.5,201.1,177.6,201.1,177.7z M196.3,175.4c-0.4,0.4-0.6,0.8-0.7,1.4h4.4c-0.1-0.6-0.3-1.1-0.7-1.4
			c-0.4-0.4-0.9-0.6-1.5-0.6C197.1,174.9,196.7,175.1,196.3,175.4z"/>
		<path class="st1" d="M213.5,174.6c0.5,0.5,0.8,1.2,0.8,2.2v3.9h-1.2v-3.8c0-0.7-0.2-1.2-0.5-1.5s-0.7-0.5-1.3-0.5
			s-1.1,0.2-1.5,0.6c-0.4,0.4-0.6,1-0.6,1.7v3.5h-1.3v-3.8c0-0.7-0.2-1.2-0.5-1.5s-0.7-0.5-1.3-0.5s-1.1,0.2-1.5,0.6
			c-0.4,0.4-0.6,1-0.6,1.7v3.5h-1.1v-6.9h1.2v1c0.2-0.4,0.6-0.6,1-0.8c0.4-0.2,0.9-0.3,1.4-0.3s1,0.1,1.4,0.3c0.4,0.2,0.7,0.5,1,0.9
			c0.3-0.4,0.6-0.7,1.1-0.9c0.5-0.2,1-0.3,1.6-0.3C212.3,173.8,213,174.1,213.5,174.6z"/>
		<path class="st1" d="M221.2,174.5c0.5,0.5,0.8,1.2,0.8,2.1v4.1h-1.2v-0.9c-0.2,0.3-0.5,0.6-0.9,0.7c-0.4,0.2-0.8,0.3-1.4,0.3
			c-0.8,0-1.4-0.2-1.8-0.6c-0.5-0.4-0.7-0.9-0.7-1.5c0-0.6,0.2-1.1,0.7-1.5c0.5-0.4,1.1-0.6,2.1-0.6h2v-0.2c0-0.5-0.2-0.9-0.5-1.2
			c-0.3-0.3-0.8-0.4-1.4-0.4c-0.4,0-0.8,0.1-1.2,0.2c-0.4,0.1-0.7,0.3-1,0.5l-0.5-0.9c0.4-0.3,0.8-0.5,1.3-0.7
			c0.5-0.2,1-0.2,1.6-0.2C220,173.8,220.7,174.1,221.2,174.5z M220,179.6c0.3-0.2,0.6-0.5,0.8-0.9v-1h-1.9c-1.1,0-1.6,0.4-1.6,1.1
			c0,0.3,0.1,0.6,0.4,0.8c0.3,0.2,0.6,0.3,1.1,0.3S219.6,179.8,220,179.6z"/>
		<path class="st1" d="M224.6,180.6c-0.5-0.2-0.9-0.3-1.2-0.6l0.5-1c0.3,0.2,0.7,0.4,1.1,0.5c0.4,0.1,0.9,0.2,1.3,0.2
			c1.1,0,1.6-0.3,1.6-0.9c0-0.2-0.1-0.4-0.2-0.5c-0.1-0.1-0.3-0.2-0.6-0.3c-0.2-0.1-0.5-0.1-0.9-0.2c-0.6-0.1-1-0.2-1.4-0.3
			c-0.3-0.1-0.6-0.3-0.9-0.6s-0.4-0.6-0.4-1.1c0-0.6,0.3-1.1,0.8-1.5c0.5-0.4,1.2-0.6,2.1-0.6c0.5,0,0.9,0.1,1.4,0.2
			c0.5,0.1,0.8,0.3,1.1,0.5l-0.5,1c-0.6-0.4-1.2-0.5-2-0.5c-0.5,0-0.9,0.1-1.2,0.3s-0.4,0.4-0.4,0.7c0,0.2,0.1,0.4,0.2,0.5
			c0.1,0.1,0.3,0.2,0.6,0.3c0.3,0.1,0.6,0.1,1,0.2c0.6,0.1,1,0.2,1.3,0.3c0.3,0.1,0.6,0.3,0.9,0.6c0.2,0.3,0.4,0.6,0.4,1.1
			c0,0.6-0.3,1.1-0.8,1.5c-0.5,0.4-1.3,0.6-2.2,0.6C225.7,180.8,225.1,180.8,224.6,180.6z"/>
		<path class="st1" d="M173.5,195.8c-0.7-0.4-1.3-1-1.7-1.7s-0.6-1.5-0.6-2.4c0-0.9,0.2-1.7,0.6-2.4c0.4-0.7,1-1.3,1.7-1.7
			s1.6-0.6,2.5-0.6c0.7,0,1.4,0.1,1.9,0.4s1.1,0.6,1.5,1.1l-0.8,0.8c-0.7-0.7-1.5-1.1-2.5-1.1c-0.7,0-1.3,0.2-1.8,0.5
			s-1,0.7-1.3,1.2s-0.5,1.1-0.5,1.8c0,0.7,0.2,1.2,0.5,1.8s0.7,0.9,1.3,1.2c0.5,0.3,1.2,0.5,1.8,0.5c1,0,1.9-0.4,2.5-1.1l0.8,0.8
			c-0.4,0.5-0.9,0.8-1.5,1.1c-0.6,0.2-1.2,0.4-1.9,0.4C175,196.4,174.2,196.2,173.5,195.8z"/>
		<path class="st1" d="M181.9,195.9c-0.5-0.3-1-0.7-1.3-1.2s-0.5-1.1-0.5-1.8s0.2-1.3,0.5-1.8s0.7-0.9,1.3-1.2
			c0.5-0.3,1.2-0.4,1.8-0.4c0.7,0,1.3,0.1,1.8,0.4s1,0.7,1.3,1.2s0.5,1.1,0.5,1.8c0,0.7-0.2,1.3-0.5,1.8s-0.7,0.9-1.3,1.2
			c-0.5,0.3-1.1,0.5-1.8,0.5S182.4,196.2,181.9,195.9z M184.9,195c0.3-0.2,0.6-0.5,0.8-0.9c0.2-0.4,0.3-0.8,0.3-1.3
			s-0.1-0.9-0.3-1.3c-0.2-0.4-0.5-0.6-0.8-0.8s-0.7-0.3-1.2-0.3c-0.4,0-0.8,0.1-1.2,0.3c-0.3,0.2-0.6,0.5-0.8,0.8
			c-0.2,0.4-0.3,0.8-0.3,1.3s0.1,0.9,0.3,1.3c0.2,0.4,0.5,0.7,0.8,0.9s0.7,0.3,1.2,0.3C184.1,195.3,184.5,195.2,184.9,195z"/>
		<path class="st1" d="M199.6,190.1c0.5,0.5,0.8,1.2,0.8,2.2v4h-1.2v-3.8c0-0.7-0.2-1.2-0.5-1.5s-0.7-0.5-1.3-0.5s-1.1,0.2-1.5,0.6
			c-0.4,0.4-0.6,1-0.6,1.7v3.5h-1.2v-3.8c0-0.7-0.2-1.2-0.5-1.5s-0.7-0.5-1.3-0.5s-1.1,0.2-1.5,0.6c-0.4,0.4-0.6,1-0.6,1.7v3.5H189
			v-6.9h1.2v1c0.2-0.4,0.6-0.6,1-0.8s0.9-0.3,1.4-0.3s1,0.1,1.4,0.3c0.4,0.2,0.7,0.5,1,0.9c0.3-0.4,0.6-0.7,1.1-0.9s1-0.3,1.6-0.3
			C198.4,189.4,199.1,189.6,199.6,190.1z"/>
		<path class="st1" d="M208.1,189.8c0.5,0.3,0.9,0.7,1.2,1.2s0.4,1.1,0.4,1.8s-0.1,1.3-0.4,1.8s-0.7,0.9-1.2,1.2
			c-0.5,0.3-1.1,0.4-1.8,0.4c-0.5,0-0.9-0.1-1.4-0.3c-0.5-0.2-0.8-0.5-1-0.8v3.5h-1.2v-9.4h1.2v1.1c0.3-0.4,0.6-0.7,1-0.9
			s0.9-0.3,1.4-0.3C207,189.4,207.5,189.5,208.1,189.8z M207.4,195c0.3-0.2,0.6-0.5,0.8-0.9c0.2-0.4,0.3-0.8,0.3-1.3
			s-0.1-0.9-0.3-1.3c-0.2-0.4-0.5-0.6-0.8-0.8s-0.7-0.3-1.2-0.3c-0.4,0-0.8,0.1-1.2,0.3c-0.4,0.2-0.6,0.5-0.8,0.8
			c-0.2,0.4-0.3,0.8-0.3,1.3s0.1,0.9,0.3,1.3c0.2,0.4,0.5,0.7,0.8,0.9c0.4,0.2,0.7,0.3,1.2,0.3C206.6,195.3,207,195.2,207.4,195z"/>
		<path class="st1" d="M211.5,186.7h1.2v9.6h-1.2V186.7z"/>
		<path class="st1" d="M221.3,193.3h-5.6c0.1,0.6,0.3,1.1,0.8,1.5c0.5,0.4,1,0.5,1.7,0.5c0.8,0,1.5-0.3,2-0.8l0.7,0.8
			c-0.3,0.4-0.7,0.6-1.2,0.8c-0.5,0.2-1,0.3-1.5,0.3c-0.7,0-1.4-0.1-1.9-0.4c-0.6-0.3-1-0.7-1.3-1.2s-0.5-1.1-0.5-1.8
			s0.1-1.3,0.4-1.8s0.7-1,1.2-1.2c0.5-0.3,1.1-0.4,1.8-0.4s1.2,0.1,1.8,0.4c0.5,0.3,0.9,0.7,1.2,1.2s0.4,1.1,0.4,1.8
			C221.3,193,221.3,193.1,221.3,193.3z M216.4,191c-0.4,0.4-0.6,0.8-0.7,1.4h4.4c-0.1-0.6-0.3-1.1-0.7-1.4c-0.4-0.4-0.9-0.6-1.5-0.6
			S216.8,190.6,216.4,191z"/>
		<path class="st1" d="M233.6,190.1c0.5,0.5,0.8,1.2,0.8,2.2v4h-1.2v-3.8c0-0.7-0.2-1.2-0.5-1.5s-0.7-0.5-1.3-0.5s-1.1,0.2-1.5,0.6
			c-0.4,0.4-0.6,1-0.6,1.7v3.5h-1.2v-3.8c0-0.7-0.2-1.2-0.5-1.5s-0.7-0.5-1.3-0.5s-1.1,0.2-1.5,0.6c-0.4,0.4-0.6,1-0.6,1.7v3.5H223
			v-6.9h1.2v1c0.2-0.4,0.6-0.6,1-0.8s0.9-0.3,1.4-0.3s1,0.1,1.4,0.3c0.4,0.2,0.7,0.5,1,0.9c0.3-0.4,0.6-0.7,1.1-0.9s1-0.3,1.6-0.3
			C232.5,189.4,233.1,189.6,233.6,190.1z"/>
		<path class="st1" d="M242.9,193.3h-5.6c0.1,0.6,0.3,1.1,0.8,1.5c0.5,0.4,1,0.5,1.7,0.5c0.8,0,1.5-0.3,2-0.8l0.7,0.8
			c-0.3,0.4-0.7,0.6-1.2,0.8s-1,0.3-1.5,0.3c-0.7,0-1.4-0.1-1.9-0.4c-0.6-0.3-1-0.7-1.3-1.2s-0.5-1.1-0.5-1.8s0.1-1.3,0.4-1.8
			s0.7-1,1.2-1.2c0.5-0.3,1.1-0.4,1.8-0.4s1.2,0.1,1.8,0.4c0.5,0.3,0.9,0.7,1.2,1.2s0.4,1.1,0.4,1.8
			C242.9,193,242.9,193.1,242.9,193.3z M238,191c-0.4,0.4-0.6,0.8-0.7,1.4h4.4c-0.1-0.6-0.3-1.1-0.7-1.4s-0.9-0.6-1.5-0.6
			S238.4,190.6,238,191z"/>
		<path class="st1" d="M250.4,190.1c0.5,0.5,0.8,1.2,0.8,2.2v4h-1.3v-3.8c0-0.7-0.2-1.2-0.5-1.5s-0.8-0.5-1.4-0.5
			c-0.7,0-1.2,0.2-1.6,0.6c-0.4,0.4-0.6,1-0.6,1.7v3.5h-1.2v-6.9h1.2v1c0.2-0.4,0.6-0.6,1-0.8s0.9-0.3,1.5-0.3
			C249.2,189.4,249.9,189.6,250.4,190.1z"/>
		<path class="st1" d="M257.3,195.9c-0.2,0.2-0.4,0.3-0.7,0.4c-0.3,0.1-0.5,0.1-0.8,0.1c-0.7,0-1.2-0.2-1.6-0.6
			c-0.4-0.4-0.6-0.9-0.6-1.6v-3.8h-1.2v-1h1.2v-1.5h1.2v1.5h2v1h-2v3.7c0,0.4,0.1,0.7,0.3,0.9s0.5,0.3,0.8,0.3c0.4,0,0.7-0.1,1-0.3
			L257.3,195.9z"/>
		<path class="st1" d="M263.5,190.1c0.5,0.5,0.8,1.2,0.8,2.1v4.1h-1.2v-0.9c-0.2,0.3-0.5,0.6-0.9,0.7c-0.4,0.2-0.8,0.3-1.4,0.3
			c-0.8,0-1.4-0.2-1.8-0.6c-0.5-0.4-0.7-0.9-0.7-1.5c0-0.6,0.2-1.1,0.7-1.5c0.4-0.4,1.1-0.6,2.1-0.6h2V192c0-0.5-0.2-0.9-0.5-1.2
			c-0.3-0.3-0.8-0.4-1.4-0.4c-0.4,0-0.8,0.1-1.2,0.2c-0.4,0.1-0.7,0.3-1,0.5l-0.5-0.9c0.4-0.3,0.8-0.5,1.3-0.7s1-0.2,1.6-0.2
			C262.3,189.4,263,189.6,263.5,190.1z M262.3,195.1c0.3-0.2,0.6-0.5,0.8-0.9v-1h-1.9c-1.1,0-1.6,0.4-1.6,1.1c0,0.3,0.1,0.6,0.4,0.8
			c0.3,0.2,0.6,0.3,1.1,0.3C261.5,195.4,261.9,195.3,262.3,195.1z"/>
		<path class="st1" d="M268.7,189.7c0.4-0.2,0.9-0.3,1.5-0.3v1.2c-0.1,0-0.2,0-0.3,0c-0.7,0-1.2,0.2-1.6,0.6c-0.4,0.4-0.6,1-0.6,1.7
			v3.4h-1.2v-6.9h1.2v1.2C268,190.2,268.3,189.9,268.7,189.7z"/>
		<path class="st1" d="M271.8,187.9c-0.2-0.2-0.2-0.3-0.2-0.6c0-0.2,0.1-0.4,0.2-0.6c0.2-0.2,0.4-0.2,0.6-0.2c0.2,0,0.4,0.1,0.6,0.2
			c0.2,0.2,0.2,0.3,0.2,0.6c0,0.2-0.1,0.4-0.2,0.6c-0.2,0.2-0.4,0.2-0.6,0.2C272.2,188.1,272,188,271.8,187.9z M271.8,189.4h1.2v6.9
			h-1.2V189.4z"/>
		<path class="st1" d="M276.5,195.9c-0.5-0.3-1-0.7-1.3-1.2s-0.5-1.1-0.5-1.8s0.2-1.3,0.5-1.8s0.7-0.9,1.3-1.2
			c0.5-0.3,1.2-0.4,1.8-0.4s1.3,0.1,1.8,0.4s1,0.7,1.3,1.2s0.5,1.1,0.5,1.8c0,0.7-0.2,1.3-0.5,1.8s-0.7,0.9-1.3,1.2
			c-0.5,0.3-1.1,0.5-1.8,0.5S277,196.2,276.5,195.9z M279.5,195c0.3-0.2,0.6-0.5,0.8-0.9c0.2-0.4,0.3-0.8,0.3-1.3s-0.1-0.9-0.3-1.3
			c-0.2-0.4-0.5-0.6-0.8-0.8s-0.7-0.3-1.2-0.3c-0.4,0-0.8,0.1-1.2,0.3c-0.3,0.2-0.6,0.5-0.8,0.8c-0.2,0.4-0.3,0.8-0.3,1.3
			s0.1,0.9,0.3,1.3c0.2,0.4,0.5,0.7,0.8,0.9s0.7,0.3,1.2,0.3C278.8,195.3,279.2,195.2,279.5,195z"/>
		<path class="st1" d="M284,196.1c-0.5-0.2-0.9-0.3-1.2-0.6l0.5-1c0.3,0.2,0.7,0.4,1.1,0.5c0.4,0.1,0.9,0.2,1.3,0.2
			c1.1,0,1.6-0.3,1.6-0.9c0-0.2-0.1-0.4-0.2-0.5c-0.1-0.1-0.3-0.2-0.5-0.3c-0.2-0.1-0.5-0.1-0.9-0.2c-0.6-0.1-1-0.2-1.4-0.3
			c-0.3-0.1-0.6-0.3-0.9-0.6c-0.3-0.3-0.4-0.6-0.4-1.1c0-0.6,0.3-1.1,0.8-1.5c0.5-0.4,1.2-0.6,2.1-0.6c0.5,0,0.9,0.1,1.4,0.2
			c0.5,0.1,0.8,0.3,1.1,0.5l-0.5,1c-0.6-0.4-1.2-0.5-2-0.5c-0.5,0-0.9,0.1-1.2,0.3c-0.3,0.2-0.4,0.4-0.4,0.7c0,0.2,0.1,0.4,0.2,0.5
			c0.1,0.1,0.3,0.2,0.6,0.3s0.5,0.1,1,0.2c0.6,0.1,1,0.2,1.3,0.3s0.6,0.3,0.9,0.6c0.2,0.3,0.4,0.6,0.4,1.1c0,0.6-0.3,1.1-0.8,1.5
			c-0.5,0.4-1.3,0.6-2.2,0.6C285,196.4,284.5,196.3,284,196.1z"/>
	</g>
	<rect x="-553.1" y="116.3" class="st2" width="1493" height="120"/>
	<g>
		<g>
			<g>
				<path class="st1" d="M163,169c-3.2-11.9-14-20.7-27-20.7c-2.5,0-4.9,0.3-7.2,0.9c-11,2.9-19.3,12.4-20.6,23.9H93.9
					c0.1-0.9,0.2-1.8,0.3-2.6c2.8-16.5,17.2-29.1,34.5-29.1C145.6,141.4,159.6,153.2,163,169z"/>
			</g>
			<g>
				<path class="st1" d="M163.4,181.9c-2.7,16.7-17.2,29.4-34.6,29.4c-17.9,0-32.7-13.5-34.7-30.8c0-0.4-0.1-0.8-0.1-1.2h14.3
					c1.3,11.5,9.6,20.9,20.5,23.8c2.3,0.6,4.7,0.9,7.2,0.9C149.5,204.1,160.7,194.6,163.4,181.9z"/>
			</g>
		</g>
		<g>
			<path class="st1" d="M126.4,172.5c0.2,0.5,0.7,0.8,1.2,0.8c0.3,0,0.6-0.1,0.8-0.3C127.7,173.4,126.8,173.2,126.4,172.5z"/>
			<path class="st1" d="M154,161.9c-0.1,0-0.2,0.1-0.2,0.2c0,0.2,0.3,0.2,0.3,0C154.1,162,154,161.9,154,161.9z M146.6,192.9
				c-0.4,0.5-0.7,1.1-0.7,1.8c0,0.3,0,0.6,0.1,0.8c0,0,0,0,0.1,0C145.8,194.5,146.1,193.6,146.6,192.9z M148.7,194.5
				c-0.1,0-0.2,0.1-0.2,0.2c0,0.2,0.3,0.2,0.3,0C148.9,194.6,148.8,194.5,148.7,194.5z M146.9,196.5c-0.1,0-0.2,0.1-0.2,0.1
				c0.5,0.5,1.2,0.9,2,0.9c0.5,0,0.9-0.1,1.3-0.3C149.1,197.6,147.9,197.5,146.9,196.5z M148.4,156.8c-0.1,0-0.2,0.1-0.2,0.2
				c0,0.2,0.3,0.2,0.3,0C148.6,156.9,148.5,156.8,148.4,156.8z M136.1,162.1c-0.1,0-0.2,0.1-0.2,0.2c0,0.2,0.3,0.2,0.3,0
				S136.2,162.1,136.1,162.1z M133.5,161.3c-0.1,0.3-0.2,0.7-0.2,1c0,0.4,0.1,0.8,0.3,1.2l0.1-0.1
				C133.4,162.8,133.3,162,133.5,161.3z M114.2,175.7L114.2,175.7c0.1,0,0.3,0,0.4-0.1C114.4,175.7,114.2,175.7,114.2,175.7z
				 M120.8,193.3L120.8,193.3c-0.2,0.3-0.3,0.7-0.3,1.1c0,1.4,1.1,2.7,2.5,2.8C121.4,196.9,120.1,195.2,120.8,193.3z M123.3,194.2
				c-0.1,0-0.2,0.1-0.2,0.2c0,0.2,0.3,0.2,0.3,0C123.4,194.3,123.4,194.2,123.3,194.2z M124.8,172L124.8,172c0,0.8,0.3,1.4,0.7,1.9
				c0-0.1,0-0.1,0.1-0.2C125.1,173.3,124.9,172.7,124.8,172z M127.6,171.9c-0.1,0-0.2,0.1-0.2,0.2c0,0.2,0.3,0.2,0.3,0
				C127.8,171.9,127.7,171.9,127.6,171.9z M126.4,172.5c0.2,0.5,0.7,0.8,1.2,0.8c0.3,0,0.6-0.1,0.8-0.3
				C127.7,173.4,126.8,173.2,126.4,172.5z M126.8,174.5c0,0.1-0.1,0.2-0.1,0.2c0.3,0.1,0.6,0.1,0.9,0.1c1.2,0,2.2-0.8,2.6-1.8
				C129.6,174.2,128.1,174.9,126.8,174.5z M121.9,159.2L121.9,159.2c0.4,0.4,0.9,0.6,1.5,0.6c0.5,0,0.9-0.1,1.3-0.3
				C123.8,159.9,122.7,159.8,121.9,159.2z M120.6,157.3c0,0.3,0.1,0.7,0.3,1l0,0C120.7,157.9,120.7,157.6,120.6,157.3z"/>
			<path class="st1" d="M158,163.9c0.7-1.5,0.6-3.2-0.5-4.6c-1-1.3-2.7-1.9-4.3-1.6c-0.1-0.1-0.2-0.2-0.3-0.3c0.2-1.6-0.5-3.3-2-4.2
				c-1.4-0.9-3.1-0.9-4.5-0.1c-6.4-2.9-14.1-2.9-20.5,0.1c-1.5-0.9-3.3-0.9-4.8,0.1s-2.2,2.7-1.9,4.4c-0.5,0.5-1.1,1.1-1.6,1.7
				c-0.6,0.6-0.7,1.5-0.4,2.2c-0.8-0.1-1.6,0.3-2,1c-1.2,1.9-2.1,3.9-2.7,6c-1.7,0.5-3,1.9-3.2,3.7c-0.3,1.9,0.6,3.5,2.1,4.4
				c0.2,6.6,3,12.8,7.7,17.3c-0.2,1.6,0.5,3.1,1.9,4.1s3.1,1.1,4.5,0.3c3.3,1.6,6.9,2.4,10.6,2.4c3.6,0,7.3-0.8,10.6-2.4
				c1.5,0.8,3.2,0.8,4.7-0.2c1.5-1.1,2.2-2.7,1.9-4.4c2.4-2.4,4.3-5.1,5.6-8.2l0.1-0.1C162,178.6,161.6,170.4,158,163.9z
				 M114.2,175.8L114.2,175.8c0-0.1,0.2-0.1,0.4-0.2C114.5,175.7,114.3,175.7,114.2,175.8z M154,161.9c0,0,0.1,0.1,0.1,0.2
				c0,0.2-0.3,0.2-0.3,0C153.8,162,153.9,161.9,154,161.9z M148.4,156.8c0.1,0,0.2,0.1,0.1,0.2c0,0.2-0.3,0.2-0.3,0
				C148.2,156.9,148.3,156.8,148.4,156.8z M147.8,161.3c0.7,0.1,1.3,0.1,2-0.1c-0.1,0.6-0.1,1.3,0,1.9c0.1,0.8,0.5,1.5,1.1,2.1
				c-0.8,2.5-1.9,5-3.2,7.3c-1.9-3.5-4.4-6.7-7.3-9.4c0-0.3,0.1-0.6,0.2-0.9c1.6-0.8,3.2-1.5,4.9-2.1
				C146.1,160.7,146.9,161.1,147.8,161.3z M148.8,194.7c0,0.2-0.3,0.2-0.3,0c0-0.1,0.1-0.2,0.2-0.2
				C148.8,194.5,148.9,194.6,148.8,194.7z M136.1,162.1c0.1,0,0.1,0,0.1,0.2s-0.3,0.2-0.3,0C135.9,162.2,136,162.1,136.1,162.1z
				 M142.5,156.4c-1.5,0.6-2.9,1.3-4.2,2c-0.7-0.4-1.4-0.6-2.2-0.6s-1.5,0.2-2.1,0.6c-1.4-0.8-2.8-1.4-4.2-2
				C133.9,155.1,138.4,155.1,142.5,156.4z M133.7,163.4L133.7,163.4c-0.3-0.3-0.4-0.7-0.4-1.1c0-0.3,0.1-0.7,0.2-1
				C133.3,162,133.4,162.8,133.7,163.4z M134.7,166.4c0.9,0.3,1.8,0.3,2.7,0c2,1.8,3.7,3.9,5.1,6.1c-3.4-1.4-7-2.4-10.7-2.9
				C132.7,168.4,133.7,167.4,134.7,166.4z M121.9,159.2c0.8,0.6,1.9,0.7,2.8,0.3c-0.4,0.2-0.8,0.3-1.3,0.3
				C122.8,159.8,122.2,159.6,121.9,159.2L121.9,159.2z M120.9,158.2L120.9,158.2c-0.2-0.3-0.3-0.6-0.3-1
				C120.7,157.6,120.7,157.9,120.9,158.2z M120.5,194.4c0-0.4,0.1-0.8,0.3-1.1l0,0c-0.7,1.9,0.6,3.6,2.2,3.9
				C121.6,197.1,120.5,195.8,120.5,194.4z M123.1,194.4c0-0.1,0.1-0.2,0.2-0.2c0.1,0,0.1,0.1,0.1,0.2
				C123.4,194.6,123.1,194.6,123.1,194.4z M120.7,189.2c-3.1-3.8-4.7-8.7-4.9-12.5c0.7-0.5,1.6-1.2,2-2.4c1.4-0.2,4-0.6,5.9-0.7
				c0.1,0.1,0.1,0.3,0.2,0.4C121.7,178.8,120.6,184,120.7,189.2z M124.1,169.1c-2.5,0-5,0.3-7.5,0.7c0.5-1.6,1.3-3.2,2.1-4.7
				c0.4-0.6,0.4-1.3,0.2-1.9c0.7,0.1,1.3-0.2,1.8-0.7c0.4-0.5,0.8-0.9,1.2-1.3c0.8,0.3,1.7,0.3,2.5,0.1s1.5-0.6,2.1-1.2
				c1.7,0.6,3.5,1.3,5.1,2.2c0,0.3,0,0.5,0.1,0.8c-1.5,1.3-2.8,2.7-4,4.3C126.3,167.3,125,168,124.1,169.1z M128.4,173
				c-0.2,0.2-0.5,0.3-0.8,0.3c-0.5,0-1-0.3-1.2-0.8C126.8,173.2,127.7,173.4,128.4,173z M127.4,172.1c0-0.1,0.1-0.2,0.2-0.2
				c0.1,0,0.2,0,0.1,0.2C127.7,172.3,127.4,172.3,127.4,172.1z M126.8,174.5c1.3,0.4,2.8-0.3,3.4-1.4c-0.4,1-1.4,1.8-2.6,1.8
				c-0.3,0-0.6,0-0.9-0.1C126.7,174.7,126.8,174.6,126.8,174.5z M124.8,172c0.1,0.7,0.3,1.3,0.8,1.8c0,0.1-0.1,0.1-0.1,0.2
				C125.1,173.5,124.8,172.8,124.8,172L124.8,172z M125.1,190.5c-0.3-4.9,0.6-9.8,2.5-14.4c0.8,0,1.5-0.2,2.2-0.6s1.2-1,1.6-1.6
				c4,0.7,7.9,1.8,11.6,3.6c0,0.5,0.1,1,0.3,1.4c-4.6,5.5-10.4,9.7-17,12.3C125.9,190.9,125.5,190.7,125.1,190.5z M144.5,194.6
				c-4.9,2.2-10.8,2.4-15.8,0.4c6.9-2.8,12.9-7.3,17.7-12.9c0.2,0.7,0.3,1.3,0.4,2c0.1,0.9,0.8,1.6,1.7,1.8
				c-0.9,0.4-1.4,1.2-1.4,2.1c0,0.9,0,1.8-0.1,2.7c-0.7,0.3-1.3,0.9-1.8,1.6C144.8,193,144.5,193.8,144.5,194.6z M146.1,195.5
				L146.1,195.5c-0.2-0.2-0.2-0.5-0.2-0.8c0-0.7,0.3-1.3,0.7-1.8C146.1,193.6,145.8,194.5,146.1,195.5z M148.7,197.5
				c-0.8,0-1.5-0.3-2-0.9c0.1,0,0.1-0.1,0.2-0.1c1,1,2.2,1.1,3.1,0.7C149.6,197.4,149.2,197.5,148.7,197.5z M151.5,189.2v-1.3
				c0-1-0.7-1.9-1.7-2.1c1-0.4,1.5-1.3,1.3-2.4c0-0.3,0-0.6-0.1-0.9c1.1,0.9,2.1,1.8,3.1,2.8C153.4,186.7,152.5,188,151.5,189.2z
				 M155.9,180.9c-1.3-1.2-2.7-2.3-4.1-3.3c0-0.9-0.2-1.7-0.6-2.3c1.4-2.5,2.6-5,3.5-7.7C156.6,171.7,157,176.5,155.9,180.9z"/>
		</g>
		<g>
			<path class="st1" d="M114.2,175.7L114.2,175.7c0.1,0,0.3,0,0.4-0.1C114.4,175.7,114.2,175.7,114.2,175.7z"/>
		</g>
		<g>
			<path class="st1" d="M120.6,157.3c0,0.3,0.1,0.7,0.3,1l0,0C120.7,157.9,120.7,157.6,120.6,157.3z M121.9,159.2L121.9,159.2
				c0.4,0.4,0.9,0.6,1.5,0.6c0.5,0,0.9-0.1,1.3-0.3C123.8,159.9,122.7,159.8,121.9,159.2z"/>
		</g>
		<g>
			<path class="st1" d="M136.2,162.3c0,0.2-0.3,0.2-0.3,0c0-0.1,0.1-0.2,0.2-0.2C136.2,162.1,136.2,162.1,136.2,162.3z"/>
			<path class="st1" d="M133.5,161.3c-0.1,0.3-0.2,0.7-0.2,1c0,0.4,0.1,0.8,0.3,1.2l0.1-0.1C133.4,162.8,133.3,162,133.5,161.3z"/>
		</g>
		<g>
			<path class="st1" d="M127.7,172.1c0,0.2-0.3,0.2-0.3,0c0-0.1,0.1-0.2,0.2-0.2C127.7,171.9,127.8,171.9,127.7,172.1z"/>
			<path class="st1" d="M128.4,173c-0.2,0.2-0.5,0.3-0.8,0.3c-0.5,0-1-0.3-1.2-0.8C126.8,173.2,127.7,173.4,128.4,173z"/>
			<path class="st1" d="M124.8,172L124.8,172c0,0.8,0.3,1.4,0.7,1.9c0-0.1,0-0.1,0.1-0.2C125.1,173.3,124.9,172.7,124.8,172z
				 M126.4,172.5c0.2,0.5,0.7,0.8,1.2,0.8c0.3,0,0.6-0.1,0.8-0.3C127.7,173.4,126.8,173.2,126.4,172.5z M126.8,174.5
				c0,0.1-0.1,0.2-0.1,0.2c0.3,0.1,0.6,0.1,0.9,0.1c1.2,0,2.2-0.8,2.6-1.8C129.6,174.2,128.1,174.9,126.8,174.5z"/>
		</g>
		<g>
			<path class="st1" d="M148.5,157c0,0.2-0.3,0.2-0.3,0c0-0.1,0.1-0.2,0.2-0.2S148.6,156.9,148.5,157z"/>
		</g>
		<g>
			<path class="st1" d="M154.1,162.1c0,0.2-0.3,0.2-0.3,0c0-0.1,0.1-0.2,0.2-0.2C154,161.9,154.1,162,154.1,162.1z"/>
		</g>
		<g>
			<path class="st1" d="M148.8,194.7c0,0.2-0.3,0.2-0.3,0c0-0.1,0.1-0.2,0.2-0.2C148.8,194.5,148.9,194.6,148.8,194.7z"/>
			<path class="st1" d="M146.6,192.9c-0.4,0.5-0.7,1.1-0.7,1.8c0,0.3,0,0.6,0.1,0.8c0,0,0,0,0.1,0
				C145.8,194.5,146.1,193.6,146.6,192.9z M146.9,196.5c-0.1,0-0.2,0.1-0.2,0.1c0.5,0.5,1.2,0.9,2,0.9c0.5,0,0.9-0.1,1.3-0.3
				C149.1,197.6,147.9,197.5,146.9,196.5z"/>
		</g>
		<g>
			<path class="st1" d="M123.4,194.4c0,0.2-0.3,0.2-0.3,0c0-0.1,0.1-0.2,0.2-0.2C123.4,194.2,123.4,194.3,123.4,194.4z"/>
			<path class="st1" d="M120.8,193.3L120.8,193.3c-0.2,0.3-0.3,0.7-0.3,1.1c0,1.4,1.1,2.7,2.5,2.8
				C121.4,196.9,120.1,195.2,120.8,193.3z"/>
		</g>
	</g>
</g>
<rect x="-1065.7" y="208.7" class="st2" width="1493" height="120"/>
<g>
	<g>
		<g>
			<path class="st1" d="M119.7,280.5L114,286c-3.9-4.1-8.3-6.2-13.2-6.2c-4.1,0-7.6,1.4-10.4,4.2c-2.8,2.8-4.2,6.3-4.2,10.4
				c0,2.9,0.6,5.4,1.9,7.7c1.3,2.2,3,4,5.3,5.3s4.8,1.9,7.6,1.9c2.4,0,4.6-0.4,6.5-1.3c2-0.9,4.1-2.5,6.5-4.9l5.6,5.8
				c-3.2,3.1-6.2,5.3-9,6.5c-2.8,1.2-6.1,1.8-9.7,1.8c-6.7,0-12.2-2.1-16.5-6.4c-4.3-4.3-6.4-9.7-6.4-16.4c0-4.3,1-8.1,2.9-11.5
				c1.9-3.3,4.7-6,8.4-8.1c3.6-2,7.5-3.1,11.7-3.1c3.6,0,7,0.8,10.3,2.3C114.4,275.6,117.3,277.7,119.7,280.5z"/>
			<path class="st1" d="M124.1,272.9H148v8.1h-7.9v35.1h-8.3V281h-7.7V272.9z"/>
			<path class="st1" d="M155.5,272.9h8.2v43.2h-8.2V272.9z"/>
			<path class="st1" d="M182.9,272.9h8.3l16.6,43.2h-8.5l-3.4-8.9h-17.6l-3.5,8.9h-8.5L182.9,272.9z M187.1,284.3l-5.8,14.8h11.5
				L187.1,284.3z"/>
		</g>
	</g>
	<g>
		<path class="st1" d="M95.8,331.2c-0.3-0.2-0.6-0.5-0.8-1c-0.2-0.4-0.3-0.9-0.3-1.5c0-0.6,0.1-1.1,0.3-1.5c0.2-0.4,0.4-0.7,0.8-1
			c0.3-0.2,0.7-0.3,1.1-0.3s0.8,0.1,1.1,0.3c0.3,0.2,0.6,0.5,0.8,1c0.2,0.4,0.3,0.9,0.3,1.5c0,0.6-0.1,1.1-0.3,1.5
			c-0.2,0.4-0.4,0.7-0.8,1c-0.3,0.2-0.7,0.3-1.1,0.3S96.2,331.4,95.8,331.2z M97.9,330.8c0.3-0.2,0.5-0.5,0.6-0.8
			c0.1-0.4,0.2-0.8,0.2-1.3s-0.1-0.9-0.2-1.3c-0.1-0.4-0.3-0.6-0.6-0.8c-0.3-0.2-0.6-0.3-0.9-0.3s-0.6,0.1-0.9,0.3s-0.5,0.5-0.6,0.8
			c-0.1,0.4-0.2,0.8-0.2,1.3s0.1,0.9,0.2,1.3c0.1,0.4,0.3,0.6,0.6,0.8c0.3,0.2,0.6,0.3,0.9,0.3S97.6,331,97.9,330.8z"/>
		<path class="st1" d="M102.4,326v5.5H102v-5.1h-1.3V326H102.4z"/>
		<path class="st1" d="M105.9,331.2c-0.3-0.2-0.6-0.5-0.8-1c-0.2-0.4-0.3-0.9-0.3-1.5c0-0.6,0.1-1.1,0.3-1.5c0.2-0.4,0.4-0.7,0.8-1
			c0.3-0.2,0.7-0.3,1.1-0.3s0.8,0.1,1.1,0.3c0.3,0.2,0.6,0.5,0.8,1c0.2,0.4,0.3,0.9,0.3,1.5c0,0.6-0.1,1.1-0.3,1.5
			c-0.2,0.4-0.4,0.7-0.8,1c-0.3,0.2-0.7,0.3-1.1,0.3C106.6,331.5,106.2,331.4,105.9,331.2z M107.9,330.8c0.3-0.2,0.5-0.5,0.6-0.8
			c0.1-0.4,0.2-0.8,0.2-1.3s-0.1-0.9-0.2-1.3c-0.1-0.4-0.3-0.6-0.6-0.8c-0.3-0.2-0.6-0.3-0.9-0.3s-0.6,0.1-0.9,0.3s-0.5,0.5-0.6,0.8
			c-0.1,0.4-0.2,0.8-0.2,1.3s0.1,0.9,0.2,1.3c0.1,0.4,0.3,0.6,0.6,0.8c0.3,0.2,0.6,0.3,0.9,0.3C107.4,331.1,107.7,331,107.9,330.8z"
			/>
		<path class="st1" d="M112.1,331.2c-0.3-0.2-0.6-0.5-0.8-1c-0.2-0.4-0.3-0.9-0.3-1.5c0-0.6,0.1-1.1,0.3-1.5c0.2-0.4,0.4-0.7,0.8-1
			c0.3-0.2,0.7-0.3,1.1-0.3s0.8,0.1,1.1,0.3c0.3,0.2,0.6,0.5,0.8,1c0.2,0.4,0.3,0.9,0.3,1.5c0,0.6-0.1,1.1-0.3,1.5
			c-0.2,0.4-0.4,0.7-0.8,1c-0.3,0.2-0.7,0.3-1.1,0.3S112.5,331.4,112.1,331.2z M114.2,330.8c0.3-0.2,0.5-0.5,0.6-0.8
			c0.1-0.4,0.2-0.8,0.2-1.3s-0.1-0.9-0.2-1.3c-0.1-0.4-0.3-0.6-0.6-0.8c-0.3-0.2-0.6-0.3-0.9-0.3s-0.6,0.1-0.9,0.3s-0.5,0.5-0.6,0.8
			c-0.1,0.4-0.2,0.8-0.2,1.3s0.1,0.9,0.2,1.3c0.1,0.4,0.3,0.6,0.6,0.8c0.3,0.2,0.6,0.3,0.9,0.3S113.9,331,114.2,330.8z"/>
		<path class="st1" d="M118.4,331.2c-0.3-0.2-0.6-0.5-0.8-1c-0.2-0.4-0.3-0.9-0.3-1.5c0-0.6,0.1-1.1,0.3-1.5c0.2-0.4,0.4-0.7,0.8-1
			c0.3-0.2,0.7-0.3,1.1-0.3s0.8,0.1,1.1,0.3c0.3,0.2,0.6,0.5,0.8,1c0.2,0.4,0.3,0.9,0.3,1.5c0,0.6-0.1,1.1-0.3,1.5
			c-0.2,0.4-0.4,0.7-0.8,1c-0.3,0.2-0.7,0.3-1.1,0.3C119.1,331.5,118.7,331.4,118.4,331.2z M120.4,330.8c0.3-0.2,0.5-0.5,0.6-0.8
			c0.1-0.4,0.2-0.8,0.2-1.3s-0.1-0.9-0.2-1.3c-0.1-0.4-0.3-0.6-0.6-0.8c-0.3-0.2-0.6-0.3-0.9-0.3s-0.6,0.1-0.9,0.3s-0.5,0.5-0.6,0.8
			c-0.1,0.4-0.2,0.8-0.2,1.3s0.1,0.9,0.2,1.3c0.1,0.4,0.3,0.6,0.6,0.8c0.3,0.2,0.6,0.3,0.9,0.3S120.1,331,120.4,330.8z"/>
		<path class="st1" d="M124.6,331.2c-0.3-0.2-0.6-0.5-0.8-1c-0.2-0.4-0.3-0.9-0.3-1.5c0-0.6,0.1-1.1,0.3-1.5c0.2-0.4,0.4-0.7,0.8-1
			c0.3-0.2,0.7-0.3,1.1-0.3s0.8,0.1,1.1,0.3c0.3,0.2,0.6,0.5,0.8,1c0.2,0.4,0.3,0.9,0.3,1.5c0,0.6-0.1,1.1-0.3,1.5
			c-0.2,0.4-0.4,0.7-0.8,1c-0.3,0.2-0.7,0.3-1.1,0.3S124.9,331.4,124.6,331.2z M126.6,330.8c0.3-0.2,0.5-0.5,0.6-0.8
			c0.1-0.4,0.2-0.8,0.2-1.3s-0.1-0.9-0.2-1.3c-0.1-0.4-0.3-0.6-0.6-0.8c-0.3-0.2-0.6-0.3-0.9-0.3s-0.6,0.1-0.9,0.3s-0.5,0.5-0.6,0.8
			c-0.1,0.4-0.2,0.8-0.2,1.3s0.1,0.9,0.2,1.3c0.1,0.4,0.3,0.6,0.6,0.8c0.3,0.2,0.6,0.3,0.9,0.3C126.1,331.1,126.4,331,126.6,330.8z"
			/>
		<path class="st1" d="M131.2,326v5.5h-0.4v-5.1h-1.3V326H131.2z"/>
		<path class="st1" d="M135,326v5.5h-0.4v-5.1h-1.3V326H135z"/>
		<path class="st1" d="M138.5,331.2c-0.3-0.2-0.6-0.5-0.8-1c-0.2-0.4-0.3-0.9-0.3-1.5c0-0.6,0.1-1.1,0.3-1.5c0.2-0.4,0.4-0.7,0.8-1
			c0.3-0.2,0.7-0.3,1.1-0.3s0.8,0.1,1.1,0.3c0.3,0.2,0.6,0.5,0.8,1c0.2,0.4,0.3,0.9,0.3,1.5c0,0.6-0.1,1.1-0.3,1.5
			c-0.2,0.4-0.4,0.7-0.8,1c-0.3,0.2-0.7,0.3-1.1,0.3C139.2,331.5,138.9,331.4,138.5,331.2z M140.6,330.8c0.3-0.2,0.5-0.5,0.6-0.8
			c0.1-0.4,0.2-0.8,0.2-1.3s-0.1-0.9-0.2-1.3c-0.1-0.4-0.3-0.6-0.6-0.8c-0.3-0.2-0.6-0.3-0.9-0.3s-0.6,0.1-0.9,0.3s-0.5,0.5-0.6,0.8
			c-0.1,0.4-0.2,0.8-0.2,1.3s0.1,0.9,0.2,1.3c0.1,0.4,0.3,0.6,0.6,0.8c0.3,0.2,0.6,0.3,0.9,0.3C140,331.1,140.3,331,140.6,330.8z"/>
		<path class="st1" d="M145.1,326v5.5h-0.4v-5.1h-1.3V326H145.1z"/>
		<path class="st1" d="M148.6,331.2c-0.3-0.2-0.6-0.5-0.8-1c-0.2-0.4-0.3-0.9-0.3-1.5c0-0.6,0.1-1.1,0.3-1.5c0.2-0.4,0.4-0.7,0.8-1
			c0.3-0.2,0.7-0.3,1.1-0.3s0.8,0.1,1.1,0.3c0.3,0.2,0.6,0.5,0.8,1c0.2,0.4,0.3,0.9,0.3,1.5c0,0.6-0.1,1.1-0.3,1.5
			c-0.2,0.4-0.4,0.7-0.8,1c-0.3,0.2-0.7,0.3-1.1,0.3S148.9,331.4,148.6,331.2z M150.6,330.8c0.3-0.2,0.5-0.5,0.6-0.8
			c0.1-0.4,0.2-0.8,0.2-1.3s-0.1-0.9-0.2-1.3c-0.1-0.4-0.3-0.6-0.6-0.8c-0.3-0.2-0.6-0.3-0.9-0.3s-0.6,0.1-0.9,0.3s-0.5,0.5-0.6,0.8
			c-0.1,0.4-0.2,0.8-0.2,1.3s0.1,0.9,0.2,1.3c0.1,0.4,0.3,0.6,0.6,0.8c0.3,0.2,0.6,0.3,0.9,0.3C150.1,331.1,150.4,331,150.6,330.8z"
			/>
		<path class="st1" d="M155.2,326v5.5h-0.4v-5.1h-1.3V326H155.2z"/>
		<path class="st1" d="M158.7,331.2c-0.3-0.2-0.6-0.5-0.8-1c-0.2-0.4-0.3-0.9-0.3-1.5c0-0.6,0.1-1.1,0.3-1.5c0.2-0.4,0.4-0.7,0.8-1
			c0.3-0.2,0.7-0.3,1.1-0.3s0.8,0.1,1.1,0.3c0.3,0.2,0.6,0.5,0.8,1c0.2,0.4,0.3,0.9,0.3,1.5c0,0.6-0.1,1.1-0.3,1.5
			c-0.2,0.4-0.4,0.7-0.8,1c-0.3,0.2-0.7,0.3-1.1,0.3S159,331.4,158.7,331.2z M160.7,330.8c0.3-0.2,0.5-0.5,0.6-0.8
			c0.1-0.4,0.2-0.8,0.2-1.3s-0.1-0.9-0.2-1.3c-0.1-0.4-0.3-0.6-0.6-0.8c-0.3-0.2-0.6-0.3-0.9-0.3s-0.6,0.1-0.9,0.3s-0.5,0.5-0.6,0.8
			c-0.1,0.4-0.2,0.8-0.2,1.3s0.1,0.9,0.2,1.3c0.1,0.4,0.3,0.6,0.6,0.8c0.3,0.2,0.6,0.3,0.9,0.3S160.4,331,160.7,330.8z"/>
		<path class="st1" d="M165.3,326v5.5h-0.4v-5.1h-1.3V326H165.3z"/>
		<path class="st1" d="M168.8,331.2c-0.3-0.2-0.6-0.5-0.8-1c-0.2-0.4-0.3-0.9-0.3-1.5c0-0.6,0.1-1.1,0.3-1.5c0.2-0.4,0.4-0.7,0.8-1
			c0.3-0.2,0.7-0.3,1.1-0.3s0.8,0.1,1.1,0.3c0.3,0.2,0.6,0.5,0.8,1c0.2,0.4,0.3,0.9,0.3,1.5c0,0.6-0.1,1.1-0.3,1.5
			c-0.2,0.4-0.4,0.7-0.8,1c-0.3,0.2-0.7,0.3-1.1,0.3S169.1,331.4,168.8,331.2z M170.8,330.8c0.3-0.2,0.5-0.5,0.6-0.8
			c0.1-0.4,0.2-0.8,0.2-1.3s-0.1-0.9-0.2-1.3c-0.1-0.4-0.3-0.6-0.6-0.8c-0.3-0.2-0.6-0.3-0.9-0.3s-0.6,0.1-0.9,0.3s-0.5,0.5-0.6,0.8
			c-0.1,0.4-0.2,0.8-0.2,1.3s0.1,0.9,0.2,1.3c0.1,0.4,0.3,0.6,0.6,0.8c0.3,0.2,0.6,0.3,0.9,0.3S170.5,331,170.8,330.8z"/>
		<path class="st1" d="M175,331.2c-0.3-0.2-0.6-0.5-0.8-1c-0.2-0.4-0.3-0.9-0.3-1.5c0-0.6,0.1-1.1,0.3-1.5c0.2-0.4,0.4-0.7,0.8-1
			c0.3-0.2,0.7-0.3,1.1-0.3s0.8,0.1,1.1,0.3c0.3,0.2,0.6,0.5,0.8,1c0.2,0.4,0.3,0.9,0.3,1.5c0,0.6-0.1,1.1-0.3,1.5
			c-0.2,0.4-0.4,0.7-0.8,1c-0.3,0.2-0.7,0.3-1.1,0.3C175.7,331.5,175.3,331.4,175,331.2z M177,330.8c0.3-0.2,0.5-0.5,0.6-0.8
			c0.1-0.4,0.2-0.8,0.2-1.3s-0.1-0.9-0.2-1.3c-0.1-0.4-0.3-0.6-0.6-0.8c-0.3-0.2-0.6-0.3-0.9-0.3s-0.6,0.1-0.9,0.3s-0.5,0.5-0.6,0.8
			c-0.1,0.4-0.2,0.8-0.2,1.3s0.1,0.9,0.2,1.3c0.1,0.4,0.3,0.6,0.6,0.8c0.3,0.2,0.6,0.3,0.9,0.3C176.5,331.1,176.8,331,177,330.8z"/>
		<path class="st1" d="M181.2,331.2c-0.3-0.2-0.6-0.5-0.8-1c-0.2-0.4-0.3-0.9-0.3-1.5c0-0.6,0.1-1.1,0.3-1.5c0.2-0.4,0.4-0.7,0.8-1
			c0.3-0.2,0.7-0.3,1.1-0.3s0.8,0.1,1.1,0.3c0.3,0.2,0.6,0.5,0.8,1c0.2,0.4,0.3,0.9,0.3,1.5c0,0.6-0.1,1.1-0.3,1.5
			c-0.2,0.4-0.4,0.7-0.8,1c-0.3,0.2-0.7,0.3-1.1,0.3S181.6,331.4,181.2,331.2z M183.2,330.8c0.3-0.2,0.5-0.5,0.6-0.8
			c0.1-0.4,0.2-0.8,0.2-1.3s-0.1-0.9-0.2-1.3c-0.1-0.4-0.3-0.6-0.6-0.8c-0.3-0.2-0.6-0.3-0.9-0.3s-0.6,0.1-0.9,0.3s-0.5,0.5-0.6,0.8
			c-0.1,0.4-0.2,0.8-0.2,1.3s0.1,0.9,0.2,1.3c0.1,0.4,0.3,0.6,0.6,0.8c0.3,0.2,0.6,0.3,0.9,0.3C182.7,331.1,183,331,183.2,330.8z"/>
		<path class="st1" d="M187.8,326v5.5h-0.4v-5.1h-1.3V326H187.8z"/>
		<path class="st1" d="M191.3,331.2c-0.3-0.2-0.6-0.5-0.8-1c-0.2-0.4-0.3-0.9-0.3-1.5c0-0.6,0.1-1.1,0.3-1.5c0.2-0.4,0.4-0.7,0.8-1
			c0.3-0.2,0.7-0.3,1.1-0.3s0.8,0.1,1.1,0.3c0.3,0.2,0.6,0.5,0.8,1c0.2,0.4,0.3,0.9,0.3,1.5c0,0.6-0.1,1.1-0.3,1.5
			c-0.2,0.4-0.4,0.7-0.8,1c-0.3,0.2-0.7,0.3-1.1,0.3S191.6,331.4,191.3,331.2z M193.3,330.8c0.3-0.2,0.5-0.5,0.6-0.8
			c0.1-0.4,0.2-0.8,0.2-1.3s-0.1-0.9-0.2-1.3c-0.1-0.4-0.3-0.6-0.6-0.8c-0.3-0.2-0.6-0.3-0.9-0.3s-0.6,0.1-0.9,0.3s-0.5,0.5-0.6,0.8
			c-0.1,0.4-0.2,0.8-0.2,1.3s0.1,0.9,0.2,1.3c0.1,0.4,0.3,0.6,0.6,0.8c0.3,0.2,0.6,0.3,0.9,0.3C192.8,331.1,193.1,331,193.3,330.8z"
			/>
		<path class="st1" d="M197.5,331.2c-0.3-0.2-0.6-0.5-0.8-1c-0.2-0.4-0.3-0.9-0.3-1.5c0-0.6,0.1-1.1,0.3-1.5c0.2-0.4,0.4-0.7,0.8-1
			c0.3-0.2,0.7-0.3,1.1-0.3s0.8,0.1,1.1,0.3c0.3,0.2,0.6,0.5,0.8,1c0.2,0.4,0.3,0.9,0.3,1.5c0,0.6-0.1,1.1-0.3,1.5
			c-0.2,0.4-0.4,0.7-0.8,1c-0.3,0.2-0.7,0.3-1.1,0.3C198.2,331.5,197.9,331.4,197.5,331.2z M199.6,330.8c0.3-0.2,0.5-0.5,0.6-0.8
			c0.1-0.4,0.2-0.8,0.2-1.3s-0.1-0.9-0.2-1.3c-0.1-0.4-0.3-0.6-0.6-0.8c-0.3-0.2-0.6-0.3-0.9-0.3s-0.6,0.1-0.9,0.3s-0.5,0.5-0.6,0.8
			c-0.1,0.4-0.2,0.8-0.2,1.3s0.1,0.9,0.2,1.3c0.1,0.4,0.3,0.6,0.6,0.8c0.3,0.2,0.6,0.3,0.9,0.3S199.3,331,199.6,330.8z"/>
		<path class="st1" d="M204.1,326v5.5h-0.4v-5.1h-1.3V326H204.1z"/>
		<path class="st1" d="M207.6,331.2c-0.3-0.2-0.6-0.5-0.8-1c-0.2-0.4-0.3-0.9-0.3-1.5c0-0.6,0.1-1.1,0.3-1.5c0.2-0.4,0.4-0.7,0.8-1
			c0.3-0.2,0.7-0.3,1.1-0.3s0.8,0.1,1.1,0.3c0.3,0.2,0.6,0.5,0.8,1c0.2,0.4,0.3,0.9,0.3,1.5c0,0.6-0.1,1.1-0.3,1.5
			c-0.2,0.4-0.4,0.7-0.8,1c-0.3,0.2-0.7,0.3-1.1,0.3S207.9,331.4,207.6,331.2z M209.6,330.8c0.3-0.2,0.5-0.5,0.6-0.8
			c0.1-0.4,0.2-0.8,0.2-1.3s-0.1-0.9-0.2-1.3c-0.1-0.4-0.3-0.6-0.6-0.8c-0.3-0.2-0.6-0.3-0.9-0.3s-0.6,0.1-0.9,0.3s-0.5,0.5-0.6,0.8
			c-0.1,0.4-0.2,0.8-0.2,1.3s0.1,0.9,0.2,1.3c0.1,0.4,0.3,0.6,0.6,0.8c0.3,0.2,0.6,0.3,0.9,0.3S209.4,331,209.6,330.8z"/>
		<path class="st1" d="M213.8,331.2c-0.3-0.2-0.6-0.5-0.8-1c-0.2-0.4-0.3-0.9-0.3-1.5c0-0.6,0.1-1.1,0.3-1.5c0.2-0.4,0.4-0.7,0.8-1
			c0.3-0.2,0.7-0.3,1.1-0.3s0.8,0.1,1.1,0.3c0.3,0.2,0.6,0.5,0.8,1c0.2,0.4,0.3,0.9,0.3,1.5c0,0.6-0.1,1.1-0.3,1.5
			c-0.2,0.4-0.4,0.7-0.8,1c-0.3,0.2-0.7,0.3-1.1,0.3S214.2,331.4,213.8,331.2z M215.9,330.8c0.3-0.2,0.5-0.5,0.6-0.8
			c0.1-0.4,0.2-0.8,0.2-1.3s-0.1-0.9-0.2-1.3c-0.1-0.4-0.3-0.6-0.6-0.8c-0.3-0.2-0.6-0.3-0.9-0.3s-0.6,0.1-0.9,0.3s-0.5,0.5-0.6,0.8
			c-0.1,0.4-0.2,0.8-0.2,1.3s0.1,0.9,0.2,1.3c0.1,0.4,0.3,0.6,0.6,0.8c0.3,0.2,0.6,0.3,0.9,0.3S215.6,331,215.9,330.8z"/>
		<path class="st1" d="M220.4,326v5.5H220v-5.1h-1.3V326H220.4z"/>
		<path class="st1" d="M223.9,331.2c-0.3-0.2-0.6-0.5-0.8-1c-0.2-0.4-0.3-0.9-0.3-1.5c0-0.6,0.1-1.1,0.3-1.5c0.2-0.4,0.4-0.7,0.8-1
			c0.3-0.2,0.7-0.3,1.1-0.3s0.8,0.1,1.1,0.3c0.3,0.2,0.6,0.5,0.8,1c0.2,0.4,0.3,0.9,0.3,1.5c0,0.6-0.1,1.1-0.3,1.5
			c-0.2,0.4-0.4,0.7-0.8,1c-0.3,0.2-0.7,0.3-1.1,0.3C224.6,331.5,224.2,331.4,223.9,331.2z M225.9,330.8c0.3-0.2,0.5-0.5,0.6-0.8
			c0.1-0.4,0.2-0.8,0.2-1.3s-0.1-0.9-0.2-1.3c-0.1-0.4-0.3-0.6-0.6-0.8c-0.3-0.2-0.6-0.3-0.9-0.3s-0.6,0.1-0.9,0.3s-0.5,0.5-0.6,0.8
			c-0.1,0.4-0.2,0.8-0.2,1.3s0.1,0.9,0.2,1.3c0.1,0.4,0.3,0.6,0.6,0.8c0.3,0.2,0.6,0.3,0.9,0.3C225.4,331.1,225.7,331,225.9,330.8z"
			/>
		<path class="st1" d="M230.5,326v5.5h-0.4v-5.1h-1.3V326H230.5z"/>
		<path class="st1" d="M234,331.2c-0.3-0.2-0.6-0.5-0.8-1c-0.2-0.4-0.3-0.9-0.3-1.5c0-0.6,0.1-1.1,0.3-1.5c0.2-0.4,0.4-0.7,0.8-1
			c0.3-0.2,0.7-0.3,1.1-0.3s0.8,0.1,1.1,0.3c0.3,0.2,0.6,0.5,0.8,1c0.2,0.4,0.3,0.9,0.3,1.5c0,0.6-0.1,1.1-0.3,1.5
			c-0.2,0.4-0.4,0.7-0.8,1c-0.3,0.2-0.7,0.3-1.1,0.3C234.7,331.5,234.3,331.4,234,331.2z M236,330.8c0.3-0.2,0.5-0.5,0.6-0.8
			c0.1-0.4,0.2-0.8,0.2-1.3s-0.1-0.9-0.2-1.3c-0.1-0.4-0.3-0.6-0.6-0.8c-0.3-0.2-0.6-0.3-0.9-0.3s-0.6,0.1-0.9,0.3s-0.5,0.5-0.6,0.8
			c-0.1,0.4-0.2,0.8-0.2,1.3s0.1,0.9,0.2,1.3c0.1,0.4,0.3,0.6,0.6,0.8c0.3,0.2,0.6,0.3,0.9,0.3S235.8,331,236,330.8z"/>
		<path class="st1" d="M240.2,331.2c-0.3-0.2-0.6-0.5-0.8-1c-0.2-0.4-0.3-0.9-0.3-1.5c0-0.6,0.1-1.1,0.3-1.5c0.2-0.4,0.4-0.7,0.8-1
			c0.3-0.2,0.7-0.3,1.1-0.3s0.8,0.1,1.1,0.3c0.3,0.2,0.6,0.5,0.8,1c0.2,0.4,0.3,0.9,0.3,1.5c0,0.6-0.1,1.1-0.3,1.5
			c-0.2,0.4-0.4,0.7-0.8,1c-0.3,0.2-0.7,0.3-1.1,0.3S240.6,331.4,240.2,331.2z M242.2,330.8c0.3-0.2,0.5-0.5,0.6-0.8
			c0.1-0.4,0.2-0.8,0.2-1.3s-0.1-0.9-0.2-1.3c-0.1-0.4-0.3-0.6-0.6-0.8c-0.3-0.2-0.6-0.3-0.9-0.3s-0.6,0.1-0.9,0.3s-0.5,0.5-0.6,0.8
			c-0.1,0.4-0.2,0.8-0.2,1.3s0.1,0.9,0.2,1.3c0.1,0.4,0.3,0.6,0.6,0.8c0.3,0.2,0.6,0.3,0.9,0.3C241.7,331.1,242,331,242.2,330.8z"/>
		<path class="st1" d="M246.5,331.2c-0.3-0.2-0.6-0.5-0.8-1c-0.2-0.4-0.3-0.9-0.3-1.5c0-0.6,0.1-1.1,0.3-1.5c0.2-0.4,0.4-0.7,0.8-1
			c0.3-0.2,0.7-0.3,1.1-0.3s0.8,0.1,1.1,0.3c0.3,0.2,0.6,0.5,0.8,1c0.2,0.4,0.3,0.9,0.3,1.5c0,0.6-0.1,1.1-0.3,1.5
			c-0.2,0.4-0.4,0.7-0.8,1c-0.3,0.2-0.7,0.3-1.1,0.3C247.2,331.5,246.8,331.4,246.5,331.2z M248.5,330.8c0.3-0.2,0.5-0.5,0.6-0.8
			c0.1-0.4,0.2-0.8,0.2-1.3s-0.1-0.9-0.2-1.3c-0.1-0.4-0.3-0.6-0.6-0.8c-0.3-0.2-0.6-0.3-0.9-0.3s-0.6,0.1-0.9,0.3s-0.5,0.5-0.6,0.8
			c-0.1,0.4-0.2,0.8-0.2,1.3s0.1,0.9,0.2,1.3c0.1,0.4,0.3,0.6,0.6,0.8c0.3,0.2,0.6,0.3,0.9,0.3S248.2,331,248.5,330.8z"/>
		<path class="st1" d="M252.7,331.2c-0.3-0.2-0.6-0.5-0.8-1c-0.2-0.4-0.3-0.9-0.3-1.5c0-0.6,0.1-1.1,0.3-1.5c0.2-0.4,0.4-0.7,0.8-1
			c0.3-0.2,0.7-0.3,1.1-0.3s0.8,0.1,1.1,0.3c0.3,0.2,0.6,0.5,0.8,1c0.2,0.4,0.3,0.9,0.3,1.5c0,0.6-0.1,1.1-0.3,1.5
			c-0.2,0.4-0.4,0.7-0.8,1c-0.3,0.2-0.7,0.3-1.1,0.3S253,331.4,252.7,331.2z M254.7,330.8c0.3-0.2,0.5-0.5,0.6-0.8
			c0.1-0.4,0.2-0.8,0.2-1.3s-0.1-0.9-0.2-1.3c-0.1-0.4-0.3-0.6-0.6-0.8c-0.3-0.2-0.6-0.3-0.9-0.3s-0.6,0.1-0.9,0.3s-0.5,0.5-0.6,0.8
			c-0.1,0.4-0.2,0.8-0.2,1.3s0.1,0.9,0.2,1.3c0.1,0.4,0.3,0.6,0.6,0.8c0.3,0.2,0.6,0.3,0.9,0.3S254.4,331,254.7,330.8z"/>
		<path class="st1" d="M258.9,331.2c-0.3-0.2-0.6-0.5-0.8-1c-0.2-0.4-0.3-0.9-0.3-1.5c0-0.6,0.1-1.1,0.3-1.5c0.2-0.4,0.4-0.7,0.8-1
			c0.3-0.2,0.7-0.3,1.1-0.3s0.8,0.1,1.1,0.3c0.3,0.2,0.6,0.5,0.8,1c0.2,0.4,0.3,0.9,0.3,1.5c0,0.6-0.1,1.1-0.3,1.5
			c-0.2,0.4-0.4,0.7-0.8,1c-0.3,0.2-0.7,0.3-1.1,0.3C259.6,331.5,259.2,331.4,258.9,331.2z M260.9,330.8c0.3-0.2,0.5-0.5,0.6-0.8
			c0.1-0.4,0.2-0.8,0.2-1.3s-0.1-0.9-0.2-1.3c-0.1-0.4-0.3-0.6-0.6-0.8c-0.3-0.2-0.6-0.3-0.9-0.3s-0.6,0.1-0.9,0.3s-0.5,0.5-0.6,0.8
			c-0.1,0.4-0.2,0.8-0.2,1.3s0.1,0.9,0.2,1.3c0.1,0.4,0.3,0.6,0.6,0.8c0.3,0.2,0.6,0.3,0.9,0.3C260.4,331.1,260.7,331,260.9,330.8z"
			/>
		<path class="st1" d="M265.5,326v5.5h-0.4v-5.1h-1.3V326H265.5z"/>
	</g>
	<g>
		<path class="st1" d="M272.1,329.9c-0.9,0-1.1,0-2-0.1l-2.1-0.1V327h1.8c7.1,0.9,15.9-2.5,21.2-5.6c6.6-3.9,11.7-10,13.8-16.6
			c1.8-5.8,1.7-12.6-0.3-19.9c-2.1-7.4-5.6-13.4-10.3-17.3c-8.9-7.6-21.7-7.9-30.5-7.5h-0.3l-0.1-2.8l1.4-0.1
			c18.2-0.8,26.6,4.3,31.2,8.2c5.1,4.3,9,10.8,11.2,18.7c2.2,7.7,2.2,15.2,0.2,21.4c-2.3,7.3-7.8,13.9-15,18.1
			C287.3,326.7,279.3,329.9,272.1,329.9z"/>
	</g>
	<path class="st1" d="M246.5,260.6v-3.7h-3V253h-8.3v11.5h8.3v-3.9H246.5z M238.9,262.9h-2.8V262h2.8V262.9z M238.9,261.1h-2.8v-0.9
		h2.8V261.1z M238.9,259.2h-2.8v-0.9h2.8V259.2z M238.9,257.4h-2.8v-0.9h2.8V257.4z M238.9,255.5h-2.8v-0.9h2.8V255.5z"/>
	<polygon class="st1" points="264.1,253 264.1,264.5 261.8,264.5 261.8,262.2 259.9,262.2 259.9,265 258.1,265 258.1,262.2 
		255.8,262.2 255.8,266.1 254,266.1 254,262.2 251.7,262.2 251.7,266.3 244.8,266.3 244.8,261.1 246.9,261.1 246.9,256.5 
		244.8,256.5 244.8,251.2 251.7,251.2 251.7,255.3 254,255.3 254,251.4 255.8,251.4 255.8,255.3 258.1,255.3 258.1,252.6 
		259.9,252.6 259.9,255.3 261.8,255.3 261.8,253 	"/>
	<rect x="236.1" y="260.2" class="st2" width="2.8" height="0.9"/>
	<rect x="236.1" y="258.3" class="st2" width="2.8" height="0.9"/>
	<rect x="236.1" y="254.6" class="st2" width="2.8" height="0.9"/>
	<rect x="236.1" y="256.5" class="st2" width="2.8" height="0.9"/>
	<rect x="236.1" y="262" class="st2" width="2.8" height="0.9"/>
	<path class="st1" d="M86.8,321.5h-2.7c-3.2,0-5.8,2.6-5.8,5.8v2.3c0,3.2,2.6,5.8,5.8,5.8h2.7c3.2,0,5.7-2.6,5.8-5.8v-2.3
		C92.6,324.1,90,321.5,86.8,321.5z M90.4,331.7h-2.1l0.1,1.6h-6v-1.6h-2.1v-8.3h10.1V331.7z"/>
	<polygon class="st1" points="82.9,332.9 87.9,332.9 87.9,331.3 90,331.3 90,324 89.4,324 89.4,325.7 88.5,325.7 88.5,324 87.6,324 
		87.6,325.7 86.7,325.7 86.7,324 85.9,324 85.9,325.7 85,325.7 85,324 84.2,324 84.2,325.7 83.3,325.7 83.3,324 82.4,324 
		82.4,325.7 81.5,325.7 81.5,324 80.8,324 80.8,331.3 82.9,331.3 	"/>
	<g>
		<path class="st1" d="M216.1,277.9c-0.6-0.3-1.1-0.8-1.4-1.4s-0.5-1.2-0.5-2c0-0.7,0.2-1.4,0.5-2c0.3-0.6,0.8-1,1.4-1.4
			c0.6-0.3,1.3-0.5,2-0.5c0.6,0,1.2,0.1,1.7,0.3c0.5,0.2,0.9,0.5,1.3,0.9l-0.9,0.8c-0.5-0.6-1.2-0.9-2-0.9c-0.5,0-1,0.1-1.4,0.3
			c-0.4,0.2-0.7,0.5-0.9,0.9c-0.2,0.4-0.3,0.8-0.3,1.3s0.1,0.9,0.3,1.3c0.2,0.4,0.5,0.7,0.9,0.9c0.4,0.2,0.9,0.3,1.4,0.3
			c0.8,0,1.4-0.3,2-0.9l0.9,0.8c-0.3,0.4-0.8,0.7-1.3,0.9c-0.5,0.2-1.1,0.3-1.7,0.3C217.3,278.4,216.7,278.3,216.1,277.9z"/>
		<path class="st1" d="M222.8,278c-0.5-0.2-0.8-0.6-1.1-1c-0.3-0.4-0.4-0.9-0.4-1.5s0.1-1.1,0.4-1.5s0.6-0.8,1.1-1
			c0.5-0.2,1-0.4,1.5-0.4c0.6,0,1.1,0.1,1.6,0.4c0.5,0.2,0.8,0.6,1.1,1c0.3,0.4,0.4,0.9,0.4,1.5s-0.1,1.1-0.4,1.5s-0.6,0.8-1.1,1
			c-0.5,0.2-1,0.4-1.6,0.4C223.8,278.4,223.2,278.3,222.8,278z M225.5,276.8c0.3-0.3,0.5-0.7,0.5-1.3c0-0.5-0.2-1-0.5-1.3
			c-0.3-0.3-0.7-0.5-1.2-0.5s-0.9,0.2-1.2,0.5c-0.3,0.3-0.5,0.7-0.5,1.3c0,0.5,0.2,1,0.5,1.3c0.3,0.3,0.7,0.5,1.2,0.5
			S225.2,277.1,225.5,276.8z"/>
		<path class="st1" d="M229.4,278c-0.5-0.2-0.8-0.6-1.1-1c-0.3-0.4-0.4-0.9-0.4-1.5s0.1-1.1,0.4-1.5s0.6-0.8,1.1-1
			c0.5-0.2,1-0.4,1.5-0.4c0.6,0,1.1,0.1,1.6,0.4c0.5,0.2,0.8,0.6,1.1,1c0.3,0.4,0.4,0.9,0.4,1.5s-0.1,1.1-0.4,1.5s-0.6,0.8-1.1,1
			c-0.5,0.2-1,0.4-1.6,0.4S229.8,278.3,229.4,278z M232.1,276.8c0.3-0.3,0.5-0.7,0.5-1.3c0-0.5-0.2-1-0.5-1.3
			c-0.3-0.3-0.7-0.5-1.2-0.5s-0.9,0.2-1.2,0.5c-0.3,0.3-0.5,0.7-0.5,1.3c0,0.5,0.2,1,0.5,1.3c0.3,0.3,0.7,0.5,1.2,0.5
			C231.4,277.3,231.8,277.1,232.1,276.8z"/>
		<path class="st1" d="M238.2,272.6v1.3c-0.1,0-0.2,0-0.3,0c-0.5,0-0.9,0.1-1.2,0.4c-0.3,0.3-0.4,0.7-0.4,1.3v2.7H235v-5.6h1.3v0.8
			C236.6,272.9,237.3,272.6,238.2,272.6z"/>
		<path class="st1" d="M244.6,270.5v7.8h-1.3v-0.7c-0.2,0.3-0.5,0.5-0.8,0.6c-0.3,0.1-0.7,0.2-1.1,0.2c-0.5,0-1-0.1-1.5-0.4
			c-0.4-0.2-0.8-0.6-1-1c-0.2-0.4-0.4-0.9-0.4-1.5c0-0.6,0.1-1.1,0.4-1.5c0.2-0.4,0.6-0.8,1-1c0.4-0.2,0.9-0.4,1.5-0.4
			c0.4,0,0.7,0.1,1,0.2s0.6,0.3,0.8,0.6v-2.9C243.2,270.5,244.6,270.5,244.6,270.5z M242.5,277.1c0.3-0.1,0.5-0.3,0.6-0.6
			c0.1-0.3,0.2-0.6,0.2-0.9c0-0.4-0.1-0.7-0.2-0.9c-0.1-0.3-0.3-0.5-0.6-0.6c-0.3-0.1-0.5-0.2-0.9-0.2c-0.3,0-0.6,0.1-0.9,0.2
			c-0.3,0.1-0.5,0.3-0.6,0.6c-0.1,0.3-0.2,0.6-0.2,0.9c0,0.4,0.1,0.7,0.2,0.9c0.1,0.3,0.3,0.5,0.6,0.6c0.3,0.1,0.5,0.2,0.9,0.2
			S242.2,277.2,242.5,277.1z"/>
		<path class="st1" d="M246.2,271.5c-0.2-0.2-0.2-0.3-0.2-0.6s0.1-0.4,0.2-0.6c0.2-0.2,0.4-0.2,0.6-0.2s0.4,0.1,0.6,0.2
			s0.2,0.3,0.2,0.5c0,0.2-0.1,0.4-0.2,0.6c-0.2,0.2-0.4,0.2-0.6,0.2C246.6,271.8,246.4,271.7,246.2,271.5z M246.1,272.7h1.3v5.6
			h-1.3V272.7z"/>
		<path class="st1" d="M253.9,273.2c0.4,0.4,0.6,1,0.6,1.8v3.3h-1.3v-3c0-0.5-0.1-0.9-0.3-1.1c-0.2-0.2-0.6-0.4-1-0.4
			c-0.5,0-0.9,0.1-1.2,0.4c-0.3,0.3-0.4,0.7-0.4,1.3v2.8H249v-5.6h1.3v0.7c0.2-0.3,0.5-0.5,0.8-0.6c0.3-0.1,0.7-0.2,1.1-0.2
			C252.9,272.6,253.4,272.8,253.9,273.2z"/>
		<path class="st1" d="M260,273.2c0.4,0.4,0.7,1,0.7,1.8v3.3h-1.2v-0.7c-0.2,0.2-0.4,0.4-0.7,0.6c-0.3,0.1-0.7,0.2-1.1,0.2
			s-0.8-0.1-1.1-0.2c-0.3-0.1-0.6-0.3-0.7-0.6c-0.2-0.3-0.3-0.5-0.3-0.9c0-0.5,0.2-0.9,0.6-1.2c0.4-0.3,1-0.5,1.8-0.5h1.5v-0.1
			c0-0.4-0.1-0.7-0.4-0.9c-0.2-0.2-0.6-0.3-1-0.3c-0.3,0-0.6,0-0.9,0.1s-0.6,0.2-0.8,0.4l-0.5-1c0.3-0.2,0.7-0.4,1.1-0.5
			c0.4-0.1,0.9-0.2,1.3-0.2C259,272.6,259.6,272.8,260,273.2z M258.8,277.2c0.3-0.2,0.4-0.4,0.5-0.6v-0.7h-1.4
			c-0.8,0-1.1,0.2-1.1,0.7c0,0.2,0.1,0.4,0.3,0.6c0.2,0.1,0.5,0.2,0.8,0.2C258.3,277.4,258.6,277.4,258.8,277.2z"/>
		<path class="st1" d="M263.2,278c-0.5-0.2-0.8-0.6-1.1-1c-0.3-0.4-0.4-0.9-0.4-1.5s0.1-1.1,0.4-1.5s0.6-0.8,1.1-1
			c0.5-0.2,1-0.4,1.6-0.4s1,0.1,1.5,0.3c0.4,0.2,0.7,0.5,0.9,1l-1,0.6c-0.2-0.3-0.4-0.5-0.6-0.6s-0.5-0.2-0.8-0.2
			c-0.5,0-0.9,0.2-1.2,0.5c-0.3,0.3-0.5,0.7-0.5,1.3c0,0.5,0.2,1,0.5,1.3s0.7,0.5,1.2,0.5c0.3,0,0.6-0.1,0.8-0.2
			c0.2-0.1,0.4-0.3,0.6-0.6l1,0.6c-0.2,0.4-0.5,0.7-1,1c-0.4,0.2-0.9,0.3-1.5,0.3C264.2,278.4,263.7,278.3,263.2,278z"/>
		<path class="st1" d="M268.2,271.5c-0.2-0.2-0.2-0.3-0.2-0.6s0.1-0.4,0.2-0.6c0.2-0.2,0.4-0.2,0.6-0.2s0.4,0.1,0.6,0.2
			s0.2,0.3,0.2,0.5c0,0.2-0.1,0.4-0.2,0.6c-0.2,0.2-0.4,0.2-0.6,0.2C268.6,271.8,268.4,271.7,268.2,271.5z M268.2,272.7h1.3v5.6
			h-1.3V272.7z"/>
		<path class="st1" d="M272,278c-0.5-0.2-0.8-0.6-1.1-1c-0.3-0.4-0.4-0.9-0.4-1.5s0.1-1.1,0.4-1.5s0.6-0.8,1.1-1
			c0.5-0.2,1-0.4,1.5-0.4c0.6,0,1.1,0.1,1.6,0.4c0.5,0.2,0.8,0.6,1.1,1c0.3,0.4,0.4,0.9,0.4,1.5s-0.1,1.1-0.4,1.5s-0.6,0.8-1.1,1
			c-0.5,0.2-1,0.4-1.6,0.4C273,278.4,272.4,278.3,272,278z M274.7,276.8c0.3-0.3,0.5-0.7,0.5-1.3c0-0.5-0.2-1-0.5-1.3
			c-0.3-0.3-0.7-0.5-1.2-0.5s-0.9,0.2-1.2,0.5c-0.3,0.3-0.5,0.7-0.5,1.3c0,0.5,0.2,1,0.5,1.3c0.3,0.3,0.7,0.5,1.2,0.5
			C274,277.3,274.4,277.1,274.7,276.8z M274.1,270.5h1.6l-1.8,1.4h-1.1L274.1,270.5z"/>
		<path class="st1" d="M282.5,273.2c0.4,0.4,0.6,1,0.6,1.8v3.3h-1.3v-3c0-0.5-0.1-0.9-0.3-1.1c-0.2-0.2-0.6-0.4-1-0.4
			c-0.5,0-0.9,0.1-1.2,0.4c-0.3,0.3-0.4,0.7-0.4,1.3v2.8h-1.3v-5.6h1.3v0.7c0.2-0.3,0.5-0.5,0.8-0.6c0.3-0.1,0.7-0.2,1.1-0.2
			C281.5,272.6,282.1,272.8,282.5,273.2z"/>
		<path class="st1" d="M220.1,283.2v7.8h-1.3v-0.7c-0.2,0.3-0.5,0.5-0.8,0.6s-0.7,0.2-1.1,0.2c-0.5,0-1-0.1-1.5-0.4
			c-0.4-0.2-0.8-0.6-1-1c-0.2-0.4-0.4-0.9-0.4-1.5c0-0.6,0.1-1.1,0.4-1.5c0.2-0.4,0.6-0.8,1-1c0.4-0.2,0.9-0.4,1.5-0.4
			c0.4,0,0.7,0.1,1,0.2c0.3,0.1,0.6,0.3,0.8,0.6v-2.9C218.7,283.2,220.1,283.2,220.1,283.2z M217.9,289.7c0.3-0.1,0.5-0.3,0.6-0.6
			c0.1-0.3,0.2-0.6,0.2-0.9c0-0.4-0.1-0.7-0.2-0.9c-0.1-0.3-0.3-0.5-0.6-0.6c-0.3-0.1-0.5-0.2-0.9-0.2c-0.3,0-0.6,0.1-0.9,0.2
			c-0.3,0.1-0.5,0.3-0.6,0.6c-0.1,0.3-0.2,0.6-0.2,0.9c0,0.4,0.1,0.7,0.2,0.9c0.1,0.3,0.3,0.5,0.6,0.6c0.3,0.1,0.5,0.2,0.9,0.2
			S217.7,289.9,217.9,289.7z"/>
		<path class="st1" d="M226.9,288.6h-4.4c0.1,0.4,0.3,0.7,0.6,1c0.3,0.2,0.7,0.4,1.2,0.4c0.6,0,1.1-0.2,1.5-0.6l0.7,0.8
			c-0.3,0.3-0.6,0.5-1,0.7s-0.8,0.2-1.3,0.2c-0.6,0-1.2-0.1-1.6-0.4c-0.5-0.2-0.8-0.6-1.1-1c-0.3-0.4-0.4-0.9-0.4-1.5
			c0-0.5,0.1-1,0.4-1.5s0.6-0.8,1-1c0.4-0.2,0.9-0.4,1.5-0.4c0.5,0,1,0.1,1.5,0.4c0.4,0.2,0.8,0.6,1,1c0.2,0.4,0.4,0.9,0.4,1.5
			C226.9,288.3,226.9,288.4,226.9,288.6z M223,286.7c-0.3,0.2-0.5,0.6-0.5,1h3.2c-0.1-0.4-0.2-0.7-0.5-1c-0.3-0.3-0.6-0.4-1.1-0.4
			C223.6,286.3,223.2,286.5,223,286.7z"/>
		<path class="st1" d="M232.3,284.8h-2.4v-1.2h6.3v1.2h-2.4v6.2h-1.4L232.3,284.8L232.3,284.8z"/>
		<path class="st1" d="M241.5,288.6h-4.4c0.1,0.4,0.3,0.7,0.6,1c0.3,0.3,0.7,0.4,1.2,0.4c0.6,0,1.1-0.2,1.5-0.6l0.7,0.8
			c-0.3,0.3-0.6,0.5-1,0.7s-0.8,0.2-1.3,0.2c-0.6,0-1.2-0.1-1.6-0.4c-0.5-0.2-0.8-0.6-1.1-1c-0.3-0.4-0.4-0.9-0.4-1.5
			c0-0.5,0.1-1,0.4-1.5s0.6-0.8,1-1c0.4-0.2,0.9-0.4,1.5-0.4c0.5,0,1,0.1,1.5,0.4c0.4,0.2,0.8,0.6,1,1c0.2,0.4,0.4,0.9,0.4,1.5
			C241.5,288.3,241.5,288.4,241.5,288.6z M237.6,286.7c-0.3,0.2-0.5,0.6-0.5,1h3.2c-0.1-0.4-0.2-0.7-0.5-1c-0.3-0.3-0.6-0.4-1.1-0.4
			S237.9,286.5,237.6,286.7z"/>
		<path class="st1" d="M243.6,290.7c-0.5-0.2-0.8-0.6-1.1-1c-0.3-0.4-0.4-0.9-0.4-1.5c0-0.6,0.1-1.1,0.4-1.5c0.3-0.4,0.6-0.8,1.1-1
			c0.5-0.2,1-0.4,1.6-0.4s1,0.1,1.5,0.3c0.4,0.2,0.7,0.5,0.9,1l-1,0.6c-0.2-0.3-0.4-0.5-0.6-0.6c-0.2-0.1-0.5-0.2-0.8-0.2
			c-0.5,0-0.9,0.2-1.2,0.5c-0.3,0.3-0.5,0.7-0.5,1.3c0,0.5,0.2,1,0.5,1.3c0.3,0.3,0.7,0.5,1.2,0.5c0.3,0,0.6-0.1,0.8-0.2
			c0.2-0.1,0.4-0.3,0.6-0.6l1,0.6c-0.2,0.4-0.5,0.7-1,1c-0.4,0.2-0.9,0.3-1.5,0.3C244.5,291.1,244,290.9,243.6,290.7z"/>
		<path class="st1" d="M253.4,285.9c0.4,0.4,0.6,1,0.6,1.8v3.2h-1.3v-3.1c0-0.5-0.1-0.9-0.3-1.1c-0.2-0.2-0.6-0.4-1-0.4
			c-0.5,0-0.9,0.1-1.2,0.4c-0.3,0.3-0.4,0.7-0.4,1.3v2.8h-1.3v-5.5h1.3v0.7c0.2-0.3,0.5-0.5,0.8-0.6s0.7-0.2,1.1-0.2
			C252.4,285.3,252.9,285.5,253.4,285.9z"/>
		<path class="st1" d="M256.5,290.7c-0.5-0.2-0.8-0.6-1.1-1c-0.3-0.4-0.4-0.9-0.4-1.5c0-0.6,0.1-1.1,0.4-1.5c0.3-0.4,0.6-0.8,1.1-1
			c0.5-0.2,1-0.4,1.5-0.4c0.6,0,1.1,0.1,1.6,0.4c0.5,0.2,0.8,0.6,1.1,1c0.3,0.4,0.4,0.9,0.4,1.5c0,0.6-0.1,1.1-0.4,1.5
			c-0.3,0.4-0.6,0.8-1.1,1c-0.5,0.2-1,0.4-1.6,0.4C257.5,291.1,257,290.9,256.5,290.7z M259.3,289.4c0.3-0.3,0.5-0.7,0.5-1.3
			c0-0.5-0.2-1-0.5-1.3c-0.3-0.3-0.7-0.5-1.2-0.5s-0.9,0.2-1.2,0.5c-0.3,0.3-0.5,0.7-0.5,1.3c0,0.5,0.2,1,0.5,1.3s0.7,0.5,1.2,0.5
			S259,289.8,259.3,289.4z"/>
		<path class="st1" d="M262.1,283.2h1.3v7.8h-1.3V283.2z"/>
		<path class="st1" d="M266,290.7c-0.5-0.2-0.8-0.6-1.1-1c-0.3-0.4-0.4-0.9-0.4-1.5c0-0.6,0.1-1.1,0.4-1.5c0.3-0.4,0.6-0.8,1.1-1
			c0.5-0.2,1-0.4,1.5-0.4c0.6,0,1.1,0.1,1.6,0.4c0.5,0.2,0.8,0.6,1.1,1c0.3,0.4,0.4,0.9,0.4,1.5c0,0.6-0.1,1.1-0.4,1.5
			c-0.3,0.4-0.6,0.8-1.1,1c-0.5,0.2-1,0.4-1.6,0.4S266.4,290.9,266,290.7z M268.7,289.4c0.3-0.3,0.5-0.7,0.5-1.3
			c0-0.5-0.2-1-0.5-1.3c-0.3-0.3-0.7-0.5-1.2-0.5s-0.9,0.2-1.2,0.5c-0.3,0.3-0.5,0.7-0.5,1.3c0,0.5,0.2,1,0.5,1.3s0.7,0.5,1.2,0.5
			C268,289.9,268.4,289.8,268.7,289.4z"/>
		<path class="st1" d="M277.2,285.3v4.8c0,2-1,3-3,3c-0.5,0-1.1-0.1-1.5-0.2c-0.5-0.1-0.9-0.3-1.2-0.6l0.6-1
			c0.2,0.2,0.6,0.4,0.9,0.5c0.4,0.1,0.8,0.2,1.1,0.2c0.6,0,1.1-0.1,1.4-0.4c0.3-0.3,0.4-0.7,0.4-1.3V290c-0.2,0.2-0.5,0.4-0.8,0.6
			c-0.3,0.1-0.7,0.2-1.1,0.2c-0.5,0-1-0.1-1.5-0.3c-0.4-0.2-0.8-0.6-1-1s-0.4-0.9-0.4-1.4s0.1-1,0.4-1.4c0.2-0.4,0.6-0.7,1-1
			c0.4-0.2,0.9-0.3,1.5-0.3c0.4,0,0.8,0.1,1.1,0.2c0.3,0.1,0.6,0.3,0.8,0.6v-0.9H277.2z M275.4,289.2c0.3-0.3,0.5-0.7,0.5-1.2
			s-0.2-0.9-0.5-1.2c-0.3-0.3-0.7-0.4-1.2-0.4s-0.9,0.1-1.2,0.4c-0.3,0.3-0.5,0.7-0.5,1.2s0.2,0.9,0.5,1.2c0.3,0.3,0.7,0.4,1.2,0.4
			C274.6,289.6,275.1,289.5,275.4,289.2z"/>
		<path class="st1" d="M279.9,283.1h1.6l-1.8,1.4h-1.1L279.9,283.1z M278.7,285.3h1.3v5.6h-1.3V285.3z"/>
		<path class="st1" d="M285.6,285.9c0.4,0.4,0.7,1,0.7,1.8v3.3h-1.2v-0.7c-0.2,0.2-0.4,0.4-0.7,0.6c-0.3,0.1-0.7,0.2-1.1,0.2
			s-0.8-0.1-1.1-0.2c-0.3-0.1-0.6-0.3-0.7-0.6c-0.2-0.3-0.3-0.5-0.3-0.9c0-0.5,0.2-0.9,0.6-1.2c0.4-0.3,1-0.5,1.8-0.5h1.5v-0.1
			c0-0.4-0.1-0.7-0.4-0.9c-0.2-0.2-0.6-0.3-1-0.3c-0.3,0-0.6,0-0.9,0.1c-0.3,0.1-0.6,0.2-0.8,0.4l-0.5-1c0.3-0.2,0.7-0.4,1.1-0.5
			s0.9-0.2,1.3-0.2C284.5,285.3,285.1,285.5,285.6,285.9z M284.4,289.9c0.3-0.2,0.4-0.4,0.5-0.6v-0.7h-1.4c-0.8,0-1.1,0.2-1.1,0.7
			c0,0.2,0.1,0.4,0.3,0.6c0.2,0.1,0.5,0.2,0.8,0.2C283.8,290.1,284.1,290,284.4,289.9z"/>
		<path class="st1" d="M288.1,290.9c-0.4-0.1-0.8-0.3-1-0.5l0.5-1c0.3,0.2,0.6,0.3,0.9,0.4c0.4,0.1,0.7,0.2,1.1,0.2
			c0.8,0,1.2-0.2,1.2-0.6c0-0.2-0.1-0.3-0.3-0.4c-0.2-0.1-0.5-0.2-1-0.2c-0.5-0.1-0.8-0.2-1.1-0.2c-0.3-0.1-0.5-0.3-0.8-0.5
			c-0.2-0.2-0.3-0.5-0.3-1s0.2-1,0.7-1.3c0.5-0.3,1-0.5,1.8-0.5c0.4,0,0.8,0,1.2,0.1c0.4,0.1,0.7,0.2,0.9,0.4l-0.5,1
			c-0.5-0.3-1-0.4-1.6-0.4c-0.4,0-0.7,0.1-0.9,0.2c-0.2,0.1-0.3,0.3-0.3,0.5c0,0.2,0.1,0.4,0.3,0.4c0.2,0.1,0.5,0.2,1,0.2
			c0.4,0.1,0.8,0.2,1.1,0.2c0.3,0.1,0.5,0.2,0.7,0.5c0.2,0.2,0.3,0.5,0.3,0.9c0,0.5-0.2,0.9-0.7,1.3c-0.5,0.3-1.1,0.5-1.9,0.5
			C289,291.1,288.5,291,288.1,290.9z"/>
		<path class="st1" d="M220.1,295.8v7.8h-1.3v-0.7c-0.2,0.3-0.5,0.5-0.8,0.6s-0.7,0.2-1.1,0.2c-0.5,0-1-0.1-1.5-0.4
			c-0.4-0.2-0.8-0.6-1-1s-0.4-0.9-0.4-1.5s0.1-1.1,0.4-1.5c0.2-0.4,0.6-0.8,1-1c0.4-0.2,0.9-0.4,1.5-0.4c0.4,0,0.7,0.1,1,0.2
			c0.3,0.1,0.6,0.3,0.8,0.6v-2.9C218.7,295.8,220.1,295.8,220.1,295.8z M217.9,302.4c0.3-0.1,0.5-0.3,0.6-0.6
			c0.1-0.3,0.2-0.6,0.2-0.9c0-0.3-0.1-0.7-0.2-0.9c-0.1-0.3-0.3-0.5-0.6-0.6c-0.3-0.1-0.5-0.2-0.9-0.2c-0.3,0-0.6,0.1-0.9,0.2
			s-0.5,0.4-0.6,0.6c-0.1,0.3-0.2,0.6-0.2,0.9c0,0.3,0.1,0.7,0.2,0.9c0.1,0.3,0.3,0.5,0.6,0.6c0.3,0.1,0.5,0.2,0.9,0.2
			C217.4,302.6,217.7,302.5,217.9,302.4z"/>
		<path class="st1" d="M226.9,301.3h-4.4c0.1,0.4,0.3,0.7,0.6,1c0.3,0.2,0.7,0.4,1.2,0.4c0.6,0,1.1-0.2,1.5-0.6l0.7,0.8
			c-0.3,0.3-0.6,0.5-1,0.7c-0.4,0.2-0.8,0.2-1.3,0.2c-0.6,0-1.2-0.1-1.6-0.4c-0.5-0.2-0.8-0.6-1.1-1c-0.3-0.4-0.4-0.9-0.4-1.5
			c0-0.5,0.1-1,0.4-1.5c0.2-0.4,0.6-0.8,1-1s0.9-0.4,1.5-0.4c0.5,0,1,0.1,1.5,0.4c0.4,0.2,0.8,0.6,1,1s0.4,0.9,0.4,1.5
			C226.9,301,226.9,301.1,226.9,301.3z M223,299.4c-0.3,0.2-0.5,0.6-0.5,1h3.2c-0.1-0.4-0.2-0.7-0.5-1s-0.6-0.4-1.1-0.4
			C223.6,299,223.2,299.1,223,299.4z"/>
		<path class="st1" d="M230.8,296.3h1.4v7.4h-1.4V296.3z"/>
		<path class="st1" d="M238.7,298.6c0.4,0.4,0.6,1,0.6,1.8v3.2H238v-3.1c0-0.5-0.1-0.9-0.3-1.1c-0.2-0.2-0.6-0.4-1-0.4
			c-0.5,0-0.9,0.1-1.2,0.4c-0.3,0.3-0.4,0.7-0.4,1.3v2.8h-1.3v-5.6h1.3v0.7c0.2-0.3,0.5-0.5,0.8-0.6s0.7-0.2,1.1-0.2
			C237.7,297.9,238.3,298.2,238.7,298.6z"/>
		<path class="st1" d="M242.3,297.7v0.3h1.6v1.1h-1.5v4.5h-1.3v-4.5h-0.9V298h0.9v-0.4c0-0.6,0.2-1.1,0.5-1.4
			c0.4-0.3,0.8-0.5,1.5-0.5c0.5,0,0.9,0.1,1.2,0.3l-0.4,1c-0.2-0.2-0.5-0.2-0.7-0.2C242.5,296.8,242.3,297.1,242.3,297.7z"/>
		<path class="st1" d="M245.4,303.4c-0.5-0.2-0.8-0.6-1.1-1c-0.3-0.4-0.4-0.9-0.4-1.5s0.1-1.1,0.4-1.5s0.6-0.8,1.1-1s1-0.4,1.5-0.4
			c0.6,0,1.1,0.1,1.6,0.4c0.5,0.2,0.8,0.6,1.1,1c0.3,0.4,0.4,0.9,0.4,1.5s-0.1,1.1-0.4,1.5s-0.6,0.8-1.1,1c-0.5,0.2-1,0.4-1.6,0.4
			C246.4,303.7,245.9,303.6,245.4,303.4z M248.1,302.1c0.3-0.3,0.5-0.7,0.5-1.3c0-0.5-0.2-1-0.5-1.3c-0.3-0.3-0.7-0.5-1.2-0.5
			s-0.9,0.2-1.2,0.5c-0.3,0.3-0.5,0.7-0.5,1.3c0,0.5,0.2,1,0.5,1.3c0.3,0.3,0.7,0.5,1.2,0.5C247.4,302.6,247.8,302.4,248.1,302.1z"
			/>
		<path class="st1" d="M254.3,297.9v1.3c-0.1,0-0.2,0-0.3,0c-0.5,0-0.9,0.1-1.2,0.4c-0.3,0.3-0.4,0.7-0.4,1.3v2.7h-1.3V298h1.3v0.8
			C252.6,298.2,253.3,297.9,254.3,297.9z"/>
		<path class="st1" d="M264,298.6c0.4,0.4,0.6,1,0.6,1.9v3.2h-1.3v-3.1c0-0.5-0.1-0.9-0.3-1.1c-0.2-0.2-0.5-0.4-0.9-0.4
			s-0.8,0.1-1.1,0.4c-0.3,0.3-0.4,0.7-0.4,1.3v2.9h-1.3v-3.1c0-0.5-0.1-0.9-0.3-1.1c-0.2-0.2-0.5-0.4-0.9-0.4
			c-0.5,0-0.8,0.1-1.1,0.4c-0.3,0.3-0.4,0.7-0.4,1.3v2.9h-1.3v-5.6h1.3v0.7c0.2-0.3,0.5-0.4,0.8-0.6c0.3-0.1,0.7-0.2,1.1-0.2
			s0.8,0.1,1.1,0.2c0.3,0.2,0.6,0.4,0.8,0.7c0.2-0.3,0.5-0.5,0.9-0.7c0.4-0.2,0.8-0.2,1.2-0.2C263,297.9,263.6,298.2,264,298.6z"/>
		<path class="st1" d="M270.1,298.5c0.4,0.4,0.7,1,0.7,1.8v3.3h-1.2v-0.7c-0.2,0.2-0.4,0.4-0.7,0.6c-0.3,0.1-0.7,0.2-1.1,0.2
			s-0.8-0.1-1.1-0.2c-0.3-0.1-0.6-0.3-0.7-0.6s-0.3-0.5-0.3-0.9c0-0.5,0.2-0.9,0.6-1.2c0.4-0.3,1-0.5,1.8-0.5h1.5l0,0
			c0-0.4-0.1-0.7-0.4-0.9c-0.2-0.2-0.6-0.3-1-0.3c-0.3,0-0.6,0-0.9,0.1c-0.3,0.1-0.6,0.2-0.8,0.4l-0.5-1c0.3-0.2,0.7-0.4,1.1-0.5
			c0.4-0.1,0.9-0.2,1.3-0.2C269,297.9,269.7,298.1,270.1,298.5z M268.9,302.5c0.3-0.2,0.4-0.4,0.5-0.6v-0.7H268
			c-0.8,0-1.1,0.2-1.1,0.7c0,0.2,0.1,0.4,0.3,0.6c0.2,0.1,0.5,0.2,0.8,0.2C268.4,302.8,268.7,302.7,268.9,302.5z"/>
		<path class="st1" d="M273.3,303.4c-0.5-0.2-0.8-0.6-1.1-1c-0.3-0.4-0.4-0.9-0.4-1.5s0.1-1.1,0.4-1.5s0.6-0.8,1.1-1s1-0.4,1.6-0.4
			s1,0.1,1.5,0.3c0.4,0.2,0.7,0.5,0.9,1l-1,0.6c-0.2-0.3-0.4-0.5-0.6-0.6s-0.5-0.2-0.8-0.2c-0.5,0-0.9,0.2-1.2,0.5
			c-0.3,0.3-0.5,0.7-0.5,1.3c0,0.5,0.2,1,0.5,1.3c0.3,0.3,0.7,0.5,1.2,0.5c0.3,0,0.6-0.1,0.8-0.2c0.2-0.1,0.4-0.3,0.6-0.6l1,0.6
			c-0.2,0.4-0.5,0.7-1,1c-0.4,0.2-0.9,0.3-1.5,0.3C274.3,303.7,273.8,303.6,273.3,303.4z"/>
		<path class="st1" d="M278.3,296.9c-0.2-0.2-0.2-0.3-0.2-0.6c0-0.2,0.1-0.4,0.2-0.6c0.2-0.2,0.4-0.2,0.6-0.2s0.4,0.1,0.6,0.2
			c0.2,0.1,0.2,0.3,0.2,0.5c0,0.2-0.1,0.4-0.2,0.6c-0.2,0.2-0.4,0.2-0.6,0.2C278.7,297.1,278.5,297,278.3,296.9z M278.2,298h1.3v5.6
			h-1.3V298z"/>
		<path class="st1" d="M282.1,303.4c-0.5-0.2-0.8-0.6-1.1-1c-0.3-0.4-0.4-0.9-0.4-1.5s0.1-1.1,0.4-1.5s0.6-0.8,1.1-1s1-0.4,1.5-0.4
			c0.6,0,1.1,0.1,1.6,0.4c0.5,0.2,0.8,0.6,1.1,1c0.3,0.4,0.4,0.9,0.4,1.5s-0.1,1.1-0.4,1.5s-0.6,0.8-1.1,1c-0.5,0.2-1,0.4-1.6,0.4
			C283,303.7,282.5,303.6,282.1,303.4z M284.8,302.1c0.3-0.3,0.5-0.7,0.5-1.3c0-0.5-0.2-1-0.5-1.3c-0.3-0.3-0.7-0.5-1.2-0.5
			s-0.9,0.2-1.2,0.5c-0.3,0.3-0.5,0.7-0.5,1.3c0,0.5,0.2,1,0.5,1.3c0.3,0.3,0.7,0.5,1.2,0.5S284.5,302.4,284.8,302.1z M284.1,295.8
			h1.6l-1.8,1.4h-1.1L284.1,295.8z"/>
		<path class="st1" d="M292.6,298.6c0.4,0.4,0.6,1,0.6,1.8v3.2h-1.3v-3.1c0-0.5-0.1-0.9-0.3-1.1c-0.2-0.2-0.6-0.4-1-0.4
			c-0.5,0-0.9,0.1-1.2,0.4c-0.3,0.3-0.4,0.7-0.4,1.3v2.8h-1.3v-5.6h1.3v0.7c0.2-0.3,0.5-0.5,0.8-0.6s0.7-0.2,1.1-0.2
			C291.6,297.9,292.1,298.2,292.6,298.6z"/>
		<path class="st1" d="M219.5,314.6h-3.7l-0.7,1.7h-1.4l3.3-7.4h1.4l3.3,7.4h-1.4L219.5,314.6z M219,313.5l-1.4-3.2l-1.4,3.2H219z"
			/>
		<path class="st1" d="M227.7,308.5v7.8h-1.3v-0.7c-0.2,0.3-0.5,0.5-0.8,0.6c-0.3,0.1-0.7,0.2-1.1,0.2c-0.5,0-1-0.1-1.5-0.4
			c-0.5-0.3-0.8-0.6-1-1c-0.2-0.4-0.4-0.9-0.4-1.5c0-0.6,0.1-1.1,0.4-1.5c0.2-0.4,0.6-0.8,1-1c0.4-0.2,0.9-0.4,1.5-0.4
			c0.4,0,0.7,0.1,1,0.2s0.6,0.3,0.8,0.6v-2.9C226.3,308.5,227.7,308.5,227.7,308.5z M225.6,315c0.3-0.1,0.5-0.3,0.6-0.6
			c0.1-0.3,0.2-0.6,0.2-0.9c0-0.3-0.1-0.7-0.2-0.9c-0.1-0.3-0.3-0.5-0.6-0.6c-0.3-0.1-0.5-0.2-0.9-0.2c-0.3,0-0.6,0.1-0.9,0.2
			c-0.3,0.1-0.5,0.4-0.6,0.6c-0.1,0.3-0.2,0.6-0.2,0.9c0,0.3,0.1,0.7,0.2,0.9c0.1,0.3,0.3,0.5,0.6,0.6c0.3,0.1,0.5,0.2,0.9,0.2
			C225,315.3,225.3,315.2,225.6,315z"/>
		<path class="st1" d="M238,311.2c0.4,0.4,0.6,1,0.6,1.9v3.2h-1.3v-3.1c0-0.5-0.1-0.9-0.3-1.1c-0.2-0.2-0.5-0.4-0.9-0.4
			s-0.8,0.1-1.1,0.4c-0.3,0.3-0.4,0.7-0.4,1.3v2.9h-1.3v-3.1c0-0.5-0.1-0.9-0.3-1.1c-0.2-0.2-0.5-0.4-0.9-0.4
			c-0.5,0-0.8,0.1-1.1,0.4c-0.3,0.3-0.4,0.7-0.4,1.3v2.9h-1.3v-5.6h1.3v0.7c0.2-0.3,0.5-0.4,0.8-0.6c0.3-0.1,0.7-0.2,1.1-0.2
			s0.8,0.1,1.1,0.2c0.3,0.2,0.6,0.4,0.8,0.7c0.2-0.3,0.5-0.5,0.9-0.7c0.4-0.2,0.8-0.2,1.2-0.2C237,310.6,237.6,310.8,238,311.2z"/>
		<path class="st1" d="M240.2,309.5c-0.2-0.2-0.2-0.3-0.2-0.6c0-0.2,0.1-0.4,0.2-0.6c0.2-0.2,0.4-0.2,0.6-0.2s0.4,0.1,0.6,0.2
			s0.2,0.3,0.2,0.5c0,0.2-0.1,0.4-0.2,0.6c-0.2,0.2-0.4,0.2-0.6,0.2C240.5,309.7,240.3,309.7,240.2,309.5z M240.1,310.7h1.3v5.6
			h-1.3V310.7z"/>
		<path class="st1" d="M247.9,311.2c0.4,0.4,0.6,1,0.6,1.8v3.3h-1.3v-3.1c0-0.5-0.1-0.9-0.3-1.1c-0.2-0.2-0.6-0.4-1-0.4
			c-0.5,0-0.9,0.1-1.2,0.4c-0.3,0.3-0.4,0.7-0.4,1.3v2.9H243v-5.6h1.3v0.7c0.2-0.3,0.5-0.5,0.8-0.6s0.7-0.2,1.1-0.2
			C246.9,310.6,247.4,310.8,247.9,311.2z"/>
		<path class="st1" d="M250,309.5c-0.2-0.2-0.2-0.3-0.2-0.6c0-0.2,0.1-0.4,0.2-0.6c0.2-0.2,0.4-0.2,0.6-0.2s0.4,0.1,0.6,0.2
			s0.2,0.3,0.2,0.5c0,0.2-0.1,0.4-0.2,0.6c-0.2,0.2-0.4,0.2-0.6,0.2C250.4,309.7,250.2,309.7,250,309.5z M250,310.7h1.3v5.6H250
			V310.7z"/>
		<path class="st1" d="M253.2,316.2c-0.4-0.1-0.8-0.3-1-0.5l0.5-1c0.3,0.2,0.6,0.3,0.9,0.4c0.4,0.1,0.7,0.2,1.1,0.2
			c0.8,0,1.2-0.2,1.2-0.6c0-0.2-0.1-0.3-0.3-0.4c-0.2-0.1-0.5-0.2-1-0.2c-0.5-0.1-0.8-0.2-1.1-0.2c-0.3-0.1-0.5-0.3-0.8-0.5
			c-0.3-0.2-0.3-0.5-0.3-1s0.2-1,0.7-1.3c0.4-0.3,1-0.5,1.8-0.5c0.4,0,0.8,0,1.2,0.1c0.4,0.1,0.7,0.2,0.9,0.4l-0.5,1
			c-0.5-0.3-1-0.4-1.6-0.4c-0.4,0-0.7,0.1-0.9,0.2c-0.2,0.1-0.3,0.3-0.3,0.5c0,0.2,0.1,0.4,0.3,0.4c0.2,0.1,0.5,0.2,1,0.2
			c0.4,0.1,0.8,0.2,1.1,0.2c0.3,0.1,0.5,0.2,0.7,0.5c0.2,0.2,0.3,0.5,0.3,0.9c0,0.5-0.2,0.9-0.7,1.3c-0.5,0.4-1.1,0.5-1.9,0.5
			C254.1,316.4,253.6,316.3,253.2,316.2z"/>
		<path class="st1" d="M261.4,316c-0.2,0.1-0.3,0.2-0.6,0.3c-0.2,0.1-0.5,0.1-0.7,0.1c-0.6,0-1.1-0.2-1.4-0.5
			c-0.3-0.3-0.5-0.8-0.5-1.4v-2.7h-0.9v-1.1h0.9v-1.3h1.3v1.3h1.5v1.1h-1.5v2.7c0,0.3,0.1,0.5,0.2,0.6c0.1,0.1,0.3,0.2,0.6,0.2
			c0.3,0,0.5-0.1,0.7-0.2L261.4,316z"/>
		<path class="st1" d="M265.6,310.6v1.3c-0.1,0-0.2,0-0.3,0c-0.5,0-0.9,0.1-1.2,0.4c-0.3,0.3-0.4,0.7-0.4,1.3v2.7h-1.3v-5.6h1.3v0.8
			C263.9,310.9,264.6,310.6,265.6,310.6z"/>
		<path class="st1" d="M270.5,311.2c0.4,0.4,0.7,1,0.7,1.8v3.3H270v-0.7c-0.2,0.2-0.4,0.4-0.7,0.6c-0.3,0.1-0.7,0.2-1.1,0.2
			s-0.8-0.1-1.1-0.2c-0.3-0.1-0.6-0.3-0.7-0.6c-0.1-0.3-0.3-0.5-0.3-0.9c0-0.5,0.2-0.9,0.6-1.2c0.4-0.3,1-0.5,1.8-0.5h1.5v-0.1
			c0-0.4-0.1-0.7-0.4-0.9c-0.2-0.2-0.6-0.3-1-0.3c-0.3,0-0.6,0-0.9,0.1s-0.6,0.2-0.8,0.4l-0.5-1c0.3-0.2,0.7-0.4,1.1-0.5
			c0.4-0.1,0.9-0.2,1.3-0.2C269.4,310.6,270.1,310.8,270.5,311.2z M269.3,315.2c0.3-0.2,0.4-0.4,0.5-0.6v-0.7h-1.4
			c-0.8,0-1.1,0.2-1.1,0.7c0,0.2,0.1,0.4,0.3,0.6c0.2,0.1,0.5,0.2,0.8,0.2C268.7,315.4,269,315.3,269.3,315.2z"/>
		<path class="st1" d="M276,316c-0.2,0.1-0.3,0.2-0.6,0.3c-0.2,0.1-0.5,0.1-0.7,0.1c-0.6,0-1.1-0.2-1.4-0.5
			c-0.3-0.3-0.5-0.8-0.5-1.4v-2.7h-0.9v-1.1h0.9v-1.3h1.3v1.3h1.5v1.1h-1.5v2.7c0,0.3,0.1,0.5,0.2,0.6c0.1,0.1,0.3,0.2,0.6,0.2
			c0.3,0,0.5-0.1,0.7-0.2L276,316z"/>
		<path class="st1" d="M277,309.5c-0.2-0.2-0.2-0.3-0.2-0.6c0-0.2,0.1-0.4,0.2-0.6c0.2-0.2,0.4-0.2,0.6-0.2s0.4,0.1,0.6,0.2
			s0.2,0.3,0.2,0.5c0,0.2-0.1,0.4-0.2,0.6c-0.2,0.2-0.4,0.2-0.6,0.2C277.3,309.7,277.1,309.7,277,309.5z M276.9,310.7h1.3v5.6h-1.3
			V310.7z"/>
		<path class="st1" d="M285,310.7l-2.4,5.6h-1.4l-2.4-5.6h1.4l1.8,4.2l1.8-4.2H285z"/>
		<path class="st1" d="M289.5,311.2c0.4,0.4,0.7,1,0.7,1.8v3.3H289v-0.7c-0.2,0.2-0.4,0.4-0.7,0.6c-0.3,0.1-0.7,0.2-1.1,0.2
			s-0.8-0.1-1.1-0.2c-0.3-0.1-0.6-0.3-0.7-0.6c-0.1-0.3-0.3-0.5-0.3-0.9c0-0.5,0.2-0.9,0.6-1.2c0.4-0.3,1-0.5,1.8-0.5h1.5v-0.1
			c0-0.4-0.1-0.7-0.4-0.9c-0.2-0.2-0.6-0.3-1-0.3c-0.3,0-0.6,0-0.9,0.1s-0.6,0.2-0.8,0.4l-0.5-1c0.3-0.2,0.7-0.4,1.1-0.5
			c0.4-0.1,0.9-0.2,1.3-0.2C288.4,310.6,289.1,310.8,289.5,311.2z M288.3,315.2c0.3-0.2,0.4-0.4,0.5-0.6v-0.7h-1.4
			c-0.8,0-1.1,0.2-1.1,0.7c0,0.2,0.1,0.4,0.3,0.6c0.2,0.1,0.5,0.2,0.8,0.2C287.7,315.4,288,315.3,288.3,315.2z"/>
	</g>
</g>
</svg>
