<?xml version="1.0" encoding="utf-8"?>
<!-- Generator: Adobe Illustrator 23.0.1, SVG Export Plug-In . SVG Version: 6.00 Build 0)  -->
<svg version="1.1" id="Capa_1" xmlns="http://www.w3.org/2000/svg" xmlns:xlink="http://www.w3.org/1999/xlink" x="0px" y="0px"
	 viewBox="0 0 1493 120" style="enable-background:new 0 0 1493 120;" xml:space="preserve">
<style type="text/css">
	.st0{clip-path:url(#SVGID_2_);}
	.st1{fill:#FFFFFF;}
	.st2{fill:none;}
	.st3{fill:#FDFFFF;}
</style>
<g>
	<defs>
		<rect id="SVGID_1_" width="1493" height="120"/>
	</defs>
	<clipPath id="SVGID_2_">
		<use xlink:href="#SVGID_1_"  style="overflow:visible;"/>
	</clipPath>
	<g class="st0">
		<g>
			<path class="st1" d="M31.7,35.6c4.7-0.8,10.8-1.2,17.3-1.2c10.7,0,17.7,1.9,23.1,6c5.9,4.4,9.5,11.3,9.5,21.3
				c0,10.8-3.9,18.3-9.4,22.9c-5.9,4.9-15,7.3-26,7.3c-6.6,0-11.3-0.4-14.5-0.8V35.6z M44.5,81.6c1.1,0.3,2.8,0.3,4.4,0.3
				C60.5,82,68,75.6,68,62.1c0.1-11.7-6.8-17.9-17.8-17.9c-2.8,0-4.7,0.3-5.8,0.5V81.6z"/>
			<path class="st1" d="M123.6,67.4h-20.8v13.4H126v10.5H90V34.8h34.8v10.5h-22V57h20.8V67.4z"/>
			<path class="st1" d="M147.9,76.8l-4,14.5h-13.2l17.2-56.4h16.7l17.5,56.4h-13.7L164,76.8H147.9z M162.2,67.2l-3.5-12
				c-1-3.3-2-7.5-2.8-10.9h-0.2c-0.8,3.3-1.7,7.6-2.6,10.9l-3.3,12H162.2z"/>
		</g>
		<path class="st1" d="M208.3,76.1c-0.7,0-1.3,0.1-1.6,0.1v9c0.3,0.1,0.8,0.1,1.3,0.1c3,0,4.8-1.6,4.8-4.8
			C212.8,77.7,211.2,76.1,208.3,76.1z"/>
		<path class="st1" d="M272.5,57.5L272.5,57.5c-0.2,0.7-0.4,1.6-0.6,2.4l-1,3.1h3.2l-1-3.1C272.9,59.1,272.6,58.2,272.5,57.5z"/>
		<path class="st1" d="M292.1,61.7c0-2.8-1.6-4.4-4.5-4.4c-0.7,0-1.3,0.1-1.6,0.1v9c0.3,0.1,0.8,0.1,1.3,0.1
			C290.3,66.6,292.1,64.9,292.1,61.7z"/>
		<path class="st1" d="M278.4,76c-0.7,0-1.2,0.1-1.4,0.1v4h1.4c1.6,0,2.5-0.8,2.5-2.1C280.9,76.6,279.9,76,278.4,76z"/>
		<path class="st1" d="M197.1,76.2L197.1,76.2c-0.2,0.7-0.4,1.6-0.6,2.4l-1,3.1h3.2l-1-3.1C197.5,77.8,197.2,76.9,197.1,76.2z"/>
		<path class="st1" d="M262.3,47.9c2.2,0,3.5-2.1,3.5-4.7c0-2.4-1.2-4.6-3.5-4.6c-2.3,0-3.5,2.1-3.5,4.7
			C258.8,45.9,260.1,47.9,262.3,47.9z"/>
		<path class="st1" d="M200.9,43c0-2.8-1.6-4.4-4.5-4.4c-0.7,0-1.3,0.1-1.6,0.1v9c0.3,0.1,0.8,0.1,1.3,0.1
			C199.1,47.9,200.9,46.2,200.9,43z"/>
		<path class="st1" d="M216.4,40.6c0-1.4-1-2-2.5-2c-0.7,0-1.2,0.1-1.4,0.1v4h1.4C215.5,42.7,216.4,41.9,216.4,40.6z"/>
		<path class="st1" d="M290,76.2L290,76.2c-0.2,0.7-0.4,1.6-0.6,2.4l-1,3.1h3.2l-1-3.1C290.4,77.8,290.2,76.9,290,76.2z"/>
		<path class="st1" d="M317.9,67.9V49.6h-27.1V31.3H187.9v59.9h155.4V67.9H317.9z M318.7,71.4h2.5l-2.3,2.2H317L318.7,71.4z
			 M296.5,55.7h7.3v1.9h-5v3.3h4.8v1.9h-4.8v3.7h5.3v1.9h-7.6V55.7z M270.2,37h2.6l3.3,5.4c0.8,1.4,1.6,2.9,2.2,4.2h0
			c-0.1-1.7-0.2-3.3-0.2-5.2V37h2.1v12.6h-2.4l-3.3-5.6c-0.8-1.4-1.6-2.9-2.3-4.3l-0.1,0c0.1,1.6,0.1,3.3,0.1,5.4v4.5h-2.1V37z
			 M262.7,34h2.5l-2.3,2.2h-1.9L262.7,34z M262.3,36.8c3.7,0,5.9,2.8,5.9,6.4c0,4.2-2.6,6.6-6,6.6c-3.6,0-5.8-2.7-5.8-6.4
			C256.3,39.5,258.8,36.8,262.3,36.8z M252.1,37h2.3v12.6h-2.3V37z M247.1,36.8c1.5,0,2.6,0.3,3.1,0.6l-0.5,1.8
			c-0.6-0.3-1.4-0.5-2.5-0.5c-2.6,0-4.4,1.6-4.4,4.6c0,2.8,1.6,4.5,4.4,4.5c0.9,0,1.9-0.2,2.5-0.5l0.4,1.8c-0.5,0.3-1.7,0.6-3.3,0.6
			c-4,0-6.4-2.5-6.4-6.4C240.4,39.3,243.3,36.8,247.1,36.8z M236.6,36.8c1.5,0,2.6,0.3,3.1,0.6l-0.5,1.8c-0.6-0.3-1.4-0.5-2.5-0.5
			c-2.6,0-4.4,1.6-4.4,4.6c0,2.8,1.6,4.5,4.4,4.5c0.9,0,1.9-0.2,2.5-0.5l0.4,1.8c-0.5,0.3-1.7,0.6-3.3,0.6c-4,0-6.4-2.5-6.4-6.4
			C229.9,39.3,232.8,36.8,236.6,36.8z M220.9,37h7.3v1.9h-5v3.3h4.8V44h-4.8v3.7h5.3v1.9h-7.6V37z M225.6,55.5
			c1.5,0,2.6,0.3,3.1,0.6l-0.5,1.8c-0.6-0.3-1.4-0.5-2.5-0.5c-2.6,0-4.4,1.6-4.4,4.6c0,2.8,1.6,4.5,4.4,4.5c0.9,0,1.9-0.2,2.5-0.5
			l0.4,1.8c-0.5,0.3-1.7,0.6-3.3,0.6c-4,0-6.4-2.5-6.4-6.4C218.9,58,221.8,55.5,225.6,55.5z M210.3,37.1c0.9-0.1,2.2-0.3,3.5-0.3
			c1.8,0,3,0.3,3.9,1c0.7,0.6,1.1,1.5,1.1,2.5c0,1.6-1.1,2.7-2.3,3.2v0.1c0.9,0.3,1.4,1.2,1.8,2.4c0.4,1.6,0.7,3,1,3.5h-2.4
			c-0.2-0.4-0.5-1.4-0.8-3c-0.4-1.6-1-2.2-2.3-2.2h-1.2v5.2h-2.3V37.1z M209.9,55.7h7.3v1.9h-5v3.3h4.8v1.9h-4.8v3.7h5.3v1.9h-7.6
			V55.7z M205.3,37h2.3v12.6h-2.3V37z M192.6,37.1c1-0.2,2.3-0.3,3.7-0.3c2.4,0,4,0.5,5.1,1.5c1.2,1,2,2.5,2,4.6c0,2.2-0.8,3.9-2,5
			c-1.3,1.1-3.3,1.7-5.7,1.7c-1.3,0-2.4-0.1-3.1-0.2V37.1z M192.6,55.7h7.3v1.9h-5v3.3h4.8v1.9h-4.8v3.7h5.3v1.9h-7.6V55.7z
			 M200.2,87l-1.1-3.6h-4L194,87h-2.4l4-12.6h2.9l4.1,12.6H200.2z M201.3,68.2l0.3-1.9c0.4,0.1,0.9,0.2,1.4,0.2
			c1.3,0,2.1-0.6,2.1-2.8v-8.1h2.3v8.2c0,3.5-1.7,4.6-4.2,4.6C202.5,68.5,201.7,68.4,201.3,68.2z M213.3,85.4
			c-1.3,1.1-3.3,1.7-5.7,1.7c-1.3,0-2.4-0.1-3.1-0.2V74.5c1-0.2,2.3-0.3,3.7-0.3c2.4,0,4,0.5,5.1,1.5c1.2,1,2,2.5,2,4.6
			C215.2,82.6,214.5,84.3,213.3,85.4z M228.1,87l-0.2-5.1c-0.1-1.6-0.2-3.6-0.1-5.3h-0.1c-0.4,1.6-0.9,3.3-1.5,4.8l-1.8,5.5h-1.8
			l-1.7-5.4c-0.5-1.6-0.9-3.3-1.3-4.9h0c-0.1,1.7-0.1,3.7-0.2,5.4l-0.3,5.1h-2.2l0.8-12.6h3l1.6,5.1c0.4,1.5,0.8,3,1.2,4.4h0.1
			c0.3-1.4,0.8-2.9,1.3-4.4l1.7-5.1h3l0.7,12.6H228.1z M235,87h-2.3V74.4h2.3V87z M230.5,62.9v-7.2h2.3V63c0,2.5,1,3.6,2.6,3.6
			c1.7,0,2.7-1.1,2.7-3.6v-7.4h2.3v7.2c0,3.9-2,5.6-5,5.6C232.4,68.5,230.5,66.9,230.5,62.9z M247.6,87h-2.4l-3.3-5.6
			c-0.8-1.4-1.6-2.9-2.3-4.3l-0.1,0c0.1,1.6,0.1,3.3,0.1,5.4V87h-2.1V74.4h2.6l3.3,5.4c0.8,1.4,1.6,2.9,2.2,4.2h0
			c-0.1-1.7-0.2-3.3-0.2-5.2v-4.4h2.1V87z M247.7,68.3h-2.3V57.6h-3.6v-1.9h9.5v1.9h-3.6V68.3z M252.6,87h-2.3V74.4h2.3V87z
			 M252.8,55.7h2.3v12.6h-2.3V55.7z M258.1,87.2c-1.3,0-2.7-0.4-3.4-0.8l0.5-1.9c0.7,0.4,1.9,0.8,3,0.8c1.5,0,2.3-0.7,2.3-1.7
			c0-1-0.6-1.5-2.2-2.1c-2.1-0.7-3.4-1.9-3.4-3.7c0-2.1,1.7-3.6,4.5-3.6c1.4,0,2.4,0.3,3,0.6l-0.6,1.9c-0.4-0.2-1.3-0.6-2.5-0.6
			c-1.5,0-2.1,0.8-2.1,1.5c0,1,0.7,1.4,2.4,2.1c2.2,0.8,3.3,1.9,3.3,3.7C262.8,85.4,261.3,87.2,258.1,87.2z M260.6,68.3l-4.1-12.6
			h2.5l1.7,5.7c0.5,1.6,0.9,3.1,1.2,4.6h0c0.3-1.5,0.8-3,1.3-4.6l1.8-5.8h2.5l-4.4,12.6H260.6z M273.3,76.3h-3.6V87h-2.3V76.3h-3.6
			v-1.9h9.5V76.3z M270.5,64.7l-1.1,3.6H267l4-12.6h2.9l4.1,12.6h-2.5l-1.1-3.6H270.5z M281.3,87c-0.2-0.4-0.5-1.4-0.8-3
			c-0.4-1.6-1-2.2-2.3-2.2H277V87h-2.3V74.5c0.9-0.1,2.2-0.3,3.5-0.3c1.8,0,3,0.3,3.9,1c0.7,0.6,1.1,1.5,1.1,2.5
			c0,1.6-1.1,2.7-2.3,3.2V81c0.9,0.3,1.4,1.2,1.8,2.4c0.4,1.6,0.7,3,1,3.5H281.3z M283.7,55.8c1-0.2,2.3-0.3,3.7-0.3
			c2.4,0,4,0.5,5.1,1.5c1.2,1,2,2.5,2,4.6c0,2.2-0.8,3.9-2,5c-1.3,1.1-3.3,1.7-5.7,1.7c-1.3,0-2.4-0.1-3.1-0.2V55.8z M293.2,87
			l-1.1-3.6h-4L287,87h-2.4l4-12.6h2.9l4.1,12.6H293.2z M303.2,85.3c0.9,0,1.9-0.2,2.5-0.5l0.4,1.8c-0.5,0.3-1.7,0.6-3.3,0.6
			c-4,0-6.4-2.5-6.4-6.4c0-4.2,2.9-6.7,6.7-6.7c1.5,0,2.6,0.3,3.1,0.6l-0.5,1.8c-0.6-0.3-1.4-0.5-2.5-0.5c-2.6,0-4.4,1.6-4.4,4.6
			C298.8,83.5,300.4,85.3,303.2,85.3z M310.3,87H308V74.4h2.3V87z M318.1,87.2c-3.6,0-5.8-2.7-5.8-6.4c0-3.9,2.4-6.6,6-6.6
			c3.7,0,5.9,2.8,5.9,6.4C324.1,84.8,321.6,87.2,318.1,87.2z M336.1,87h-2.4l-3.3-5.6c-0.8-1.4-1.6-2.9-2.3-4.3l-0.1,0
			c0.1,1.6,0.1,3.3,0.1,5.4V87h-2.1V74.4h2.6l3.3,5.4c0.8,1.4,1.6,2.9,2.2,4.2h0c-0.1-1.7-0.2-3.3-0.2-5.2v-4.4h2.1V87z"/>
		<path class="st1" d="M318.2,76c-2.3,0-3.5,2.1-3.5,4.7c0,2.6,1.3,4.6,3.5,4.6c2.2,0,3.5-2.1,3.5-4.7C321.7,78.3,320.5,76,318.2,76
			z"/>
		<rect x="317.9" y="28.5" class="st1" width="25.4" height="21.1"/>
		<rect x="174.6" y="19.8" class="st1" width="13.4" height="11.6"/>
	</g>
	<g class="st0">
		<g>
			<path class="st1" d="M725.6,64.3c-0.6-0.2-1.1-0.5-1.5-0.8l0.5-1c0.3,0.3,0.8,0.6,1.3,0.8c0.5,0.2,1.1,0.3,1.7,0.3
				c0.8,0,1.3-0.1,1.7-0.4s0.6-0.6,0.6-1c0-0.3-0.1-0.6-0.3-0.8c-0.2-0.2-0.5-0.3-0.8-0.4c-0.3-0.1-0.7-0.2-1.3-0.3
				c-0.7-0.2-1.2-0.3-1.7-0.5s-0.8-0.4-1.1-0.8s-0.4-0.8-0.4-1.4c0-0.5,0.1-0.9,0.4-1.3c0.3-0.4,0.6-0.7,1.2-0.9s1.2-0.3,1.9-0.3
				c0.5,0,1.1,0.1,1.6,0.2c0.5,0.1,1,0.3,1.3,0.6l-0.4,1c-0.4-0.2-0.8-0.4-1.2-0.5c-0.4-0.1-0.9-0.2-1.3-0.2c-0.7,0-1.3,0.1-1.7,0.4
				s-0.6,0.6-0.6,1c0,0.3,0.1,0.6,0.3,0.8c0.2,0.2,0.5,0.3,0.8,0.5c0.3,0.1,0.7,0.2,1.2,0.3c0.7,0.2,1.2,0.3,1.6,0.5
				c0.4,0.2,0.8,0.4,1.1,0.8c0.3,0.3,0.4,0.8,0.4,1.4c0,0.5-0.1,0.9-0.4,1.3c-0.3,0.4-0.7,0.7-1.2,0.9s-1.2,0.3-1.9,0.3
				C726.9,64.6,726.3,64.5,725.6,64.3z"/>
			<path class="st1" d="M732.8,56.1c-0.2-0.2-0.2-0.3-0.2-0.6c0-0.2,0.1-0.4,0.2-0.6c0.2-0.2,0.4-0.2,0.6-0.2c0.2,0,0.4,0.1,0.6,0.2
				s0.2,0.3,0.2,0.6c0,0.2-0.1,0.4-0.2,0.6s-0.4,0.2-0.6,0.2C733.2,56.3,733,56.2,732.8,56.1z M732.8,57.6h1.2v6.9h-1.2V57.6z"/>
			<path class="st1" d="M736.8,64.3c-0.5-0.2-0.9-0.3-1.2-0.6l0.5-1c0.3,0.2,0.7,0.4,1.1,0.5c0.4,0.1,0.9,0.2,1.3,0.2
				c1.1,0,1.6-0.3,1.6-0.9c0-0.2-0.1-0.4-0.2-0.5c-0.1-0.1-0.3-0.2-0.6-0.3c-0.2-0.1-0.5-0.1-0.9-0.2c-0.6-0.1-1-0.2-1.4-0.3
				c-0.3-0.1-0.6-0.3-0.9-0.6c-0.3-0.3-0.4-0.6-0.4-1.1c0-0.6,0.3-1.1,0.8-1.5c0.5-0.4,1.2-0.6,2.1-0.6c0.5,0,0.9,0.1,1.4,0.2
				c0.5,0.1,0.8,0.3,1.1,0.5l-0.5,1c-0.6-0.4-1.2-0.5-2-0.5c-0.5,0-0.9,0.1-1.2,0.3c-0.3,0.2-0.4,0.4-0.4,0.7c0,0.2,0.1,0.4,0.2,0.5
				s0.3,0.2,0.6,0.3c0.2,0.1,0.6,0.1,1,0.2c0.6,0.1,1,0.2,1.3,0.3s0.6,0.3,0.9,0.6c0.2,0.3,0.4,0.6,0.4,1.1c0,0.6-0.3,1.1-0.8,1.5
				c-0.5,0.4-1.3,0.6-2.2,0.6C737.8,64.5,737.3,64.5,736.8,64.3z"/>
			<path class="st1" d="M746.8,64.1c-0.2,0.2-0.4,0.3-0.7,0.4s-0.5,0.1-0.8,0.1c-0.7,0-1.2-0.2-1.6-0.6c-0.4-0.4-0.6-0.9-0.6-1.6
				v-3.8h-1.2v-1h1.2v-1.5h1.2v1.5h2v1h-2v3.7c0,0.4,0.1,0.7,0.3,0.9c0.2,0.2,0.5,0.3,0.8,0.3c0.4,0,0.7-0.1,1-0.3L746.8,64.1z"/>
			<path class="st1" d="M754.2,61.4h-5.6c0.1,0.6,0.3,1.1,0.8,1.5c0.5,0.4,1,0.5,1.7,0.5c0.8,0,1.5-0.3,2-0.8l0.7,0.8
				c-0.3,0.4-0.7,0.6-1.2,0.8s-1,0.3-1.5,0.3c-0.7,0-1.4-0.1-1.9-0.4c-0.6-0.3-1-0.7-1.3-1.2c-0.3-0.5-0.5-1.1-0.5-1.8
				c0-0.7,0.1-1.3,0.4-1.8s0.7-1,1.2-1.2c0.5-0.3,1.1-0.4,1.8-0.4c0.7,0,1.2,0.1,1.8,0.4c0.5,0.3,0.9,0.7,1.2,1.2s0.4,1.1,0.4,1.8
				C754.2,61.2,754.2,61.3,754.2,61.4z M749.4,59.1c-0.4,0.4-0.6,0.8-0.7,1.4h4.4c-0.1-0.6-0.3-1.1-0.7-1.4
				c-0.4-0.4-0.9-0.6-1.5-0.6C750.2,58.6,749.8,58.8,749.4,59.1z"/>
			<path class="st1" d="M766.6,58.3c0.5,0.5,0.8,1.2,0.8,2.2v3.9h-1.2v-3.8c0-0.7-0.2-1.2-0.5-1.5c-0.3-0.3-0.7-0.5-1.3-0.5
				c-0.6,0-1.1,0.2-1.5,0.6s-0.6,1-0.6,1.7v3.5H761v-3.8c0-0.7-0.2-1.2-0.5-1.5c-0.3-0.3-0.7-0.5-1.3-0.5c-0.6,0-1.1,0.2-1.5,0.6
				s-0.6,1-0.6,1.7v3.5H756v-6.9h1.2v1c0.2-0.4,0.6-0.6,1-0.8c0.4-0.2,0.9-0.3,1.4-0.3c0.5,0,1,0.1,1.4,0.3s0.7,0.5,1,0.9
				c0.3-0.4,0.6-0.7,1.1-0.9c0.5-0.2,1-0.3,1.6-0.3C765.4,57.5,766.1,57.8,766.6,58.3z"/>
			<path class="st1" d="M774.3,58.2c0.5,0.5,0.8,1.2,0.8,2.1v4.1h-1.2v-0.9c-0.2,0.3-0.5,0.6-0.9,0.7c-0.4,0.2-0.8,0.3-1.4,0.3
				c-0.8,0-1.4-0.2-1.8-0.6c-0.5-0.4-0.7-0.9-0.7-1.5s0.2-1.1,0.7-1.5s1.1-0.6,2.1-0.6h2v-0.2c0-0.5-0.2-0.9-0.5-1.2
				s-0.8-0.4-1.4-0.4c-0.4,0-0.8,0.1-1.2,0.2c-0.4,0.1-0.7,0.3-1,0.5l-0.5-0.9c0.4-0.3,0.8-0.5,1.3-0.7c0.5-0.2,1-0.2,1.6-0.2
				C773.1,57.5,773.8,57.8,774.3,58.2z M773.1,63.3c0.3-0.2,0.6-0.5,0.8-0.9v-1h-1.9c-1.1,0-1.6,0.4-1.6,1.1c0,0.3,0.1,0.6,0.4,0.8
				c0.3,0.2,0.6,0.3,1.1,0.3S772.7,63.5,773.1,63.3z"/>
			<path class="st1" d="M777.7,64.3c-0.5-0.2-0.9-0.3-1.2-0.6l0.5-1c0.3,0.2,0.7,0.4,1.1,0.5s0.9,0.2,1.3,0.2c1.1,0,1.6-0.3,1.6-0.9
				c0-0.2-0.1-0.4-0.2-0.5c-0.1-0.1-0.3-0.2-0.6-0.3c-0.2-0.1-0.5-0.1-0.9-0.2c-0.6-0.1-1-0.2-1.4-0.3c-0.3-0.1-0.6-0.3-0.9-0.6
				s-0.4-0.6-0.4-1.1c0-0.6,0.3-1.1,0.8-1.5s1.2-0.6,2.1-0.6c0.5,0,0.9,0.1,1.4,0.2c0.5,0.1,0.8,0.3,1.1,0.5l-0.5,1
				c-0.6-0.4-1.2-0.5-2-0.5c-0.5,0-0.9,0.1-1.2,0.3c-0.3,0.2-0.4,0.4-0.4,0.7c0,0.2,0.1,0.4,0.2,0.5s0.3,0.2,0.6,0.3s0.6,0.1,1,0.2
				c0.6,0.1,1,0.2,1.3,0.3s0.6,0.3,0.9,0.6c0.2,0.3,0.4,0.6,0.4,1.1c0,0.6-0.3,1.1-0.8,1.5c-0.5,0.4-1.3,0.6-2.2,0.6
				C778.8,64.5,778.2,64.5,777.7,64.3z"/>
			<path class="st1" d="M726.6,79.5c-0.7-0.4-1.3-1-1.7-1.7c-0.4-0.7-0.6-1.5-0.6-2.4s0.2-1.7,0.6-2.4s1-1.3,1.7-1.7
				c0.7-0.4,1.6-0.6,2.5-0.6c0.7,0,1.4,0.1,1.9,0.4s1.1,0.6,1.5,1.1l-0.8,0.8c-0.7-0.7-1.5-1.1-2.5-1.1c-0.7,0-1.3,0.2-1.8,0.5
				c-0.5,0.3-1,0.7-1.3,1.2s-0.5,1.1-0.5,1.8s0.2,1.2,0.5,1.8s0.7,0.9,1.3,1.2c0.5,0.3,1.2,0.5,1.8,0.5c1,0,1.9-0.4,2.5-1.1l0.8,0.8
				c-0.4,0.5-0.9,0.8-1.5,1.1c-0.6,0.2-1.2,0.4-1.9,0.4C728.1,80.1,727.3,79.9,726.6,79.5z"/>
			<path class="st1" d="M735,79.6c-0.5-0.3-1-0.7-1.3-1.2s-0.5-1.1-0.5-1.8c0-0.7,0.2-1.3,0.5-1.8s0.7-0.9,1.3-1.2
				c0.5-0.3,1.2-0.4,1.8-0.4c0.7,0,1.3,0.1,1.8,0.4c0.5,0.3,1,0.7,1.3,1.2c0.3,0.5,0.5,1.1,0.5,1.8c0,0.7-0.2,1.3-0.5,1.8
				c-0.3,0.5-0.7,0.9-1.3,1.2c-0.5,0.3-1.1,0.5-1.8,0.5C736.1,80.1,735.5,79.9,735,79.6z M738,78.7c0.3-0.2,0.6-0.5,0.8-0.9
				c0.2-0.4,0.3-0.8,0.3-1.3c0-0.5-0.1-0.9-0.3-1.3c-0.2-0.4-0.5-0.6-0.8-0.8c-0.3-0.2-0.7-0.3-1.2-0.3c-0.4,0-0.8,0.1-1.2,0.3
				c-0.3,0.2-0.6,0.5-0.8,0.8c-0.2,0.4-0.3,0.8-0.3,1.3c0,0.5,0.1,0.9,0.3,1.3c0.2,0.4,0.5,0.7,0.8,0.9c0.3,0.2,0.7,0.3,1.2,0.3
				C737.2,79,737.6,78.9,738,78.7z"/>
			<path class="st1" d="M752.7,73.8c0.5,0.5,0.8,1.2,0.8,2.2V80h-1.2v-3.8c0-0.7-0.2-1.2-0.5-1.5c-0.3-0.3-0.7-0.5-1.3-0.5
				c-0.6,0-1.1,0.2-1.5,0.6s-0.6,1-0.6,1.7V80h-1.2v-3.8c0-0.7-0.2-1.2-0.5-1.5c-0.3-0.3-0.7-0.5-1.3-0.5c-0.6,0-1.1,0.2-1.5,0.6
				s-0.6,1-0.6,1.7V80h-1.2v-6.9h1.2v1c0.2-0.4,0.6-0.6,1-0.8c0.4-0.2,0.9-0.3,1.4-0.3c0.5,0,1,0.1,1.4,0.3c0.4,0.2,0.7,0.5,1,0.9
				c0.3-0.4,0.6-0.7,1.1-0.9c0.5-0.2,1-0.3,1.6-0.3C751.5,73.1,752.2,73.3,752.7,73.8z"/>
			<path class="st1" d="M761.2,73.5c0.5,0.3,0.9,0.7,1.2,1.2s0.4,1.1,0.4,1.8c0,0.7-0.1,1.3-0.4,1.8s-0.7,0.9-1.2,1.2
				s-1.1,0.4-1.8,0.4c-0.5,0-0.9-0.1-1.4-0.3s-0.8-0.5-1-0.8v3.5h-1.2v-9.4h1.2v1.1c0.3-0.4,0.6-0.7,1-0.9c0.4-0.2,0.9-0.3,1.4-0.3
				C760.1,73.1,760.6,73.2,761.2,73.5z M760.5,78.7c0.3-0.2,0.6-0.5,0.8-0.9c0.2-0.4,0.3-0.8,0.3-1.3c0-0.5-0.1-0.9-0.3-1.3
				c-0.2-0.4-0.5-0.6-0.8-0.8c-0.3-0.2-0.7-0.3-1.2-0.3c-0.4,0-0.8,0.1-1.2,0.3s-0.6,0.5-0.8,0.8c-0.2,0.4-0.3,0.8-0.3,1.3
				c0,0.5,0.1,0.9,0.3,1.3s0.5,0.7,0.8,0.9c0.4,0.2,0.7,0.3,1.2,0.3C759.7,79,760.1,78.9,760.5,78.7z"/>
			<path class="st1" d="M764.6,70.4h1.2V80h-1.2V70.4z"/>
			<path class="st1" d="M774.4,77h-5.6c0.1,0.6,0.3,1.1,0.8,1.5c0.5,0.4,1,0.5,1.7,0.5c0.8,0,1.5-0.3,2-0.8L774,79
				c-0.3,0.4-0.7,0.6-1.2,0.8s-1,0.3-1.5,0.3c-0.7,0-1.4-0.1-1.9-0.4c-0.6-0.3-1-0.7-1.3-1.2c-0.3-0.5-0.5-1.1-0.5-1.8
				c0-0.7,0.1-1.3,0.4-1.8s0.7-1,1.2-1.2c0.5-0.3,1.1-0.4,1.8-0.4c0.7,0,1.2,0.1,1.8,0.4c0.5,0.3,0.9,0.7,1.2,1.2s0.4,1.1,0.4,1.8
				C774.4,76.7,774.4,76.8,774.4,77z M769.5,74.7c-0.4,0.4-0.6,0.8-0.7,1.4h4.4c-0.1-0.6-0.3-1.1-0.7-1.4c-0.4-0.4-0.9-0.6-1.5-0.6
				C770.4,74.1,769.9,74.3,769.5,74.7z"/>
			<path class="st1" d="M786.7,73.8c0.5,0.5,0.8,1.2,0.8,2.2V80h-1.2v-3.8c0-0.7-0.2-1.2-0.5-1.5c-0.3-0.3-0.7-0.5-1.3-0.5
				c-0.6,0-1.1,0.2-1.5,0.6s-0.6,1-0.6,1.7V80h-1.2v-3.8c0-0.7-0.2-1.2-0.5-1.5c-0.3-0.3-0.7-0.5-1.3-0.5c-0.6,0-1.1,0.2-1.5,0.6
				s-0.6,1-0.6,1.7V80h-1.2v-6.9h1.2v1c0.2-0.4,0.6-0.6,1-0.8c0.4-0.2,0.9-0.3,1.4-0.3c0.5,0,1,0.1,1.4,0.3s0.7,0.5,1,0.9
				c0.3-0.4,0.6-0.7,1.1-0.9c0.5-0.2,1-0.3,1.6-0.3C785.6,73.1,786.2,73.3,786.7,73.8z"/>
			<path class="st1" d="M796,77h-5.6c0.1,0.6,0.3,1.1,0.8,1.5s1,0.5,1.7,0.5c0.8,0,1.5-0.3,2-0.8l0.7,0.8c-0.3,0.4-0.7,0.6-1.2,0.8
				c-0.5,0.2-1,0.3-1.5,0.3c-0.7,0-1.4-0.1-1.9-0.4c-0.6-0.3-1-0.7-1.3-1.2c-0.3-0.5-0.5-1.1-0.5-1.8c0-0.7,0.1-1.3,0.4-1.8
				s0.7-1,1.2-1.2c0.5-0.3,1.1-0.4,1.8-0.4c0.7,0,1.2,0.1,1.8,0.4c0.5,0.3,0.9,0.7,1.2,1.2c0.3,0.5,0.4,1.1,0.4,1.8
				C796,76.7,796,76.8,796,77z M791.1,74.7c-0.4,0.4-0.6,0.8-0.7,1.4h4.4c-0.1-0.6-0.3-1.1-0.7-1.4s-0.9-0.6-1.5-0.6
				S791.5,74.3,791.1,74.7z"/>
			<path class="st1" d="M803.5,73.8c0.5,0.5,0.8,1.2,0.8,2.2V80H803v-3.8c0-0.7-0.2-1.2-0.5-1.5c-0.3-0.3-0.8-0.5-1.4-0.5
				c-0.7,0-1.2,0.2-1.6,0.6c-0.4,0.4-0.6,1-0.6,1.7V80h-1.2v-6.9h1.2v1c0.2-0.4,0.6-0.6,1-0.8c0.4-0.2,0.9-0.3,1.5-0.3
				C802.3,73.1,803,73.3,803.5,73.8z"/>
			<path class="st1" d="M810.4,79.6c-0.2,0.2-0.4,0.3-0.7,0.4c-0.3,0.1-0.5,0.1-0.8,0.1c-0.7,0-1.2-0.2-1.6-0.6
				c-0.4-0.4-0.6-0.9-0.6-1.6v-3.8h-1.2v-1h1.2v-1.5h1.2v1.5h2v1h-2v3.7c0,0.4,0.1,0.7,0.3,0.9c0.2,0.2,0.5,0.3,0.8,0.3
				c0.4,0,0.7-0.1,1-0.3L810.4,79.6z"/>
			<path class="st1" d="M816.6,73.8c0.5,0.5,0.8,1.2,0.8,2.1V80h-1.2v-0.9c-0.2,0.3-0.5,0.6-0.9,0.7c-0.4,0.2-0.8,0.3-1.4,0.3
				c-0.8,0-1.4-0.2-1.8-0.6c-0.5-0.4-0.7-0.9-0.7-1.5s0.2-1.1,0.7-1.5c0.4-0.4,1.1-0.6,2.1-0.6h2v-0.2c0-0.5-0.2-0.9-0.5-1.2
				s-0.8-0.4-1.4-0.4c-0.4,0-0.8,0.1-1.2,0.2s-0.7,0.3-1,0.5l-0.5-0.9c0.4-0.3,0.8-0.5,1.3-0.7c0.5-0.2,1-0.2,1.6-0.2
				C815.4,73.1,816.1,73.3,816.6,73.8z M815.4,78.8c0.3-0.2,0.6-0.5,0.8-0.9v-1h-1.9c-1.1,0-1.6,0.4-1.6,1.1c0,0.3,0.1,0.6,0.4,0.8
				c0.3,0.2,0.6,0.3,1.1,0.3C814.6,79.1,815,79,815.4,78.8z"/>
			<path class="st1" d="M821.8,73.4c0.4-0.2,0.9-0.3,1.5-0.3v1.2c-0.1,0-0.2,0-0.3,0c-0.7,0-1.2,0.2-1.6,0.6c-0.4,0.4-0.6,1-0.6,1.7
				V80h-1.2v-6.9h1.2v1.2C821.1,73.9,821.4,73.6,821.8,73.4z"/>
			<path class="st1" d="M824.9,71.6c-0.2-0.2-0.2-0.3-0.2-0.6c0-0.2,0.1-0.4,0.2-0.6c0.2-0.2,0.4-0.2,0.6-0.2c0.2,0,0.4,0.1,0.6,0.2
				c0.2,0.2,0.2,0.3,0.2,0.6c0,0.2-0.1,0.4-0.2,0.6c-0.2,0.2-0.4,0.2-0.6,0.2C825.3,71.8,825.1,71.7,824.9,71.6z M824.9,73.1h1.2V80
				h-1.2V73.1z"/>
			<path class="st1" d="M829.6,79.6c-0.5-0.3-1-0.7-1.3-1.2s-0.5-1.1-0.5-1.8c0-0.7,0.2-1.3,0.5-1.8s0.7-0.9,1.3-1.2
				c0.5-0.3,1.2-0.4,1.8-0.4s1.3,0.1,1.8,0.4c0.5,0.3,1,0.7,1.3,1.2s0.5,1.1,0.5,1.8c0,0.7-0.2,1.3-0.5,1.8s-0.7,0.9-1.3,1.2
				c-0.5,0.3-1.1,0.5-1.8,0.5S830.1,79.9,829.6,79.6z M832.6,78.7c0.3-0.2,0.6-0.5,0.8-0.9s0.3-0.8,0.3-1.3c0-0.5-0.1-0.9-0.3-1.3
				s-0.5-0.6-0.8-0.8c-0.3-0.2-0.7-0.3-1.2-0.3c-0.4,0-0.8,0.1-1.2,0.3c-0.3,0.2-0.6,0.5-0.8,0.8c-0.2,0.4-0.3,0.8-0.3,1.3
				c0,0.5,0.1,0.9,0.3,1.3c0.2,0.4,0.5,0.7,0.8,0.9c0.3,0.2,0.7,0.3,1.2,0.3C831.9,79,832.3,78.9,832.6,78.7z"/>
			<path class="st1" d="M837.1,79.8c-0.5-0.2-0.9-0.3-1.2-0.6l0.5-1c0.3,0.2,0.7,0.4,1.1,0.5s0.9,0.2,1.3,0.2c1.1,0,1.6-0.3,1.6-0.9
				c0-0.2-0.1-0.4-0.2-0.5c-0.1-0.1-0.3-0.2-0.5-0.3c-0.2-0.1-0.5-0.1-0.9-0.2c-0.6-0.1-1-0.2-1.4-0.3c-0.3-0.1-0.6-0.3-0.9-0.6
				c-0.3-0.3-0.4-0.6-0.4-1.1c0-0.6,0.3-1.1,0.8-1.5s1.2-0.6,2.1-0.6c0.5,0,0.9,0.1,1.4,0.2c0.5,0.1,0.8,0.3,1.1,0.5l-0.5,1
				c-0.6-0.4-1.2-0.5-2-0.5c-0.5,0-0.9,0.1-1.2,0.3c-0.3,0.2-0.4,0.4-0.4,0.7c0,0.2,0.1,0.4,0.2,0.5s0.3,0.2,0.6,0.3s0.5,0.1,1,0.2
				c0.6,0.1,1,0.2,1.3,0.3s0.6,0.3,0.9,0.6c0.2,0.3,0.4,0.6,0.4,1.1c0,0.6-0.3,1.1-0.8,1.5c-0.5,0.4-1.3,0.6-2.2,0.6
				C838.1,80.1,837.6,80,837.1,79.8z"/>
		</g>
		<g>
			<g>
				<g>
					<path class="st1" d="M716.1,52.7c-3.2-11.9-14-20.7-27-20.7c-2.5,0-4.9,0.3-7.2,0.9c-11,2.9-19.3,12.4-20.6,23.9h-14.3
						c0.1-0.9,0.2-1.8,0.3-2.6c2.8-16.5,17.2-29.1,34.5-29.1C698.7,25.1,712.7,36.9,716.1,52.7z"/>
				</g>
				<g>
					<path class="st1" d="M716.5,65.6C713.8,82.3,699.3,95,681.9,95c-17.9,0-32.7-13.5-34.7-30.8c0-0.4-0.1-0.8-0.1-1.2h14.3
						c1.3,11.5,9.6,20.9,20.5,23.8c2.3,0.6,4.7,0.9,7.2,0.9C702.6,87.8,713.8,78.3,716.5,65.6z"/>
				</g>
			</g>
			<g>
				<path class="st1" d="M710.6,68.9C710.6,68.8,710.6,68.8,710.6,68.9c2.9-6.8,2.4-14.9-1.3-21.2c2-2.4-0.6-5.8-3.4-4.5
					c-0.5-0.5-1-1-1.6-1.5c1.1-2.9-2.5-5.3-4.7-3.1c-6.4-3.3-14.5-3.2-20.9,0.1c-2.3-2.4-6.1,0.2-4.7,3.2c-0.8,0.7-1.5,1.4-2.2,2.2
					c-0.6,0.7,0.5,1.6,1.1,0.9c0.6-0.7,1.3-1.4,2.1-2.1c1.4,1,3.5,0.5,4.3-1.1c2.6,0.7,5,1.8,7.3,3.2c-0.2,0.7-0.1,1.5,0.2,2.1
					c-1.9,1.6-3.6,3.5-5.1,5.5c-1.4-0.4-2.9,0.3-3.5,1.6c-3,0-6,0.3-9,1c-0.3-0.5-0.7-0.9-1.1-1.2c0.6-2.2,1.4-4.2,2.6-6.1
					c0.5-0.8-0.7-1.5-1.2-0.8c-1.3,2-2.2,4.2-2.8,6.5c-3.4,0.1-4,4.8-0.7,5.7c0,6.7,2.9,13.3,7.9,17.7c-1.1,2.8,2.4,5.2,4.6,3.2
					c6.6,3.5,14.9,3.5,21.5,0c2.3,2.3,6-0.3,4.7-3.2C707.2,74.8,709.2,72,710.6,68.9L710.6,68.9z M709.7,67.3c-2-2-4.1-3.7-6.4-5.3
					c0.3-1,0-2.2-0.7-2.9c1.9-3.2,3.5-6.7,4.5-10.3c0.4,0,0.7-0.1,1-0.2C711.4,54.1,712,61.2,709.7,67.3L709.7,67.3z M676.8,75.3
					c-0.6-5.9,0.5-11.8,3.1-17.1c1.6,0.5,3.4-0.6,3.7-2.2c4.9,0.6,9.7,2.1,14.1,4.3c-0.2,0.8,0,1.7,0.5,2.4
					c-5,6.4-11.6,11.1-19.2,13.9C678.5,75.9,677.7,75.4,676.8,75.3L676.8,75.3z M699,61.1c0-0.8,0.7-1.5,1.5-1.5
					c1.9,0.1,1.9,2.9,0,2.9C699.7,62.5,699,61.9,699,61.1L699,61.1z M708.5,45.8c0,0.8-0.7,1.5-1.5,1.5c-1.9-0.1-1.9-2.9,0-2.9
					C707.9,44.3,708.5,45,708.5,45.8L708.5,45.8z M704.7,44.1c-1,1.4-0.5,3.4,1,4.2c-1,3.5-2.5,6.8-4.4,9.9
					c-0.4-0.1-0.8-0.1-1.2-0.1c-2-4.2-4.8-8-8.3-11c0.3-0.6,0.4-1.4,0.2-2.1c2.2-1.3,4.6-2.3,7-3.1c0.8,1.6,3,2,4.4,0.8
					C703.8,43.3,704.3,43.7,704.7,44.1L704.7,44.1z M687.7,45.9c0-0.8,0.7-1.5,1.5-1.5c1.9,0.1,1.9,2.9,0,2.9
					C688.4,47.4,687.7,46.7,687.7,45.9L687.7,45.9z M701.5,39.2c0.8,0,1.5,0.7,1.5,1.5c-0.1,1.9-2.8,1.9-2.9,0
					C700.1,39.9,700.7,39.2,701.5,39.2L701.5,39.2z M676.5,42.1c-0.8,0-1.5-0.7-1.5-1.5c0.1-1.9,2.8-1.9,2.9,0
					C678,41.5,677.3,42.1,676.5,42.1L676.5,42.1z M679.4,40.6c0-0.2,0-0.4-0.1-0.6c6-3.1,13.4-3.1,19.5-0.1
					c-0.1,0.3-0.1,0.5-0.1,0.8c-2.6,0.8-5.1,1.9-7.4,3.2c-1.1-1.2-3-1.2-4.1,0C684.7,42.5,682.1,41.3,679.4,40.6L679.4,40.6z
					 M687.6,48.3c1,0.7,2.3,0.7,3.2,0c3.3,2.9,6.1,6.5,7.9,10.5c-0.1,0.1-0.2,0.2-0.4,0.3c-4.7-2.4-9.7-3.9-14.9-4.5
					c-0.1-0.4-0.4-0.8-0.7-1.1C684.2,51.6,685.8,49.8,687.6,48.3L687.6,48.3z M680.7,54c0.8,0,1.5,0.7,1.5,1.5
					c-0.1,1.9-2.8,1.9-2.9,0C679.3,54.7,679.9,54,680.7,54L680.7,54z M665.2,56.6c0-0.8,0.7-1.5,1.5-1.5c1.9,0.1,1.9,2.9,0,2.9
					C665.8,58.1,665.2,57.4,665.2,56.6L665.2,56.6z M667.3,59.4c0,0,2.2-0.5,2.2-2.8c0,0,5.6-0.9,8.4-0.9c0.1,0.7,0.3,1.3,0.8,1.8
					c-2.8,5.6-3.9,11.8-3.3,18c-0.3,0.1-0.5,0.3-0.8,0.5C670,71.8,667.3,64.8,667.3,59.4L667.3,59.4z M676.5,79.7
					c-0.8,0-1.5-0.7-1.5-1.5c0-0.8,0.7-1.5,1.5-1.5c0.8,0,1.5,0.7,1.5,1.5C678,79,677.3,79.7,676.5,79.7L676.5,79.7z M689.2,81.6
					c-3.5,0-6.9-0.8-10-2.4c0.1-0.4,0.2-0.8,0.2-1.1c7.8-2.8,14.7-7.8,19.9-14.3c0.4,0.2,0.9,0.3,1.4,0.3c0.3,1.2,0.6,2.4,0.7,3.6
					c0.1,0.9,1.5,0.7,1.4-0.2c-0.2-1.3-0.5-2.6-0.8-3.8c0.2-0.1,0.3-0.2,0.5-0.4c2.4,1.6,4.6,3.5,6.6,5.5c-1.2,2.8-3.1,5.3-5.4,7.3
					c-0.2-0.2-0.5-0.3-0.8-0.4c0.1-1.3,0.2-2.7,0.2-4c0-0.9-1.4-0.9-1.4,0c0,1.3,0,2.6-0.2,3.8c-1.7,0.3-2.8,2-2.3,3.7
					C696.1,80.7,692.7,81.6,689.2,81.6L689.2,81.6z M702,79.8c-0.8,0-1.5-0.7-1.5-1.5c0.1-1.9,2.8-1.9,2.9,0
					C703.4,79.1,702.8,79.8,702,79.8L702,79.8z M702,79.8"/>
				<path class="st1" d="M689.2,84.5c-3.7,0-7.3-0.8-10.6-2.4c-1.4,0.8-3.1,0.7-4.5-0.3c-1.4-1-2.1-2.5-1.9-4.1
					c-4.7-4.5-7.5-10.7-7.7-17.3c-1.5-0.9-2.4-2.5-2.1-4.4c0.2-1.8,1.5-3.2,3.2-3.7c0.6-2.1,1.5-4.1,2.7-6c0.4-0.7,1.2-1.1,2-1
					c-0.3-0.7-0.2-1.6,0.4-2.2c0.5-0.6,1.1-1.2,1.6-1.7c-0.3-1.7,0.4-3.4,1.9-4.4c1.5-1,3.3-1,4.8-0.1c6.4-3,14.1-3,20.5-0.1
					c1.4-0.8,3.1-0.8,4.5,0.1c1.5,0.9,2.2,2.6,2,4.2c0.1,0.1,0.2,0.2,0.3,0.3c1.6-0.3,3.3,0.3,4.3,1.6c1.1,1.4,1.2,3.1,0.5,4.6
					c3.6,6.5,4,14.7,1,21.6l-0.1,0.1h0c-1.3,3.1-3.2,5.8-5.6,8.2c0.3,1.7-0.4,3.3-1.9,4.4c-1.5,1-3.2,1-4.7,0.2
					C696.5,83.7,692.8,84.5,689.2,84.5z M681.8,78.7c5,2,10.9,1.8,15.8-0.4c0-0.8,0.3-1.6,0.7-2.3c0.5-0.7,1.1-1.3,1.8-1.6
					c0.1-0.9,0.1-1.8,0.1-2.7c0-0.9,0.5-1.7,1.4-2.1c-0.9-0.2-1.6-0.9-1.7-1.8c-0.1-0.7-0.2-1.3-0.4-2
					C694.7,71.4,688.7,75.9,681.8,78.7z M702,78.3C702,78.3,701.9,78.3,702,78.3L702,78.3z M676.5,78.2
					C676.5,78.2,676.5,78.2,676.5,78.2L676.5,78.2z M678.2,74.2c0.4,0.2,0.8,0.4,1.2,0.7c6.6-2.6,12.4-6.8,17-12.3
					c-0.2-0.4-0.3-0.9-0.3-1.4c-3.7-1.8-7.6-2.9-11.6-3.6c-0.4,0.6-0.9,1.2-1.6,1.6c-0.7,0.4-1.4,0.6-2.2,0.6
					C678.8,64.4,677.9,69.3,678.2,74.2z M702.9,69.5c1,0.2,1.7,1.1,1.7,2.1c0,0.4,0,0.9,0,1.3c1-1.2,1.9-2.5,2.6-3.9
					c-1-1-2-1.9-3.1-2.8c0.1,0.3,0.1,0.6,0.1,0.9C704.4,68.2,703.9,69.1,702.9,69.5z M668.9,60.4c0.2,3.8,1.8,8.7,4.9,12.5
					c-0.1-5.2,1-10.4,3.2-15.2c-0.1-0.1-0.1-0.3-0.2-0.4c-1.9,0.1-4.5,0.5-5.9,0.7C670.5,59.2,669.6,59.9,668.9,60.4z M704.9,61.3
					c1.4,1,2.8,2.1,4.1,3.3c1.1-4.4,0.7-9.2-1.2-13.3c-0.9,2.7-2.1,5.2-3.5,7.7C704.7,59.6,704.9,60.4,704.9,61.3z M699.1,61.1h1.4
					c0,0,0,0,0,0L699.1,61.1C699.1,61.1,699.1,61.1,699.1,61.1z M665.2,56.6h1.4c0,0,0,0,0,0L665.2,56.6
					C665.2,56.6,665.2,56.6,665.2,56.6z M693.5,46.8c2.9,2.7,5.4,5.9,7.3,9.4c1.3-2.3,2.4-4.8,3.2-7.3c-0.6-0.6-1-1.3-1.1-2.1
					c-0.1-0.6-0.1-1.3,0-1.9c-0.7,0.2-1.3,0.2-2,0.1c-0.9-0.2-1.7-0.6-2.3-1.2c-1.7,0.6-3.3,1.3-4.9,2.1
					C693.6,46.2,693.5,46.5,693.5,46.8z M684.9,53.3c3.7,0.5,7.3,1.5,10.7,2.9c-1.4-2.2-3.1-4.3-5.1-6.1c-0.9,0.3-1.8,0.3-2.7,0
					C686.8,51.1,685.8,52.1,684.9,53.3z M680.8,55.5L680.8,55.5C680.8,55.5,680.8,55.5,680.8,55.5z M669.7,53.5
					C669.8,53.6,669.8,53.6,669.7,53.5c2.5-0.4,5-0.7,7.5-0.7c0.9-1.1,2.2-1.8,3.6-1.7c1.2-1.6,2.5-3,4-4.3
					c-0.1-0.3-0.1-0.5-0.1-0.8c-1.6-0.9-3.4-1.6-5.1-2.2c-0.6,0.6-1.3,1-2.1,1.2c-0.8,0.2-1.7,0.2-2.5-0.1c-0.4,0.4-0.8,0.8-1.2,1.3
					c-0.5,0.5-1.1,0.8-1.8,0.7c0.2,0.6,0.2,1.3-0.2,1.9C671,50.3,670.2,51.9,669.7,53.5z M687.8,45.9h1.4c0,0,0,0,0,0L687.8,45.9
					C687.8,45.9,687.8,45.9,687.8,45.9z M707,45.8C707,45.8,707,45.8,707,45.8l1.4,0c0,0,0,0,0,0H707z M689.2,41.5
					c0.8,0,1.5,0.2,2.2,0.6c1.3-0.7,2.7-1.4,4.2-2c-4.1-1.3-8.6-1.3-12.7,0c1.4,0.6,2.8,1.2,4.2,2C687.7,41.7,688.4,41.5,689.2,41.5
					z M701.6,40.7L701.6,40.7C701.6,40.7,701.6,40.7,701.6,40.7z M676.5,40.6C676.5,40.6,676.5,40.7,676.5,40.6L676.5,40.6z"/>
			</g>
			<g>
				<circle class="st1" cx="666.2" cy="56.8" r="1.3"/>
				<path class="st1" d="M666.2,59.7c-1.6,0-2.8-1.3-2.8-2.8s1.3-2.8,2.8-2.8s2.8,1.3,2.8,2.8S667.8,59.7,666.2,59.7z M666.2,56.7
					c-0.1,0-0.2,0.1-0.2,0.2c0,0.2,0.3,0.2,0.3,0C666.4,56.7,666.3,56.7,666.2,56.7z"/>
			</g>
			<g>
				<circle class="st1" cx="676.5" cy="40.7" r="1.3"/>
				<path class="st1" d="M676.5,43.5c-1.6,0-2.8-1.3-2.8-2.8s1.3-2.8,2.8-2.8s2.8,1.3,2.8,2.8S678.1,43.5,676.5,43.5z M676.5,40.5
					c-0.1,0-0.2,0.1-0.2,0.2c0,0.2,0.3,0.2,0.3,0C676.7,40.6,676.6,40.5,676.5,40.5z"/>
			</g>
			<g>
				<circle class="st1" cx="689.2" cy="45.9" r="1.3"/>
				<path class="st1" d="M689.2,48.8c-1.6,0-2.8-1.3-2.8-2.8s1.3-2.8,2.8-2.8s2.8,1.3,2.8,2.8S690.8,48.8,689.2,48.8z M689.2,45.8
					c-0.1,0-0.2,0.1-0.2,0.2c0,0.2,0.3,0.2,0.3,0C689.3,45.8,689.3,45.8,689.2,45.8z"/>
			</g>
			<g>
				<circle class="st1" cx="680.7" cy="55.7" r="1.3"/>
				<path class="st1" d="M680.7,58.6c-1.6,0-2.8-1.3-2.8-2.8s1.3-2.8,2.8-2.8s2.8,1.3,2.8,2.8S682.3,58.6,680.7,58.6z M680.7,55.6
					c-0.1,0-0.2,0.1-0.2,0.2c0,0.2,0.3,0.2,0.3,0C680.9,55.6,680.8,55.6,680.7,55.6z"/>
			</g>
			<g>
				<circle class="st1" cx="701.5" cy="40.7" r="1.3"/>
				<path class="st1" d="M701.5,43.5c-1.6,0-2.8-1.3-2.8-2.8s1.3-2.8,2.8-2.8s2.8,1.3,2.8,2.8S703.1,43.5,701.5,43.5z M701.5,40.5
					c-0.1,0-0.2,0.1-0.2,0.2c0,0.2,0.3,0.2,0.3,0C701.7,40.6,701.6,40.5,701.5,40.5z"/>
			</g>
			<g>
				<circle class="st1" cx="707.1" cy="45.8" r="1.3"/>
				<path class="st1" d="M707.1,48.6c-1.6,0-2.8-1.3-2.8-2.8s1.3-2.8,2.8-2.8s2.8,1.3,2.8,2.8S708.6,48.6,707.1,48.6z M707.1,45.6
					c-0.1,0-0.2,0.1-0.2,0.2c0,0.2,0.3,0.2,0.3,0C707.2,45.7,707.1,45.6,707.1,45.6z"/>
			</g>
			<g>
				<circle class="st1" cx="700.5" cy="61.1" r="1.3"/>
				<path class="st1" d="M700.5,63.9c-1.6,0-2.8-1.3-2.8-2.8s1.3-2.8,2.8-2.8s2.8,1.3,2.8,2.8S702,63.9,700.5,63.9z M700.5,60.9
					c-0.1,0-0.2,0.1-0.2,0.2c0,0.2,0.3,0.2,0.3,0C700.6,61,700.6,60.9,700.5,60.9z"/>
			</g>
			<g>
				<circle class="st1" cx="701.8" cy="78.3" r="1.3"/>
				<path class="st1" d="M701.8,81.2c-1.6,0-2.8-1.3-2.8-2.8s1.3-2.8,2.8-2.8s2.8,1.3,2.8,2.8S703.4,81.2,701.8,81.2z M701.8,78.2
					c-0.1,0-0.2,0.1-0.2,0.2c0,0.2,0.3,0.2,0.3,0C702,78.3,701.9,78.2,701.8,78.2z"/>
			</g>
			<g>
				<circle class="st1" cx="676.4" cy="78.1" r="1.3"/>
				<path class="st1" d="M676.4,80.9c-1.6,0-2.8-1.3-2.8-2.8s1.3-2.8,2.8-2.8s2.8,1.3,2.8,2.8S678,80.9,676.4,80.9z M676.4,77.9
					c-0.1,0-0.2,0.1-0.2,0.2c0,0.2,0.3,0.2,0.3,0C676.5,78,676.5,77.9,676.4,77.9z"/>
			</g>
		</g>
	</g>
	<g class="st0">
		<g>
			<g>
				<path class="st1" d="M1198.9,42.2l-5.7,5.5c-3.9-4.1-8.3-6.2-13.2-6.2c-4.1,0-7.6,1.4-10.4,4.2s-4.2,6.3-4.2,10.4
					c0,2.9,0.6,5.4,1.9,7.7c1.3,2.2,3,4,5.3,5.3s4.8,1.9,7.6,1.9c2.4,0,4.6-0.4,6.5-1.3c2-0.9,4.1-2.5,6.5-4.9l5.6,5.8
					c-3.2,3.1-6.2,5.3-9,6.5s-6.1,1.8-9.7,1.8c-6.7,0-12.2-2.1-16.5-6.4s-6.4-9.7-6.4-16.4c0-4.3,1-8.1,2.9-11.5
					c1.9-3.3,4.7-6,8.4-8.1c3.6-2,7.5-3.1,11.7-3.1c3.6,0,7,0.8,10.3,2.3C1193.6,37.3,1196.5,39.4,1198.9,42.2z"/>
				<path class="st1" d="M1203.3,34.6h23.9v8.1h-7.9v35.1h-8.3V42.7h-7.7V34.6z"/>
				<path class="st1" d="M1234.7,34.6h8.2v43.2h-8.2V34.6z"/>
				<path class="st1" d="M1262.1,34.6h8.3l16.6,43.2h-8.5l-3.4-8.9h-17.6l-3.5,8.9h-8.5L1262.1,34.6z M1266.3,46l-5.8,14.8h11.5
					L1266.3,46z"/>
			</g>
		</g>
		<g>
			<path class="st1" d="M1175,92.9c-0.3-0.2-0.6-0.5-0.8-1c-0.2-0.4-0.3-0.9-0.3-1.5s0.1-1.1,0.3-1.5c0.2-0.4,0.4-0.7,0.8-1
				c0.3-0.2,0.7-0.3,1.1-0.3s0.8,0.1,1.1,0.3c0.3,0.2,0.6,0.5,0.8,1c0.2,0.4,0.3,0.9,0.3,1.5s-0.1,1.1-0.3,1.5
				c-0.2,0.4-0.4,0.7-0.8,1c-0.3,0.2-0.7,0.3-1.1,0.3C1175.7,93.2,1175.4,93.1,1175,92.9z M1177.1,92.5c0.3-0.2,0.5-0.5,0.6-0.8
				c0.1-0.4,0.2-0.8,0.2-1.3s-0.1-0.9-0.2-1.3s-0.3-0.6-0.6-0.8c-0.3-0.2-0.6-0.3-0.9-0.3s-0.6,0.1-0.9,0.3
				c-0.3,0.2-0.5,0.5-0.6,0.8c-0.1,0.4-0.2,0.8-0.2,1.3s0.1,0.9,0.2,1.3s0.3,0.6,0.6,0.8c0.3,0.2,0.6,0.3,0.9,0.3
				S1176.8,92.7,1177.1,92.5z"/>
			<path class="st1" d="M1181.6,87.7v5.5h-0.4v-5.1h-1.3v-0.4H1181.6z"/>
			<path class="st1" d="M1185.1,92.9c-0.3-0.2-0.6-0.5-0.8-1c-0.2-0.4-0.3-0.9-0.3-1.5s0.1-1.1,0.3-1.5c0.2-0.4,0.4-0.7,0.8-1
				c0.3-0.2,0.7-0.3,1.1-0.3s0.8,0.1,1.1,0.3c0.3,0.2,0.6,0.5,0.8,1c0.2,0.4,0.3,0.9,0.3,1.5s-0.1,1.1-0.3,1.5
				c-0.2,0.4-0.4,0.7-0.8,1c-0.3,0.2-0.7,0.3-1.1,0.3C1185.8,93.2,1185.4,93.1,1185.1,92.9z M1187.1,92.5c0.3-0.2,0.5-0.5,0.6-0.8
				c0.1-0.4,0.2-0.8,0.2-1.3s-0.1-0.9-0.2-1.3s-0.3-0.6-0.6-0.8c-0.3-0.2-0.6-0.3-0.9-0.3s-0.6,0.1-0.9,0.3
				c-0.3,0.2-0.5,0.5-0.6,0.8c-0.1,0.4-0.2,0.8-0.2,1.3s0.1,0.9,0.2,1.3s0.3,0.6,0.6,0.8c0.3,0.2,0.6,0.3,0.9,0.3
				C1186.6,92.8,1186.9,92.7,1187.1,92.5z"/>
			<path class="st1" d="M1191.3,92.9c-0.3-0.2-0.6-0.5-0.8-1c-0.2-0.4-0.3-0.9-0.3-1.5s0.1-1.1,0.3-1.5c0.2-0.4,0.4-0.7,0.8-1
				c0.3-0.2,0.7-0.3,1.1-0.3s0.8,0.1,1.1,0.3c0.3,0.2,0.6,0.5,0.8,1c0.2,0.4,0.3,0.9,0.3,1.5s-0.1,1.1-0.3,1.5
				c-0.2,0.4-0.4,0.7-0.8,1c-0.3,0.2-0.7,0.3-1.1,0.3C1192,93.2,1191.7,93.1,1191.3,92.9z M1193.4,92.5c0.3-0.2,0.5-0.5,0.6-0.8
				c0.1-0.4,0.2-0.8,0.2-1.3s-0.1-0.9-0.2-1.3s-0.3-0.6-0.6-0.8c-0.3-0.2-0.6-0.3-0.9-0.3s-0.6,0.1-0.9,0.3
				c-0.3,0.2-0.5,0.5-0.6,0.8c-0.1,0.4-0.2,0.8-0.2,1.3s0.1,0.9,0.2,1.3s0.3,0.6,0.6,0.8c0.3,0.2,0.6,0.3,0.9,0.3
				S1193.1,92.7,1193.4,92.5z"/>
			<path class="st1" d="M1197.6,92.9c-0.3-0.2-0.6-0.5-0.8-1c-0.2-0.4-0.3-0.9-0.3-1.5s0.1-1.1,0.3-1.5c0.2-0.4,0.4-0.7,0.8-1
				c0.3-0.2,0.7-0.3,1.1-0.3s0.8,0.1,1.1,0.3c0.3,0.2,0.6,0.5,0.8,1c0.2,0.4,0.3,0.9,0.3,1.5s-0.1,1.1-0.3,1.5
				c-0.2,0.4-0.4,0.7-0.8,1c-0.3,0.2-0.7,0.3-1.1,0.3C1198.3,93.2,1197.9,93.1,1197.6,92.9z M1199.6,92.5c0.3-0.2,0.5-0.5,0.6-0.8
				c0.1-0.4,0.2-0.8,0.2-1.3s-0.1-0.9-0.2-1.3s-0.3-0.6-0.6-0.8c-0.3-0.2-0.6-0.3-0.9-0.3s-0.6,0.1-0.9,0.3
				c-0.3,0.2-0.5,0.5-0.6,0.8c-0.1,0.4-0.2,0.8-0.2,1.3s0.1,0.9,0.2,1.3s0.3,0.6,0.6,0.8c0.3,0.2,0.6,0.3,0.9,0.3
				S1199.3,92.7,1199.6,92.5z"/>
			<path class="st1" d="M1203.8,92.9c-0.3-0.2-0.6-0.5-0.8-1c-0.2-0.4-0.3-0.9-0.3-1.5s0.1-1.1,0.3-1.5c0.2-0.4,0.4-0.7,0.8-1
				c0.3-0.2,0.7-0.3,1.1-0.3s0.8,0.1,1.1,0.3c0.3,0.2,0.6,0.5,0.8,1c0.2,0.4,0.3,0.9,0.3,1.5s-0.1,1.1-0.3,1.5
				c-0.2,0.4-0.4,0.7-0.8,1c-0.3,0.2-0.7,0.3-1.1,0.3C1204.5,93.2,1204.1,93.1,1203.8,92.9z M1205.8,92.5c0.3-0.2,0.5-0.5,0.6-0.8
				c0.1-0.4,0.2-0.8,0.2-1.3s-0.1-0.9-0.2-1.3s-0.3-0.6-0.6-0.8c-0.3-0.2-0.6-0.3-0.9-0.3s-0.6,0.1-0.9,0.3
				c-0.3,0.2-0.5,0.5-0.6,0.8c-0.1,0.4-0.2,0.8-0.2,1.3s0.1,0.9,0.2,1.3s0.3,0.6,0.6,0.8c0.3,0.2,0.6,0.3,0.9,0.3
				C1205.3,92.8,1205.6,92.7,1205.8,92.5z"/>
			<path class="st1" d="M1210.4,87.7v5.5h-0.4v-5.1h-1.3v-0.4H1210.4z"/>
			<path class="st1" d="M1214.2,87.7v5.5h-0.4v-5.1h-1.3v-0.4H1214.2z"/>
			<path class="st1" d="M1217.7,92.9c-0.3-0.2-0.6-0.5-0.8-1c-0.2-0.4-0.3-0.9-0.3-1.5s0.1-1.1,0.3-1.5c0.2-0.4,0.4-0.7,0.8-1
				c0.3-0.2,0.7-0.3,1.1-0.3s0.8,0.1,1.1,0.3c0.3,0.2,0.6,0.5,0.8,1c0.2,0.4,0.3,0.9,0.3,1.5s-0.1,1.1-0.3,1.5
				c-0.2,0.4-0.4,0.7-0.8,1c-0.3,0.2-0.7,0.3-1.1,0.3C1218.4,93.2,1218.1,93.1,1217.7,92.9z M1219.8,92.5c0.3-0.2,0.5-0.5,0.6-0.8
				c0.1-0.4,0.2-0.8,0.2-1.3s-0.1-0.9-0.2-1.3s-0.3-0.6-0.6-0.8c-0.3-0.2-0.6-0.3-0.9-0.3s-0.6,0.1-0.9,0.3
				c-0.3,0.2-0.5,0.5-0.6,0.8c-0.1,0.4-0.2,0.8-0.2,1.3s0.1,0.9,0.2,1.3s0.3,0.6,0.6,0.8c0.3,0.2,0.6,0.3,0.9,0.3
				C1219.2,92.8,1219.5,92.7,1219.8,92.5z"/>
			<path class="st1" d="M1224.3,87.7v5.5h-0.4v-5.1h-1.3v-0.4H1224.3z"/>
			<path class="st1" d="M1227.8,92.9c-0.3-0.2-0.6-0.5-0.8-1c-0.2-0.4-0.3-0.9-0.3-1.5s0.1-1.1,0.3-1.5c0.2-0.4,0.4-0.7,0.8-1
				c0.3-0.2,0.7-0.3,1.1-0.3s0.8,0.1,1.1,0.3c0.3,0.2,0.6,0.5,0.8,1c0.2,0.4,0.3,0.9,0.3,1.5s-0.1,1.1-0.3,1.5
				c-0.2,0.4-0.4,0.7-0.8,1c-0.3,0.2-0.7,0.3-1.1,0.3C1228.5,93.2,1228.1,93.1,1227.8,92.9z M1229.8,92.5c0.3-0.2,0.5-0.5,0.6-0.8
				c0.1-0.4,0.2-0.8,0.2-1.3s-0.1-0.9-0.2-1.3s-0.3-0.6-0.6-0.8c-0.3-0.2-0.6-0.3-0.9-0.3s-0.6,0.1-0.9,0.3
				c-0.3,0.2-0.5,0.5-0.6,0.8c-0.1,0.4-0.2,0.8-0.2,1.3s0.1,0.9,0.2,1.3s0.3,0.6,0.6,0.8c0.3,0.2,0.6,0.3,0.9,0.3
				C1229.3,92.8,1229.6,92.7,1229.8,92.5z"/>
			<path class="st1" d="M1234.4,87.7v5.5h-0.4v-5.1h-1.3v-0.4H1234.4z"/>
			<path class="st1" d="M1237.9,92.9c-0.3-0.2-0.6-0.5-0.8-1c-0.2-0.4-0.3-0.9-0.3-1.5s0.1-1.1,0.3-1.5c0.2-0.4,0.4-0.7,0.8-1
				c0.3-0.2,0.7-0.3,1.1-0.3s0.8,0.1,1.1,0.3c0.3,0.2,0.6,0.5,0.8,1c0.2,0.4,0.3,0.9,0.3,1.5s-0.1,1.1-0.3,1.5
				c-0.2,0.4-0.4,0.7-0.8,1c-0.3,0.2-0.7,0.3-1.1,0.3C1238.6,93.2,1238.2,93.1,1237.9,92.9z M1239.9,92.5c0.3-0.2,0.5-0.5,0.6-0.8
				c0.1-0.4,0.2-0.8,0.2-1.3s-0.1-0.9-0.2-1.3s-0.3-0.6-0.6-0.8c-0.3-0.2-0.6-0.3-0.9-0.3s-0.6,0.1-0.9,0.3
				c-0.3,0.2-0.5,0.5-0.6,0.8c-0.1,0.4-0.2,0.8-0.2,1.3s0.1,0.9,0.2,1.3s0.3,0.6,0.6,0.8c0.3,0.2,0.6,0.3,0.9,0.3
				S1239.6,92.7,1239.9,92.5z"/>
			<path class="st1" d="M1244.5,87.7v5.5h-0.4v-5.1h-1.3v-0.4H1244.5z"/>
			<path class="st1" d="M1248,92.9c-0.3-0.2-0.6-0.5-0.8-1c-0.2-0.4-0.3-0.9-0.3-1.5s0.1-1.1,0.3-1.5c0.2-0.4,0.4-0.7,0.8-1
				c0.3-0.2,0.7-0.3,1.1-0.3s0.8,0.1,1.1,0.3c0.3,0.2,0.6,0.5,0.8,1c0.2,0.4,0.3,0.9,0.3,1.5s-0.1,1.1-0.3,1.5
				c-0.2,0.4-0.4,0.7-0.8,1c-0.3,0.2-0.7,0.3-1.1,0.3S1248.3,93.1,1248,92.9z M1250,92.5c0.3-0.2,0.5-0.5,0.6-0.8
				c0.1-0.4,0.2-0.8,0.2-1.3s-0.1-0.9-0.2-1.3s-0.3-0.6-0.6-0.8c-0.3-0.2-0.6-0.3-0.9-0.3s-0.6,0.1-0.9,0.3
				c-0.3,0.2-0.5,0.5-0.6,0.8c-0.1,0.4-0.2,0.8-0.2,1.3s0.1,0.9,0.2,1.3s0.3,0.6,0.6,0.8c0.3,0.2,0.6,0.3,0.9,0.3
				S1249.7,92.7,1250,92.5z"/>
			<path class="st1" d="M1254.2,92.9c-0.3-0.2-0.6-0.5-0.8-1c-0.2-0.4-0.3-0.9-0.3-1.5s0.1-1.1,0.3-1.5c0.2-0.4,0.4-0.7,0.8-1
				c0.3-0.2,0.7-0.3,1.1-0.3s0.8,0.1,1.1,0.3c0.3,0.2,0.6,0.5,0.8,1c0.2,0.4,0.3,0.9,0.3,1.5s-0.1,1.1-0.3,1.5
				c-0.2,0.4-0.4,0.7-0.8,1c-0.3,0.2-0.7,0.3-1.1,0.3C1254.9,93.2,1254.5,93.1,1254.2,92.9z M1256.2,92.5c0.3-0.2,0.5-0.5,0.6-0.8
				c0.1-0.4,0.2-0.8,0.2-1.3s-0.1-0.9-0.2-1.3s-0.3-0.6-0.6-0.8c-0.3-0.2-0.6-0.3-0.9-0.3s-0.6,0.1-0.9,0.3
				c-0.3,0.2-0.5,0.5-0.6,0.8c-0.1,0.4-0.2,0.8-0.2,1.3s0.1,0.9,0.2,1.3s0.3,0.6,0.6,0.8c0.3,0.2,0.6,0.3,0.9,0.3
				C1255.7,92.8,1256,92.7,1256.2,92.5z"/>
			<path class="st1" d="M1260.4,92.9c-0.3-0.2-0.6-0.5-0.8-1c-0.2-0.4-0.3-0.9-0.3-1.5s0.1-1.1,0.3-1.5c0.2-0.4,0.4-0.7,0.8-1
				c0.3-0.2,0.7-0.3,1.1-0.3s0.8,0.1,1.1,0.3c0.3,0.2,0.6,0.5,0.8,1c0.2,0.4,0.3,0.9,0.3,1.5s-0.1,1.1-0.3,1.5
				c-0.2,0.4-0.4,0.7-0.8,1c-0.3,0.2-0.7,0.3-1.1,0.3C1261.1,93.2,1260.8,93.1,1260.4,92.9z M1262.4,92.5c0.3-0.2,0.5-0.5,0.6-0.8
				c0.1-0.4,0.2-0.8,0.2-1.3s-0.1-0.9-0.2-1.3s-0.3-0.6-0.6-0.8c-0.3-0.2-0.6-0.3-0.9-0.3s-0.6,0.1-0.9,0.3
				c-0.3,0.2-0.5,0.5-0.6,0.8c-0.1,0.4-0.2,0.8-0.2,1.3s0.1,0.9,0.2,1.3s0.3,0.6,0.6,0.8c0.3,0.2,0.6,0.3,0.9,0.3
				C1261.9,92.8,1262.2,92.7,1262.4,92.5z"/>
			<path class="st1" d="M1267,87.7v5.5h-0.4v-5.1h-1.3v-0.4H1267z"/>
			<path class="st1" d="M1270.5,92.9c-0.3-0.2-0.6-0.5-0.8-1c-0.2-0.4-0.3-0.9-0.3-1.5s0.1-1.1,0.3-1.5c0.2-0.4,0.4-0.7,0.8-1
				c0.3-0.2,0.7-0.3,1.1-0.3s0.8,0.1,1.1,0.3c0.3,0.2,0.6,0.5,0.8,1c0.2,0.4,0.3,0.9,0.3,1.5s-0.1,1.1-0.3,1.5
				c-0.2,0.4-0.4,0.7-0.8,1c-0.3,0.2-0.7,0.3-1.1,0.3S1270.8,93.1,1270.5,92.9z M1272.5,92.5c0.3-0.2,0.5-0.5,0.6-0.8
				c0.1-0.4,0.2-0.8,0.2-1.3s-0.1-0.9-0.2-1.3s-0.3-0.6-0.6-0.8c-0.3-0.2-0.6-0.3-0.9-0.3s-0.6,0.1-0.9,0.3
				c-0.3,0.2-0.5,0.5-0.6,0.8c-0.1,0.4-0.2,0.8-0.2,1.3s0.1,0.9,0.2,1.3s0.3,0.6,0.6,0.8c0.3,0.2,0.6,0.3,0.9,0.3
				C1272,92.8,1272.3,92.7,1272.5,92.5z"/>
			<path class="st1" d="M1276.7,92.9c-0.3-0.2-0.6-0.5-0.8-1c-0.2-0.4-0.3-0.9-0.3-1.5s0.1-1.1,0.3-1.5c0.2-0.4,0.4-0.7,0.8-1
				c0.3-0.2,0.7-0.3,1.1-0.3s0.8,0.1,1.1,0.3c0.3,0.2,0.6,0.5,0.8,1c0.2,0.4,0.3,0.9,0.3,1.5s-0.1,1.1-0.3,1.5
				c-0.2,0.4-0.4,0.7-0.8,1c-0.3,0.2-0.7,0.3-1.1,0.3C1277.4,93.2,1277.1,93.1,1276.7,92.9z M1278.8,92.5c0.3-0.2,0.5-0.5,0.6-0.8
				c0.1-0.4,0.2-0.8,0.2-1.3s-0.1-0.9-0.2-1.3s-0.3-0.6-0.6-0.8c-0.3-0.2-0.6-0.3-0.9-0.3s-0.6,0.1-0.9,0.3
				c-0.3,0.2-0.5,0.5-0.6,0.8c-0.1,0.4-0.2,0.8-0.2,1.3s0.1,0.9,0.2,1.3s0.3,0.6,0.6,0.8c0.3,0.2,0.6,0.3,0.9,0.3
				S1278.5,92.7,1278.8,92.5z"/>
			<path class="st1" d="M1283.3,87.7v5.5h-0.4v-5.1h-1.3v-0.4H1283.3z"/>
			<path class="st1" d="M1286.8,92.9c-0.3-0.2-0.6-0.5-0.8-1c-0.2-0.4-0.3-0.9-0.3-1.5s0.1-1.1,0.3-1.5c0.2-0.4,0.4-0.7,0.8-1
				c0.3-0.2,0.7-0.3,1.1-0.3s0.8,0.1,1.1,0.3c0.3,0.2,0.6,0.5,0.8,1c0.2,0.4,0.3,0.9,0.3,1.5s-0.1,1.1-0.3,1.5
				c-0.2,0.4-0.4,0.7-0.8,1c-0.3,0.2-0.7,0.3-1.1,0.3C1287.5,93.2,1287.1,93.1,1286.8,92.9z M1288.8,92.5c0.3-0.2,0.5-0.5,0.6-0.8
				c0.1-0.4,0.2-0.8,0.2-1.3s-0.1-0.9-0.2-1.3s-0.3-0.6-0.6-0.8c-0.3-0.2-0.6-0.3-0.9-0.3s-0.6,0.1-0.9,0.3
				c-0.3,0.2-0.5,0.5-0.6,0.8c-0.1,0.4-0.2,0.8-0.2,1.3s0.1,0.9,0.2,1.3s0.3,0.6,0.6,0.8c0.3,0.2,0.6,0.3,0.9,0.3
				S1288.6,92.7,1288.8,92.5z"/>
			<path class="st1" d="M1293,92.9c-0.3-0.2-0.6-0.5-0.8-1c-0.2-0.4-0.3-0.9-0.3-1.5s0.1-1.1,0.3-1.5c0.2-0.4,0.4-0.7,0.8-1
				c0.3-0.2,0.7-0.3,1.1-0.3s0.8,0.1,1.1,0.3c0.3,0.2,0.6,0.5,0.8,1c0.2,0.4,0.3,0.9,0.3,1.5s-0.1,1.1-0.3,1.5
				c-0.2,0.4-0.4,0.7-0.8,1c-0.3,0.2-0.7,0.3-1.1,0.3C1293.7,93.2,1293.4,93.1,1293,92.9z M1295.1,92.5c0.3-0.2,0.5-0.5,0.6-0.8
				c0.1-0.4,0.2-0.8,0.2-1.3s-0.1-0.9-0.2-1.3s-0.3-0.6-0.6-0.8c-0.3-0.2-0.6-0.3-0.9-0.3s-0.6,0.1-0.9,0.3
				c-0.3,0.2-0.5,0.5-0.6,0.8c-0.1,0.4-0.2,0.8-0.2,1.3s0.1,0.9,0.2,1.3s0.3,0.6,0.6,0.8c0.3,0.2,0.6,0.3,0.9,0.3
				S1294.8,92.7,1295.1,92.5z"/>
			<path class="st1" d="M1299.6,87.7v5.5h-0.4v-5.1h-1.3v-0.4H1299.6z"/>
			<path class="st1" d="M1303.1,92.9c-0.3-0.2-0.6-0.5-0.8-1c-0.2-0.4-0.3-0.9-0.3-1.5s0.1-1.1,0.3-1.5c0.2-0.4,0.4-0.7,0.8-1
				c0.3-0.2,0.7-0.3,1.1-0.3s0.8,0.1,1.1,0.3c0.3,0.2,0.6,0.5,0.8,1c0.2,0.4,0.3,0.9,0.3,1.5s-0.1,1.1-0.3,1.5
				c-0.2,0.4-0.4,0.7-0.8,1c-0.3,0.2-0.7,0.3-1.1,0.3C1303.8,93.2,1303.4,93.1,1303.1,92.9z M1305.1,92.5c0.3-0.2,0.5-0.5,0.6-0.8
				c0.1-0.4,0.2-0.8,0.2-1.3s-0.1-0.9-0.2-1.3s-0.3-0.6-0.6-0.8c-0.3-0.2-0.6-0.3-0.9-0.3s-0.6,0.1-0.9,0.3
				c-0.3,0.2-0.5,0.5-0.6,0.8c-0.1,0.4-0.2,0.8-0.2,1.3s0.1,0.9,0.2,1.3s0.3,0.6,0.6,0.8c0.3,0.2,0.6,0.3,0.9,0.3
				C1304.6,92.8,1304.9,92.7,1305.1,92.5z"/>
			<path class="st1" d="M1309.7,87.7v5.5h-0.4v-5.1h-1.3v-0.4H1309.7z"/>
			<path class="st1" d="M1313.2,92.9c-0.3-0.2-0.6-0.5-0.8-1c-0.2-0.4-0.3-0.9-0.3-1.5s0.1-1.1,0.3-1.5c0.2-0.4,0.4-0.7,0.8-1
				c0.3-0.2,0.7-0.3,1.1-0.3s0.8,0.1,1.1,0.3c0.3,0.2,0.6,0.5,0.8,1c0.2,0.4,0.3,0.9,0.3,1.5s-0.1,1.1-0.3,1.5
				c-0.2,0.4-0.4,0.7-0.8,1c-0.3,0.2-0.7,0.3-1.1,0.3C1313.9,93.2,1313.5,93.1,1313.2,92.9z M1315.2,92.5c0.3-0.2,0.5-0.5,0.6-0.8
				c0.1-0.4,0.2-0.8,0.2-1.3s-0.1-0.9-0.2-1.3s-0.3-0.6-0.6-0.8c-0.3-0.2-0.6-0.3-0.9-0.3s-0.6,0.1-0.9,0.3
				c-0.3,0.2-0.5,0.5-0.6,0.8c-0.1,0.4-0.2,0.8-0.2,1.3s0.1,0.9,0.2,1.3s0.3,0.6,0.6,0.8c0.3,0.2,0.6,0.3,0.9,0.3
				S1315,92.7,1315.2,92.5z"/>
			<path class="st1" d="M1319.4,92.9c-0.3-0.2-0.6-0.5-0.8-1c-0.2-0.4-0.3-0.9-0.3-1.5s0.1-1.1,0.3-1.5c0.2-0.4,0.4-0.7,0.8-1
				c0.3-0.2,0.7-0.3,1.1-0.3s0.8,0.1,1.1,0.3c0.3,0.2,0.6,0.5,0.8,1c0.2,0.4,0.3,0.9,0.3,1.5s-0.1,1.1-0.3,1.5
				c-0.2,0.4-0.4,0.7-0.8,1c-0.3,0.2-0.7,0.3-1.1,0.3C1320.1,93.2,1319.8,93.1,1319.4,92.9z M1321.4,92.5c0.3-0.2,0.5-0.5,0.6-0.8
				c0.1-0.4,0.2-0.8,0.2-1.3s-0.1-0.9-0.2-1.3s-0.3-0.6-0.6-0.8c-0.3-0.2-0.6-0.3-0.9-0.3s-0.6,0.1-0.9,0.3
				c-0.3,0.2-0.5,0.5-0.6,0.8c-0.1,0.4-0.2,0.8-0.2,1.3s0.1,0.9,0.2,1.3s0.3,0.6,0.6,0.8c0.3,0.2,0.6,0.3,0.9,0.3
				C1320.9,92.8,1321.2,92.7,1321.4,92.5z"/>
			<path class="st1" d="M1325.7,92.9c-0.3-0.2-0.6-0.5-0.8-1c-0.2-0.4-0.3-0.9-0.3-1.5s0.1-1.1,0.3-1.5c0.2-0.4,0.4-0.7,0.8-1
				c0.3-0.2,0.7-0.3,1.1-0.3s0.8,0.1,1.1,0.3c0.3,0.2,0.6,0.5,0.8,1c0.2,0.4,0.3,0.9,0.3,1.5s-0.1,1.1-0.3,1.5
				c-0.2,0.4-0.4,0.7-0.8,1c-0.3,0.2-0.7,0.3-1.1,0.3C1326.4,93.2,1326,93.1,1325.7,92.9z M1327.7,92.5c0.3-0.2,0.5-0.5,0.6-0.8
				c0.1-0.4,0.2-0.8,0.2-1.3s-0.1-0.9-0.2-1.3s-0.3-0.6-0.6-0.8c-0.3-0.2-0.6-0.3-0.9-0.3s-0.6,0.1-0.9,0.3
				c-0.3,0.2-0.5,0.5-0.6,0.8c-0.1,0.4-0.2,0.8-0.2,1.3s0.1,0.9,0.2,1.3s0.3,0.6,0.6,0.8c0.3,0.2,0.6,0.3,0.9,0.3
				S1327.4,92.7,1327.7,92.5z"/>
			<path class="st1" d="M1331.9,92.9c-0.3-0.2-0.6-0.5-0.8-1c-0.2-0.4-0.3-0.9-0.3-1.5s0.1-1.1,0.3-1.5c0.2-0.4,0.4-0.7,0.8-1
				c0.3-0.2,0.7-0.3,1.1-0.3s0.8,0.1,1.1,0.3c0.3,0.2,0.6,0.5,0.8,1c0.2,0.4,0.3,0.9,0.3,1.5s-0.1,1.1-0.3,1.5
				c-0.2,0.4-0.4,0.7-0.8,1c-0.3,0.2-0.7,0.3-1.1,0.3C1332.6,93.2,1332.2,93.1,1331.9,92.9z M1333.9,92.5c0.3-0.2,0.5-0.5,0.6-0.8
				c0.1-0.4,0.2-0.8,0.2-1.3s-0.1-0.9-0.2-1.3s-0.3-0.6-0.6-0.8c-0.3-0.2-0.6-0.3-0.9-0.3s-0.6,0.1-0.9,0.3
				c-0.3,0.2-0.5,0.5-0.6,0.8c-0.1,0.4-0.2,0.8-0.2,1.3s0.1,0.9,0.2,1.3s0.3,0.6,0.6,0.8c0.3,0.2,0.6,0.3,0.9,0.3
				S1333.6,92.7,1333.9,92.5z"/>
			<path class="st1" d="M1338.1,92.9c-0.3-0.2-0.6-0.5-0.8-1c-0.2-0.4-0.3-0.9-0.3-1.5s0.1-1.1,0.3-1.5c0.2-0.4,0.4-0.7,0.8-1
				c0.3-0.2,0.7-0.3,1.1-0.3s0.8,0.1,1.1,0.3c0.3,0.2,0.6,0.5,0.8,1c0.2,0.4,0.3,0.9,0.3,1.5s-0.1,1.1-0.3,1.5
				c-0.2,0.4-0.4,0.7-0.8,1c-0.3,0.2-0.7,0.3-1.1,0.3C1338.8,93.2,1338.4,93.1,1338.1,92.9z M1340.1,92.5c0.3-0.2,0.5-0.5,0.6-0.8
				c0.1-0.4,0.2-0.8,0.2-1.3s-0.1-0.9-0.2-1.3s-0.3-0.6-0.6-0.8c-0.3-0.2-0.6-0.3-0.9-0.3s-0.6,0.1-0.9,0.3
				c-0.3,0.2-0.5,0.5-0.6,0.8c-0.1,0.4-0.2,0.8-0.2,1.3s0.1,0.9,0.2,1.3s0.3,0.6,0.6,0.8c0.3,0.2,0.6,0.3,0.9,0.3
				C1339.6,92.8,1339.9,92.7,1340.1,92.5z"/>
			<path class="st1" d="M1344.7,87.7v5.5h-0.4v-5.1h-1.3v-0.4H1344.7z"/>
		</g>
		<g>
			<path class="st1" d="M1351.3,91.6c-0.9,0-1.1,0-2-0.1l-2.1-0.1v-2.7h1.8c7.1,0.9,15.9-2.5,21.2-5.6c6.6-3.9,11.7-10,13.8-16.6
				c1.8-5.8,1.7-12.6-0.3-19.9c-2.1-7.4-5.6-13.4-10.3-17.3c-8.9-7.6-21.7-7.9-30.5-7.5h-0.3l-0.1-2.8l1.4-0.1
				c18.2-0.8,26.6,4.3,31.2,8.2c5.1,4.3,9,10.8,11.2,18.7c2.2,7.7,2.2,15.2,0.2,21.4c-2.3,7.3-7.8,13.9-15,18.1
				C1366.5,88.4,1358.5,91.6,1351.3,91.6z"/>
		</g>
		<rect x="1333.2" y="13.1" class="st1" width="1.8" height="14.7"/>
		<rect x="1337.3" y="14.3" class="st1" width="1.8" height="12.4"/>
		<rect x="1341" y="14.7" class="st1" width="2.3" height="11.5"/>
		<rect x="1334.6" y="17" class="st1" width="3.2" height="6.9"/>
		<rect x="1338.7" y="17" class="st1" width="2.3" height="6.9"/>
		<rect x="1330.4" y="17" class="st1" width="3.2" height="6.9"/>
		<rect x="1315.3" y="21.9" class="st2" width="2.8" height="0.9"/>
		<rect x="1315.3" y="20" class="st2" width="2.8" height="0.9"/>
		<rect x="1315.3" y="16.3" class="st2" width="2.8" height="0.9"/>
		<rect x="1315.3" y="18.2" class="st2" width="2.8" height="0.9"/>
		<rect x="1315.3" y="23.7" class="st2" width="2.8" height="0.9"/>
		<polygon class="st1" points="1324,12.9 1324,18.2 1326.1,18.2 1326.1,22.8 1324,22.8 1324,28 1330.9,28 1330.9,12.9 		"/>
		<rect x="1322.7" y="18.6" class="st3" width="1.3" height="3.7"/>
		<rect x="1324" y="18.6" class="st3" width="1.7" height="3.7"/>
		<path class="st1" d="M1321.5,18.2h1.2v-3.5h-8.3v11.5h8.3v-3.4h-1.2V18.2z M1318.1,24.6h-2.8v-0.9h2.8V24.6z M1318.1,22.8h-2.8
			v-0.9h2.8V22.8z M1318.1,20.9h-2.8V20h2.8V20.9z M1318.1,19.1h-2.8v-0.9h2.8V19.1z M1318.1,17.2h-2.8v-0.9h2.8V17.2z"/>
		<rect x="1322" y="18.6" class="st1" width="0.7" height="3.7"/>
		<polygon class="st1" points="1321.7,22.5 1321.7,18.4 1322.7,18.4 1322.7,18.2 1321.5,18.2 1321.5,22.8 1322.7,22.8 1322.7,22.5 
					"/>
		<polygon class="st1" points="1322,22.3 1322,18.6 1322.7,18.6 1322.7,18.4 1321.7,18.4 1321.7,22.5 1322.7,22.5 1322.7,22.3 		"/>
		<path class="st1" d="M1166,83.2h-2.7c-3.2,0-5.8,2.6-5.8,5.8v2.3c0,3.2,2.6,5.8,5.8,5.8h2.7c3.2,0,5.7-2.6,5.8-5.8V89
			C1171.8,85.8,1169.2,83.2,1166,83.2z M1169.6,93.4h-2.1l0.1,1.6h-6v-1.6h-2.1v-8.3h10.1V93.4z"/>
		<polygon class="st1" points="1162.1,94.6 1167.1,94.6 1167.1,93 1169.2,93 1169.2,85.7 1168.6,85.7 1168.6,87.4 1167.7,87.4 
			1167.7,85.7 1166.8,85.7 1166.8,87.4 1165.9,87.4 1165.9,85.7 1165.1,85.7 1165.1,87.4 1164.2,87.4 1164.2,85.7 1163.4,85.7 
			1163.4,87.4 1162.5,87.4 1162.5,85.7 1161.6,85.7 1161.6,87.4 1160.7,87.4 1160.7,85.7 1160,85.7 1160,93 1162.1,93 		"/>
		<g>
			<path class="st1" d="M1295.3,39.6c-0.6-0.3-1.1-0.8-1.4-1.4c-0.3-0.6-0.5-1.2-0.5-2c0-0.7,0.2-1.4,0.5-2s0.8-1,1.4-1.4
				c0.6-0.3,1.3-0.5,2-0.5c0.6,0,1.2,0.1,1.7,0.3s0.9,0.5,1.3,0.9l-0.9,0.8c-0.5-0.6-1.2-0.9-2-0.9c-0.5,0-1,0.1-1.4,0.3
				s-0.7,0.5-0.9,0.9c-0.2,0.4-0.3,0.8-0.3,1.3s0.1,0.9,0.3,1.3c0.2,0.4,0.5,0.7,0.9,0.9s0.9,0.3,1.4,0.3c0.8,0,1.4-0.3,2-0.9
				l0.9,0.8c-0.3,0.4-0.8,0.7-1.3,0.9s-1.1,0.3-1.7,0.3C1296.5,40.1,1295.9,40,1295.3,39.6z"/>
			<path class="st1" d="M1302,39.7c-0.5-0.2-0.8-0.6-1.1-1c-0.3-0.4-0.4-0.9-0.4-1.5s0.1-1.1,0.4-1.5s0.6-0.8,1.1-1s1-0.4,1.5-0.4
				c0.6,0,1.1,0.1,1.6,0.4c0.5,0.2,0.8,0.6,1.1,1c0.3,0.4,0.4,0.9,0.4,1.5s-0.1,1.1-0.4,1.5s-0.6,0.8-1.1,1s-1,0.4-1.6,0.4
				C1303,40.1,1302.4,40,1302,39.7z M1304.7,38.5c0.3-0.3,0.5-0.7,0.5-1.3c0-0.5-0.2-1-0.5-1.3s-0.7-0.5-1.2-0.5s-0.9,0.2-1.2,0.5
				c-0.3,0.3-0.5,0.7-0.5,1.3c0,0.5,0.2,1,0.5,1.3s0.7,0.5,1.2,0.5S1304.4,38.8,1304.7,38.5z"/>
			<path class="st1" d="M1308.6,39.7c-0.5-0.2-0.8-0.6-1.1-1c-0.3-0.4-0.4-0.9-0.4-1.5s0.1-1.1,0.4-1.5s0.6-0.8,1.1-1s1-0.4,1.5-0.4
				c0.6,0,1.1,0.1,1.6,0.4c0.5,0.2,0.8,0.6,1.1,1c0.3,0.4,0.4,0.9,0.4,1.5s-0.1,1.1-0.4,1.5s-0.6,0.8-1.1,1s-1,0.4-1.6,0.4
				C1309.5,40.1,1309,40,1308.6,39.7z M1311.3,38.5c0.3-0.3,0.5-0.7,0.5-1.3c0-0.5-0.2-1-0.5-1.3s-0.7-0.5-1.2-0.5s-0.9,0.2-1.2,0.5
				c-0.3,0.3-0.5,0.7-0.5,1.3c0,0.5,0.2,1,0.5,1.3s0.7,0.5,1.2,0.5C1310.6,39,1311,38.8,1311.3,38.5z"/>
			<path class="st1" d="M1317.4,34.3v1.3c-0.1,0-0.2,0-0.3,0c-0.5,0-0.9,0.1-1.2,0.4c-0.3,0.3-0.4,0.7-0.4,1.3V40h-1.3v-5.6h1.3v0.8
				C1315.8,34.6,1316.5,34.3,1317.4,34.3z"/>
			<path class="st1" d="M1323.8,32.2V40h-1.3v-0.7c-0.2,0.3-0.5,0.5-0.8,0.6s-0.7,0.2-1.1,0.2c-0.5,0-1-0.1-1.5-0.4
				c-0.4-0.2-0.8-0.6-1-1s-0.4-0.9-0.4-1.5s0.1-1.1,0.4-1.5c0.2-0.4,0.6-0.8,1-1s0.9-0.4,1.5-0.4c0.4,0,0.7,0.1,1,0.2
				c0.3,0.1,0.6,0.3,0.8,0.6v-2.9C1322.4,32.2,1323.8,32.2,1323.8,32.2z M1321.7,38.8c0.3-0.1,0.5-0.3,0.6-0.6s0.2-0.6,0.2-0.9
				c0-0.4-0.1-0.7-0.2-0.9c-0.1-0.3-0.3-0.5-0.6-0.6c-0.3-0.1-0.5-0.2-0.9-0.2c-0.3,0-0.6,0.1-0.9,0.2c-0.3,0.1-0.5,0.3-0.6,0.6
				s-0.2,0.6-0.2,0.9c0,0.4,0.1,0.7,0.2,0.9c0.1,0.3,0.3,0.5,0.6,0.6c0.3,0.1,0.5,0.2,0.9,0.2S1321.4,38.9,1321.7,38.8z"/>
			<path class="st1" d="M1325.4,33.2c-0.2-0.2-0.2-0.3-0.2-0.6s0.1-0.4,0.2-0.6c0.2-0.2,0.4-0.2,0.6-0.2s0.4,0.1,0.6,0.2
				c0.2,0.1,0.2,0.3,0.2,0.5s-0.1,0.4-0.2,0.6c-0.2,0.2-0.4,0.2-0.6,0.2C1325.8,33.5,1325.6,33.4,1325.4,33.2z M1325.3,34.4h1.3V40
				h-1.3V34.4z"/>
			<path class="st1" d="M1333.1,34.9c0.4,0.4,0.6,1,0.6,1.8V40h-1.3v-3c0-0.5-0.1-0.9-0.3-1.1c-0.2-0.2-0.6-0.4-1-0.4
				c-0.5,0-0.9,0.1-1.2,0.4s-0.4,0.7-0.4,1.3V40h-1.3v-5.6h1.3v0.7c0.2-0.3,0.5-0.5,0.8-0.6s0.7-0.2,1.1-0.2
				C1332.1,34.3,1332.6,34.5,1333.1,34.9z"/>
			<path class="st1" d="M1339.2,34.9c0.4,0.4,0.7,1,0.7,1.8V40h-1.2v-0.7c-0.2,0.2-0.4,0.4-0.7,0.6c-0.3,0.1-0.7,0.2-1.1,0.2
				s-0.8-0.1-1.1-0.2c-0.3-0.1-0.6-0.3-0.7-0.6c-0.2-0.3-0.3-0.5-0.3-0.9c0-0.5,0.2-0.9,0.6-1.2s1-0.5,1.8-0.5h1.5v-0.1
				c0-0.4-0.1-0.7-0.4-0.9c-0.2-0.2-0.6-0.3-1-0.3c-0.3,0-0.6,0-0.9,0.1s-0.6,0.2-0.8,0.4l-0.5-1c0.3-0.2,0.7-0.4,1.1-0.5
				s0.9-0.2,1.3-0.2C1338.2,34.3,1338.8,34.5,1339.2,34.9z M1338,38.9c0.3-0.2,0.4-0.4,0.5-0.6v-0.7h-1.4c-0.8,0-1.1,0.2-1.1,0.7
				c0,0.2,0.1,0.4,0.3,0.6c0.2,0.1,0.5,0.2,0.8,0.2C1337.5,39.1,1337.8,39.1,1338,38.9z"/>
			<path class="st1" d="M1342.4,39.7c-0.5-0.2-0.8-0.6-1.1-1c-0.3-0.4-0.4-0.9-0.4-1.5s0.1-1.1,0.4-1.5s0.6-0.8,1.1-1s1-0.4,1.6-0.4
				s1,0.1,1.5,0.3c0.4,0.2,0.7,0.5,0.9,1l-1,0.6c-0.2-0.3-0.4-0.5-0.6-0.6s-0.5-0.2-0.8-0.2c-0.5,0-0.9,0.2-1.2,0.5
				c-0.3,0.3-0.5,0.7-0.5,1.3c0,0.5,0.2,1,0.5,1.3s0.7,0.5,1.2,0.5c0.3,0,0.6-0.1,0.8-0.2c0.2-0.1,0.4-0.3,0.6-0.6l1,0.6
				c-0.2,0.4-0.5,0.7-1,1c-0.4,0.2-0.9,0.3-1.5,0.3C1343.4,40.1,1342.9,40,1342.4,39.7z"/>
			<path class="st1" d="M1347.4,33.2c-0.2-0.2-0.2-0.3-0.2-0.6s0.1-0.4,0.2-0.6c0.2-0.2,0.4-0.2,0.6-0.2s0.4,0.1,0.6,0.2
				c0.2,0.1,0.2,0.3,0.2,0.5s-0.1,0.4-0.2,0.6c-0.2,0.2-0.4,0.2-0.6,0.2C1347.8,33.5,1347.6,33.4,1347.4,33.2z M1347.4,34.4h1.3V40
				h-1.3V34.4z"/>
			<path class="st1" d="M1351.2,39.7c-0.5-0.2-0.8-0.6-1.1-1c-0.3-0.4-0.4-0.9-0.4-1.5s0.1-1.1,0.4-1.5s0.6-0.8,1.1-1s1-0.4,1.5-0.4
				c0.6,0,1.1,0.1,1.6,0.4c0.5,0.2,0.8,0.6,1.1,1c0.3,0.4,0.4,0.9,0.4,1.5s-0.1,1.1-0.4,1.5s-0.6,0.8-1.1,1s-1,0.4-1.6,0.4
				C1352.2,40.1,1351.6,40,1351.2,39.7z M1353.9,38.5c0.3-0.3,0.5-0.7,0.5-1.3c0-0.5-0.2-1-0.5-1.3s-0.7-0.5-1.2-0.5
				s-0.9,0.2-1.2,0.5c-0.3,0.3-0.5,0.7-0.5,1.3c0,0.5,0.2,1,0.5,1.3s0.7,0.5,1.2,0.5C1353.2,39,1353.6,38.8,1353.9,38.5z
				 M1353.3,32.2h1.6l-1.8,1.4h-1.1L1353.3,32.2z"/>
			<path class="st1" d="M1361.7,34.9c0.4,0.4,0.6,1,0.6,1.8V40h-1.3v-3c0-0.5-0.1-0.9-0.3-1.1c-0.2-0.2-0.6-0.4-1-0.4
				c-0.5,0-0.9,0.1-1.2,0.4c-0.3,0.3-0.4,0.7-0.4,1.3V40h-1.3v-5.6h1.3v0.7c0.2-0.3,0.5-0.5,0.8-0.6s0.7-0.2,1.1-0.2
				C1360.7,34.3,1361.3,34.5,1361.7,34.9z"/>
			<path class="st1" d="M1299.3,44.9v7.8h-1.3V52c-0.2,0.3-0.5,0.5-0.8,0.6s-0.7,0.2-1.1,0.2c-0.5,0-1-0.1-1.5-0.4
				c-0.4-0.2-0.8-0.6-1-1s-0.4-0.9-0.4-1.5s0.1-1.1,0.4-1.5c0.2-0.4,0.6-0.8,1-1s0.9-0.4,1.5-0.4c0.4,0,0.7,0.1,1,0.2
				c0.3,0.1,0.6,0.3,0.8,0.6v-2.9C1297.9,44.9,1299.3,44.9,1299.3,44.9z M1297.1,51.4c0.3-0.1,0.5-0.3,0.6-0.6s0.2-0.6,0.2-0.9
				c0-0.4-0.1-0.7-0.2-0.9c-0.1-0.3-0.3-0.5-0.6-0.6c-0.3-0.1-0.5-0.2-0.9-0.2c-0.3,0-0.6,0.1-0.9,0.2c-0.3,0.1-0.5,0.3-0.6,0.6
				s-0.2,0.6-0.2,0.9c0,0.4,0.1,0.7,0.2,0.9c0.1,0.3,0.3,0.5,0.6,0.6c0.3,0.1,0.5,0.2,0.9,0.2C1296.6,51.6,1296.9,51.6,1297.1,51.4z
				"/>
			<path class="st1" d="M1306.1,50.3h-4.4c0.1,0.4,0.3,0.7,0.6,1c0.3,0.2,0.7,0.4,1.2,0.4c0.6,0,1.1-0.2,1.5-0.6l0.7,0.8
				c-0.3,0.3-0.6,0.5-1,0.7s-0.8,0.2-1.3,0.2c-0.6,0-1.2-0.1-1.6-0.4c-0.5-0.2-0.8-0.6-1.1-1c-0.3-0.4-0.4-0.9-0.4-1.5
				c0-0.5,0.1-1,0.4-1.5s0.6-0.8,1-1s0.9-0.4,1.5-0.4c0.5,0,1,0.1,1.5,0.4c0.4,0.2,0.8,0.6,1,1s0.4,0.9,0.4,1.5
				C1306.1,50,1306.1,50.1,1306.1,50.3z M1302.2,48.4c-0.3,0.2-0.5,0.6-0.5,1h3.2c-0.1-0.4-0.2-0.7-0.5-1s-0.6-0.4-1.1-0.4
				C1302.8,48,1302.4,48.2,1302.2,48.4z"/>
			<path class="st1" d="M1311.5,46.5h-2.4v-1.2h6.3v1.2h-2.4v6.2h-1.4L1311.5,46.5L1311.5,46.5z"/>
			<path class="st1" d="M1320.7,50.3h-4.4c0.1,0.4,0.3,0.7,0.6,1s0.7,0.4,1.2,0.4c0.6,0,1.1-0.2,1.5-0.6l0.7,0.8
				c-0.3,0.3-0.6,0.5-1,0.7s-0.8,0.2-1.3,0.2c-0.6,0-1.2-0.1-1.6-0.4c-0.5-0.2-0.8-0.6-1.1-1c-0.3-0.4-0.4-0.9-0.4-1.5
				c0-0.5,0.1-1,0.4-1.5s0.6-0.8,1-1s0.9-0.4,1.5-0.4c0.5,0,1,0.1,1.5,0.4c0.4,0.2,0.8,0.6,1,1s0.4,0.9,0.4,1.5
				C1320.7,50,1320.7,50.1,1320.7,50.3z M1316.8,48.4c-0.3,0.2-0.5,0.6-0.5,1h3.2c-0.1-0.4-0.2-0.7-0.5-1s-0.6-0.4-1.1-0.4
				S1317.1,48.2,1316.8,48.4z"/>
			<path class="st1" d="M1322.8,52.4c-0.5-0.2-0.8-0.6-1.1-1c-0.3-0.4-0.4-0.9-0.4-1.5s0.1-1.1,0.4-1.5s0.6-0.8,1.1-1s1-0.4,1.6-0.4
				s1,0.1,1.5,0.3c0.4,0.2,0.7,0.5,0.9,1l-1,0.6c-0.2-0.3-0.4-0.5-0.6-0.6s-0.5-0.2-0.8-0.2c-0.5,0-0.9,0.2-1.2,0.5
				c-0.3,0.3-0.5,0.7-0.5,1.3c0,0.5,0.2,1,0.5,1.3s0.7,0.5,1.2,0.5c0.3,0,0.6-0.1,0.8-0.2c0.2-0.1,0.4-0.3,0.6-0.6l1,0.6
				c-0.2,0.4-0.5,0.7-1,1c-0.4,0.2-0.9,0.3-1.5,0.3C1323.7,52.8,1323.2,52.6,1322.8,52.4z"/>
			<path class="st1" d="M1332.6,47.6c0.4,0.4,0.6,1,0.6,1.8v3.2h-1.3v-3.1c0-0.5-0.1-0.9-0.3-1.1c-0.2-0.2-0.6-0.4-1-0.4
				c-0.5,0-0.9,0.1-1.2,0.4s-0.4,0.7-0.4,1.3v2.8h-1.3V47h1.3v0.7c0.2-0.3,0.5-0.5,0.8-0.6s0.7-0.2,1.1-0.2
				C1331.6,47,1332.1,47.2,1332.6,47.6z"/>
			<path class="st1" d="M1335.7,52.4c-0.5-0.2-0.8-0.6-1.1-1c-0.3-0.4-0.4-0.9-0.4-1.5s0.1-1.1,0.4-1.5s0.6-0.8,1.1-1s1-0.4,1.5-0.4
				c0.6,0,1.1,0.1,1.6,0.4c0.5,0.2,0.8,0.6,1.1,1c0.3,0.4,0.4,0.9,0.4,1.5s-0.1,1.1-0.4,1.5s-0.6,0.8-1.1,1s-1,0.4-1.6,0.4
				C1336.7,52.8,1336.2,52.6,1335.7,52.4z M1338.5,51.1c0.3-0.3,0.5-0.7,0.5-1.3c0-0.5-0.2-1-0.5-1.3s-0.7-0.5-1.2-0.5
				s-0.9,0.2-1.2,0.5c-0.3,0.3-0.5,0.7-0.5,1.3c0,0.5,0.2,1,0.5,1.3s0.7,0.5,1.2,0.5S1338.2,51.5,1338.5,51.1z"/>
			<path class="st1" d="M1341.3,44.9h1.3v7.8h-1.3V44.9z"/>
			<path class="st1" d="M1345.2,52.4c-0.5-0.2-0.8-0.6-1.1-1c-0.3-0.4-0.4-0.9-0.4-1.5s0.1-1.1,0.4-1.5s0.6-0.8,1.1-1s1-0.4,1.5-0.4
				c0.6,0,1.1,0.1,1.6,0.4c0.5,0.2,0.8,0.6,1.1,1c0.3,0.4,0.4,0.9,0.4,1.5s-0.1,1.1-0.4,1.5s-0.6,0.8-1.1,1s-1,0.4-1.6,0.4
				C1346.1,52.8,1345.6,52.6,1345.2,52.4z M1347.9,51.1c0.3-0.3,0.5-0.7,0.5-1.3c0-0.5-0.2-1-0.5-1.3s-0.7-0.5-1.2-0.5
				s-0.9,0.2-1.2,0.5c-0.3,0.3-0.5,0.7-0.5,1.3c0,0.5,0.2,1,0.5,1.3s0.7,0.5,1.2,0.5C1347.2,51.6,1347.6,51.5,1347.9,51.1z"/>
			<path class="st1" d="M1356.4,47v4.8c0,2-1,3-3,3c-0.5,0-1.1-0.1-1.5-0.2c-0.5-0.1-0.9-0.3-1.2-0.6l0.6-1c0.2,0.2,0.6,0.4,0.9,0.5
				c0.4,0.1,0.8,0.2,1.1,0.2c0.6,0,1.1-0.1,1.4-0.4c0.3-0.3,0.4-0.7,0.4-1.3v-0.3c-0.2,0.2-0.5,0.4-0.8,0.6
				c-0.3,0.1-0.7,0.2-1.1,0.2c-0.5,0-1-0.1-1.5-0.3c-0.4-0.2-0.8-0.6-1-1s-0.4-0.9-0.4-1.4s0.1-1,0.4-1.4c0.2-0.4,0.6-0.7,1-1
				c0.4-0.2,0.9-0.3,1.5-0.3c0.4,0,0.8,0.1,1.1,0.2c0.3,0.1,0.6,0.3,0.8,0.6V47H1356.4z M1354.6,50.9c0.3-0.3,0.5-0.7,0.5-1.2
				s-0.2-0.9-0.5-1.2s-0.7-0.4-1.2-0.4s-0.9,0.1-1.2,0.4c-0.3,0.3-0.5,0.7-0.5,1.2s0.2,0.9,0.5,1.2s0.7,0.4,1.2,0.4
				C1353.8,51.3,1354.3,51.2,1354.6,50.9z"/>
			<path class="st1" d="M1359.1,44.8h1.6l-1.8,1.4h-1.1L1359.1,44.8z M1357.9,47h1.3v5.6h-1.3V47z"/>
			<path class="st1" d="M1364.8,47.6c0.4,0.4,0.7,1,0.7,1.8v3.3h-1.2V52c-0.2,0.2-0.4,0.4-0.7,0.6c-0.3,0.1-0.7,0.2-1.1,0.2
				s-0.8-0.1-1.1-0.2c-0.3-0.1-0.6-0.3-0.7-0.6c-0.2-0.3-0.3-0.5-0.3-0.9c0-0.5,0.2-0.9,0.6-1.2s1-0.5,1.8-0.5h1.5v-0.1
				c0-0.4-0.1-0.7-0.4-0.9c-0.2-0.2-0.6-0.3-1-0.3c-0.3,0-0.6,0-0.9,0.1s-0.6,0.2-0.8,0.4l-0.5-1c0.3-0.2,0.7-0.4,1.1-0.5
				s0.9-0.2,1.3-0.2C1363.7,47,1364.3,47.2,1364.8,47.6z M1363.6,51.6c0.3-0.2,0.4-0.4,0.5-0.6v-0.7h-1.4c-0.8,0-1.1,0.2-1.1,0.7
				c0,0.2,0.1,0.4,0.3,0.6c0.2,0.1,0.5,0.2,0.8,0.2C1363,51.8,1363.3,51.7,1363.6,51.6z"/>
			<path class="st1" d="M1367.3,52.6c-0.4-0.1-0.8-0.3-1-0.5l0.5-1c0.3,0.2,0.6,0.3,0.9,0.4c0.4,0.1,0.7,0.2,1.1,0.2
				c0.8,0,1.2-0.2,1.2-0.6c0-0.2-0.1-0.3-0.3-0.4c-0.2-0.1-0.5-0.2-1-0.2c-0.5-0.1-0.8-0.2-1.1-0.2c-0.3-0.1-0.5-0.3-0.8-0.5
				c-0.2-0.2-0.3-0.5-0.3-1s0.2-1,0.7-1.3s1-0.5,1.8-0.5c0.4,0,0.8,0,1.2,0.1c0.4,0.1,0.7,0.2,0.9,0.4l-0.5,1
				c-0.5-0.3-1-0.4-1.6-0.4c-0.4,0-0.7,0.1-0.9,0.2c-0.2,0.1-0.3,0.3-0.3,0.5s0.1,0.4,0.3,0.4c0.2,0.1,0.5,0.2,1,0.2
				c0.4,0.1,0.8,0.2,1.1,0.2c0.3,0.1,0.5,0.2,0.7,0.5c0.2,0.2,0.3,0.5,0.3,0.9c0,0.5-0.2,0.9-0.7,1.3c-0.5,0.3-1.1,0.5-1.9,0.5
				C1368.2,52.8,1367.7,52.7,1367.3,52.6z"/>
			<path class="st1" d="M1299.3,57.5v7.8h-1.3v-0.7c-0.2,0.3-0.5,0.5-0.8,0.6s-0.7,0.2-1.1,0.2c-0.5,0-1-0.1-1.5-0.4
				c-0.4-0.2-0.8-0.6-1-1s-0.4-0.9-0.4-1.5s0.1-1.1,0.4-1.5c0.2-0.4,0.6-0.8,1-1s0.9-0.4,1.5-0.4c0.4,0,0.7,0.1,1,0.2
				s0.6,0.3,0.8,0.6v-2.9C1297.9,57.5,1299.3,57.5,1299.3,57.5z M1297.1,64.1c0.3-0.1,0.5-0.3,0.6-0.6c0.1-0.3,0.2-0.6,0.2-0.9
				s-0.1-0.7-0.2-0.9c-0.1-0.3-0.3-0.5-0.6-0.6c-0.3-0.1-0.5-0.2-0.9-0.2c-0.3,0-0.6,0.1-0.9,0.2s-0.5,0.4-0.6,0.6
				c-0.1,0.3-0.2,0.6-0.2,0.9s0.1,0.7,0.2,0.9c0.1,0.3,0.3,0.5,0.6,0.6c0.3,0.1,0.5,0.2,0.9,0.2
				C1296.6,64.3,1296.9,64.2,1297.1,64.1z"/>
			<path class="st1" d="M1306.1,63h-4.4c0.1,0.4,0.3,0.7,0.6,1c0.3,0.2,0.7,0.4,1.2,0.4c0.6,0,1.1-0.2,1.5-0.6l0.7,0.8
				c-0.3,0.3-0.6,0.5-1,0.7s-0.8,0.2-1.3,0.2c-0.6,0-1.2-0.1-1.6-0.4c-0.5-0.2-0.8-0.6-1.1-1c-0.3-0.4-0.4-0.9-0.4-1.5
				c0-0.5,0.1-1,0.4-1.5c0.2-0.4,0.6-0.8,1-1s0.9-0.4,1.5-0.4c0.5,0,1,0.1,1.5,0.4c0.4,0.2,0.8,0.6,1,1s0.4,0.9,0.4,1.5
				C1306.1,62.7,1306.1,62.8,1306.1,63z M1302.2,61.1c-0.3,0.2-0.5,0.6-0.5,1h3.2c-0.1-0.4-0.2-0.7-0.5-1s-0.6-0.4-1.1-0.4
				C1302.8,60.7,1302.4,60.8,1302.2,61.1z"/>
			<path class="st1" d="M1310,58h1.4v7.4h-1.4V58z"/>
			<path class="st1" d="M1317.9,60.3c0.4,0.4,0.6,1,0.6,1.8v3.2h-1.3v-3.1c0-0.5-0.1-0.9-0.3-1.1c-0.2-0.2-0.6-0.4-1-0.4
				c-0.5,0-0.9,0.1-1.2,0.4c-0.3,0.3-0.4,0.7-0.4,1.3v2.8h-1.3v-5.6h1.3v0.7c0.2-0.3,0.5-0.5,0.8-0.6s0.7-0.2,1.1-0.2
				C1316.9,59.6,1317.5,59.9,1317.9,60.3z"/>
			<path class="st1" d="M1321.5,59.4v0.3h1.6v1.1h-1.5v4.5h-1.3v-4.5h-0.9v-1.1h0.9v-0.4c0-0.6,0.2-1.1,0.5-1.4
				c0.4-0.3,0.8-0.5,1.5-0.5c0.5,0,0.9,0.1,1.2,0.3l-0.4,1c-0.2-0.2-0.5-0.2-0.7-0.2C1321.7,58.5,1321.5,58.8,1321.5,59.4z"/>
			<path class="st1" d="M1324.6,65.1c-0.5-0.2-0.8-0.6-1.1-1c-0.3-0.4-0.4-0.9-0.4-1.5s0.1-1.1,0.4-1.5s0.6-0.8,1.1-1s1-0.4,1.5-0.4
				c0.6,0,1.1,0.1,1.6,0.4c0.5,0.2,0.8,0.6,1.1,1c0.3,0.4,0.4,0.9,0.4,1.5s-0.1,1.1-0.4,1.5s-0.6,0.8-1.1,1s-1,0.4-1.6,0.4
				C1325.6,65.4,1325.1,65.3,1324.6,65.1z M1327.3,63.8c0.3-0.3,0.5-0.7,0.5-1.3c0-0.5-0.2-1-0.5-1.3s-0.7-0.5-1.2-0.5
				s-0.9,0.2-1.2,0.5c-0.3,0.3-0.5,0.7-0.5,1.3c0,0.5,0.2,1,0.5,1.3s0.7,0.5,1.2,0.5C1326.6,64.3,1327,64.1,1327.3,63.8z"/>
			<path class="st1" d="M1333.5,59.6v1.3c-0.1,0-0.2,0-0.3,0c-0.5,0-0.9,0.1-1.2,0.4c-0.3,0.3-0.4,0.7-0.4,1.3v2.7h-1.3v-5.6h1.3
				v0.8C1331.8,59.9,1332.5,59.6,1333.5,59.6z"/>
			<path class="st1" d="M1343.2,60.3c0.4,0.4,0.6,1,0.6,1.9v3.2h-1.3v-3.1c0-0.5-0.1-0.9-0.3-1.1c-0.2-0.2-0.5-0.4-0.9-0.4
				s-0.8,0.1-1.1,0.4c-0.3,0.3-0.4,0.7-0.4,1.3v2.9h-1.3v-3.1c0-0.5-0.1-0.9-0.3-1.1c-0.2-0.2-0.5-0.4-0.9-0.4
				c-0.5,0-0.8,0.1-1.1,0.4c-0.3,0.3-0.4,0.7-0.4,1.3v2.9h-1.3v-5.6h1.3v0.7c0.2-0.3,0.5-0.4,0.8-0.6c0.3-0.1,0.7-0.2,1.1-0.2
				s0.8,0.1,1.1,0.2c0.3,0.2,0.6,0.4,0.8,0.7c0.2-0.3,0.5-0.5,0.9-0.7s0.8-0.2,1.2-0.2C1342.2,59.6,1342.8,59.9,1343.2,60.3z"/>
			<path class="st1" d="M1349.3,60.2c0.4,0.4,0.7,1,0.7,1.8v3.3h-1.2v-0.7c-0.2,0.2-0.4,0.4-0.7,0.6c-0.3,0.1-0.7,0.2-1.1,0.2
				s-0.8-0.1-1.1-0.2c-0.3-0.1-0.6-0.3-0.7-0.6s-0.3-0.5-0.3-0.9c0-0.5,0.2-0.9,0.6-1.2s1-0.5,1.8-0.5h1.5l0,0
				c0-0.4-0.1-0.7-0.4-0.9c-0.2-0.2-0.6-0.3-1-0.3c-0.3,0-0.6,0-0.9,0.1s-0.6,0.2-0.8,0.4l-0.5-1c0.3-0.2,0.7-0.4,1.1-0.5
				s0.9-0.2,1.3-0.2C1348.2,59.6,1348.9,59.8,1349.3,60.2z M1348.1,64.2c0.3-0.2,0.4-0.4,0.5-0.6v-0.7h-1.4c-0.8,0-1.1,0.2-1.1,0.7
				c0,0.2,0.1,0.4,0.3,0.6c0.2,0.1,0.5,0.2,0.8,0.2C1347.6,64.5,1347.9,64.4,1348.1,64.2z"/>
			<path class="st1" d="M1352.5,65.1c-0.5-0.2-0.8-0.6-1.1-1c-0.3-0.4-0.4-0.9-0.4-1.5s0.1-1.1,0.4-1.5s0.6-0.8,1.1-1s1-0.4,1.6-0.4
				s1,0.1,1.5,0.3c0.4,0.2,0.7,0.5,0.9,1l-1,0.6c-0.2-0.3-0.4-0.5-0.6-0.6s-0.5-0.2-0.8-0.2c-0.5,0-0.9,0.2-1.2,0.5
				c-0.3,0.3-0.5,0.7-0.5,1.3c0,0.5,0.2,1,0.5,1.3s0.7,0.5,1.2,0.5c0.3,0,0.6-0.1,0.8-0.2c0.2-0.1,0.4-0.3,0.6-0.6l1,0.6
				c-0.2,0.4-0.5,0.7-1,1c-0.4,0.2-0.9,0.3-1.5,0.3C1353.5,65.4,1353,65.3,1352.5,65.1z"/>
			<path class="st1" d="M1357.5,58.6c-0.2-0.2-0.2-0.3-0.2-0.6c0-0.2,0.1-0.4,0.2-0.6c0.2-0.2,0.4-0.2,0.6-0.2s0.4,0.1,0.6,0.2
				c0.2,0.1,0.2,0.3,0.2,0.5s-0.1,0.4-0.2,0.6c-0.2,0.2-0.4,0.2-0.6,0.2C1357.9,58.8,1357.7,58.7,1357.5,58.6z M1357.4,59.7h1.3v5.6
				h-1.3V59.7z"/>
			<path class="st1" d="M1361.3,65.1c-0.5-0.2-0.8-0.6-1.1-1c-0.3-0.4-0.4-0.9-0.4-1.5s0.1-1.1,0.4-1.5s0.6-0.8,1.1-1s1-0.4,1.5-0.4
				c0.6,0,1.1,0.1,1.6,0.4c0.5,0.2,0.8,0.6,1.1,1c0.3,0.4,0.4,0.9,0.4,1.5s-0.1,1.1-0.4,1.5s-0.6,0.8-1.1,1s-1,0.4-1.6,0.4
				C1362.2,65.4,1361.7,65.3,1361.3,65.1z M1364,63.8c0.3-0.3,0.5-0.7,0.5-1.3c0-0.5-0.2-1-0.5-1.3s-0.7-0.5-1.2-0.5
				s-0.9,0.2-1.2,0.5c-0.3,0.3-0.5,0.7-0.5,1.3c0,0.5,0.2,1,0.5,1.3s0.7,0.5,1.2,0.5S1363.7,64.1,1364,63.8z M1363.3,57.5h1.6
				l-1.8,1.4h-1.1L1363.3,57.5z"/>
			<path class="st1" d="M1371.8,60.3c0.4,0.4,0.6,1,0.6,1.8v3.2h-1.3v-3.1c0-0.5-0.1-0.9-0.3-1.1c-0.2-0.2-0.6-0.4-1-0.4
				c-0.5,0-0.9,0.1-1.2,0.4c-0.3,0.3-0.4,0.7-0.4,1.3v2.8h-1.3v-5.6h1.3v0.7c0.2-0.3,0.5-0.5,0.8-0.6s0.7-0.2,1.1-0.2
				C1370.8,59.6,1371.3,59.9,1371.8,60.3z"/>
			<path class="st1" d="M1298.7,76.3h-3.7l-0.7,1.7h-1.4l3.3-7.4h1.4l3.3,7.4h-1.4L1298.7,76.3z M1298.2,75.2l-1.4-3.2l-1.4,3.2
				H1298.2z"/>
			<path class="st1" d="M1306.9,70.2V78h-1.3v-0.7c-0.2,0.3-0.5,0.5-0.8,0.6s-0.7,0.2-1.1,0.2c-0.5,0-1-0.1-1.5-0.4s-0.8-0.6-1-1
				s-0.4-0.9-0.4-1.5s0.1-1.1,0.4-1.5c0.2-0.4,0.6-0.8,1-1s0.9-0.4,1.5-0.4c0.4,0,0.7,0.1,1,0.2s0.6,0.3,0.8,0.6v-2.9
				C1305.5,70.2,1306.9,70.2,1306.9,70.2z M1304.8,76.7c0.3-0.1,0.5-0.3,0.6-0.6c0.1-0.3,0.2-0.6,0.2-0.9s-0.1-0.7-0.2-0.9
				c-0.1-0.3-0.3-0.5-0.6-0.6c-0.3-0.1-0.5-0.2-0.9-0.2c-0.3,0-0.6,0.1-0.9,0.2s-0.5,0.4-0.6,0.6c-0.1,0.3-0.2,0.6-0.2,0.9
				s0.1,0.7,0.2,0.9c0.1,0.3,0.3,0.5,0.6,0.6c0.3,0.1,0.5,0.2,0.9,0.2C1304.2,77,1304.5,76.9,1304.8,76.7z"/>
			<path class="st1" d="M1317.2,72.9c0.4,0.4,0.6,1,0.6,1.9V78h-1.3v-3.1c0-0.5-0.1-0.9-0.3-1.1c-0.2-0.2-0.5-0.4-0.9-0.4
				s-0.8,0.1-1.1,0.4c-0.3,0.3-0.4,0.7-0.4,1.3V78h-1.3v-3.1c0-0.5-0.1-0.9-0.3-1.1c-0.2-0.2-0.5-0.4-0.9-0.4
				c-0.5,0-0.8,0.1-1.1,0.4c-0.3,0.3-0.4,0.7-0.4,1.3V78h-1.3v-5.6h1.3v0.7c0.2-0.3,0.5-0.4,0.8-0.6c0.3-0.1,0.7-0.2,1.1-0.2
				s0.8,0.1,1.1,0.2c0.3,0.2,0.6,0.4,0.8,0.7c0.2-0.3,0.5-0.5,0.9-0.7s0.8-0.2,1.2-0.2C1316.2,72.3,1316.8,72.5,1317.2,72.9z"/>
			<path class="st1" d="M1319.4,71.2c-0.2-0.2-0.2-0.3-0.2-0.6c0-0.2,0.1-0.4,0.2-0.6c0.2-0.2,0.4-0.2,0.6-0.2s0.4,0.1,0.6,0.2
				s0.2,0.3,0.2,0.5s-0.1,0.4-0.2,0.6c-0.2,0.2-0.4,0.2-0.6,0.2C1319.7,71.4,1319.5,71.4,1319.4,71.2z M1319.3,72.4h1.3V78h-1.3
				V72.4z"/>
			<path class="st1" d="M1327.1,72.9c0.4,0.4,0.6,1,0.6,1.8V78h-1.3v-3.1c0-0.5-0.1-0.9-0.3-1.1c-0.2-0.2-0.6-0.4-1-0.4
				c-0.5,0-0.9,0.1-1.2,0.4c-0.3,0.3-0.4,0.7-0.4,1.3V78h-1.3v-5.6h1.3v0.7c0.2-0.3,0.5-0.5,0.8-0.6s0.7-0.2,1.1-0.2
				C1326.1,72.3,1326.6,72.5,1327.1,72.9z"/>
			<path class="st1" d="M1329.2,71.2c-0.2-0.2-0.2-0.3-0.2-0.6c0-0.2,0.1-0.4,0.2-0.6c0.2-0.2,0.4-0.2,0.6-0.2s0.4,0.1,0.6,0.2
				s0.2,0.3,0.2,0.5s-0.1,0.4-0.2,0.6c-0.2,0.2-0.4,0.2-0.6,0.2C1329.6,71.4,1329.4,71.4,1329.2,71.2z M1329.2,72.4h1.3V78h-1.3
				V72.4z"/>
			<path class="st1" d="M1332.4,77.9c-0.4-0.1-0.8-0.3-1-0.5l0.5-1c0.3,0.2,0.6,0.3,0.9,0.4c0.4,0.1,0.7,0.2,1.1,0.2
				c0.8,0,1.2-0.2,1.2-0.6c0-0.2-0.1-0.3-0.3-0.4c-0.2-0.1-0.5-0.2-1-0.2c-0.5-0.1-0.8-0.2-1.1-0.2c-0.3-0.1-0.5-0.3-0.8-0.5
				s-0.3-0.5-0.3-1s0.2-1,0.7-1.3c0.4-0.3,1-0.5,1.8-0.5c0.4,0,0.8,0,1.2,0.1c0.4,0.1,0.7,0.2,0.9,0.4l-0.5,1
				c-0.5-0.3-1-0.4-1.6-0.4c-0.4,0-0.7,0.1-0.9,0.2c-0.2,0.1-0.3,0.3-0.3,0.5s0.1,0.4,0.3,0.4c0.2,0.1,0.5,0.2,1,0.2
				c0.4,0.1,0.8,0.2,1.1,0.2c0.3,0.1,0.5,0.2,0.7,0.5c0.2,0.2,0.3,0.5,0.3,0.9c0,0.5-0.2,0.9-0.7,1.3s-1.1,0.5-1.9,0.5
				C1333.3,78.1,1332.8,78,1332.4,77.9z"/>
			<path class="st1" d="M1340.6,77.7c-0.2,0.1-0.3,0.2-0.6,0.3c-0.2,0.1-0.5,0.1-0.7,0.1c-0.6,0-1.1-0.2-1.4-0.5s-0.5-0.8-0.5-1.4
				v-2.7h-0.9v-1.1h0.9v-1.3h1.3v1.3h1.5v1.1h-1.5v2.7c0,0.3,0.1,0.5,0.2,0.6s0.3,0.2,0.6,0.2c0.3,0,0.5-0.1,0.7-0.2L1340.6,77.7z"
				/>
			<path class="st1" d="M1344.8,72.3v1.3c-0.1,0-0.2,0-0.3,0c-0.5,0-0.9,0.1-1.2,0.4s-0.4,0.7-0.4,1.3V78h-1.3v-5.6h1.3v0.8
				C1343.1,72.6,1343.8,72.3,1344.8,72.3z"/>
			<path class="st1" d="M1349.7,72.9c0.4,0.4,0.7,1,0.7,1.8V78h-1.2v-0.7c-0.2,0.2-0.4,0.4-0.7,0.6c-0.3,0.1-0.7,0.2-1.1,0.2
				s-0.8-0.1-1.1-0.2c-0.3-0.1-0.6-0.3-0.7-0.6s-0.3-0.5-0.3-0.9c0-0.5,0.2-0.9,0.6-1.2c0.4-0.3,1-0.5,1.8-0.5h1.5v-0.1
				c0-0.4-0.1-0.7-0.4-0.9c-0.2-0.2-0.6-0.3-1-0.3c-0.3,0-0.6,0-0.9,0.1s-0.6,0.2-0.8,0.4l-0.5-1c0.3-0.2,0.7-0.4,1.1-0.5
				s0.9-0.2,1.3-0.2C1348.6,72.3,1349.3,72.5,1349.7,72.9z M1348.5,76.9c0.3-0.2,0.4-0.4,0.5-0.6v-0.7h-1.4c-0.8,0-1.1,0.2-1.1,0.7
				c0,0.2,0.1,0.4,0.3,0.6c0.2,0.1,0.5,0.2,0.8,0.2C1347.9,77.1,1348.2,77,1348.5,76.9z"/>
			<path class="st1" d="M1355.2,77.7c-0.2,0.1-0.3,0.2-0.6,0.3c-0.2,0.1-0.5,0.1-0.7,0.1c-0.6,0-1.1-0.2-1.4-0.5s-0.5-0.8-0.5-1.4
				v-2.7h-0.9v-1.1h0.9v-1.3h1.3v1.3h1.5v1.1h-1.5v2.7c0,0.3,0.1,0.5,0.2,0.6s0.3,0.2,0.6,0.2c0.3,0,0.5-0.1,0.7-0.2L1355.2,77.7z"
				/>
			<path class="st1" d="M1356.2,71.2c-0.2-0.2-0.2-0.3-0.2-0.6c0-0.2,0.1-0.4,0.2-0.6c0.2-0.2,0.4-0.2,0.6-0.2s0.4,0.1,0.6,0.2
				s0.2,0.3,0.2,0.5s-0.1,0.4-0.2,0.6c-0.2,0.2-0.4,0.2-0.6,0.2C1356.5,71.4,1356.3,71.4,1356.2,71.2z M1356.1,72.4h1.3V78h-1.3
				V72.4z"/>
			<path class="st1" d="M1364.2,72.4l-2.4,5.6h-1.4l-2.4-5.6h1.4l1.8,4.2l1.8-4.2H1364.2z"/>
			<path class="st1" d="M1368.7,72.9c0.4,0.4,0.7,1,0.7,1.8V78h-1.2v-0.7c-0.2,0.2-0.4,0.4-0.7,0.6c-0.3,0.1-0.7,0.2-1.1,0.2
				s-0.8-0.1-1.1-0.2c-0.3-0.1-0.6-0.3-0.7-0.6s-0.3-0.5-0.3-0.9c0-0.5,0.2-0.9,0.6-1.2c0.4-0.3,1-0.5,1.8-0.5h1.5v-0.1
				c0-0.4-0.1-0.7-0.4-0.9c-0.2-0.2-0.6-0.3-1-0.3c-0.3,0-0.6,0-0.9,0.1s-0.6,0.2-0.8,0.4l-0.5-1c0.3-0.2,0.7-0.4,1.1-0.5
				s0.9-0.2,1.3-0.2C1367.6,72.3,1368.3,72.5,1368.7,72.9z M1367.5,76.9c0.3-0.2,0.4-0.4,0.5-0.6v-0.7h-1.4c-0.8,0-1.1,0.2-1.1,0.7
				c0,0.2,0.1,0.4,0.3,0.6c0.2,0.1,0.5,0.2,0.8,0.2C1366.9,77.1,1367.2,77,1367.5,76.9z"/>
		</g>
	</g>
</g>
</svg>
