<?xml version="1.0" encoding="utf-8"?>
<!-- Generator: Adobe Illustrator 23.0.1, SVG Export Plug-In . SVG Version: 6.00 Build 0)  -->
<svg version="1.1" id="Capa_1" xmlns="http://www.w3.org/2000/svg" xmlns:xlink="http://www.w3.org/1999/xlink" x="0px" y="0px"
	 viewBox="0 0 1493 120" style="enable-background:new 0 0 1493 120;" xml:space="preserve">
<style type="text/css">
	.st0{clip-path:url(#SVGID_2_);}
	.st1{fill:#343435;}
	.st2{clip-path:url(#SVGID_4_);}
	.st3{fill:#636060;}
	.st4{enable-background:new    ;}
	.st5{fill:#FFFFFF;}
	.st6{clip-path:url(#SVGID_6_);}
	.st7{fill:#394445;}
	.st8{fill:none;stroke:#394445;stroke-miterlimit:10;}
	.st9{fill:#FDFFFF;}
</style>
<g>
	<g>
		<defs>
			<rect id="SVGID_1_" width="1493" height="120"/>
		</defs>
		<clipPath id="SVGID_2_">
			<use xlink:href="#SVGID_1_"  style="overflow:visible;"/>
		</clipPath>
		<g class="st0">
			<rect class="st1" width="1493" height="120"/>
		</g>
	</g>
	<g>
		<defs>
			<rect id="SVGID_3_" width="1493" height="120"/>
		</defs>
		<clipPath id="SVGID_4_">
			<use xlink:href="#SVGID_3_"  style="overflow:visible;"/>
		</clipPath>
		<g class="st2">
			<g>
				<polygon class="st3" points="317.9,49.6 290.9,49.6 290.9,31.3 187.9,31.3 187.9,91.3 343.4,91.3 343.4,67.9 317.9,67.9 				"/>
			</g>
			<g class="st4">
				<path class="st5" d="M31.7,35.6c4.7-0.8,10.8-1.2,17.2-1.2c10.7,0,17.7,1.9,23.1,6c5.9,4.4,9.5,11.3,9.5,21.3
					c0,10.8-3.9,18.3-9.4,22.9c-5.9,4.9-15,7.3-26,7.3c-6.6,0-11.3-0.4-14.5-0.8V35.6z M44.5,81.6c1.1,0.3,2.8,0.3,4.4,0.3
					C60.5,82,68,75.6,68,62.1c0.1-11.7-6.8-17.9-17.8-17.9c-2.8,0-4.7,0.3-5.8,0.5V81.6z"/>
				<path class="st5" d="M123.6,67.4h-20.8v13.4H126v10.5H90V34.8h34.8v10.5h-22V57h20.8V67.4z"/>
				<path class="st5" d="M147.9,76.8l-4,14.5h-13.2l17.2-56.4h16.7l17.5,56.4h-13.7L164,76.8H147.9z M162.2,67.2l-3.5-12
					c-1-3.3-2-7.5-2.8-10.9h-0.2c-0.8,3.3-1.7,7.6-2.6,10.9l-3.3,12H162.2z"/>
			</g>
			<g class="st4">
				<path class="st5" d="M192.6,37.1c1-0.2,2.3-0.3,3.7-0.3c2.4,0,4,0.5,5.1,1.5c1.2,1,2,2.5,2,4.6c0,2.2-0.8,3.9-2,5
					c-1.3,1.1-3.3,1.7-5.7,1.7c-1.3,0-2.4-0.1-3.1-0.2V37.1z M194.9,47.8c0.3,0.1,0.8,0.1,1.3,0.1c3,0,4.8-1.6,4.8-4.8
					c0-2.8-1.6-4.4-4.5-4.4c-0.7,0-1.3,0.1-1.6,0.1V47.8z"/>
				<path class="st5" d="M207.6,37v12.6h-2.3V37H207.6z"/>
				<path class="st5" d="M210.3,37.1c0.9-0.1,2.2-0.3,3.5-0.3c1.8,0,3,0.3,3.9,1c0.7,0.6,1.1,1.5,1.1,2.5c0,1.6-1.1,2.7-2.3,3.2v0.1
					c0.9,0.3,1.4,1.2,1.8,2.4c0.4,1.6,0.7,3,1,3.5h-2.4c-0.2-0.4-0.5-1.4-0.8-3c-0.4-1.6-1-2.2-2.3-2.2h-1.2v5.2h-2.3V37.1z
					 M212.5,42.7h1.4c1.6,0,2.5-0.8,2.5-2.1c0-1.4-1-2-2.5-2c-0.7,0-1.2,0.1-1.4,0.1V42.7z"/>
				<path class="st5" d="M228,44h-4.8v3.7h5.3v1.9h-7.6V37h7.3v1.9h-5v3.3h4.8V44z"/>
				<path class="st5" d="M239.6,49.2c-0.5,0.3-1.7,0.6-3.3,0.6c-4,0-6.4-2.5-6.4-6.4c0-4.2,2.9-6.7,6.7-6.7c1.5,0,2.6,0.3,3.1,0.6
					l-0.5,1.8c-0.6-0.3-1.4-0.5-2.5-0.5c-2.6,0-4.4,1.6-4.4,4.6c0,2.8,1.6,4.5,4.4,4.5c0.9,0,1.9-0.2,2.5-0.5L239.6,49.2z"/>
				<path class="st5" d="M250.1,49.2c-0.5,0.3-1.7,0.6-3.3,0.6c-4,0-6.4-2.5-6.4-6.4c0-4.2,2.9-6.7,6.7-6.7c1.5,0,2.6,0.3,3.1,0.6
					l-0.5,1.8c-0.6-0.3-1.4-0.5-2.5-0.5c-2.6,0-4.4,1.6-4.4,4.6c0,2.8,1.6,4.5,4.4,4.5c0.9,0,1.9-0.2,2.5-0.5L250.1,49.2z"/>
				<path class="st5" d="M254.4,37v12.6h-2.3V37H254.4z"/>
				<path class="st5" d="M268.2,43.1c0,4.2-2.6,6.6-6,6.6c-3.6,0-5.8-2.7-5.8-6.4c0-3.9,2.4-6.6,6-6.6
					C266,36.8,268.2,39.5,268.2,43.1z M258.8,43.3c0,2.6,1.3,4.6,3.5,4.6c2.2,0,3.5-2.1,3.5-4.7c0-2.4-1.2-4.6-3.5-4.6
					C260,38.6,258.8,40.7,258.8,43.3z M265.3,34l-2.3,2.2h-1.9l1.6-2.2H265.3z"/>
				<path class="st5" d="M270.2,49.6V37h2.6l3.3,5.4c0.8,1.4,1.6,2.9,2.2,4.2h0c-0.1-1.7-0.2-3.3-0.2-5.2V37h2.1v12.6h-2.4l-3.3-5.6
					c-0.8-1.4-1.6-2.9-2.3-4.3l-0.1,0c0.1,1.6,0.1,3.3,0.1,5.4v4.5H270.2z"/>
			</g>
			<g class="st4">
				<path class="st5" d="M199.6,62.7h-4.8v3.7h5.3v1.9h-7.6V55.7h7.3v1.9h-5v3.3h4.8V62.7z"/>
				<path class="st5" d="M205.1,55.7h2.3v8.2c0,3.5-1.7,4.6-4.2,4.6c-0.6,0-1.4-0.1-1.9-0.3l0.3-1.9c0.4,0.1,0.9,0.2,1.4,0.2
					c1.3,0,2.1-0.6,2.1-2.8V55.7z"/>
				<path class="st5" d="M216.9,62.7h-4.8v3.7h5.3v1.9h-7.6V55.7h7.3v1.9h-5v3.3h4.8V62.7z"/>
				<path class="st5" d="M228.6,67.9c-0.5,0.3-1.7,0.6-3.3,0.6c-4,0-6.4-2.5-6.4-6.4c0-4.2,2.9-6.7,6.7-6.7c1.5,0,2.6,0.3,3.1,0.6
					l-0.5,1.8c-0.6-0.3-1.4-0.5-2.5-0.5c-2.6,0-4.4,1.6-4.4,4.6c0,2.8,1.6,4.5,4.4,4.5c0.9,0,1.9-0.2,2.5-0.5L228.6,67.9z"/>
				<path class="st5" d="M232.8,55.7V63c0,2.5,1,3.6,2.6,3.6c1.7,0,2.7-1.1,2.7-3.6v-7.4h2.3v7.2c0,3.9-2,5.6-5,5.6
					c-2.9,0-4.8-1.6-4.8-5.6v-7.2H232.8z"/>
				<path class="st5" d="M245.4,57.6h-3.6v-1.9h9.5v1.9h-3.6v10.7h-2.3V57.6z"/>
				<path class="st5" d="M255.1,55.7v12.6h-2.3V55.7H255.1z"/>
				<path class="st5" d="M260.6,68.3l-4.1-12.6h2.5l1.7,5.7c0.5,1.6,0.9,3.1,1.2,4.6h0c0.3-1.5,0.8-3,1.3-4.6l1.8-5.8h2.5l-4.4,12.6
					H260.6z"/>
				<path class="st5" d="M270.5,64.7l-1.1,3.6H267l4-12.6h2.9l4.1,12.6h-2.5l-1.1-3.6H270.5z M274.1,63l-1-3.1
					c-0.2-0.8-0.4-1.6-0.6-2.4h0c-0.2,0.7-0.4,1.6-0.6,2.4l-1,3.1H274.1z"/>
				<path class="st5" d="M283.7,55.8c1-0.2,2.3-0.3,3.7-0.3c2.4,0,4,0.5,5.1,1.5c1.2,1,2,2.5,2,4.6c0,2.2-0.8,3.9-2,5
					c-1.3,1.1-3.3,1.7-5.7,1.7c-1.3,0-2.4-0.1-3.1-0.2V55.8z M286,66.5c0.3,0.1,0.8,0.1,1.3,0.1c3,0,4.8-1.6,4.8-4.8
					c0-2.8-1.6-4.4-4.5-4.4c-0.7,0-1.3,0.1-1.6,0.1V66.5z"/>
				<path class="st5" d="M303.5,62.7h-4.8v3.7h5.3v1.9h-7.6V55.7h7.3v1.9h-5v3.3h4.8V62.7z"/>
			</g>
			<g class="st4">
				<path class="st5" d="M195.1,83.4L194,87h-2.4l4-12.6h2.9l4.1,12.6h-2.5l-1.1-3.6H195.1z M198.7,81.7l-1-3.1
					c-0.2-0.8-0.4-1.6-0.6-2.4h0c-0.2,0.7-0.4,1.6-0.6,2.4l-1,3.1H198.7z"/>
				<path class="st5" d="M204.4,74.5c1-0.2,2.3-0.3,3.7-0.3c2.4,0,4,0.5,5.1,1.5c1.2,1,2,2.5,2,4.6c0,2.2-0.8,3.9-2,5
					c-1.3,1.1-3.3,1.7-5.7,1.7c-1.3,0-2.4-0.1-3.1-0.2V74.5z M206.8,85.2c0.3,0.1,0.8,0.1,1.3,0.1c3,0,4.8-1.6,4.8-4.8
					c0-2.8-1.6-4.4-4.5-4.4c-0.7,0-1.3,0.1-1.6,0.1V85.2z"/>
				<path class="st5" d="M227.9,81.8c-0.1-1.6-0.2-3.6-0.1-5.3h-0.1c-0.4,1.6-0.9,3.3-1.5,4.8l-1.8,5.5h-1.8l-1.7-5.4
					c-0.5-1.6-0.9-3.3-1.3-4.9h0c-0.1,1.7-0.1,3.7-0.2,5.4l-0.3,5.1h-2.2l0.8-12.6h3l1.6,5.1c0.4,1.5,0.8,3,1.2,4.4h0.1
					c0.3-1.4,0.8-2.9,1.3-4.4l1.7-5.1h3l0.7,12.6h-2.2L227.9,81.8z"/>
				<path class="st5" d="M235,74.4V87h-2.3V74.4H235z"/>
				<path class="st5" d="M237.6,87V74.4h2.6l3.3,5.4c0.8,1.4,1.6,2.9,2.2,4.2h0c-0.1-1.7-0.2-3.3-0.2-5.2v-4.4h2.1V87h-2.4l-3.3-5.6
					c-0.8-1.4-1.6-2.9-2.3-4.3l-0.1,0c0.1,1.6,0.1,3.3,0.1,5.4V87H237.6z"/>
				<path class="st5" d="M252.6,74.4V87h-2.3V74.4H252.6z"/>
				<path class="st5" d="M255.2,84.5c0.7,0.4,1.9,0.8,3,0.8c1.5,0,2.3-0.7,2.3-1.7c0-1-0.6-1.5-2.2-2.1c-2.1-0.7-3.4-1.9-3.4-3.7
					c0-2.1,1.7-3.6,4.5-3.6c1.4,0,2.4,0.3,3,0.6l-0.6,1.9c-0.4-0.2-1.3-0.6-2.5-0.6c-1.5,0-2.1,0.8-2.1,1.5c0,1,0.7,1.4,2.4,2.1
					c2.2,0.8,3.3,1.9,3.3,3.7c0,2-1.5,3.8-4.8,3.8c-1.3,0-2.7-0.4-3.4-0.8L255.2,84.5z"/>
				<path class="st5" d="M267.3,76.3h-3.6v-1.9h9.5v1.9h-3.6V87h-2.3V76.3z"/>
				<path class="st5" d="M274.7,74.5c0.9-0.2,2.2-0.3,3.5-0.3c1.8,0,3,0.3,3.9,1c0.7,0.6,1.1,1.5,1.1,2.5c0,1.6-1.1,2.7-2.3,3.2V81
					c0.9,0.3,1.4,1.2,1.8,2.4c0.4,1.6,0.7,3,1,3.5h-2.4c-0.2-0.4-0.5-1.4-0.8-3c-0.4-1.6-1-2.2-2.3-2.2H277V87h-2.3V74.5z M277,80.1
					h1.4c1.6,0,2.5-0.8,2.5-2.1c0-1.4-1-2-2.5-2c-0.7,0-1.2,0.1-1.4,0.1V80.1z"/>
				<path class="st5" d="M288,83.4L287,87h-2.4l4-12.6h2.9l4.1,12.6h-2.5l-1.1-3.6H288z M291.6,81.7l-1-3.1
					c-0.2-0.8-0.4-1.6-0.6-2.4h0c-0.2,0.7-0.4,1.6-0.6,2.4l-1,3.1H291.6z"/>
				<path class="st5" d="M306.1,86.6c-0.5,0.3-1.7,0.6-3.3,0.6c-4,0-6.4-2.5-6.4-6.4c0-4.2,2.9-6.7,6.7-6.7c1.5,0,2.6,0.3,3.1,0.6
					l-0.5,1.8c-0.6-0.3-1.4-0.5-2.5-0.5c-2.6,0-4.4,1.6-4.4,4.6c0,2.8,1.6,4.5,4.4,4.5c0.9,0,1.9-0.2,2.5-0.5L306.1,86.6z"/>
				<path class="st5" d="M310.3,74.4V87H308V74.4H310.3z"/>
				<path class="st5" d="M324.1,80.5c0,4.2-2.6,6.6-6,6.6c-3.6,0-5.8-2.7-5.8-6.4c0-3.9,2.4-6.6,6-6.6
					C322,74.2,324.1,76.9,324.1,80.5z M314.7,80.7c0,2.6,1.3,4.6,3.5,4.6c2.2,0,3.5-2.1,3.5-4.7c0-2.4-1.2-4.6-3.5-4.6
					C315.9,76,314.7,78.1,314.7,80.7z M321.2,71.4l-2.3,2.2H317l1.6-2.2H321.2z"/>
				<path class="st5" d="M326.1,87V74.4h2.6l3.3,5.4c0.8,1.4,1.6,2.9,2.2,4.2h0c-0.1-1.7-0.2-3.3-0.2-5.2v-4.4h2.1V87h-2.4l-3.3-5.6
					c-0.8-1.4-1.6-2.9-2.3-4.3l-0.1,0c0.1,1.6,0.1,3.3,0.1,5.4V87H326.1z"/>
			</g>
			<rect x="317.9" y="28.5" class="st3" width="25.4" height="21.1"/>
			<rect x="174.6" y="19.8" class="st3" width="13.4" height="11.6"/>
		</g>
	</g>
	<g>
		<defs>
			<rect id="SVGID_5_" width="1493" height="120"/>
		</defs>
		<clipPath id="SVGID_6_">
			<use xlink:href="#SVGID_5_"  style="overflow:visible;"/>
		</clipPath>
		<g class="st6">
			<g>
				<path class="st5" d="M725.6,64.3c-0.6-0.2-1.1-0.5-1.5-0.8l0.5-1c0.3,0.3,0.8,0.6,1.3,0.8s1.1,0.3,1.7,0.3
					c0.8,0,1.3-0.1,1.7-0.4s0.6-0.6,0.6-1c0-0.3-0.1-0.6-0.3-0.8s-0.5-0.3-0.8-0.4c-0.3-0.1-0.7-0.2-1.3-0.3
					c-0.7-0.2-1.2-0.3-1.7-0.5s-0.8-0.4-1.1-0.8s-0.4-0.8-0.4-1.4c0-0.5,0.1-0.9,0.4-1.3c0.3-0.4,0.6-0.7,1.2-0.9s1.2-0.3,1.9-0.3
					c0.5,0,1.1,0.1,1.6,0.2c0.5,0.1,1,0.3,1.3,0.6l-0.4,1c-0.4-0.2-0.8-0.4-1.2-0.5s-0.9-0.2-1.3-0.2c-0.7,0-1.3,0.1-1.7,0.4
					s-0.6,0.6-0.6,1c0,0.3,0.1,0.6,0.3,0.8s0.5,0.3,0.8,0.5c0.3,0.1,0.7,0.2,1.2,0.3c0.7,0.2,1.2,0.3,1.6,0.5
					c0.4,0.2,0.8,0.4,1.1,0.8c0.3,0.3,0.4,0.8,0.4,1.4c0,0.5-0.1,0.9-0.4,1.3c-0.3,0.4-0.7,0.7-1.2,0.9s-1.2,0.3-1.9,0.3
					C726.9,64.6,726.3,64.5,725.6,64.3z"/>
				<path class="st5" d="M732.8,56.1c-0.2-0.2-0.2-0.3-0.2-0.6c0-0.2,0.1-0.4,0.2-0.6c0.2-0.2,0.4-0.2,0.6-0.2
					c0.2,0,0.4,0.1,0.6,0.2s0.2,0.3,0.2,0.6c0,0.2-0.1,0.4-0.2,0.6s-0.4,0.2-0.6,0.2S733,56.2,732.8,56.1z M732.8,57.6h1.2v6.9h-1.2
					V57.6z"/>
				<path class="st5" d="M736.8,64.3c-0.5-0.2-0.9-0.3-1.2-0.6l0.5-1c0.3,0.2,0.7,0.4,1.1,0.5c0.4,0.1,0.9,0.2,1.3,0.2
					c1.1,0,1.6-0.3,1.6-0.9c0-0.2-0.1-0.4-0.2-0.5c-0.1-0.1-0.3-0.2-0.6-0.3c-0.2-0.1-0.5-0.1-0.9-0.2c-0.6-0.1-1-0.2-1.4-0.3
					c-0.3-0.1-0.6-0.3-0.9-0.6c-0.3-0.3-0.4-0.6-0.4-1.1c0-0.6,0.3-1.1,0.8-1.5s1.2-0.6,2.1-0.6c0.5,0,0.9,0.1,1.4,0.2
					c0.5,0.1,0.8,0.3,1.1,0.5l-0.5,1c-0.6-0.4-1.2-0.5-2-0.5c-0.5,0-0.9,0.1-1.2,0.3s-0.4,0.4-0.4,0.7c0,0.2,0.1,0.4,0.2,0.5
					s0.3,0.2,0.6,0.3c0.2,0.1,0.6,0.1,1,0.2c0.6,0.1,1,0.2,1.3,0.3s0.6,0.3,0.9,0.6c0.2,0.3,0.4,0.6,0.4,1.1c0,0.6-0.3,1.1-0.8,1.5
					s-1.3,0.6-2.2,0.6C737.8,64.5,737.3,64.5,736.8,64.3z"/>
				<path class="st5" d="M746.8,64.1c-0.2,0.2-0.4,0.3-0.7,0.4s-0.5,0.1-0.8,0.1c-0.7,0-1.2-0.2-1.6-0.6c-0.4-0.4-0.6-0.9-0.6-1.6
					v-3.8h-1.2v-1h1.2v-1.5h1.2v1.5h2v1h-2v3.7c0,0.4,0.1,0.7,0.3,0.9s0.5,0.3,0.8,0.3c0.4,0,0.7-0.1,1-0.3L746.8,64.1z"/>
				<path class="st5" d="M754.2,61.4h-5.6c0.1,0.6,0.3,1.1,0.8,1.5s1,0.5,1.7,0.5c0.8,0,1.5-0.3,2-0.8l0.7,0.8
					c-0.3,0.4-0.7,0.6-1.2,0.8s-1,0.3-1.5,0.3c-0.7,0-1.4-0.1-1.9-0.4c-0.6-0.3-1-0.7-1.3-1.2s-0.5-1.1-0.5-1.8s0.1-1.3,0.4-1.8
					s0.7-1,1.2-1.2c0.5-0.3,1.1-0.4,1.8-0.4s1.2,0.1,1.8,0.4c0.5,0.3,0.9,0.7,1.2,1.2s0.4,1.1,0.4,1.8
					C754.2,61.2,754.2,61.3,754.2,61.4z M749.4,59.1c-0.4,0.4-0.6,0.8-0.7,1.4h4.4c-0.1-0.6-0.3-1.1-0.7-1.4
					c-0.4-0.4-0.9-0.6-1.5-0.6C750.2,58.6,749.8,58.8,749.4,59.1z"/>
				<path class="st5" d="M766.6,58.3c0.5,0.5,0.8,1.2,0.8,2.2v3.9h-1.2v-3.8c0-0.7-0.2-1.2-0.5-1.5s-0.7-0.5-1.3-0.5
					s-1.1,0.2-1.5,0.6s-0.6,1-0.6,1.7v3.5H761v-3.8c0-0.7-0.2-1.2-0.5-1.5s-0.7-0.5-1.3-0.5s-1.1,0.2-1.5,0.6s-0.6,1-0.6,1.7v3.5
					H756v-6.9h1.2v1c0.2-0.4,0.6-0.6,1-0.8s0.9-0.3,1.4-0.3s1,0.1,1.4,0.3s0.7,0.5,1,0.9c0.3-0.4,0.6-0.7,1.1-0.9s1-0.3,1.6-0.3
					C765.4,57.5,766.1,57.8,766.6,58.3z"/>
				<path class="st5" d="M774.3,58.2c0.5,0.5,0.8,1.2,0.8,2.1v4.1h-1.2v-0.9c-0.2,0.3-0.5,0.6-0.9,0.7c-0.4,0.2-0.8,0.3-1.4,0.3
					c-0.8,0-1.4-0.2-1.8-0.6c-0.5-0.4-0.7-0.9-0.7-1.5s0.2-1.1,0.7-1.5s1.1-0.6,2.1-0.6h2v-0.2c0-0.5-0.2-0.9-0.5-1.2
					s-0.8-0.4-1.4-0.4c-0.4,0-0.8,0.1-1.2,0.2c-0.4,0.1-0.7,0.3-1,0.5l-0.5-0.9c0.4-0.3,0.8-0.5,1.3-0.7s1-0.2,1.6-0.2
					C773.1,57.5,773.8,57.8,774.3,58.2z M773.1,63.3c0.3-0.2,0.6-0.5,0.8-0.9v-1H772c-1.1,0-1.6,0.4-1.6,1.1c0,0.3,0.1,0.6,0.4,0.8
					c0.3,0.2,0.6,0.3,1.1,0.3S772.7,63.5,773.1,63.3z"/>
				<path class="st5" d="M777.7,64.3c-0.5-0.2-0.9-0.3-1.2-0.6l0.5-1c0.3,0.2,0.7,0.4,1.1,0.5s0.9,0.2,1.3,0.2
					c1.1,0,1.6-0.3,1.6-0.9c0-0.2-0.1-0.4-0.2-0.5c-0.1-0.1-0.3-0.2-0.6-0.3c-0.2-0.1-0.5-0.1-0.9-0.2c-0.6-0.1-1-0.2-1.4-0.3
					c-0.3-0.1-0.6-0.3-0.9-0.6s-0.4-0.6-0.4-1.1c0-0.6,0.3-1.1,0.8-1.5s1.2-0.6,2.1-0.6c0.5,0,0.9,0.1,1.4,0.2
					c0.5,0.1,0.8,0.3,1.1,0.5l-0.5,1c-0.6-0.4-1.2-0.5-2-0.5c-0.5,0-0.9,0.1-1.2,0.3s-0.4,0.4-0.4,0.7c0,0.2,0.1,0.4,0.2,0.5
					s0.3,0.2,0.6,0.3s0.6,0.1,1,0.2c0.6,0.1,1,0.2,1.3,0.3s0.6,0.3,0.9,0.6c0.2,0.3,0.4,0.6,0.4,1.1c0,0.6-0.3,1.1-0.8,1.5
					s-1.3,0.6-2.2,0.6C778.8,64.5,778.2,64.5,777.7,64.3z"/>
				<path class="st5" d="M726.6,79.5c-0.7-0.4-1.3-1-1.7-1.7s-0.6-1.5-0.6-2.4s0.2-1.7,0.6-2.4s1-1.3,1.7-1.7
					c0.7-0.4,1.6-0.6,2.5-0.6c0.7,0,1.4,0.1,1.9,0.4s1.1,0.6,1.5,1.1l-0.8,0.8c-0.7-0.7-1.5-1.1-2.5-1.1c-0.7,0-1.3,0.2-1.8,0.5
					s-1,0.7-1.3,1.2s-0.5,1.1-0.5,1.8s0.2,1.2,0.5,1.8s0.7,0.9,1.3,1.2c0.5,0.3,1.2,0.5,1.8,0.5c1,0,1.9-0.4,2.5-1.1l0.8,0.8
					c-0.4,0.5-0.9,0.8-1.5,1.1c-0.6,0.2-1.2,0.4-1.9,0.4C728.1,80.1,727.3,79.9,726.6,79.5z"/>
				<path class="st5" d="M735,79.6c-0.5-0.3-1-0.7-1.3-1.2s-0.5-1.1-0.5-1.8c0-0.7,0.2-1.3,0.5-1.8s0.7-0.9,1.3-1.2
					c0.5-0.3,1.2-0.4,1.8-0.4c0.7,0,1.3,0.1,1.8,0.4s1,0.7,1.3,1.2s0.5,1.1,0.5,1.8c0,0.7-0.2,1.3-0.5,1.8s-0.7,0.9-1.3,1.2
					c-0.5,0.3-1.1,0.5-1.8,0.5S735.5,79.9,735,79.6z M738,78.7c0.3-0.2,0.6-0.5,0.8-0.9s0.3-0.8,0.3-1.3s-0.1-0.9-0.3-1.3
					s-0.5-0.6-0.8-0.8c-0.3-0.2-0.7-0.3-1.2-0.3c-0.4,0-0.8,0.1-1.2,0.3c-0.3,0.2-0.6,0.5-0.8,0.8c-0.2,0.4-0.3,0.8-0.3,1.3
					s0.1,0.9,0.3,1.3s0.5,0.7,0.8,0.9c0.3,0.2,0.7,0.3,1.2,0.3C737.2,79,737.6,78.9,738,78.7z"/>
				<path class="st5" d="M752.7,73.8c0.5,0.5,0.8,1.2,0.8,2.2v4h-1.2v-3.8c0-0.7-0.2-1.2-0.5-1.5s-0.7-0.5-1.3-0.5s-1.1,0.2-1.5,0.6
					s-0.6,1-0.6,1.7V80h-1.2v-3.8c0-0.7-0.2-1.2-0.5-1.5s-0.7-0.5-1.3-0.5s-1.1,0.2-1.5,0.6s-0.6,1-0.6,1.7V80h-1.2v-6.9h1.2v1
					c0.2-0.4,0.6-0.6,1-0.8c0.4-0.2,0.9-0.3,1.4-0.3s1,0.1,1.4,0.3c0.4,0.2,0.7,0.5,1,0.9c0.3-0.4,0.6-0.7,1.1-0.9
					c0.5-0.2,1-0.3,1.6-0.3C751.5,73.1,752.2,73.3,752.7,73.8z"/>
				<path class="st5" d="M761.2,73.5c0.5,0.3,0.9,0.7,1.2,1.2s0.4,1.1,0.4,1.8c0,0.7-0.1,1.3-0.4,1.8s-0.7,0.9-1.2,1.2
					s-1.1,0.4-1.8,0.4c-0.5,0-0.9-0.1-1.4-0.3s-0.8-0.5-1-0.8v3.5h-1.2v-9.4h1.2V74c0.3-0.4,0.6-0.7,1-0.9c0.4-0.2,0.9-0.3,1.4-0.3
					C760.1,73.1,760.6,73.2,761.2,73.5z M760.5,78.7c0.3-0.2,0.6-0.5,0.8-0.9s0.3-0.8,0.3-1.3s-0.1-0.9-0.3-1.3s-0.5-0.6-0.8-0.8
					c-0.3-0.2-0.7-0.3-1.2-0.3c-0.4,0-0.8,0.1-1.2,0.3s-0.6,0.5-0.8,0.8c-0.2,0.4-0.3,0.8-0.3,1.3s0.1,0.9,0.3,1.3s0.5,0.7,0.8,0.9
					c0.4,0.2,0.7,0.3,1.2,0.3C759.7,79,760.1,78.9,760.5,78.7z"/>
				<path class="st5" d="M764.6,70.4h1.2V80h-1.2V70.4z"/>
				<path class="st5" d="M774.4,77h-5.6c0.1,0.6,0.3,1.1,0.8,1.5s1,0.5,1.7,0.5c0.8,0,1.5-0.3,2-0.8L774,79
					c-0.3,0.4-0.7,0.6-1.2,0.8s-1,0.3-1.5,0.3c-0.7,0-1.4-0.1-1.9-0.4c-0.6-0.3-1-0.7-1.3-1.2s-0.5-1.1-0.5-1.8
					c0-0.7,0.1-1.3,0.4-1.8s0.7-1,1.2-1.2c0.5-0.3,1.1-0.4,1.8-0.4s1.2,0.1,1.8,0.4c0.5,0.3,0.9,0.7,1.2,1.2s0.4,1.1,0.4,1.8
					C774.4,76.7,774.4,76.8,774.4,77z M769.5,74.7c-0.4,0.4-0.6,0.8-0.7,1.4h4.4c-0.1-0.6-0.3-1.1-0.7-1.4c-0.4-0.4-0.9-0.6-1.5-0.6
					S769.9,74.3,769.5,74.7z"/>
				<path class="st5" d="M786.7,73.8c0.5,0.5,0.8,1.2,0.8,2.2v4h-1.2v-3.8c0-0.7-0.2-1.2-0.5-1.5s-0.7-0.5-1.3-0.5s-1.1,0.2-1.5,0.6
					s-0.6,1-0.6,1.7V80h-1.2v-3.8c0-0.7-0.2-1.2-0.5-1.5s-0.7-0.5-1.3-0.5s-1.1,0.2-1.5,0.6s-0.6,1-0.6,1.7V80h-1.2v-6.9h1.2v1
					c0.2-0.4,0.6-0.6,1-0.8c0.4-0.2,0.9-0.3,1.4-0.3s1,0.1,1.4,0.3s0.7,0.5,1,0.9c0.3-0.4,0.6-0.7,1.1-0.9c0.5-0.2,1-0.3,1.6-0.3
					C785.6,73.1,786.2,73.3,786.7,73.8z"/>
				<path class="st5" d="M796,77h-5.6c0.1,0.6,0.3,1.1,0.8,1.5s1,0.5,1.7,0.5c0.8,0,1.5-0.3,2-0.8l0.7,0.8c-0.3,0.4-0.7,0.6-1.2,0.8
					c-0.5,0.2-1,0.3-1.5,0.3c-0.7,0-1.4-0.1-1.9-0.4c-0.6-0.3-1-0.7-1.3-1.2s-0.5-1.1-0.5-1.8c0-0.7,0.1-1.3,0.4-1.8s0.7-1,1.2-1.2
					c0.5-0.3,1.1-0.4,1.8-0.4s1.2,0.1,1.8,0.4c0.5,0.3,0.9,0.7,1.2,1.2s0.4,1.1,0.4,1.8C796,76.7,796,76.8,796,77z M791.1,74.7
					c-0.4,0.4-0.6,0.8-0.7,1.4h4.4c-0.1-0.6-0.3-1.1-0.7-1.4s-0.9-0.6-1.5-0.6S791.5,74.3,791.1,74.7z"/>
				<path class="st5" d="M803.5,73.8c0.5,0.5,0.8,1.2,0.8,2.2v4H803v-3.8c0-0.7-0.2-1.2-0.5-1.5s-0.8-0.5-1.4-0.5
					c-0.7,0-1.2,0.2-1.6,0.6c-0.4,0.4-0.6,1-0.6,1.7V80h-1.2v-6.9h1.2v1c0.2-0.4,0.6-0.6,1-0.8c0.4-0.2,0.9-0.3,1.5-0.3
					C802.3,73.1,803,73.3,803.5,73.8z"/>
				<path class="st5" d="M810.4,79.6c-0.2,0.2-0.4,0.3-0.7,0.4s-0.5,0.1-0.8,0.1c-0.7,0-1.2-0.2-1.6-0.6c-0.4-0.4-0.6-0.9-0.6-1.6
					v-3.8h-1.2v-1h1.2v-1.5h1.2v1.5h2v1h-2v3.7c0,0.4,0.1,0.7,0.3,0.9c0.2,0.2,0.5,0.3,0.8,0.3c0.4,0,0.7-0.1,1-0.3L810.4,79.6z"/>
				<path class="st5" d="M816.6,73.8c0.5,0.5,0.8,1.2,0.8,2.1V80h-1.2v-0.9c-0.2,0.3-0.5,0.6-0.9,0.7c-0.4,0.2-0.8,0.3-1.4,0.3
					c-0.8,0-1.4-0.2-1.8-0.6c-0.5-0.4-0.7-0.9-0.7-1.5s0.2-1.1,0.7-1.5c0.4-0.4,1.1-0.6,2.1-0.6h2v-0.2c0-0.5-0.2-0.9-0.5-1.2
					s-0.8-0.4-1.4-0.4c-0.4,0-0.8,0.1-1.2,0.2s-0.7,0.3-1,0.5l-0.5-0.9c0.4-0.3,0.8-0.5,1.3-0.7s1-0.2,1.6-0.2
					C815.4,73.1,816.1,73.3,816.6,73.8z M815.4,78.8c0.3-0.2,0.6-0.5,0.8-0.9v-1h-1.9c-1.1,0-1.6,0.4-1.6,1.1c0,0.3,0.1,0.6,0.4,0.8
					c0.3,0.2,0.6,0.3,1.1,0.3C814.6,79.1,815,79,815.4,78.8z"/>
				<path class="st5" d="M821.8,73.4c0.4-0.2,0.9-0.3,1.5-0.3v1.2c-0.1,0-0.2,0-0.3,0c-0.7,0-1.2,0.2-1.6,0.6
					c-0.4,0.4-0.6,1-0.6,1.7V80h-1.2v-6.9h1.2v1.2C821.1,73.9,821.4,73.6,821.8,73.4z"/>
				<path class="st5" d="M824.9,71.6c-0.2-0.2-0.2-0.3-0.2-0.6c0-0.2,0.1-0.4,0.2-0.6c0.2-0.2,0.4-0.2,0.6-0.2
					c0.2,0,0.4,0.1,0.6,0.2c0.2,0.2,0.2,0.3,0.2,0.6c0,0.2-0.1,0.4-0.2,0.6c-0.2,0.2-0.4,0.2-0.6,0.2
					C825.3,71.8,825.1,71.7,824.9,71.6z M824.9,73.1h1.2V80h-1.2V73.1z"/>
				<path class="st5" d="M829.6,79.6c-0.5-0.3-1-0.7-1.3-1.2s-0.5-1.1-0.5-1.8c0-0.7,0.2-1.3,0.5-1.8s0.7-0.9,1.3-1.2
					c0.5-0.3,1.2-0.4,1.8-0.4s1.3,0.1,1.8,0.4s1,0.7,1.3,1.2s0.5,1.1,0.5,1.8c0,0.7-0.2,1.3-0.5,1.8s-0.7,0.9-1.3,1.2
					c-0.5,0.3-1.1,0.5-1.8,0.5S830.1,79.9,829.6,79.6z M832.6,78.7c0.3-0.2,0.6-0.5,0.8-0.9s0.3-0.8,0.3-1.3s-0.1-0.9-0.3-1.3
					s-0.5-0.6-0.8-0.8c-0.3-0.2-0.7-0.3-1.2-0.3c-0.4,0-0.8,0.1-1.2,0.3c-0.3,0.2-0.6,0.5-0.8,0.8c-0.2,0.4-0.3,0.8-0.3,1.3
					s0.1,0.9,0.3,1.3s0.5,0.7,0.8,0.9c0.3,0.2,0.7,0.3,1.2,0.3C831.9,79,832.3,78.9,832.6,78.7z"/>
				<path class="st5" d="M837.1,79.8c-0.5-0.2-0.9-0.3-1.2-0.6l0.5-1c0.3,0.2,0.7,0.4,1.1,0.5s0.9,0.2,1.3,0.2
					c1.1,0,1.6-0.3,1.6-0.9c0-0.2-0.1-0.4-0.2-0.5c-0.1-0.1-0.3-0.2-0.5-0.3c-0.2-0.1-0.5-0.1-0.9-0.2c-0.6-0.1-1-0.2-1.4-0.3
					c-0.3-0.1-0.6-0.3-0.9-0.6c-0.3-0.3-0.4-0.6-0.4-1.1c0-0.6,0.3-1.1,0.8-1.5s1.2-0.6,2.1-0.6c0.5,0,0.9,0.1,1.4,0.2
					s0.8,0.3,1.1,0.5l-0.5,1c-0.6-0.4-1.2-0.5-2-0.5c-0.5,0-0.9,0.1-1.2,0.3c-0.3,0.2-0.4,0.4-0.4,0.7c0,0.2,0.1,0.4,0.2,0.5
					s0.3,0.2,0.6,0.3s0.5,0.1,1,0.2c0.6,0.1,1,0.2,1.3,0.3s0.6,0.3,0.9,0.6c0.2,0.3,0.4,0.6,0.4,1.1c0,0.6-0.3,1.1-0.8,1.5
					s-1.3,0.6-2.2,0.6C838.1,80.1,837.6,80,837.1,79.8z"/>
			</g>
			<g>
				<g>
					<g>
						<path class="st5" d="M716.1,52.7c-3.2-11.9-14-20.7-27-20.7c-2.5,0-4.9,0.3-7.2,0.9c-11,2.9-19.3,12.4-20.6,23.9H647
							c0.1-0.9,0.2-1.8,0.3-2.6c2.8-16.5,17.2-29.1,34.5-29.1C698.7,25.1,712.7,36.9,716.1,52.7z"/>
					</g>
					<g>
						<path class="st5" d="M716.5,65.6C713.8,82.3,699.3,95,681.9,95c-17.9,0-32.7-13.5-34.7-30.8c0-0.4-0.1-0.8-0.1-1.2h14.3
							c1.3,11.5,9.6,20.9,20.5,23.8c2.3,0.6,4.7,0.9,7.2,0.9C702.6,87.8,713.8,78.3,716.5,65.6z"/>
					</g>
				</g>
				<g>
					<path class="st5" d="M710.6,68.9C710.6,68.8,710.6,68.8,710.6,68.9c2.9-6.8,2.4-14.9-1.3-21.2c2-2.4-0.6-5.8-3.4-4.5
						c-0.5-0.5-1-1-1.6-1.5c1.1-2.9-2.5-5.3-4.7-3.1c-6.4-3.3-14.5-3.2-20.9,0.1c-2.3-2.4-6.1,0.2-4.7,3.2c-0.8,0.7-1.5,1.4-2.2,2.2
						c-0.6,0.7,0.5,1.6,1.1,0.9c0.6-0.7,1.3-1.4,2.1-2.1c1.4,1,3.5,0.5,4.3-1.1c2.6,0.7,5,1.8,7.3,3.2c-0.2,0.7-0.1,1.5,0.2,2.1
						c-1.9,1.6-3.6,3.5-5.1,5.5c-1.4-0.4-2.9,0.3-3.5,1.6c-3,0-6,0.3-9,1c-0.3-0.5-0.7-0.9-1.1-1.2c0.6-2.2,1.4-4.2,2.6-6.1
						c0.5-0.8-0.7-1.5-1.2-0.8c-1.3,2-2.2,4.2-2.8,6.5c-3.4,0.1-4,4.8-0.7,5.7c0,6.7,2.9,13.3,7.9,17.7c-1.1,2.8,2.4,5.2,4.6,3.2
						c6.6,3.5,14.9,3.5,21.5,0c2.3,2.3,6-0.3,4.7-3.2C707.2,74.8,709.2,72,710.6,68.9L710.6,68.9z M709.7,67.3c-2-2-4.1-3.7-6.4-5.3
						c0.3-1,0-2.2-0.7-2.9c1.9-3.2,3.5-6.7,4.5-10.3c0.4,0,0.7-0.1,1-0.2C711.4,54.1,712,61.2,709.7,67.3L709.7,67.3z M676.8,75.3
						c-0.6-5.9,0.5-11.8,3.1-17.1c1.6,0.5,3.4-0.6,3.7-2.2c4.9,0.6,9.7,2.1,14.1,4.3c-0.2,0.8,0,1.7,0.5,2.4
						c-5,6.4-11.6,11.1-19.2,13.9C678.5,75.9,677.7,75.4,676.8,75.3L676.8,75.3z M699,61.1c0-0.8,0.7-1.5,1.5-1.5
						c1.9,0.1,1.9,2.9,0,2.9C699.7,62.5,699,61.9,699,61.1L699,61.1z M708.5,45.8c0,0.8-0.7,1.5-1.5,1.5c-1.9-0.1-1.9-2.9,0-2.9
						C707.9,44.3,708.5,45,708.5,45.8L708.5,45.8z M704.7,44.1c-1,1.4-0.5,3.4,1,4.2c-1,3.5-2.5,6.8-4.4,9.9
						c-0.4-0.1-0.8-0.1-1.2-0.1c-2-4.2-4.8-8-8.3-11c0.3-0.6,0.4-1.4,0.2-2.1c2.2-1.3,4.6-2.3,7-3.1c0.8,1.6,3,2,4.4,0.8
						C703.8,43.3,704.3,43.7,704.7,44.1L704.7,44.1z M687.7,45.9c0-0.8,0.7-1.5,1.5-1.5c1.9,0.1,1.9,2.9,0,2.9
						C688.4,47.4,687.7,46.7,687.7,45.9L687.7,45.9z M701.5,39.2c0.8,0,1.5,0.7,1.5,1.5c-0.1,1.9-2.8,1.9-2.9,0
						C700.1,39.9,700.7,39.2,701.5,39.2L701.5,39.2z M676.5,42.1c-0.8,0-1.5-0.7-1.5-1.5c0.1-1.9,2.8-1.9,2.9,0
						C678,41.5,677.3,42.1,676.5,42.1L676.5,42.1z M679.4,40.6c0-0.2,0-0.4-0.1-0.6c6-3.1,13.4-3.1,19.5-0.1
						c-0.1,0.3-0.1,0.5-0.1,0.8c-2.6,0.8-5.1,1.9-7.4,3.2c-1.1-1.2-3-1.2-4.1,0C684.7,42.5,682.1,41.3,679.4,40.6L679.4,40.6z
						 M687.6,48.3c1,0.7,2.3,0.7,3.2,0c3.3,2.9,6.1,6.5,7.9,10.5c-0.1,0.1-0.2,0.2-0.4,0.3c-4.7-2.4-9.7-3.9-14.9-4.5
						c-0.1-0.4-0.4-0.8-0.7-1.1C684.2,51.6,685.8,49.8,687.6,48.3L687.6,48.3z M680.7,54c0.8,0,1.5,0.7,1.5,1.5
						c-0.1,1.9-2.8,1.9-2.9,0C679.3,54.7,679.9,54,680.7,54L680.7,54z M665.2,56.6c0-0.8,0.7-1.5,1.5-1.5c1.9,0.1,1.9,2.9,0,2.9
						C665.8,58.1,665.2,57.4,665.2,56.6L665.2,56.6z M667.3,59.4c0,0,2.2-0.5,2.2-2.8c0,0,5.6-0.9,8.4-0.9c0.1,0.7,0.3,1.3,0.8,1.8
						c-2.8,5.6-3.9,11.8-3.3,18c-0.3,0.1-0.5,0.3-0.8,0.5C670,71.8,667.3,64.8,667.3,59.4L667.3,59.4z M676.5,79.7
						c-0.8,0-1.5-0.7-1.5-1.5s0.7-1.5,1.5-1.5s1.5,0.7,1.5,1.5S677.3,79.7,676.5,79.7L676.5,79.7z M689.2,81.6
						c-3.5,0-6.9-0.8-10-2.4c0.1-0.4,0.2-0.8,0.2-1.1c7.8-2.8,14.7-7.8,19.9-14.3c0.4,0.2,0.9,0.3,1.4,0.3c0.3,1.2,0.6,2.4,0.7,3.6
						c0.1,0.9,1.5,0.7,1.4-0.2c-0.2-1.3-0.5-2.6-0.8-3.8c0.2-0.1,0.3-0.2,0.5-0.4c2.4,1.6,4.6,3.5,6.6,5.5c-1.2,2.8-3.1,5.3-5.4,7.3
						c-0.2-0.2-0.5-0.3-0.8-0.4c0.1-1.3,0.2-2.7,0.2-4c0-0.9-1.4-0.9-1.4,0c0,1.3,0,2.6-0.2,3.8c-1.7,0.3-2.8,2-2.3,3.7
						C696.1,80.7,692.7,81.6,689.2,81.6L689.2,81.6z M702,79.8c-0.8,0-1.5-0.7-1.5-1.5c0.1-1.9,2.8-1.9,2.9,0
						C703.4,79.1,702.8,79.8,702,79.8L702,79.8z"/>
					<path class="st5" d="M689.2,84.5c-3.7,0-7.3-0.8-10.6-2.4c-1.4,0.8-3.1,0.7-4.5-0.3s-2.1-2.5-1.9-4.1
						c-4.7-4.5-7.5-10.7-7.7-17.3c-1.5-0.9-2.4-2.5-2.1-4.4c0.2-1.8,1.5-3.2,3.2-3.7c0.6-2.1,1.5-4.1,2.7-6c0.4-0.7,1.2-1.1,2-1
						c-0.3-0.7-0.2-1.6,0.4-2.2c0.5-0.6,1.1-1.2,1.6-1.7c-0.3-1.7,0.4-3.4,1.9-4.4s3.3-1,4.8-0.1c6.4-3,14.1-3,20.5-0.1
						c1.4-0.8,3.1-0.8,4.5,0.1c1.5,0.9,2.2,2.6,2,4.2c0.1,0.1,0.2,0.2,0.3,0.3c1.6-0.3,3.3,0.3,4.3,1.6c1.1,1.4,1.2,3.1,0.5,4.6
						c3.6,6.5,4,14.7,1,21.6l-0.1,0.1l0,0c-1.3,3.1-3.2,5.8-5.6,8.2c0.3,1.7-0.4,3.3-1.9,4.4c-1.5,1-3.2,1-4.7,0.2
						C696.5,83.7,692.8,84.5,689.2,84.5z M681.8,78.7c5,2,10.9,1.8,15.8-0.4c0-0.8,0.3-1.6,0.7-2.3c0.5-0.7,1.1-1.3,1.8-1.6
						c0.1-0.9,0.1-1.8,0.1-2.7c0-0.9,0.5-1.7,1.4-2.1c-0.9-0.2-1.6-0.9-1.7-1.8c-0.1-0.7-0.2-1.3-0.4-2
						C694.7,71.4,688.7,75.9,681.8,78.7z M702,78.3C702,78.3,701.9,78.3,702,78.3L702,78.3z M676.5,78.2L676.5,78.2L676.5,78.2z
						 M678.2,74.2c0.4,0.2,0.8,0.4,1.2,0.7c6.6-2.6,12.4-6.8,17-12.3c-0.2-0.4-0.3-0.9-0.3-1.4c-3.7-1.8-7.6-2.9-11.6-3.6
						c-0.4,0.6-0.9,1.2-1.6,1.6c-0.7,0.4-1.4,0.6-2.2,0.6C678.8,64.4,677.9,69.3,678.2,74.2z M702.9,69.5c1,0.2,1.7,1.1,1.7,2.1
						c0,0.4,0,0.9,0,1.3c1-1.2,1.9-2.5,2.6-3.9c-1-1-2-1.9-3.1-2.8c0.1,0.3,0.1,0.6,0.1,0.9C704.4,68.2,703.9,69.1,702.9,69.5z
						 M668.9,60.4c0.2,3.8,1.8,8.7,4.9,12.5c-0.1-5.2,1-10.4,3.2-15.2c-0.1-0.1-0.1-0.3-0.2-0.4c-1.9,0.1-4.5,0.5-5.9,0.7
						C670.5,59.2,669.6,59.9,668.9,60.4z M704.9,61.3c1.4,1,2.8,2.1,4.1,3.3c1.1-4.4,0.7-9.2-1.2-13.3c-0.9,2.7-2.1,5.2-3.5,7.7
						C704.7,59.6,704.9,60.4,704.9,61.3z M699.1,61.1h1.4l0,0H699.1L699.1,61.1z M665.2,56.6h1.4l0,0H665.2L665.2,56.6z M693.5,46.8
						c2.9,2.7,5.4,5.9,7.3,9.4c1.3-2.3,2.4-4.8,3.2-7.3c-0.6-0.6-1-1.3-1.1-2.1c-0.1-0.6-0.1-1.3,0-1.9c-0.7,0.2-1.3,0.2-2,0.1
						c-0.9-0.2-1.7-0.6-2.3-1.2c-1.7,0.6-3.3,1.3-4.9,2.1C693.6,46.2,693.5,46.5,693.5,46.8z M684.9,53.3c3.7,0.5,7.3,1.5,10.7,2.9
						c-1.4-2.2-3.1-4.3-5.1-6.1c-0.9,0.3-1.8,0.3-2.7,0C686.8,51.1,685.8,52.1,684.9,53.3z M680.8,55.5L680.8,55.5L680.8,55.5z
						 M669.7,53.5C669.8,53.6,669.8,53.6,669.7,53.5c2.5-0.4,5-0.7,7.5-0.7c0.9-1.1,2.2-1.8,3.6-1.7c1.2-1.6,2.5-3,4-4.3
						c-0.1-0.3-0.1-0.5-0.1-0.8c-1.6-0.9-3.4-1.6-5.1-2.2c-0.6,0.6-1.3,1-2.1,1.2s-1.7,0.2-2.5-0.1c-0.4,0.4-0.8,0.8-1.2,1.3
						c-0.5,0.5-1.1,0.8-1.8,0.7c0.2,0.6,0.2,1.3-0.2,1.9C671,50.3,670.2,51.9,669.7,53.5z M687.8,45.9h1.4l0,0H687.8L687.8,45.9z
						 M707,45.8L707,45.8h1.4l0,0H707z M689.2,41.5c0.8,0,1.5,0.2,2.2,0.6c1.3-0.7,2.7-1.4,4.2-2c-4.1-1.3-8.6-1.3-12.7,0
						c1.4,0.6,2.8,1.2,4.2,2C687.7,41.7,688.4,41.5,689.2,41.5z M701.6,40.7L701.6,40.7L701.6,40.7z M676.5,40.6
						C676.5,40.6,676.5,40.7,676.5,40.6L676.5,40.6z"/>
				</g>
				<g>
					<circle class="st5" cx="666.2" cy="56.8" r="1.3"/>
					<path class="st5" d="M666.2,59.7c-1.6,0-2.8-1.3-2.8-2.8s1.3-2.8,2.8-2.8s2.8,1.3,2.8,2.8S667.8,59.7,666.2,59.7z M666.2,56.7
						c-0.1,0-0.2,0.1-0.2,0.2c0,0.2,0.3,0.2,0.3,0C666.4,56.7,666.3,56.7,666.2,56.7z"/>
				</g>
				<g>
					<circle class="st5" cx="676.5" cy="40.7" r="1.3"/>
					<path class="st5" d="M676.5,43.5c-1.6,0-2.8-1.3-2.8-2.8s1.3-2.8,2.8-2.8s2.8,1.3,2.8,2.8S678.1,43.5,676.5,43.5z M676.5,40.5
						c-0.1,0-0.2,0.1-0.2,0.2c0,0.2,0.3,0.2,0.3,0C676.7,40.6,676.6,40.5,676.5,40.5z"/>
				</g>
				<g>
					<circle class="st5" cx="689.2" cy="45.9" r="1.3"/>
					<path class="st5" d="M689.2,48.8c-1.6,0-2.8-1.3-2.8-2.8s1.3-2.8,2.8-2.8s2.8,1.3,2.8,2.8S690.8,48.8,689.2,48.8z M689.2,45.8
						c-0.1,0-0.2,0.1-0.2,0.2c0,0.2,0.3,0.2,0.3,0S689.3,45.8,689.2,45.8z"/>
				</g>
				<g>
					<circle class="st5" cx="680.7" cy="55.7" r="1.3"/>
					<path class="st5" d="M680.7,58.6c-1.6,0-2.8-1.3-2.8-2.8s1.3-2.8,2.8-2.8s2.8,1.3,2.8,2.8S682.3,58.6,680.7,58.6z M680.7,55.6
						c-0.1,0-0.2,0.1-0.2,0.2c0,0.2,0.3,0.2,0.3,0C680.9,55.6,680.8,55.6,680.7,55.6z"/>
				</g>
				<g>
					<circle class="st5" cx="701.5" cy="40.7" r="1.3"/>
					<path class="st5" d="M701.5,43.5c-1.6,0-2.8-1.3-2.8-2.8s1.3-2.8,2.8-2.8s2.8,1.3,2.8,2.8S703.1,43.5,701.5,43.5z M701.5,40.5
						c-0.1,0-0.2,0.1-0.2,0.2c0,0.2,0.3,0.2,0.3,0C701.7,40.6,701.6,40.5,701.5,40.5z"/>
				</g>
				<g>
					<circle class="st5" cx="707.1" cy="45.8" r="1.3"/>
					<path class="st5" d="M707.1,48.6c-1.6,0-2.8-1.3-2.8-2.8s1.3-2.8,2.8-2.8s2.8,1.3,2.8,2.8S708.6,48.6,707.1,48.6z M707.1,45.6
						c-0.1,0-0.2,0.1-0.2,0.2c0,0.2,0.3,0.2,0.3,0C707.2,45.7,707.1,45.6,707.1,45.6z"/>
				</g>
				<g>
					<circle class="st5" cx="700.5" cy="61.1" r="1.3"/>
					<path class="st5" d="M700.5,63.9c-1.6,0-2.8-1.3-2.8-2.8s1.3-2.8,2.8-2.8s2.8,1.3,2.8,2.8S702,63.9,700.5,63.9z M700.5,60.9
						c-0.1,0-0.2,0.1-0.2,0.2c0,0.2,0.3,0.2,0.3,0C700.6,61,700.6,60.9,700.5,60.9z"/>
				</g>
				<g>
					<circle class="st5" cx="701.8" cy="78.3" r="1.3"/>
					<path class="st5" d="M701.8,81.2c-1.6,0-2.8-1.3-2.8-2.8s1.3-2.8,2.8-2.8s2.8,1.3,2.8,2.8S703.4,81.2,701.8,81.2z M701.8,78.2
						c-0.1,0-0.2,0.1-0.2,0.2c0,0.2,0.3,0.2,0.3,0C702,78.3,701.9,78.2,701.8,78.2z"/>
				</g>
				<g>
					<circle class="st5" cx="676.4" cy="78.1" r="1.3"/>
					<path class="st5" d="M676.4,80.9c-1.6,0-2.8-1.3-2.8-2.8s1.3-2.8,2.8-2.8s2.8,1.3,2.8,2.8S678,80.9,676.4,80.9z M676.4,77.9
						c-0.1,0-0.2,0.1-0.2,0.2c0,0.2,0.3,0.2,0.3,0C676.5,78,676.5,77.9,676.4,77.9z"/>
				</g>
			</g>
		</g>
	</g>
</g>
<g>
	<g>
		<g>
			<path class="st5" d="M1196.9,47.2l-5.7,5.5c-3.9-4.1-8.3-6.2-13.2-6.2c-4.1,0-7.6,1.4-10.4,4.2s-4.2,6.3-4.2,10.4
				c0,2.9,0.6,5.4,1.9,7.7c1.3,2.2,3,4,5.3,5.3s4.8,1.9,7.6,1.9c2.4,0,4.6-0.4,6.5-1.3c2-0.9,4.1-2.5,6.5-4.9l5.6,5.8
				c-3.2,3.1-6.2,5.3-9,6.5s-6.1,1.8-9.7,1.8c-6.7,0-12.2-2.1-16.5-6.4s-6.4-9.7-6.4-16.4c0-4.3,1-8.1,2.9-11.5
				c1.9-3.3,4.7-6,8.4-8.1c3.6-2,7.5-3.1,11.7-3.1c3.6,0,7,0.8,10.3,2.3C1191.6,42.3,1194.5,44.4,1196.9,47.2z"/>
			<path class="st5" d="M1201.3,39.6h23.9v8.1h-7.9v35.1h-8.3V47.7h-7.7V39.6z"/>
			<path class="st5" d="M1232.7,39.6h8.2v43.2h-8.2V39.6z"/>
			<path class="st5" d="M1260.1,39.6h8.3l16.6,43.2h-8.5l-3.4-8.9h-17.6l-3.5,8.9h-8.5L1260.1,39.6z M1264.3,51l-5.8,14.8h11.5
				L1264.3,51z"/>
		</g>
	</g>
	<g>
		<path class="st5" d="M1173,97.9c-0.3-0.2-0.6-0.5-0.8-1c-0.2-0.4-0.3-0.9-0.3-1.5s0.1-1.1,0.3-1.5c0.2-0.4,0.4-0.7,0.8-1
			c0.3-0.2,0.7-0.3,1.1-0.3s0.8,0.1,1.1,0.3c0.3,0.2,0.6,0.5,0.8,1c0.2,0.4,0.3,0.9,0.3,1.5s-0.1,1.1-0.3,1.5
			c-0.2,0.4-0.4,0.7-0.8,1c-0.3,0.2-0.7,0.3-1.1,0.3C1173.7,98.2,1173.4,98.1,1173,97.9z M1175.1,97.5c0.3-0.2,0.5-0.5,0.6-0.8
			c0.1-0.4,0.2-0.8,0.2-1.3s-0.1-0.9-0.2-1.3s-0.3-0.6-0.6-0.8c-0.3-0.2-0.6-0.3-0.9-0.3s-0.6,0.1-0.9,0.3c-0.3,0.2-0.5,0.5-0.6,0.8
			c-0.1,0.4-0.2,0.8-0.2,1.3s0.1,0.9,0.2,1.3s0.3,0.6,0.6,0.8c0.3,0.2,0.6,0.3,0.9,0.3S1174.8,97.7,1175.1,97.5z"/>
		<path class="st5" d="M1179.6,92.7v5.5h-0.4v-5.1h-1.3v-0.4H1179.6z"/>
		<path class="st5" d="M1183.1,97.9c-0.3-0.2-0.6-0.5-0.8-1c-0.2-0.4-0.3-0.9-0.3-1.5s0.1-1.1,0.3-1.5c0.2-0.4,0.4-0.7,0.8-1
			c0.3-0.2,0.7-0.3,1.1-0.3s0.8,0.1,1.1,0.3c0.3,0.2,0.6,0.5,0.8,1c0.2,0.4,0.3,0.9,0.3,1.5s-0.1,1.1-0.3,1.5
			c-0.2,0.4-0.4,0.7-0.8,1c-0.3,0.2-0.7,0.3-1.1,0.3C1183.8,98.2,1183.4,98.1,1183.1,97.9z M1185.1,97.5c0.3-0.2,0.5-0.5,0.6-0.8
			c0.1-0.4,0.2-0.8,0.2-1.3s-0.1-0.9-0.2-1.3s-0.3-0.6-0.6-0.8c-0.3-0.2-0.6-0.3-0.9-0.3s-0.6,0.1-0.9,0.3c-0.3,0.2-0.5,0.5-0.6,0.8
			c-0.1,0.4-0.2,0.8-0.2,1.3s0.1,0.9,0.2,1.3s0.3,0.6,0.6,0.8c0.3,0.2,0.6,0.3,0.9,0.3C1184.6,97.8,1184.9,97.7,1185.1,97.5z"/>
		<path class="st5" d="M1189.3,97.9c-0.3-0.2-0.6-0.5-0.8-1c-0.2-0.4-0.3-0.9-0.3-1.5s0.1-1.1,0.3-1.5c0.2-0.4,0.4-0.7,0.8-1
			c0.3-0.2,0.7-0.3,1.1-0.3s0.8,0.1,1.1,0.3c0.3,0.2,0.6,0.5,0.8,1c0.2,0.4,0.3,0.9,0.3,1.5s-0.1,1.1-0.3,1.5
			c-0.2,0.4-0.4,0.7-0.8,1c-0.3,0.2-0.7,0.3-1.1,0.3C1190,98.2,1189.7,98.1,1189.3,97.9z M1191.4,97.5c0.3-0.2,0.5-0.5,0.6-0.8
			c0.1-0.4,0.2-0.8,0.2-1.3s-0.1-0.9-0.2-1.3s-0.3-0.6-0.6-0.8c-0.3-0.2-0.6-0.3-0.9-0.3s-0.6,0.1-0.9,0.3c-0.3,0.2-0.5,0.5-0.6,0.8
			c-0.1,0.4-0.2,0.8-0.2,1.3s0.1,0.9,0.2,1.3s0.3,0.6,0.6,0.8c0.3,0.2,0.6,0.3,0.9,0.3S1191.1,97.7,1191.4,97.5z"/>
		<path class="st5" d="M1195.6,97.9c-0.3-0.2-0.6-0.5-0.8-1c-0.2-0.4-0.3-0.9-0.3-1.5s0.1-1.1,0.3-1.5c0.2-0.4,0.4-0.7,0.8-1
			c0.3-0.2,0.7-0.3,1.1-0.3s0.8,0.1,1.1,0.3c0.3,0.2,0.6,0.5,0.8,1c0.2,0.4,0.3,0.9,0.3,1.5s-0.1,1.1-0.3,1.5
			c-0.2,0.4-0.4,0.7-0.8,1c-0.3,0.2-0.7,0.3-1.1,0.3C1196.3,98.2,1195.9,98.1,1195.6,97.9z M1197.6,97.5c0.3-0.2,0.5-0.5,0.6-0.8
			c0.1-0.4,0.2-0.8,0.2-1.3s-0.1-0.9-0.2-1.3s-0.3-0.6-0.6-0.8c-0.3-0.2-0.6-0.3-0.9-0.3s-0.6,0.1-0.9,0.3c-0.3,0.2-0.5,0.5-0.6,0.8
			c-0.1,0.4-0.2,0.8-0.2,1.3s0.1,0.9,0.2,1.3s0.3,0.6,0.6,0.8c0.3,0.2,0.6,0.3,0.9,0.3S1197.3,97.7,1197.6,97.5z"/>
		<path class="st5" d="M1201.8,97.9c-0.3-0.2-0.6-0.5-0.8-1c-0.2-0.4-0.3-0.9-0.3-1.5s0.1-1.1,0.3-1.5c0.2-0.4,0.4-0.7,0.8-1
			c0.3-0.2,0.7-0.3,1.1-0.3s0.8,0.1,1.1,0.3c0.3,0.2,0.6,0.5,0.8,1c0.2,0.4,0.3,0.9,0.3,1.5s-0.1,1.1-0.3,1.5
			c-0.2,0.4-0.4,0.7-0.8,1c-0.3,0.2-0.7,0.3-1.1,0.3C1202.5,98.2,1202.1,98.1,1201.8,97.9z M1203.8,97.5c0.3-0.2,0.5-0.5,0.6-0.8
			c0.1-0.4,0.2-0.8,0.2-1.3s-0.1-0.9-0.2-1.3s-0.3-0.6-0.6-0.8c-0.3-0.2-0.6-0.3-0.9-0.3s-0.6,0.1-0.9,0.3c-0.3,0.2-0.5,0.5-0.6,0.8
			c-0.1,0.4-0.2,0.8-0.2,1.3s0.1,0.9,0.2,1.3s0.3,0.6,0.6,0.8c0.3,0.2,0.6,0.3,0.9,0.3C1203.3,97.8,1203.6,97.7,1203.8,97.5z"/>
		<path class="st5" d="M1208.4,92.7v5.5h-0.4v-5.1h-1.3v-0.4H1208.4z"/>
		<path class="st5" d="M1212.2,92.7v5.5h-0.4v-5.1h-1.3v-0.4H1212.2z"/>
		<path class="st5" d="M1215.7,97.9c-0.3-0.2-0.6-0.5-0.8-1c-0.2-0.4-0.3-0.9-0.3-1.5s0.1-1.1,0.3-1.5c0.2-0.4,0.4-0.7,0.8-1
			c0.3-0.2,0.7-0.3,1.1-0.3s0.8,0.1,1.1,0.3c0.3,0.2,0.6,0.5,0.8,1c0.2,0.4,0.3,0.9,0.3,1.5s-0.1,1.1-0.3,1.5
			c-0.2,0.4-0.4,0.7-0.8,1c-0.3,0.2-0.7,0.3-1.1,0.3C1216.4,98.2,1216.1,98.1,1215.7,97.9z M1217.8,97.5c0.3-0.2,0.5-0.5,0.6-0.8
			c0.1-0.4,0.2-0.8,0.2-1.3s-0.1-0.9-0.2-1.3s-0.3-0.6-0.6-0.8c-0.3-0.2-0.6-0.3-0.9-0.3s-0.6,0.1-0.9,0.3c-0.3,0.2-0.5,0.5-0.6,0.8
			c-0.1,0.4-0.2,0.8-0.2,1.3s0.1,0.9,0.2,1.3s0.3,0.6,0.6,0.8c0.3,0.2,0.6,0.3,0.9,0.3C1217.2,97.8,1217.5,97.7,1217.8,97.5z"/>
		<path class="st5" d="M1222.3,92.7v5.5h-0.4v-5.1h-1.3v-0.4H1222.3z"/>
		<path class="st5" d="M1225.8,97.9c-0.3-0.2-0.6-0.5-0.8-1c-0.2-0.4-0.3-0.9-0.3-1.5s0.1-1.1,0.3-1.5c0.2-0.4,0.4-0.7,0.8-1
			c0.3-0.2,0.7-0.3,1.1-0.3s0.8,0.1,1.1,0.3c0.3,0.2,0.6,0.5,0.8,1c0.2,0.4,0.3,0.9,0.3,1.5s-0.1,1.1-0.3,1.5
			c-0.2,0.4-0.4,0.7-0.8,1c-0.3,0.2-0.7,0.3-1.1,0.3C1226.5,98.2,1226.1,98.1,1225.8,97.9z M1227.8,97.5c0.3-0.2,0.5-0.5,0.6-0.8
			c0.1-0.4,0.2-0.8,0.2-1.3s-0.1-0.9-0.2-1.3s-0.3-0.6-0.6-0.8c-0.3-0.2-0.6-0.3-0.9-0.3s-0.6,0.1-0.9,0.3c-0.3,0.2-0.5,0.5-0.6,0.8
			c-0.1,0.4-0.2,0.8-0.2,1.3s0.1,0.9,0.2,1.3s0.3,0.6,0.6,0.8c0.3,0.2,0.6,0.3,0.9,0.3C1227.3,97.8,1227.6,97.7,1227.8,97.5z"/>
		<path class="st5" d="M1232.4,92.7v5.5h-0.4v-5.1h-1.3v-0.4H1232.4z"/>
		<path class="st5" d="M1235.9,97.9c-0.3-0.2-0.6-0.5-0.8-1c-0.2-0.4-0.3-0.9-0.3-1.5s0.1-1.1,0.3-1.5c0.2-0.4,0.4-0.7,0.8-1
			c0.3-0.2,0.7-0.3,1.1-0.3s0.8,0.1,1.1,0.3c0.3,0.2,0.6,0.5,0.8,1c0.2,0.4,0.3,0.9,0.3,1.5s-0.1,1.1-0.3,1.5
			c-0.2,0.4-0.4,0.7-0.8,1c-0.3,0.2-0.7,0.3-1.1,0.3C1236.6,98.2,1236.2,98.1,1235.9,97.9z M1237.9,97.5c0.3-0.2,0.5-0.5,0.6-0.8
			c0.1-0.4,0.2-0.8,0.2-1.3s-0.1-0.9-0.2-1.3s-0.3-0.6-0.6-0.8c-0.3-0.2-0.6-0.3-0.9-0.3s-0.6,0.1-0.9,0.3c-0.3,0.2-0.5,0.5-0.6,0.8
			c-0.1,0.4-0.2,0.8-0.2,1.3s0.1,0.9,0.2,1.3s0.3,0.6,0.6,0.8c0.3,0.2,0.6,0.3,0.9,0.3S1237.6,97.7,1237.9,97.5z"/>
		<path class="st5" d="M1242.5,92.7v5.5h-0.4v-5.1h-1.3v-0.4H1242.5z"/>
		<path class="st5" d="M1246,97.9c-0.3-0.2-0.6-0.5-0.8-1c-0.2-0.4-0.3-0.9-0.3-1.5s0.1-1.1,0.3-1.5c0.2-0.4,0.4-0.7,0.8-1
			c0.3-0.2,0.7-0.3,1.1-0.3s0.8,0.1,1.1,0.3c0.3,0.2,0.6,0.5,0.8,1c0.2,0.4,0.3,0.9,0.3,1.5s-0.1,1.1-0.3,1.5
			c-0.2,0.4-0.4,0.7-0.8,1c-0.3,0.2-0.7,0.3-1.1,0.3S1246.3,98.1,1246,97.9z M1248,97.5c0.3-0.2,0.5-0.5,0.6-0.8
			c0.1-0.4,0.2-0.8,0.2-1.3s-0.1-0.9-0.2-1.3s-0.3-0.6-0.6-0.8c-0.3-0.2-0.6-0.3-0.9-0.3s-0.6,0.1-0.9,0.3c-0.3,0.2-0.5,0.5-0.6,0.8
			c-0.1,0.4-0.2,0.8-0.2,1.3s0.1,0.9,0.2,1.3s0.3,0.6,0.6,0.8c0.3,0.2,0.6,0.3,0.9,0.3S1247.7,97.7,1248,97.5z"/>
		<path class="st5" d="M1252.2,97.9c-0.3-0.2-0.6-0.5-0.8-1c-0.2-0.4-0.3-0.9-0.3-1.5s0.1-1.1,0.3-1.5c0.2-0.4,0.4-0.7,0.8-1
			c0.3-0.2,0.7-0.3,1.1-0.3s0.8,0.1,1.1,0.3c0.3,0.2,0.6,0.5,0.8,1c0.2,0.4,0.3,0.9,0.3,1.5s-0.1,1.1-0.3,1.5
			c-0.2,0.4-0.4,0.7-0.8,1c-0.3,0.2-0.7,0.3-1.1,0.3C1252.9,98.2,1252.5,98.1,1252.2,97.9z M1254.2,97.5c0.3-0.2,0.5-0.5,0.6-0.8
			c0.1-0.4,0.2-0.8,0.2-1.3s-0.1-0.9-0.2-1.3s-0.3-0.6-0.6-0.8c-0.3-0.2-0.6-0.3-0.9-0.3s-0.6,0.1-0.9,0.3c-0.3,0.2-0.5,0.5-0.6,0.8
			c-0.1,0.4-0.2,0.8-0.2,1.3s0.1,0.9,0.2,1.3s0.3,0.6,0.6,0.8c0.3,0.2,0.6,0.3,0.9,0.3C1253.7,97.8,1254,97.7,1254.2,97.5z"/>
		<path class="st5" d="M1258.4,97.9c-0.3-0.2-0.6-0.5-0.8-1c-0.2-0.4-0.3-0.9-0.3-1.5s0.1-1.1,0.3-1.5c0.2-0.4,0.4-0.7,0.8-1
			c0.3-0.2,0.7-0.3,1.1-0.3s0.8,0.1,1.1,0.3c0.3,0.2,0.6,0.5,0.8,1c0.2,0.4,0.3,0.9,0.3,1.5s-0.1,1.1-0.3,1.5
			c-0.2,0.4-0.4,0.7-0.8,1c-0.3,0.2-0.7,0.3-1.1,0.3C1259.1,98.2,1258.8,98.1,1258.4,97.9z M1260.4,97.5c0.3-0.2,0.5-0.5,0.6-0.8
			c0.1-0.4,0.2-0.8,0.2-1.3s-0.1-0.9-0.2-1.3s-0.3-0.6-0.6-0.8c-0.3-0.2-0.6-0.3-0.9-0.3s-0.6,0.1-0.9,0.3c-0.3,0.2-0.5,0.5-0.6,0.8
			c-0.1,0.4-0.2,0.8-0.2,1.3s0.1,0.9,0.2,1.3s0.3,0.6,0.6,0.8c0.3,0.2,0.6,0.3,0.9,0.3C1259.9,97.8,1260.2,97.7,1260.4,97.5z"/>
		<path class="st5" d="M1265,92.7v5.5h-0.4v-5.1h-1.3v-0.4H1265z"/>
		<path class="st5" d="M1268.5,97.9c-0.3-0.2-0.6-0.5-0.8-1c-0.2-0.4-0.3-0.9-0.3-1.5s0.1-1.1,0.3-1.5c0.2-0.4,0.4-0.7,0.8-1
			c0.3-0.2,0.7-0.3,1.1-0.3s0.8,0.1,1.1,0.3c0.3,0.2,0.6,0.5,0.8,1c0.2,0.4,0.3,0.9,0.3,1.5s-0.1,1.1-0.3,1.5
			c-0.2,0.4-0.4,0.7-0.8,1c-0.3,0.2-0.7,0.3-1.1,0.3S1268.8,98.1,1268.5,97.9z M1270.5,97.5c0.3-0.2,0.5-0.5,0.6-0.8
			c0.1-0.4,0.2-0.8,0.2-1.3s-0.1-0.9-0.2-1.3s-0.3-0.6-0.6-0.8c-0.3-0.2-0.6-0.3-0.9-0.3s-0.6,0.1-0.9,0.3c-0.3,0.2-0.5,0.5-0.6,0.8
			c-0.1,0.4-0.2,0.8-0.2,1.3s0.1,0.9,0.2,1.3s0.3,0.6,0.6,0.8c0.3,0.2,0.6,0.3,0.9,0.3C1270,97.8,1270.3,97.7,1270.5,97.5z"/>
		<path class="st5" d="M1274.7,97.9c-0.3-0.2-0.6-0.5-0.8-1c-0.2-0.4-0.3-0.9-0.3-1.5s0.1-1.1,0.3-1.5c0.2-0.4,0.4-0.7,0.8-1
			c0.3-0.2,0.7-0.3,1.1-0.3s0.8,0.1,1.1,0.3c0.3,0.2,0.6,0.5,0.8,1c0.2,0.4,0.3,0.9,0.3,1.5s-0.1,1.1-0.3,1.5
			c-0.2,0.4-0.4,0.7-0.8,1c-0.3,0.2-0.7,0.3-1.1,0.3C1275.4,98.2,1275.1,98.1,1274.7,97.9z M1276.8,97.5c0.3-0.2,0.5-0.5,0.6-0.8
			c0.1-0.4,0.2-0.8,0.2-1.3s-0.1-0.9-0.2-1.3s-0.3-0.6-0.6-0.8c-0.3-0.2-0.6-0.3-0.9-0.3s-0.6,0.1-0.9,0.3c-0.3,0.2-0.5,0.5-0.6,0.8
			c-0.1,0.4-0.2,0.8-0.2,1.3s0.1,0.9,0.2,1.3s0.3,0.6,0.6,0.8c0.3,0.2,0.6,0.3,0.9,0.3S1276.5,97.7,1276.8,97.5z"/>
		<path class="st5" d="M1281.3,92.7v5.5h-0.4v-5.1h-1.3v-0.4H1281.3z"/>
		<path class="st5" d="M1284.8,97.9c-0.3-0.2-0.6-0.5-0.8-1c-0.2-0.4-0.3-0.9-0.3-1.5s0.1-1.1,0.3-1.5c0.2-0.4,0.4-0.7,0.8-1
			c0.3-0.2,0.7-0.3,1.1-0.3s0.8,0.1,1.1,0.3c0.3,0.2,0.6,0.5,0.8,1c0.2,0.4,0.3,0.9,0.3,1.5s-0.1,1.1-0.3,1.5
			c-0.2,0.4-0.4,0.7-0.8,1c-0.3,0.2-0.7,0.3-1.1,0.3C1285.5,98.2,1285.1,98.1,1284.8,97.9z M1286.8,97.5c0.3-0.2,0.5-0.5,0.6-0.8
			c0.1-0.4,0.2-0.8,0.2-1.3s-0.1-0.9-0.2-1.3s-0.3-0.6-0.6-0.8c-0.3-0.2-0.6-0.3-0.9-0.3s-0.6,0.1-0.9,0.3c-0.3,0.2-0.5,0.5-0.6,0.8
			c-0.1,0.4-0.2,0.8-0.2,1.3s0.1,0.9,0.2,1.3s0.3,0.6,0.6,0.8c0.3,0.2,0.6,0.3,0.9,0.3S1286.6,97.7,1286.8,97.5z"/>
		<path class="st5" d="M1291,97.9c-0.3-0.2-0.6-0.5-0.8-1c-0.2-0.4-0.3-0.9-0.3-1.5s0.1-1.1,0.3-1.5c0.2-0.4,0.4-0.7,0.8-1
			c0.3-0.2,0.7-0.3,1.1-0.3s0.8,0.1,1.1,0.3c0.3,0.2,0.6,0.5,0.8,1c0.2,0.4,0.3,0.9,0.3,1.5s-0.1,1.1-0.3,1.5
			c-0.2,0.4-0.4,0.7-0.8,1c-0.3,0.2-0.7,0.3-1.1,0.3C1291.7,98.2,1291.4,98.1,1291,97.9z M1293.1,97.5c0.3-0.2,0.5-0.5,0.6-0.8
			c0.1-0.4,0.2-0.8,0.2-1.3s-0.1-0.9-0.2-1.3s-0.3-0.6-0.6-0.8c-0.3-0.2-0.6-0.3-0.9-0.3s-0.6,0.1-0.9,0.3c-0.3,0.2-0.5,0.5-0.6,0.8
			c-0.1,0.4-0.2,0.8-0.2,1.3s0.1,0.9,0.2,1.3s0.3,0.6,0.6,0.8c0.3,0.2,0.6,0.3,0.9,0.3S1292.8,97.7,1293.1,97.5z"/>
		<path class="st5" d="M1297.6,92.7v5.5h-0.4v-5.1h-1.3v-0.4H1297.6z"/>
		<path class="st5" d="M1301.1,97.9c-0.3-0.2-0.6-0.5-0.8-1c-0.2-0.4-0.3-0.9-0.3-1.5s0.1-1.1,0.3-1.5c0.2-0.4,0.4-0.7,0.8-1
			c0.3-0.2,0.7-0.3,1.1-0.3s0.8,0.1,1.1,0.3c0.3,0.2,0.6,0.5,0.8,1c0.2,0.4,0.3,0.9,0.3,1.5s-0.1,1.1-0.3,1.5
			c-0.2,0.4-0.4,0.7-0.8,1c-0.3,0.2-0.7,0.3-1.1,0.3C1301.8,98.2,1301.4,98.1,1301.1,97.9z M1303.1,97.5c0.3-0.2,0.5-0.5,0.6-0.8
			c0.1-0.4,0.2-0.8,0.2-1.3s-0.1-0.9-0.2-1.3s-0.3-0.6-0.6-0.8c-0.3-0.2-0.6-0.3-0.9-0.3s-0.6,0.1-0.9,0.3c-0.3,0.2-0.5,0.5-0.6,0.8
			c-0.1,0.4-0.2,0.8-0.2,1.3s0.1,0.9,0.2,1.3s0.3,0.6,0.6,0.8c0.3,0.2,0.6,0.3,0.9,0.3C1302.6,97.8,1302.9,97.7,1303.1,97.5z"/>
		<path class="st5" d="M1307.7,92.7v5.5h-0.4v-5.1h-1.3v-0.4H1307.7z"/>
		<path class="st5" d="M1311.2,97.9c-0.3-0.2-0.6-0.5-0.8-1c-0.2-0.4-0.3-0.9-0.3-1.5s0.1-1.1,0.3-1.5c0.2-0.4,0.4-0.7,0.8-1
			c0.3-0.2,0.7-0.3,1.1-0.3s0.8,0.1,1.1,0.3c0.3,0.2,0.6,0.5,0.8,1c0.2,0.4,0.3,0.9,0.3,1.5s-0.1,1.1-0.3,1.5
			c-0.2,0.4-0.4,0.7-0.8,1c-0.3,0.2-0.7,0.3-1.1,0.3C1311.9,98.2,1311.5,98.1,1311.2,97.9z M1313.2,97.5c0.3-0.2,0.5-0.5,0.6-0.8
			c0.1-0.4,0.2-0.8,0.2-1.3s-0.1-0.9-0.2-1.3s-0.3-0.6-0.6-0.8c-0.3-0.2-0.6-0.3-0.9-0.3s-0.6,0.1-0.9,0.3c-0.3,0.2-0.5,0.5-0.6,0.8
			c-0.1,0.4-0.2,0.8-0.2,1.3s0.1,0.9,0.2,1.3s0.3,0.6,0.6,0.8c0.3,0.2,0.6,0.3,0.9,0.3S1313,97.7,1313.2,97.5z"/>
		<path class="st5" d="M1317.4,97.9c-0.3-0.2-0.6-0.5-0.8-1c-0.2-0.4-0.3-0.9-0.3-1.5s0.1-1.1,0.3-1.5c0.2-0.4,0.4-0.7,0.8-1
			c0.3-0.2,0.7-0.3,1.1-0.3s0.8,0.1,1.1,0.3c0.3,0.2,0.6,0.5,0.8,1c0.2,0.4,0.3,0.9,0.3,1.5s-0.1,1.1-0.3,1.5
			c-0.2,0.4-0.4,0.7-0.8,1c-0.3,0.2-0.7,0.3-1.1,0.3C1318.1,98.2,1317.8,98.1,1317.4,97.9z M1319.4,97.5c0.3-0.2,0.5-0.5,0.6-0.8
			c0.1-0.4,0.2-0.8,0.2-1.3s-0.1-0.9-0.2-1.3s-0.3-0.6-0.6-0.8c-0.3-0.2-0.6-0.3-0.9-0.3s-0.6,0.1-0.9,0.3c-0.3,0.2-0.5,0.5-0.6,0.8
			c-0.1,0.4-0.2,0.8-0.2,1.3s0.1,0.9,0.2,1.3s0.3,0.6,0.6,0.8c0.3,0.2,0.6,0.3,0.9,0.3C1318.9,97.8,1319.2,97.7,1319.4,97.5z"/>
		<path class="st5" d="M1323.7,97.9c-0.3-0.2-0.6-0.5-0.8-1c-0.2-0.4-0.3-0.9-0.3-1.5s0.1-1.1,0.3-1.5c0.2-0.4,0.4-0.7,0.8-1
			c0.3-0.2,0.7-0.3,1.1-0.3s0.8,0.1,1.1,0.3c0.3,0.2,0.6,0.5,0.8,1c0.2,0.4,0.3,0.9,0.3,1.5s-0.1,1.1-0.3,1.5
			c-0.2,0.4-0.4,0.7-0.8,1c-0.3,0.2-0.7,0.3-1.1,0.3C1324.4,98.2,1324,98.1,1323.7,97.9z M1325.7,97.5c0.3-0.2,0.5-0.5,0.6-0.8
			c0.1-0.4,0.2-0.8,0.2-1.3s-0.1-0.9-0.2-1.3s-0.3-0.6-0.6-0.8c-0.3-0.2-0.6-0.3-0.9-0.3s-0.6,0.1-0.9,0.3c-0.3,0.2-0.5,0.5-0.6,0.8
			c-0.1,0.4-0.2,0.8-0.2,1.3s0.1,0.9,0.2,1.3s0.3,0.6,0.6,0.8c0.3,0.2,0.6,0.3,0.9,0.3S1325.4,97.7,1325.7,97.5z"/>
		<path class="st5" d="M1329.9,97.9c-0.3-0.2-0.6-0.5-0.8-1c-0.2-0.4-0.3-0.9-0.3-1.5s0.1-1.1,0.3-1.5c0.2-0.4,0.4-0.7,0.8-1
			c0.3-0.2,0.7-0.3,1.1-0.3s0.8,0.1,1.1,0.3c0.3,0.2,0.6,0.5,0.8,1c0.2,0.4,0.3,0.9,0.3,1.5s-0.1,1.1-0.3,1.5
			c-0.2,0.4-0.4,0.7-0.8,1c-0.3,0.2-0.7,0.3-1.1,0.3C1330.6,98.2,1330.2,98.1,1329.9,97.9z M1331.9,97.5c0.3-0.2,0.5-0.5,0.6-0.8
			c0.1-0.4,0.2-0.8,0.2-1.3s-0.1-0.9-0.2-1.3s-0.3-0.6-0.6-0.8c-0.3-0.2-0.6-0.3-0.9-0.3s-0.6,0.1-0.9,0.3c-0.3,0.2-0.5,0.5-0.6,0.8
			c-0.1,0.4-0.2,0.8-0.2,1.3s0.1,0.9,0.2,1.3s0.3,0.6,0.6,0.8c0.3,0.2,0.6,0.3,0.9,0.3S1331.6,97.7,1331.9,97.5z"/>
		<path class="st5" d="M1336.1,97.9c-0.3-0.2-0.6-0.5-0.8-1c-0.2-0.4-0.3-0.9-0.3-1.5s0.1-1.1,0.3-1.5c0.2-0.4,0.4-0.7,0.8-1
			c0.3-0.2,0.7-0.3,1.1-0.3s0.8,0.1,1.1,0.3c0.3,0.2,0.6,0.5,0.8,1c0.2,0.4,0.3,0.9,0.3,1.5s-0.1,1.1-0.3,1.5
			c-0.2,0.4-0.4,0.7-0.8,1c-0.3,0.2-0.7,0.3-1.1,0.3C1336.8,98.2,1336.4,98.1,1336.1,97.9z M1338.1,97.5c0.3-0.2,0.5-0.5,0.6-0.8
			c0.1-0.4,0.2-0.8,0.2-1.3s-0.1-0.9-0.2-1.3s-0.3-0.6-0.6-0.8c-0.3-0.2-0.6-0.3-0.9-0.3s-0.6,0.1-0.9,0.3c-0.3,0.2-0.5,0.5-0.6,0.8
			c-0.1,0.4-0.2,0.8-0.2,1.3s0.1,0.9,0.2,1.3s0.3,0.6,0.6,0.8c0.3,0.2,0.6,0.3,0.9,0.3C1337.6,97.8,1337.9,97.7,1338.1,97.5z"/>
		<path class="st5" d="M1342.7,92.7v5.5h-0.4v-5.1h-1.3v-0.4H1342.7z"/>
	</g>
	<path class="st7" d="M1339.9,25.5"/>
	<path class="st8" d="M1384.4,61.3"/>
	<path class="st8" d="M1341.5,26.2"/>
	<path class="st8" d="M1384.4,62"/>
	<path class="st8" d="M1341.3,94.2"/>
	<g>
		<path class="st5" d="M1349.3,96.6c-0.9,0-1.1,0-2-0.1l-2.1-0.1v-2.7h1.8c7.1,0.9,15.9-2.5,21.2-5.6c6.6-3.9,11.7-10,13.8-16.6
			c1.8-5.8,1.7-12.6-0.3-19.9c-2.1-7.4-5.6-13.4-10.3-17.3c-8.9-7.6-21.7-7.9-30.5-7.5h-0.3l-0.1-2.8l1.4-0.1
			c18.2-0.8,26.6,4.3,31.2,8.2c5.1,4.3,9,10.8,11.2,18.7c2.2,7.7,2.2,15.2,0.2,21.4c-2.3,7.3-7.8,13.9-15,18.1
			C1364.5,93.4,1356.5,96.6,1349.3,96.6z"/>
	</g>
	<rect x="1322" y="17.9" class="st5" width="6.9" height="15.1"/>
	<rect x="1331.2" y="18.1" class="st5" width="1.8" height="14.7"/>
	<rect x="1335.3" y="19.3" class="st5" width="1.8" height="12.4"/>
	<rect x="1339" y="19.7" class="st5" width="2.3" height="11.5"/>
	<rect x="1332.6" y="22" class="st5" width="3.2" height="6.9"/>
	<rect x="1336.7" y="22" class="st5" width="2.3" height="6.9"/>
	<rect x="1328.4" y="22" class="st5" width="3.2" height="6.9"/>
	<g>
		<rect x="1319.7" y="23.4" class="st9" width="4.1" height="4.1"/>
		<path class="st1" d="M1324.1,27.8h-4.6v-4.6h4.6V27.8z M1320,27.3h3.7v-3.7h-3.7V27.3z"/>
	</g>
	<rect x="1312.4" y="19.7" class="st5" width="8.3" height="11.5"/>
	<g>
		<rect x="1313.3" y="21.3" class="st1" width="2.8" height="0.9"/>
		<rect x="1313.3" y="23.2" class="st1" width="2.8" height="0.9"/>
		<rect x="1313.3" y="25" class="st1" width="2.8" height="0.9"/>
		<rect x="1313.3" y="26.9" class="st1" width="2.8" height="0.9"/>
		<rect x="1313.3" y="28.7" class="st1" width="2.8" height="0.9"/>
	</g>
	<path class="st5" d="M1164,102.1h-2.7c-3.2,0-5.8-2.6-5.8-5.8V94c0-3.2,2.6-5.8,5.8-5.8h2.7c3.2,0,5.8,2.6,5.8,5.8v2.3
		C1169.7,99.5,1167.2,102.1,1164,102.1z"/>
	<g>
		<polygon class="st5" points="1167.5,90.4 1157.8,90.4 1157.8,98.2 1159.9,98.2 1159.9,99.8 1165.4,99.8 1165.4,98.2 1167.5,98.2 
					"/>
		<path class="st1" d="M1165.6,100h-6v-1.6h-2.1v-8.3h10.1v8.3h-2.1L1165.6,100L1165.6,100z M1160.1,99.6h5V98h2.1v-7.3h-9.2V98h2.1
			V99.6z"/>
	</g>
	<rect x="1158.7" y="90.6" class="st1" width="0.9" height="1.8"/>
	<rect x="1160.5" y="90.6" class="st1" width="0.9" height="1.8"/>
	<rect x="1162.2" y="90.6" class="st1" width="0.9" height="1.8"/>
	<rect x="1163.9" y="90.6" class="st1" width="0.9" height="1.8"/>
	<rect x="1165.7" y="90.6" class="st1" width="0.9" height="1.8"/>
	<g>
		<path class="st5" d="M1293.3,44.6c-0.6-0.3-1.1-0.8-1.4-1.4c-0.3-0.6-0.5-1.2-0.5-2c0-0.7,0.2-1.4,0.5-2s0.8-1,1.4-1.4
			c0.6-0.3,1.3-0.5,2-0.5c0.6,0,1.2,0.1,1.7,0.3s0.9,0.5,1.3,0.9l-0.9,0.8c-0.5-0.6-1.2-0.9-2-0.9c-0.5,0-1,0.1-1.4,0.3
			s-0.7,0.5-0.9,0.9c-0.2,0.4-0.3,0.8-0.3,1.3s0.1,0.9,0.3,1.3c0.2,0.4,0.5,0.7,0.9,0.9s0.9,0.3,1.4,0.3c0.8,0,1.4-0.3,2-0.9
			l0.9,0.8c-0.3,0.4-0.8,0.7-1.3,0.9s-1.1,0.3-1.7,0.3C1294.5,45.1,1293.9,45,1293.3,44.6z"/>
		<path class="st5" d="M1300,44.7c-0.5-0.2-0.8-0.6-1.1-1c-0.3-0.4-0.4-0.9-0.4-1.5s0.1-1.1,0.4-1.5s0.6-0.8,1.1-1s1-0.4,1.5-0.4
			c0.6,0,1.1,0.1,1.6,0.4c0.5,0.2,0.8,0.6,1.1,1c0.3,0.4,0.4,0.9,0.4,1.5s-0.1,1.1-0.4,1.5s-0.6,0.8-1.1,1s-1,0.4-1.6,0.4
			C1301,45.1,1300.4,45,1300,44.7z M1302.7,43.5c0.3-0.3,0.5-0.7,0.5-1.3c0-0.5-0.2-1-0.5-1.3s-0.7-0.5-1.2-0.5s-0.9,0.2-1.2,0.5
			c-0.3,0.3-0.5,0.7-0.5,1.3c0,0.5,0.2,1,0.5,1.3s0.7,0.5,1.2,0.5S1302.4,43.8,1302.7,43.5z"/>
		<path class="st5" d="M1306.6,44.7c-0.5-0.2-0.8-0.6-1.1-1c-0.3-0.4-0.4-0.9-0.4-1.5s0.1-1.1,0.4-1.5s0.6-0.8,1.1-1s1-0.4,1.5-0.4
			c0.6,0,1.1,0.1,1.6,0.4c0.5,0.2,0.8,0.6,1.1,1c0.3,0.4,0.4,0.9,0.4,1.5s-0.1,1.1-0.4,1.5s-0.6,0.8-1.1,1s-1,0.4-1.6,0.4
			C1307.5,45.1,1307,45,1306.6,44.7z M1309.3,43.5c0.3-0.3,0.5-0.7,0.5-1.3c0-0.5-0.2-1-0.5-1.3s-0.7-0.5-1.2-0.5s-0.9,0.2-1.2,0.5
			c-0.3,0.3-0.5,0.7-0.5,1.3c0,0.5,0.2,1,0.5,1.3s0.7,0.5,1.2,0.5C1308.6,44,1309,43.8,1309.3,43.5z"/>
		<path class="st5" d="M1315.4,39.3v1.3c-0.1,0-0.2,0-0.3,0c-0.5,0-0.9,0.1-1.2,0.4c-0.3,0.3-0.4,0.7-0.4,1.3V45h-1.3v-5.6h1.3v0.8
			C1313.8,39.6,1314.5,39.3,1315.4,39.3z"/>
		<path class="st5" d="M1321.8,37.2V45h-1.3v-0.7c-0.2,0.3-0.5,0.5-0.8,0.6s-0.7,0.2-1.1,0.2c-0.5,0-1-0.1-1.5-0.4
			c-0.4-0.2-0.8-0.6-1-1s-0.4-0.9-0.4-1.5s0.1-1.1,0.4-1.5c0.2-0.4,0.6-0.8,1-1s0.9-0.4,1.5-0.4c0.4,0,0.7,0.1,1,0.2
			c0.3,0.1,0.6,0.3,0.8,0.6v-2.9C1320.4,37.2,1321.8,37.2,1321.8,37.2z M1319.7,43.8c0.3-0.1,0.5-0.3,0.6-0.6s0.2-0.6,0.2-0.9
			c0-0.4-0.1-0.7-0.2-0.9c-0.1-0.3-0.3-0.5-0.6-0.6c-0.3-0.1-0.5-0.2-0.9-0.2c-0.3,0-0.6,0.1-0.9,0.2c-0.3,0.1-0.5,0.3-0.6,0.6
			s-0.2,0.6-0.2,0.9c0,0.4,0.1,0.7,0.2,0.9c0.1,0.3,0.3,0.5,0.6,0.6c0.3,0.1,0.5,0.2,0.9,0.2S1319.4,43.9,1319.7,43.8z"/>
		<path class="st5" d="M1323.4,38.2c-0.2-0.2-0.2-0.3-0.2-0.6s0.1-0.4,0.2-0.6c0.2-0.2,0.4-0.2,0.6-0.2s0.4,0.1,0.6,0.2
			c0.2,0.1,0.2,0.3,0.2,0.5s-0.1,0.4-0.2,0.6c-0.2,0.2-0.4,0.2-0.6,0.2C1323.8,38.5,1323.6,38.4,1323.4,38.2z M1323.3,39.4h1.3V45
			h-1.3V39.4z"/>
		<path class="st5" d="M1331.1,39.9c0.4,0.4,0.6,1,0.6,1.8V45h-1.3v-3c0-0.5-0.1-0.9-0.3-1.1c-0.2-0.2-0.6-0.4-1-0.4
			c-0.5,0-0.9,0.1-1.2,0.4s-0.4,0.7-0.4,1.3V45h-1.3v-5.6h1.3v0.7c0.2-0.3,0.5-0.5,0.8-0.6s0.7-0.2,1.1-0.2
			C1330.1,39.3,1330.6,39.5,1331.1,39.9z"/>
		<path class="st5" d="M1337.2,39.9c0.4,0.4,0.7,1,0.7,1.8V45h-1.2v-0.7c-0.2,0.2-0.4,0.4-0.7,0.6c-0.3,0.1-0.7,0.2-1.1,0.2
			s-0.8-0.1-1.1-0.2c-0.3-0.1-0.6-0.3-0.7-0.6c-0.2-0.3-0.3-0.5-0.3-0.9c0-0.5,0.2-0.9,0.6-1.2s1-0.5,1.8-0.5h1.5v-0.1
			c0-0.4-0.1-0.7-0.4-0.9c-0.2-0.2-0.6-0.3-1-0.3c-0.3,0-0.6,0-0.9,0.1s-0.6,0.2-0.8,0.4l-0.5-1c0.3-0.2,0.7-0.4,1.1-0.5
			s0.9-0.2,1.3-0.2C1336.2,39.3,1336.8,39.5,1337.2,39.9z M1336,43.9c0.3-0.2,0.4-0.4,0.5-0.6v-0.7h-1.4c-0.8,0-1.1,0.2-1.1,0.7
			c0,0.2,0.1,0.4,0.3,0.6c0.2,0.1,0.5,0.2,0.8,0.2C1335.5,44.1,1335.8,44.1,1336,43.9z"/>
		<path class="st5" d="M1340.4,44.7c-0.5-0.2-0.8-0.6-1.1-1c-0.3-0.4-0.4-0.9-0.4-1.5s0.1-1.1,0.4-1.5s0.6-0.8,1.1-1s1-0.4,1.6-0.4
			s1,0.1,1.5,0.3c0.4,0.2,0.7,0.5,0.9,1l-1,0.6c-0.2-0.3-0.4-0.5-0.6-0.6s-0.5-0.2-0.8-0.2c-0.5,0-0.9,0.2-1.2,0.5
			c-0.3,0.3-0.5,0.7-0.5,1.3c0,0.5,0.2,1,0.5,1.3s0.7,0.5,1.2,0.5c0.3,0,0.6-0.1,0.8-0.2c0.2-0.1,0.4-0.3,0.6-0.6l1,0.6
			c-0.2,0.4-0.5,0.7-1,1c-0.4,0.2-0.9,0.3-1.5,0.3C1341.4,45.1,1340.9,45,1340.4,44.7z"/>
		<path class="st5" d="M1345.4,38.2c-0.2-0.2-0.2-0.3-0.2-0.6s0.1-0.4,0.2-0.6c0.2-0.2,0.4-0.2,0.6-0.2s0.4,0.1,0.6,0.2
			c0.2,0.1,0.2,0.3,0.2,0.5s-0.1,0.4-0.2,0.6c-0.2,0.2-0.4,0.2-0.6,0.2C1345.8,38.5,1345.6,38.4,1345.4,38.2z M1345.4,39.4h1.3V45
			h-1.3V39.4z"/>
		<path class="st5" d="M1349.2,44.7c-0.5-0.2-0.8-0.6-1.1-1c-0.3-0.4-0.4-0.9-0.4-1.5s0.1-1.1,0.4-1.5s0.6-0.8,1.1-1s1-0.4,1.5-0.4
			c0.6,0,1.1,0.1,1.6,0.4c0.5,0.2,0.8,0.6,1.1,1c0.3,0.4,0.4,0.9,0.4,1.5s-0.1,1.1-0.4,1.5s-0.6,0.8-1.1,1s-1,0.4-1.6,0.4
			C1350.2,45.1,1349.6,45,1349.2,44.7z M1351.9,43.5c0.3-0.3,0.5-0.7,0.5-1.3c0-0.5-0.2-1-0.5-1.3s-0.7-0.5-1.2-0.5
			s-0.9,0.2-1.2,0.5c-0.3,0.3-0.5,0.7-0.5,1.3c0,0.5,0.2,1,0.5,1.3s0.7,0.5,1.2,0.5C1351.2,44,1351.6,43.8,1351.9,43.5z
			 M1351.3,37.2h1.6l-1.8,1.4h-1.1L1351.3,37.2z"/>
		<path class="st5" d="M1359.7,39.9c0.4,0.4,0.6,1,0.6,1.8V45h-1.3v-3c0-0.5-0.1-0.9-0.3-1.1c-0.2-0.2-0.6-0.4-1-0.4
			c-0.5,0-0.9,0.1-1.2,0.4c-0.3,0.3-0.4,0.7-0.4,1.3V45h-1.3v-5.6h1.3v0.7c0.2-0.3,0.5-0.5,0.8-0.6s0.7-0.2,1.1-0.2
			C1358.7,39.3,1359.3,39.5,1359.7,39.9z"/>
		<path class="st5" d="M1297.3,49.9v7.8h-1.3V57c-0.2,0.3-0.5,0.5-0.8,0.6s-0.7,0.2-1.1,0.2c-0.5,0-1-0.1-1.5-0.4
			c-0.4-0.2-0.8-0.6-1-1s-0.4-0.9-0.4-1.5s0.1-1.1,0.4-1.5c0.2-0.4,0.6-0.8,1-1s0.9-0.4,1.5-0.4c0.4,0,0.7,0.1,1,0.2
			c0.3,0.1,0.6,0.3,0.8,0.6v-2.9C1295.9,49.9,1297.3,49.9,1297.3,49.9z M1295.1,56.4c0.3-0.1,0.5-0.3,0.6-0.6s0.2-0.6,0.2-0.9
			c0-0.4-0.1-0.7-0.2-0.9c-0.1-0.3-0.3-0.5-0.6-0.6c-0.3-0.1-0.5-0.2-0.9-0.2c-0.3,0-0.6,0.1-0.9,0.2c-0.3,0.1-0.5,0.3-0.6,0.6
			s-0.2,0.6-0.2,0.9c0,0.4,0.1,0.7,0.2,0.9c0.1,0.3,0.3,0.5,0.6,0.6c0.3,0.1,0.5,0.2,0.9,0.2C1294.6,56.6,1294.9,56.6,1295.1,56.4z"
			/>
		<path class="st5" d="M1304.1,55.3h-4.4c0.1,0.4,0.3,0.7,0.6,1c0.3,0.2,0.7,0.4,1.2,0.4c0.6,0,1.1-0.2,1.5-0.6l0.7,0.8
			c-0.3,0.3-0.6,0.5-1,0.7s-0.8,0.2-1.3,0.2c-0.6,0-1.2-0.1-1.6-0.4c-0.5-0.2-0.8-0.6-1.1-1c-0.3-0.4-0.4-0.9-0.4-1.5
			c0-0.5,0.1-1,0.4-1.5s0.6-0.8,1-1s0.9-0.4,1.5-0.4c0.5,0,1,0.1,1.5,0.4c0.4,0.2,0.8,0.6,1,1s0.4,0.9,0.4,1.5
			C1304.1,55,1304.1,55.1,1304.1,55.3z M1300.2,53.4c-0.3,0.2-0.5,0.6-0.5,1h3.2c-0.1-0.4-0.2-0.7-0.5-1s-0.6-0.4-1.1-0.4
			C1300.8,53,1300.4,53.2,1300.2,53.4z"/>
		<path class="st5" d="M1309.5,51.5h-2.4v-1.2h6.3v1.2h-2.4v6.2h-1.4L1309.5,51.5L1309.5,51.5z"/>
		<path class="st5" d="M1318.7,55.3h-4.4c0.1,0.4,0.3,0.7,0.6,1s0.7,0.4,1.2,0.4c0.6,0,1.1-0.2,1.5-0.6l0.7,0.8
			c-0.3,0.3-0.6,0.5-1,0.7s-0.8,0.2-1.3,0.2c-0.6,0-1.2-0.1-1.6-0.4c-0.5-0.2-0.8-0.6-1.1-1c-0.3-0.4-0.4-0.9-0.4-1.5
			c0-0.5,0.1-1,0.4-1.5s0.6-0.8,1-1s0.9-0.4,1.5-0.4c0.5,0,1,0.1,1.5,0.4c0.4,0.2,0.8,0.6,1,1s0.4,0.9,0.4,1.5
			C1318.7,55,1318.7,55.1,1318.7,55.3z M1314.8,53.4c-0.3,0.2-0.5,0.6-0.5,1h3.2c-0.1-0.4-0.2-0.7-0.5-1s-0.6-0.4-1.1-0.4
			S1315.1,53.2,1314.8,53.4z"/>
		<path class="st5" d="M1320.8,57.4c-0.5-0.2-0.8-0.6-1.1-1c-0.3-0.4-0.4-0.9-0.4-1.5s0.1-1.1,0.4-1.5s0.6-0.8,1.1-1s1-0.4,1.6-0.4
			s1,0.1,1.5,0.3c0.4,0.2,0.7,0.5,0.9,1l-1,0.6c-0.2-0.3-0.4-0.5-0.6-0.6s-0.5-0.2-0.8-0.2c-0.5,0-0.9,0.2-1.2,0.5
			c-0.3,0.3-0.5,0.7-0.5,1.3c0,0.5,0.2,1,0.5,1.3s0.7,0.5,1.2,0.5c0.3,0,0.6-0.1,0.8-0.2c0.2-0.1,0.4-0.3,0.6-0.6l1,0.6
			c-0.2,0.4-0.5,0.7-1,1c-0.4,0.2-0.9,0.3-1.5,0.3C1321.7,57.8,1321.2,57.6,1320.8,57.4z"/>
		<path class="st5" d="M1330.6,52.6c0.4,0.4,0.6,1,0.6,1.8v3.2h-1.3v-3.1c0-0.5-0.1-0.9-0.3-1.1c-0.2-0.2-0.6-0.4-1-0.4
			c-0.5,0-0.9,0.1-1.2,0.4s-0.4,0.7-0.4,1.3v2.8h-1.3V52h1.3v0.7c0.2-0.3,0.5-0.5,0.8-0.6s0.7-0.2,1.1-0.2
			C1329.6,52,1330.1,52.2,1330.6,52.6z"/>
		<path class="st5" d="M1333.7,57.4c-0.5-0.2-0.8-0.6-1.1-1c-0.3-0.4-0.4-0.9-0.4-1.5s0.1-1.1,0.4-1.5s0.6-0.8,1.1-1s1-0.4,1.5-0.4
			c0.6,0,1.1,0.1,1.6,0.4c0.5,0.2,0.8,0.6,1.1,1c0.3,0.4,0.4,0.9,0.4,1.5s-0.1,1.1-0.4,1.5s-0.6,0.8-1.1,1s-1,0.4-1.6,0.4
			C1334.7,57.8,1334.2,57.6,1333.7,57.4z M1336.5,56.1c0.3-0.3,0.5-0.7,0.5-1.3c0-0.5-0.2-1-0.5-1.3s-0.7-0.5-1.2-0.5
			s-0.9,0.2-1.2,0.5c-0.3,0.3-0.5,0.7-0.5,1.3c0,0.5,0.2,1,0.5,1.3s0.7,0.5,1.2,0.5S1336.2,56.5,1336.5,56.1z"/>
		<path class="st5" d="M1339.3,49.9h1.3v7.8h-1.3V49.9z"/>
		<path class="st5" d="M1343.2,57.4c-0.5-0.2-0.8-0.6-1.1-1c-0.3-0.4-0.4-0.9-0.4-1.5s0.1-1.1,0.4-1.5s0.6-0.8,1.1-1s1-0.4,1.5-0.4
			c0.6,0,1.1,0.1,1.6,0.4c0.5,0.2,0.8,0.6,1.1,1c0.3,0.4,0.4,0.9,0.4,1.5s-0.1,1.1-0.4,1.5s-0.6,0.8-1.1,1s-1,0.4-1.6,0.4
			C1344.1,57.8,1343.6,57.6,1343.2,57.4z M1345.9,56.1c0.3-0.3,0.5-0.7,0.5-1.3c0-0.5-0.2-1-0.5-1.3s-0.7-0.5-1.2-0.5
			s-0.9,0.2-1.2,0.5c-0.3,0.3-0.5,0.7-0.5,1.3c0,0.5,0.2,1,0.5,1.3s0.7,0.5,1.2,0.5C1345.2,56.6,1345.6,56.5,1345.9,56.1z"/>
		<path class="st5" d="M1354.4,52v4.8c0,2-1,3-3,3c-0.5,0-1.1-0.1-1.5-0.2c-0.5-0.1-0.9-0.3-1.2-0.6l0.6-1c0.2,0.2,0.6,0.4,0.9,0.5
			c0.4,0.1,0.8,0.2,1.1,0.2c0.6,0,1.1-0.1,1.4-0.4c0.3-0.3,0.4-0.7,0.4-1.3v-0.3c-0.2,0.2-0.5,0.4-0.8,0.6c-0.3,0.1-0.7,0.2-1.1,0.2
			c-0.5,0-1-0.1-1.5-0.3c-0.4-0.2-0.8-0.6-1-1s-0.4-0.9-0.4-1.4s0.1-1,0.4-1.4c0.2-0.4,0.6-0.7,1-1c0.4-0.2,0.9-0.3,1.5-0.3
			c0.4,0,0.8,0.1,1.1,0.2c0.3,0.1,0.6,0.3,0.8,0.6V52H1354.4z M1352.6,55.9c0.3-0.3,0.5-0.7,0.5-1.2s-0.2-0.9-0.5-1.2
			s-0.7-0.4-1.2-0.4s-0.9,0.1-1.2,0.4c-0.3,0.3-0.5,0.7-0.5,1.2s0.2,0.9,0.5,1.2s0.7,0.4,1.2,0.4
			C1351.8,56.3,1352.3,56.2,1352.6,55.9z"/>
		<path class="st5" d="M1357.1,49.8h1.6l-1.8,1.4h-1.1L1357.1,49.8z M1355.9,52h1.3v5.6h-1.3V52z"/>
		<path class="st5" d="M1362.8,52.6c0.4,0.4,0.7,1,0.7,1.8v3.3h-1.2V57c-0.2,0.2-0.4,0.4-0.7,0.6c-0.3,0.1-0.7,0.2-1.1,0.2
			s-0.8-0.1-1.1-0.2c-0.3-0.1-0.6-0.3-0.7-0.6c-0.2-0.3-0.3-0.5-0.3-0.9c0-0.5,0.2-0.9,0.6-1.2s1-0.5,1.8-0.5h1.5v-0.1
			c0-0.4-0.1-0.7-0.4-0.9c-0.2-0.2-0.6-0.3-1-0.3c-0.3,0-0.6,0-0.9,0.1s-0.6,0.2-0.8,0.4l-0.5-1c0.3-0.2,0.7-0.4,1.1-0.5
			s0.9-0.2,1.3-0.2C1361.7,52,1362.3,52.2,1362.8,52.6z M1361.6,56.6c0.3-0.2,0.4-0.4,0.5-0.6v-0.7h-1.4c-0.8,0-1.1,0.2-1.1,0.7
			c0,0.2,0.1,0.4,0.3,0.6c0.2,0.1,0.5,0.2,0.8,0.2C1361,56.8,1361.3,56.7,1361.6,56.6z"/>
		<path class="st5" d="M1365.3,57.6c-0.4-0.1-0.8-0.3-1-0.5l0.5-1c0.3,0.2,0.6,0.3,0.9,0.4c0.4,0.1,0.7,0.2,1.1,0.2
			c0.8,0,1.2-0.2,1.2-0.6c0-0.2-0.1-0.3-0.3-0.4c-0.2-0.1-0.5-0.2-1-0.2c-0.5-0.1-0.8-0.2-1.1-0.2c-0.3-0.1-0.5-0.3-0.8-0.5
			c-0.2-0.2-0.3-0.5-0.3-1s0.2-1,0.7-1.3s1-0.5,1.8-0.5c0.4,0,0.8,0,1.2,0.1c0.4,0.1,0.7,0.2,0.9,0.4l-0.5,1c-0.5-0.3-1-0.4-1.6-0.4
			c-0.4,0-0.7,0.1-0.9,0.2c-0.2,0.1-0.3,0.3-0.3,0.5s0.1,0.4,0.3,0.4c0.2,0.1,0.5,0.2,1,0.2c0.4,0.1,0.8,0.2,1.1,0.2
			c0.3,0.1,0.5,0.2,0.7,0.5c0.2,0.2,0.3,0.5,0.3,0.9c0,0.5-0.2,0.9-0.7,1.3c-0.5,0.3-1.1,0.5-1.9,0.5
			C1366.2,57.8,1365.7,57.7,1365.3,57.6z"/>
		<path class="st5" d="M1297.3,62.5v7.8h-1.3v-0.7c-0.2,0.3-0.5,0.5-0.8,0.6s-0.7,0.2-1.1,0.2c-0.5,0-1-0.1-1.5-0.4
			c-0.4-0.2-0.8-0.6-1-1s-0.4-0.9-0.4-1.5s0.1-1.1,0.4-1.5c0.2-0.4,0.6-0.8,1-1s0.9-0.4,1.5-0.4c0.4,0,0.7,0.1,1,0.2
			s0.6,0.3,0.8,0.6v-2.9C1295.9,62.5,1297.3,62.5,1297.3,62.5z M1295.1,69.1c0.3-0.1,0.5-0.3,0.6-0.6c0.1-0.3,0.2-0.6,0.2-0.9
			s-0.1-0.7-0.2-0.9c-0.1-0.3-0.3-0.5-0.6-0.6c-0.3-0.1-0.5-0.2-0.9-0.2c-0.3,0-0.6,0.1-0.9,0.2s-0.5,0.4-0.6,0.6
			c-0.1,0.3-0.2,0.6-0.2,0.9s0.1,0.7,0.2,0.9c0.1,0.3,0.3,0.5,0.6,0.6c0.3,0.1,0.5,0.2,0.9,0.2C1294.6,69.3,1294.9,69.2,1295.1,69.1
			z"/>
		<path class="st5" d="M1304.1,68h-4.4c0.1,0.4,0.3,0.7,0.6,1c0.3,0.2,0.7,0.4,1.2,0.4c0.6,0,1.1-0.2,1.5-0.6l0.7,0.8
			c-0.3,0.3-0.6,0.5-1,0.7s-0.8,0.2-1.3,0.2c-0.6,0-1.2-0.1-1.6-0.4c-0.5-0.2-0.8-0.6-1.1-1c-0.3-0.4-0.4-0.9-0.4-1.5
			c0-0.5,0.1-1,0.4-1.5c0.2-0.4,0.6-0.8,1-1s0.9-0.4,1.5-0.4c0.5,0,1,0.1,1.5,0.4c0.4,0.2,0.8,0.6,1,1s0.4,0.9,0.4,1.5
			C1304.1,67.7,1304.1,67.8,1304.1,68z M1300.2,66.1c-0.3,0.2-0.5,0.6-0.5,1h3.2c-0.1-0.4-0.2-0.7-0.5-1s-0.6-0.4-1.1-0.4
			C1300.8,65.7,1300.4,65.8,1300.2,66.1z"/>
		<path class="st5" d="M1308,63h1.4v7.4h-1.4V63z"/>
		<path class="st5" d="M1315.9,65.3c0.4,0.4,0.6,1,0.6,1.8v3.2h-1.3v-3.1c0-0.5-0.1-0.9-0.3-1.1c-0.2-0.2-0.6-0.4-1-0.4
			c-0.5,0-0.9,0.1-1.2,0.4c-0.3,0.3-0.4,0.7-0.4,1.3v2.8h-1.3v-5.6h1.3v0.7c0.2-0.3,0.5-0.5,0.8-0.6s0.7-0.2,1.1-0.2
			C1314.9,64.6,1315.5,64.9,1315.9,65.3z"/>
		<path class="st5" d="M1319.5,64.4v0.3h1.6v1.1h-1.5v4.5h-1.3v-4.5h-0.9v-1.1h0.9v-0.4c0-0.6,0.2-1.1,0.5-1.4
			c0.4-0.3,0.8-0.5,1.5-0.5c0.5,0,0.9,0.1,1.2,0.3l-0.4,1c-0.2-0.2-0.5-0.2-0.7-0.2C1319.7,63.5,1319.5,63.8,1319.5,64.4z"/>
		<path class="st5" d="M1322.6,70.1c-0.5-0.2-0.8-0.6-1.1-1c-0.3-0.4-0.4-0.9-0.4-1.5s0.1-1.1,0.4-1.5s0.6-0.8,1.1-1s1-0.4,1.5-0.4
			c0.6,0,1.1,0.1,1.6,0.4c0.5,0.2,0.8,0.6,1.1,1c0.3,0.4,0.4,0.9,0.4,1.5s-0.1,1.1-0.4,1.5s-0.6,0.8-1.1,1s-1,0.4-1.6,0.4
			C1323.6,70.4,1323.1,70.3,1322.6,70.1z M1325.3,68.8c0.3-0.3,0.5-0.7,0.5-1.3c0-0.5-0.2-1-0.5-1.3s-0.7-0.5-1.2-0.5
			s-0.9,0.2-1.2,0.5c-0.3,0.3-0.5,0.7-0.5,1.3c0,0.5,0.2,1,0.5,1.3s0.7,0.5,1.2,0.5C1324.6,69.3,1325,69.1,1325.3,68.8z"/>
		<path class="st5" d="M1331.5,64.6v1.3c-0.1,0-0.2,0-0.3,0c-0.5,0-0.9,0.1-1.2,0.4c-0.3,0.3-0.4,0.7-0.4,1.3v2.7h-1.3v-5.6h1.3v0.8
			C1329.8,64.9,1330.5,64.6,1331.5,64.6z"/>
		<path class="st5" d="M1341.2,65.3c0.4,0.4,0.6,1,0.6,1.9v3.2h-1.3v-3.1c0-0.5-0.1-0.9-0.3-1.1c-0.2-0.2-0.5-0.4-0.9-0.4
			s-0.8,0.1-1.1,0.4c-0.3,0.3-0.4,0.7-0.4,1.3v2.9h-1.3v-3.1c0-0.5-0.1-0.9-0.3-1.1c-0.2-0.2-0.5-0.4-0.9-0.4
			c-0.5,0-0.8,0.1-1.1,0.4c-0.3,0.3-0.4,0.7-0.4,1.3v2.9h-1.3v-5.6h1.3v0.7c0.2-0.3,0.5-0.4,0.8-0.6c0.3-0.1,0.7-0.2,1.1-0.2
			s0.8,0.1,1.1,0.2c0.3,0.2,0.6,0.4,0.8,0.7c0.2-0.3,0.5-0.5,0.9-0.7s0.8-0.2,1.2-0.2C1340.2,64.6,1340.8,64.9,1341.2,65.3z"/>
		<path class="st5" d="M1347.3,65.2c0.4,0.4,0.7,1,0.7,1.8v3.3h-1.2v-0.7c-0.2,0.2-0.4,0.4-0.7,0.6c-0.3,0.1-0.7,0.2-1.1,0.2
			s-0.8-0.1-1.1-0.2c-0.3-0.1-0.6-0.3-0.7-0.6s-0.3-0.5-0.3-0.9c0-0.5,0.2-0.9,0.6-1.2s1-0.5,1.8-0.5h1.5v0c0-0.4-0.1-0.7-0.4-0.9
			c-0.2-0.2-0.6-0.3-1-0.3c-0.3,0-0.6,0-0.9,0.1s-0.6,0.2-0.8,0.4l-0.5-1c0.3-0.2,0.7-0.4,1.1-0.5s0.9-0.2,1.3-0.2
			C1346.2,64.6,1346.9,64.8,1347.3,65.2z M1346.1,69.2c0.3-0.2,0.4-0.4,0.5-0.6v-0.7h-1.4c-0.8,0-1.1,0.2-1.1,0.7
			c0,0.2,0.1,0.4,0.3,0.6c0.2,0.1,0.5,0.2,0.8,0.2C1345.6,69.5,1345.9,69.4,1346.1,69.2z"/>
		<path class="st5" d="M1350.5,70.1c-0.5-0.2-0.8-0.6-1.1-1c-0.3-0.4-0.4-0.9-0.4-1.5s0.1-1.1,0.4-1.5s0.6-0.8,1.1-1s1-0.4,1.6-0.4
			s1,0.1,1.5,0.3c0.4,0.2,0.7,0.5,0.9,1l-1,0.6c-0.2-0.3-0.4-0.5-0.6-0.6s-0.5-0.2-0.8-0.2c-0.5,0-0.9,0.2-1.2,0.5
			c-0.3,0.3-0.5,0.7-0.5,1.3c0,0.5,0.2,1,0.5,1.3s0.7,0.5,1.2,0.5c0.3,0,0.6-0.1,0.8-0.2c0.2-0.1,0.4-0.3,0.6-0.6l1,0.6
			c-0.2,0.4-0.5,0.7-1,1c-0.4,0.2-0.9,0.3-1.5,0.3C1351.5,70.4,1351,70.3,1350.5,70.1z"/>
		<path class="st5" d="M1355.5,63.6c-0.2-0.2-0.2-0.3-0.2-0.6c0-0.2,0.1-0.4,0.2-0.6c0.2-0.2,0.4-0.2,0.6-0.2s0.4,0.1,0.6,0.2
			c0.2,0.1,0.2,0.3,0.2,0.5s-0.1,0.4-0.2,0.6c-0.2,0.2-0.4,0.2-0.6,0.2C1355.9,63.8,1355.7,63.7,1355.5,63.6z M1355.4,64.7h1.3v5.6
			h-1.3V64.7z"/>
		<path class="st5" d="M1359.3,70.1c-0.5-0.2-0.8-0.6-1.1-1c-0.3-0.4-0.4-0.9-0.4-1.5s0.1-1.1,0.4-1.5s0.6-0.8,1.1-1s1-0.4,1.5-0.4
			c0.6,0,1.1,0.1,1.6,0.4c0.5,0.2,0.8,0.6,1.1,1c0.3,0.4,0.4,0.9,0.4,1.5s-0.1,1.1-0.4,1.5s-0.6,0.8-1.1,1s-1,0.4-1.6,0.4
			C1360.2,70.4,1359.7,70.3,1359.3,70.1z M1362,68.8c0.3-0.3,0.5-0.7,0.5-1.3c0-0.5-0.2-1-0.5-1.3s-0.7-0.5-1.2-0.5
			s-0.9,0.2-1.2,0.5c-0.3,0.3-0.5,0.7-0.5,1.3c0,0.5,0.2,1,0.5,1.3s0.7,0.5,1.2,0.5S1361.7,69.1,1362,68.8z M1361.3,62.5h1.6
			l-1.8,1.4h-1.1L1361.3,62.5z"/>
		<path class="st5" d="M1369.8,65.3c0.4,0.4,0.6,1,0.6,1.8v3.2h-1.3v-3.1c0-0.5-0.1-0.9-0.3-1.1c-0.2-0.2-0.6-0.4-1-0.4
			c-0.5,0-0.9,0.1-1.2,0.4c-0.3,0.3-0.4,0.7-0.4,1.3v2.8h-1.3v-5.6h1.3v0.7c0.2-0.3,0.5-0.5,0.8-0.6s0.7-0.2,1.1-0.2
			C1368.8,64.6,1369.3,64.9,1369.8,65.3z"/>
		<path class="st5" d="M1296.7,81.3h-3.7l-0.7,1.7h-1.4l3.3-7.4h1.4l3.3,7.4h-1.4L1296.7,81.3z M1296.2,80.2l-1.4-3.2l-1.4,3.2
			H1296.2z"/>
		<path class="st5" d="M1304.9,75.2V83h-1.3v-0.7c-0.2,0.3-0.5,0.5-0.8,0.6s-0.7,0.2-1.1,0.2c-0.5,0-1-0.1-1.5-0.4s-0.8-0.6-1-1
			s-0.4-0.9-0.4-1.5s0.1-1.1,0.4-1.5c0.2-0.4,0.6-0.8,1-1s0.9-0.4,1.5-0.4c0.4,0,0.7,0.1,1,0.2s0.6,0.3,0.8,0.6v-2.9
			C1303.5,75.2,1304.9,75.2,1304.9,75.2z M1302.8,81.7c0.3-0.1,0.5-0.3,0.6-0.6c0.1-0.3,0.2-0.6,0.2-0.9s-0.1-0.7-0.2-0.9
			c-0.1-0.3-0.3-0.5-0.6-0.6c-0.3-0.1-0.5-0.2-0.9-0.2c-0.3,0-0.6,0.1-0.9,0.2s-0.5,0.4-0.6,0.6c-0.1,0.3-0.2,0.6-0.2,0.9
			s0.1,0.7,0.2,0.9c0.1,0.3,0.3,0.5,0.6,0.6c0.3,0.1,0.5,0.2,0.9,0.2C1302.2,82,1302.5,81.9,1302.8,81.7z"/>
		<path class="st5" d="M1315.2,77.9c0.4,0.4,0.6,1,0.6,1.9V83h-1.3v-3.1c0-0.5-0.1-0.9-0.3-1.1c-0.2-0.2-0.5-0.4-0.9-0.4
			s-0.8,0.1-1.1,0.4c-0.3,0.3-0.4,0.7-0.4,1.3V83h-1.3v-3.1c0-0.5-0.1-0.9-0.3-1.1c-0.2-0.2-0.5-0.4-0.9-0.4c-0.5,0-0.8,0.1-1.1,0.4
			c-0.3,0.3-0.4,0.7-0.4,1.3V83h-1.3v-5.6h1.3v0.7c0.2-0.3,0.5-0.4,0.8-0.6c0.3-0.1,0.7-0.2,1.1-0.2s0.8,0.1,1.1,0.2
			c0.3,0.2,0.6,0.4,0.8,0.7c0.2-0.3,0.5-0.5,0.9-0.7s0.8-0.2,1.2-0.2C1314.2,77.3,1314.8,77.5,1315.2,77.9z"/>
		<path class="st5" d="M1317.4,76.2c-0.2-0.2-0.2-0.3-0.2-0.6c0-0.2,0.1-0.4,0.2-0.6c0.2-0.2,0.4-0.2,0.6-0.2s0.4,0.1,0.6,0.2
			s0.2,0.3,0.2,0.5s-0.1,0.4-0.2,0.6c-0.2,0.2-0.4,0.2-0.6,0.2C1317.7,76.4,1317.5,76.4,1317.4,76.2z M1317.3,77.4h1.3V83h-1.3V77.4
			z"/>
		<path class="st5" d="M1325.1,77.9c0.4,0.4,0.6,1,0.6,1.8V83h-1.3v-3.1c0-0.5-0.1-0.9-0.3-1.1c-0.2-0.2-0.6-0.4-1-0.4
			c-0.5,0-0.9,0.1-1.2,0.4c-0.3,0.3-0.4,0.7-0.4,1.3V83h-1.3v-5.6h1.3v0.7c0.2-0.3,0.5-0.5,0.8-0.6s0.7-0.2,1.1-0.2
			C1324.1,77.3,1324.6,77.5,1325.1,77.9z"/>
		<path class="st5" d="M1327.2,76.2c-0.2-0.2-0.2-0.3-0.2-0.6c0-0.2,0.1-0.4,0.2-0.6c0.2-0.2,0.4-0.2,0.6-0.2s0.4,0.1,0.6,0.2
			s0.2,0.3,0.2,0.5s-0.1,0.4-0.2,0.6c-0.2,0.2-0.4,0.2-0.6,0.2C1327.6,76.4,1327.4,76.4,1327.2,76.2z M1327.2,77.4h1.3V83h-1.3V77.4
			z"/>
		<path class="st5" d="M1330.4,82.9c-0.4-0.1-0.8-0.3-1-0.5l0.5-1c0.3,0.2,0.6,0.3,0.9,0.4c0.4,0.1,0.7,0.2,1.1,0.2
			c0.8,0,1.2-0.2,1.2-0.6c0-0.2-0.1-0.3-0.3-0.4c-0.2-0.1-0.5-0.2-1-0.2c-0.5-0.1-0.8-0.2-1.1-0.2c-0.3-0.1-0.5-0.3-0.8-0.5
			s-0.3-0.5-0.3-1s0.2-1,0.7-1.3c0.4-0.3,1-0.5,1.8-0.5c0.4,0,0.8,0,1.2,0.1c0.4,0.1,0.7,0.2,0.9,0.4l-0.5,1c-0.5-0.3-1-0.4-1.6-0.4
			c-0.4,0-0.7,0.1-0.9,0.2c-0.2,0.1-0.3,0.3-0.3,0.5s0.1,0.4,0.3,0.4c0.2,0.1,0.5,0.2,1,0.2c0.4,0.1,0.8,0.2,1.1,0.2
			c0.3,0.1,0.5,0.2,0.7,0.5c0.2,0.2,0.3,0.5,0.3,0.9c0,0.5-0.2,0.9-0.7,1.3s-1.1,0.5-1.9,0.5C1331.3,83.1,1330.8,83,1330.4,82.9z"/>
		<path class="st5" d="M1338.6,82.7c-0.2,0.1-0.3,0.2-0.6,0.3c-0.2,0.1-0.5,0.1-0.7,0.1c-0.6,0-1.1-0.2-1.4-0.5s-0.5-0.8-0.5-1.4
			v-2.7h-0.9v-1.1h0.9v-1.3h1.3v1.3h1.5v1.1h-1.5v2.7c0,0.3,0.1,0.5,0.2,0.6s0.3,0.2,0.6,0.2c0.3,0,0.5-0.1,0.7-0.2L1338.6,82.7z"/>
		<path class="st5" d="M1342.8,77.3v1.3c-0.1,0-0.2,0-0.3,0c-0.5,0-0.9,0.1-1.2,0.4s-0.4,0.7-0.4,1.3V83h-1.3v-5.6h1.3v0.8
			C1341.1,77.6,1341.8,77.3,1342.8,77.3z"/>
		<path class="st5" d="M1347.7,77.9c0.4,0.4,0.7,1,0.7,1.8V83h-1.2v-0.7c-0.2,0.2-0.4,0.4-0.7,0.6c-0.3,0.1-0.7,0.2-1.1,0.2
			s-0.8-0.1-1.1-0.2c-0.3-0.1-0.6-0.3-0.7-0.6s-0.3-0.5-0.3-0.9c0-0.5,0.2-0.9,0.6-1.2c0.4-0.3,1-0.5,1.8-0.5h1.5v-0.1
			c0-0.4-0.1-0.7-0.4-0.9c-0.2-0.2-0.6-0.3-1-0.3c-0.3,0-0.6,0-0.9,0.1s-0.6,0.2-0.8,0.4l-0.5-1c0.3-0.2,0.7-0.4,1.1-0.5
			s0.9-0.2,1.3-0.2C1346.6,77.3,1347.3,77.5,1347.7,77.9z M1346.5,81.9c0.3-0.2,0.4-0.4,0.5-0.6v-0.7h-1.4c-0.8,0-1.1,0.2-1.1,0.7
			c0,0.2,0.1,0.4,0.3,0.6c0.2,0.1,0.5,0.2,0.8,0.2C1345.9,82.1,1346.2,82,1346.5,81.9z"/>
		<path class="st5" d="M1353.2,82.7c-0.2,0.1-0.3,0.2-0.6,0.3c-0.2,0.1-0.5,0.1-0.7,0.1c-0.6,0-1.1-0.2-1.4-0.5s-0.5-0.8-0.5-1.4
			v-2.7h-0.9v-1.1h0.9v-1.3h1.3v1.3h1.5v1.1h-1.5v2.7c0,0.3,0.1,0.5,0.2,0.6s0.3,0.2,0.6,0.2c0.3,0,0.5-0.1,0.7-0.2L1353.2,82.7z"/>
		<path class="st5" d="M1354.2,76.2c-0.2-0.2-0.2-0.3-0.2-0.6c0-0.2,0.1-0.4,0.2-0.6c0.2-0.2,0.4-0.2,0.6-0.2s0.4,0.1,0.6,0.2
			s0.2,0.3,0.2,0.5s-0.1,0.4-0.2,0.6c-0.2,0.2-0.4,0.2-0.6,0.2C1354.5,76.4,1354.3,76.4,1354.2,76.2z M1354.1,77.4h1.3V83h-1.3V77.4
			z"/>
		<path class="st5" d="M1362.2,77.4l-2.4,5.6h-1.4l-2.4-5.6h1.4l1.8,4.2l1.8-4.2H1362.2z"/>
		<path class="st5" d="M1366.7,77.9c0.4,0.4,0.7,1,0.7,1.8V83h-1.2v-0.7c-0.2,0.2-0.4,0.4-0.7,0.6c-0.3,0.1-0.7,0.2-1.1,0.2
			s-0.8-0.1-1.1-0.2c-0.3-0.1-0.6-0.3-0.7-0.6s-0.3-0.5-0.3-0.9c0-0.5,0.2-0.9,0.6-1.2c0.4-0.3,1-0.5,1.8-0.5h1.5v-0.1
			c0-0.4-0.1-0.7-0.4-0.9c-0.2-0.2-0.6-0.3-1-0.3c-0.3,0-0.6,0-0.9,0.1s-0.6,0.2-0.8,0.4l-0.5-1c0.3-0.2,0.7-0.4,1.1-0.5
			s0.9-0.2,1.3-0.2C1365.6,77.3,1366.3,77.5,1366.7,77.9z M1365.5,81.9c0.3-0.2,0.4-0.4,0.5-0.6v-0.7h-1.4c-0.8,0-1.1,0.2-1.1,0.7
			c0,0.2,0.1,0.4,0.3,0.6c0.2,0.1,0.5,0.2,0.8,0.2C1364.9,82.1,1365.2,82,1365.5,81.9z"/>
	</g>
</g>
</svg>
