<?xml version="1.0" encoding="utf-8"?>
<!-- Generator: Adobe Illustrator 23.0.1, SVG Export Plug-In . SVG Version: 6.00 Build 0)  -->
<svg version="1.1" id="Capa_1" xmlns="http://www.w3.org/2000/svg" xmlns:xlink="http://www.w3.org/1999/xlink" x="0px" y="0px"
	 viewBox="0 0 840.2 242.6" style="enable-background:new 0 0 840.2 242.6;" xml:space="preserve">
<style type="text/css">
	.st0{clip-path:url(#SVGID_2_);}
	.st1{fill:#000333;}
	.st2{fill:none;}
</style>
<g>
	<g>
		<defs>
			<rect id="SVGID_1_" width="1493" height="120"/>
		</defs>
		<clipPath id="SVGID_2_">
			<use xlink:href="#SVGID_1_"  style="overflow:visible;"/>
		</clipPath>
		<g class="st0">
			<g>
				<path class="st1" d="M31.7,35.6c4.7-0.8,10.8-1.2,17.3-1.2c10.7,0,17.7,1.9,23.1,6c5.9,4.4,9.5,11.3,9.5,21.3
					c0,10.8-3.9,18.3-9.4,22.9c-5.9,4.9-15,7.3-26,7.3c-6.6,0-11.3-0.4-14.5-0.8C31.7,91.1,31.7,35.6,31.7,35.6z M44.5,81.6
					c1.1,0.3,2.8,0.3,4.4,0.3C60.5,82,68,75.6,68,62.1c0.1-11.7-6.8-17.9-17.8-17.9c-2.8,0-4.7,0.3-5.8,0.5L44.5,81.6L44.5,81.6z"/>
				<path class="st1" d="M123.6,67.4h-20.8v13.4H126v10.5H90V34.8h34.8v10.5h-22V57h20.8C123.6,57,123.6,67.4,123.6,67.4z"/>
				<path class="st1" d="M147.9,76.8l-4,14.5h-13.2l17.2-56.4h16.7l17.5,56.4h-13.7L164,76.8H147.9z M162.2,67.2l-3.5-12
					c-1-3.3-2-7.5-2.8-10.9h-0.2c-0.8,3.3-1.7,7.6-2.6,10.9l-3.3,12H162.2z"/>
			</g>
			<path class="st1" d="M208.3,76.1c-0.7,0-1.3,0.1-1.6,0.1v9c0.3,0.1,0.8,0.1,1.3,0.1c3,0,4.8-1.6,4.8-4.8
				C212.8,77.7,211.2,76.1,208.3,76.1z"/>
			<path class="st1" d="M272.5,57.5L272.5,57.5c-0.2,0.7-0.4,1.6-0.6,2.4l-1,3.1h3.2l-1-3.1C272.9,59.1,272.6,58.2,272.5,57.5z"/>
			<path class="st1" d="M292.1,61.7c0-2.8-1.6-4.4-4.5-4.4c-0.7,0-1.3,0.1-1.6,0.1v9c0.3,0.1,0.8,0.1,1.3,0.1
				C290.3,66.6,292.1,64.9,292.1,61.7z"/>
			<path class="st1" d="M278.4,76c-0.7,0-1.2,0.1-1.4,0.1v4h1.4c1.6,0,2.5-0.8,2.5-2.1C280.9,76.6,279.9,76,278.4,76z"/>
			<path class="st1" d="M197.1,76.2L197.1,76.2c-0.2,0.7-0.4,1.6-0.6,2.4l-1,3.1h3.2l-1-3.1C197.5,77.8,197.2,76.9,197.1,76.2z"/>
			<path class="st1" d="M262.3,47.9c2.2,0,3.5-2.1,3.5-4.7c0-2.4-1.2-4.6-3.5-4.6s-3.5,2.1-3.5,4.7
				C258.8,45.9,260.1,47.9,262.3,47.9z"/>
			<path class="st1" d="M200.9,43c0-2.8-1.6-4.4-4.5-4.4c-0.7,0-1.3,0.1-1.6,0.1v9c0.3,0.1,0.8,0.1,1.3,0.1
				C199.1,47.9,200.9,46.2,200.9,43z"/>
			<path class="st1" d="M216.4,40.6c0-1.4-1-2-2.5-2c-0.7,0-1.2,0.1-1.4,0.1v4h1.4C215.5,42.7,216.4,41.9,216.4,40.6z"/>
			<path class="st1" d="M290,76.2L290,76.2c-0.2,0.7-0.4,1.6-0.6,2.4l-1,3.1h3.2l-1-3.1C290.4,77.8,290.2,76.9,290,76.2z"/>
			<path class="st1" d="M317.9,67.9V49.6h-27.1V31.3H187.9v59.9h155.4V67.9H317.9z M318.7,71.4h2.5l-2.3,2.2H317L318.7,71.4z
				 M296.5,55.7h7.3v1.9h-5v3.3h4.8v1.9h-4.8v3.7h5.3v1.9h-7.6L296.5,55.7L296.5,55.7z M270.2,37h2.6l3.3,5.4
				c0.8,1.4,1.6,2.9,2.2,4.2l0,0c-0.1-1.7-0.2-3.3-0.2-5.2V37h2.1v12.6h-2.4l-3.3-5.6c-0.8-1.4-1.6-2.9-2.3-4.3h-0.1
				c0.1,1.6,0.1,3.3,0.1,5.4v4.5h-2.1L270.2,37L270.2,37z M262.7,34h2.5l-2.3,2.2H261L262.7,34z M262.3,36.8c3.7,0,5.9,2.8,5.9,6.4
				c0,4.2-2.6,6.6-6,6.6c-3.6,0-5.8-2.7-5.8-6.4C256.3,39.5,258.8,36.8,262.3,36.8z M252.1,37h2.3v12.6h-2.3V37z M247.1,36.8
				c1.5,0,2.6,0.3,3.1,0.6l-0.5,1.8c-0.6-0.3-1.4-0.5-2.5-0.5c-2.6,0-4.4,1.6-4.4,4.6c0,2.8,1.6,4.5,4.4,4.5c0.9,0,1.9-0.2,2.5-0.5
				l0.4,1.8c-0.5,0.3-1.7,0.6-3.3,0.6c-4,0-6.4-2.5-6.4-6.4C240.4,39.3,243.3,36.8,247.1,36.8z M236.6,36.8c1.5,0,2.6,0.3,3.1,0.6
				l-0.5,1.8c-0.6-0.3-1.4-0.5-2.5-0.5c-2.6,0-4.4,1.6-4.4,4.6c0,2.8,1.6,4.5,4.4,4.5c0.9,0,1.9-0.2,2.5-0.5l0.4,1.8
				c-0.5,0.3-1.7,0.6-3.3,0.6c-4,0-6.4-2.5-6.4-6.4C229.9,39.3,232.8,36.8,236.6,36.8z M220.9,37h7.3v1.9h-5v3.3h4.8V44h-4.8v3.7
				h5.3v1.9h-7.6V37z M225.6,55.5c1.5,0,2.6,0.3,3.1,0.6l-0.5,1.8c-0.6-0.3-1.4-0.5-2.5-0.5c-2.6,0-4.4,1.6-4.4,4.6
				c0,2.8,1.6,4.5,4.4,4.5c0.9,0,1.9-0.2,2.5-0.5l0.4,1.8c-0.5,0.3-1.7,0.6-3.3,0.6c-4,0-6.4-2.5-6.4-6.4
				C218.9,58,221.8,55.5,225.6,55.5z M210.3,37.1c0.9-0.1,2.2-0.3,3.5-0.3c1.8,0,3,0.3,3.9,1c0.7,0.6,1.1,1.5,1.1,2.5
				c0,1.6-1.1,2.7-2.3,3.2v0.1c0.9,0.3,1.4,1.2,1.8,2.4c0.4,1.6,0.7,3,1,3.5h-2.4c-0.2-0.4-0.5-1.4-0.8-3c-0.4-1.6-1-2.2-2.3-2.2
				h-1.2v5.2h-2.3V37.1z M209.9,55.7h7.3v1.9h-5v3.3h4.8v1.9h-4.8v3.7h5.3v1.9h-7.6V55.7z M205.3,37h2.3v12.6h-2.3V37z M192.6,37.1
				c1-0.2,2.3-0.3,3.7-0.3c2.4,0,4,0.5,5.1,1.5c1.2,1,2,2.5,2,4.6c0,2.2-0.8,3.9-2,5c-1.3,1.1-3.3,1.7-5.7,1.7
				c-1.3,0-2.4-0.1-3.1-0.2V37.1z M192.6,55.7h7.3v1.9h-5v3.3h4.8v1.9h-4.8v3.7h5.3v1.9h-7.6V55.7z M200.2,87l-1.1-3.6h-4L194,87
				h-2.4l4-12.6h2.9l4.1,12.6H200.2z M201.3,68.2l0.3-1.9c0.4,0.1,0.9,0.2,1.4,0.2c1.3,0,2.1-0.6,2.1-2.8v-8.1h2.3v8.2
				c0,3.5-1.7,4.6-4.2,4.6C202.5,68.5,201.7,68.4,201.3,68.2z M213.3,85.4c-1.3,1.1-3.3,1.7-5.7,1.7c-1.3,0-2.4-0.1-3.1-0.2V74.5
				c1-0.2,2.3-0.3,3.7-0.3c2.4,0,4,0.5,5.1,1.5c1.2,1,2,2.5,2,4.6C215.2,82.6,214.5,84.3,213.3,85.4z M228.1,87l-0.2-5.1
				c-0.1-1.6-0.2-3.6-0.1-5.3h-0.1c-0.4,1.6-0.9,3.3-1.5,4.8l-1.8,5.5h-1.8l-1.7-5.4c-0.5-1.6-0.9-3.3-1.3-4.9l0,0
				c-0.1,1.7-0.1,3.7-0.2,5.4l-0.3,5.1h-2.2l0.8-12.6h3l1.6,5.1c0.4,1.5,0.8,3,1.2,4.4h0.1c0.3-1.4,0.8-2.9,1.3-4.4l1.7-5.1h3
				l0.7,12.6L228.1,87L228.1,87z M235,87h-2.3V74.4h2.3V87z M230.5,62.9v-7.2h2.3V63c0,2.5,1,3.6,2.6,3.6c1.7,0,2.7-1.1,2.7-3.6
				v-7.4h2.3v7.2c0,3.9-2,5.6-5,5.6C232.4,68.5,230.5,66.9,230.5,62.9z M247.6,87h-2.4l-3.3-5.6c-0.8-1.4-1.6-2.9-2.3-4.3h-0.1
				c0.1,1.6,0.1,3.3,0.1,5.4V87h-2.1V74.4h2.6l3.3,5.4c0.8,1.4,1.6,2.9,2.2,4.2l0,0c-0.1-1.7-0.2-3.3-0.2-5.2v-4.4h2.1L247.6,87
				L247.6,87z M247.7,68.3h-2.3V57.6h-3.6v-1.9h9.5v1.9h-3.6L247.7,68.3L247.7,68.3z M252.6,87h-2.3V74.4h2.3V87z M252.8,55.7h2.3
				v12.6h-2.3V55.7z M258.1,87.2c-1.3,0-2.7-0.4-3.4-0.8l0.5-1.9c0.7,0.4,1.9,0.8,3,0.8c1.5,0,2.3-0.7,2.3-1.7s-0.6-1.5-2.2-2.1
				c-2.1-0.7-3.4-1.9-3.4-3.7c0-2.1,1.7-3.6,4.5-3.6c1.4,0,2.4,0.3,3,0.6l-0.6,1.9c-0.4-0.2-1.3-0.6-2.5-0.6c-1.5,0-2.1,0.8-2.1,1.5
				c0,1,0.7,1.4,2.4,2.1c2.2,0.8,3.3,1.9,3.3,3.7C262.8,85.4,261.3,87.2,258.1,87.2z M260.6,68.3l-4.1-12.6h2.5l1.7,5.7
				c0.5,1.6,0.9,3.1,1.2,4.6l0,0c0.3-1.5,0.8-3,1.3-4.6l1.8-5.8h2.5l-4.4,12.6L260.6,68.3L260.6,68.3z M273.3,76.3h-3.6V87h-2.3
				V76.3h-3.6v-1.9h9.5V76.3z M270.5,64.7l-1.1,3.6H267l4-12.6h2.9l4.1,12.6h-2.5l-1.1-3.6H270.5z M281.3,87c-0.2-0.4-0.5-1.4-0.8-3
				c-0.4-1.6-1-2.2-2.3-2.2H277V87h-2.3V74.5c0.9-0.1,2.2-0.3,3.5-0.3c1.8,0,3,0.3,3.9,1c0.7,0.6,1.1,1.5,1.1,2.5
				c0,1.6-1.1,2.7-2.3,3.2V81c0.9,0.3,1.4,1.2,1.8,2.4c0.4,1.6,0.7,3,1,3.5L281.3,87L281.3,87z M283.7,55.8c1-0.2,2.3-0.3,3.7-0.3
				c2.4,0,4,0.5,5.1,1.5c1.2,1,2,2.5,2,4.6c0,2.2-0.8,3.9-2,5c-1.3,1.1-3.3,1.7-5.7,1.7c-1.3,0-2.4-0.1-3.1-0.2V55.8z M293.2,87
				l-1.1-3.6h-4L287,87h-2.4l4-12.6h2.9l4.1,12.6H293.2z M303.2,85.3c0.9,0,1.9-0.2,2.5-0.5l0.4,1.8c-0.5,0.3-1.7,0.6-3.3,0.6
				c-4,0-6.4-2.5-6.4-6.4c0-4.2,2.9-6.7,6.7-6.7c1.5,0,2.6,0.3,3.1,0.6l-0.5,1.8c-0.6-0.3-1.4-0.5-2.5-0.5c-2.6,0-4.4,1.6-4.4,4.6
				C298.8,83.5,300.4,85.3,303.2,85.3z M310.3,87H308V74.4h2.3V87z M318.1,87.2c-3.6,0-5.8-2.7-5.8-6.4c0-3.9,2.4-6.6,6-6.6
				c3.7,0,5.9,2.8,5.9,6.4C324.1,84.8,321.6,87.2,318.1,87.2z M336.1,87h-2.4l-3.3-5.6c-0.8-1.4-1.6-2.9-2.3-4.3H328
				c0.1,1.6,0.1,3.3,0.1,5.4V87H326V74.4h2.6l3.3,5.4c0.8,1.4,1.6,2.9,2.2,4.2l0,0c-0.1-1.7-0.2-3.3-0.2-5.2v-4.4h2.1L336.1,87
				L336.1,87z"/>
			<path class="st1" d="M318.2,76c-2.3,0-3.5,2.1-3.5,4.7s1.3,4.6,3.5,4.6s3.5-2.1,3.5-4.7C321.7,78.3,320.5,76,318.2,76z"/>
			<rect x="317.9" y="28.5" class="st1" width="25.4" height="21.1"/>
			<rect x="174.6" y="19.8" class="st1" width="13.4" height="11.6"/>
		</g>
	</g>
</g>
<g>
	<rect x="-326.4" y="115.6" class="st2" width="1493" height="120"/>
	<g>
		<path class="st1" d="M399.2,179.9c-0.6-0.2-1.1-0.5-1.5-0.8l0.5-1c0.3,0.3,0.8,0.6,1.3,0.8s1.1,0.3,1.7,0.3c0.8,0,1.3-0.1,1.7-0.4
			s0.6-0.6,0.6-1c0-0.3-0.1-0.6-0.3-0.8c-0.2-0.2-0.5-0.3-0.8-0.4s-0.7-0.2-1.3-0.3c-0.7-0.2-1.2-0.3-1.7-0.5s-0.8-0.4-1.1-0.8
			c-0.3-0.4-0.4-0.8-0.4-1.4c0-0.5,0.1-0.9,0.4-1.3c0.3-0.4,0.6-0.7,1.2-0.9c0.6-0.2,1.2-0.3,1.9-0.3c0.5,0,1.1,0.1,1.6,0.2
			s1,0.3,1.3,0.6l-0.4,1c-0.4-0.2-0.8-0.4-1.2-0.5c-0.4-0.1-0.9-0.2-1.3-0.2c-0.7,0-1.3,0.1-1.7,0.4s-0.6,0.6-0.6,1
			c0,0.3,0.1,0.6,0.3,0.8c0.2,0.2,0.5,0.3,0.8,0.5c0.3,0.1,0.7,0.2,1.2,0.3c0.7,0.2,1.2,0.3,1.6,0.5c0.4,0.2,0.8,0.4,1.1,0.8
			c0.3,0.3,0.4,0.8,0.4,1.4c0,0.5-0.1,0.9-0.4,1.3c-0.3,0.4-0.7,0.7-1.2,0.9c-0.5,0.2-1.2,0.3-1.9,0.3
			C400.5,180.2,399.9,180.1,399.2,179.9z"/>
		<path class="st1" d="M406.4,171.7c-0.2-0.2-0.2-0.3-0.2-0.6c0-0.2,0.1-0.4,0.2-0.6c0.2-0.2,0.4-0.2,0.6-0.2c0.2,0,0.4,0.1,0.6,0.2
			c0.2,0.1,0.2,0.3,0.2,0.6c0,0.2-0.1,0.4-0.2,0.6s-0.4,0.2-0.6,0.2S406.6,171.8,406.4,171.7z M406.4,173.2h1.2v6.9h-1.2V173.2z"/>
		<path class="st1" d="M410.4,179.9c-0.5-0.2-0.9-0.3-1.2-0.6l0.5-1c0.3,0.2,0.7,0.4,1.1,0.5c0.4,0.1,0.9,0.2,1.3,0.2
			c1.1,0,1.6-0.3,1.6-0.9c0-0.2-0.1-0.4-0.2-0.5c-0.1-0.1-0.3-0.2-0.6-0.3c-0.2-0.1-0.5-0.1-0.9-0.2c-0.6-0.1-1-0.2-1.4-0.3
			c-0.3-0.1-0.6-0.3-0.9-0.6c-0.3-0.3-0.4-0.6-0.4-1.1c0-0.6,0.3-1.1,0.8-1.5c0.5-0.4,1.2-0.6,2.1-0.6c0.5,0,0.9,0.1,1.4,0.2
			s0.8,0.3,1.1,0.5l-0.5,1c-0.6-0.4-1.2-0.5-2-0.5c-0.5,0-0.9,0.1-1.2,0.3s-0.4,0.4-0.4,0.7c0,0.2,0.1,0.4,0.2,0.5
			c0.1,0.1,0.3,0.2,0.6,0.3c0.2,0.1,0.6,0.1,1,0.2c0.6,0.1,1,0.2,1.3,0.3c0.3,0.1,0.6,0.3,0.9,0.6c0.2,0.3,0.4,0.6,0.4,1.1
			c0,0.6-0.3,1.1-0.8,1.5c-0.5,0.4-1.3,0.6-2.2,0.6C411.4,180.1,410.9,180.1,410.4,179.9z"/>
		<path class="st1" d="M420.4,179.7c-0.2,0.2-0.4,0.3-0.7,0.4c-0.3,0.1-0.5,0.1-0.8,0.1c-0.7,0-1.2-0.2-1.6-0.6
			c-0.4-0.4-0.6-0.9-0.6-1.6v-3.8h-1.2v-1h1.2v-1.5h1.2v1.5h2v1h-2v3.7c0,0.4,0.1,0.7,0.3,0.9c0.2,0.2,0.5,0.3,0.8,0.3
			c0.4,0,0.7-0.1,1-0.3L420.4,179.7z"/>
		<path class="st1" d="M427.8,177h-5.6c0.1,0.6,0.3,1.1,0.8,1.5c0.5,0.4,1,0.5,1.7,0.5c0.8,0,1.5-0.3,2-0.8l0.7,0.8
			c-0.3,0.4-0.7,0.6-1.2,0.8c-0.5,0.2-1,0.3-1.5,0.3c-0.7,0-1.4-0.1-1.9-0.4c-0.6-0.3-1-0.7-1.3-1.2s-0.5-1.1-0.5-1.8
			s0.1-1.3,0.4-1.8s0.7-1,1.2-1.2c0.5-0.3,1.1-0.4,1.8-0.4s1.2,0.1,1.8,0.4c0.5,0.3,0.9,0.7,1.2,1.2s0.4,1.1,0.4,1.8
			C427.8,176.8,427.8,176.9,427.8,177z M423,174.7c-0.4,0.4-0.6,0.8-0.7,1.4h4.4c-0.1-0.6-0.3-1.1-0.7-1.4c-0.4-0.4-0.9-0.6-1.5-0.6
			C423.8,174.2,423.4,174.4,423,174.7z"/>
		<path class="st1" d="M440.2,173.9c0.5,0.5,0.8,1.2,0.8,2.2v3.9h-1.2v-3.8c0-0.7-0.2-1.2-0.5-1.5c-0.3-0.3-0.7-0.5-1.3-0.5
			s-1.1,0.2-1.5,0.6s-0.6,1-0.6,1.7v3.5h-1.3v-3.8c0-0.7-0.2-1.2-0.5-1.5c-0.3-0.3-0.7-0.5-1.3-0.5s-1.1,0.2-1.5,0.6s-0.6,1-0.6,1.7
			v3.5h-1.1v-6.9h1.2v1c0.2-0.4,0.6-0.6,1-0.8s0.9-0.3,1.4-0.3s1,0.1,1.4,0.3s0.7,0.5,1,0.9c0.3-0.4,0.6-0.7,1.1-0.9s1-0.3,1.6-0.3
			C439,173.1,439.7,173.4,440.2,173.9z"/>
		<path class="st1" d="M447.9,173.8c0.5,0.5,0.8,1.2,0.8,2.1v4.1h-1.2v-0.9c-0.2,0.3-0.5,0.6-0.9,0.7c-0.4,0.2-0.8,0.3-1.4,0.3
			c-0.8,0-1.4-0.2-1.8-0.6c-0.5-0.4-0.7-0.9-0.7-1.5c0-0.6,0.2-1.1,0.7-1.5c0.5-0.4,1.1-0.6,2.1-0.6h2v-0.2c0-0.5-0.2-0.9-0.5-1.2
			c-0.3-0.3-0.8-0.4-1.4-0.4c-0.4,0-0.8,0.1-1.2,0.2s-0.7,0.3-1,0.5l-0.5-0.9c0.4-0.3,0.8-0.5,1.3-0.7c0.5-0.2,1-0.2,1.6-0.2
			C446.7,173.1,447.4,173.4,447.9,173.8z M446.7,178.9c0.3-0.2,0.6-0.5,0.8-0.9v-1h-1.9c-1.1,0-1.6,0.4-1.6,1.1
			c0,0.3,0.1,0.6,0.4,0.8c0.3,0.2,0.6,0.3,1.1,0.3S446.3,179.1,446.7,178.9z"/>
		<path class="st1" d="M451.3,179.9c-0.5-0.2-0.9-0.3-1.2-0.6l0.5-1c0.3,0.2,0.7,0.4,1.1,0.5c0.4,0.1,0.9,0.2,1.3,0.2
			c1.1,0,1.6-0.3,1.6-0.9c0-0.2-0.1-0.4-0.2-0.5c-0.1-0.1-0.3-0.2-0.6-0.3c-0.2-0.1-0.5-0.1-0.9-0.2c-0.6-0.1-1-0.2-1.4-0.3
			c-0.3-0.1-0.6-0.3-0.9-0.6s-0.4-0.6-0.4-1.1c0-0.6,0.3-1.1,0.8-1.5c0.5-0.4,1.2-0.6,2.1-0.6c0.5,0,0.9,0.1,1.4,0.2
			s0.8,0.3,1.1,0.5l-0.5,1c-0.6-0.4-1.2-0.5-2-0.5c-0.5,0-0.9,0.1-1.2,0.3s-0.4,0.4-0.4,0.7c0,0.2,0.1,0.4,0.2,0.5
			c0.1,0.1,0.3,0.2,0.6,0.3c0.3,0.1,0.6,0.1,1,0.2c0.6,0.1,1,0.2,1.3,0.3c0.3,0.1,0.6,0.3,0.9,0.6c0.2,0.3,0.4,0.6,0.4,1.1
			c0,0.6-0.3,1.1-0.8,1.5c-0.5,0.4-1.3,0.6-2.2,0.6C452.4,180.1,451.8,180.1,451.3,179.9z"/>
		<path class="st1" d="M400.2,195.1c-0.7-0.4-1.3-1-1.7-1.7s-0.6-1.5-0.6-2.4c0-0.9,0.2-1.7,0.6-2.4c0.4-0.7,1-1.3,1.7-1.7
			c0.7-0.4,1.6-0.6,2.5-0.6c0.7,0,1.4,0.1,1.9,0.4s1.1,0.6,1.5,1.1l-0.8,0.8c-0.7-0.7-1.5-1.1-2.5-1.1c-0.7,0-1.3,0.2-1.8,0.5
			s-1,0.7-1.3,1.2s-0.5,1.1-0.5,1.8c0,0.7,0.2,1.2,0.5,1.8s0.7,0.9,1.3,1.2c0.5,0.3,1.2,0.5,1.8,0.5c1,0,1.9-0.4,2.5-1.1l0.8,0.8
			c-0.4,0.5-0.9,0.8-1.5,1.1c-0.6,0.2-1.2,0.4-1.9,0.4C401.7,195.7,400.9,195.5,400.2,195.1z"/>
		<path class="st1" d="M408.6,195.2c-0.5-0.3-1-0.7-1.3-1.2s-0.5-1.1-0.5-1.8c0-0.7,0.2-1.3,0.5-1.8s0.7-0.9,1.3-1.2
			c0.5-0.3,1.2-0.4,1.8-0.4c0.7,0,1.3,0.1,1.8,0.4s1,0.7,1.3,1.2s0.5,1.1,0.5,1.8s-0.2,1.3-0.5,1.8s-0.7,0.9-1.3,1.2
			c-0.5,0.3-1.1,0.5-1.8,0.5S409.1,195.5,408.6,195.2z M411.6,194.3c0.3-0.2,0.6-0.5,0.8-0.9c0.2-0.4,0.3-0.8,0.3-1.3
			s-0.1-0.9-0.3-1.3c-0.2-0.4-0.5-0.6-0.8-0.8c-0.3-0.2-0.7-0.3-1.2-0.3c-0.4,0-0.8,0.1-1.2,0.3c-0.3,0.2-0.6,0.5-0.8,0.8
			c-0.2,0.4-0.3,0.8-0.3,1.3s0.1,0.9,0.3,1.3c0.2,0.4,0.5,0.7,0.8,0.9c0.3,0.2,0.7,0.3,1.2,0.3C410.8,194.6,411.2,194.5,411.6,194.3
			z"/>
		<path class="st1" d="M426.3,189.4c0.5,0.5,0.8,1.2,0.8,2.2v4h-1.2v-3.8c0-0.7-0.2-1.2-0.5-1.5s-0.7-0.5-1.3-0.5s-1.1,0.2-1.5,0.6
			c-0.4,0.4-0.6,1-0.6,1.7v3.5h-1.2v-3.8c0-0.7-0.2-1.2-0.5-1.5s-0.7-0.5-1.3-0.5s-1.1,0.2-1.5,0.6c-0.4,0.4-0.6,1-0.6,1.7v3.5h-1.2
			v-6.9h1.2v1c0.2-0.4,0.6-0.6,1-0.8c0.4-0.2,0.9-0.3,1.4-0.3s1,0.1,1.4,0.3s0.7,0.5,1,0.9c0.3-0.4,0.6-0.7,1.1-0.9
			c0.5-0.2,1-0.3,1.6-0.3C425.1,188.7,425.8,188.9,426.3,189.4z"/>
		<path class="st1" d="M434.8,189.1c0.5,0.3,0.9,0.7,1.2,1.2s0.4,1.1,0.4,1.8c0,0.7-0.1,1.3-0.4,1.8s-0.7,0.9-1.2,1.2
			c-0.5,0.3-1.1,0.4-1.8,0.4c-0.5,0-0.9-0.1-1.4-0.3c-0.5-0.2-0.8-0.5-1-0.8v3.5h-1.2v-9.4h1.2v1.1c0.3-0.4,0.6-0.7,1-0.9
			c0.4-0.2,0.9-0.3,1.4-0.3C433.7,188.7,434.2,188.8,434.8,189.1z M434.1,194.3c0.3-0.2,0.6-0.5,0.8-0.9c0.2-0.4,0.3-0.8,0.3-1.3
			s-0.1-0.9-0.3-1.3c-0.2-0.4-0.5-0.6-0.8-0.8c-0.3-0.2-0.7-0.3-1.2-0.3c-0.4,0-0.8,0.1-1.2,0.3c-0.4,0.2-0.6,0.5-0.8,0.8
			c-0.2,0.4-0.3,0.8-0.3,1.3s0.1,0.9,0.3,1.3c0.2,0.4,0.5,0.7,0.8,0.9c0.4,0.2,0.7,0.3,1.2,0.3C433.3,194.6,433.7,194.5,434.1,194.3
			z"/>
		<path class="st1" d="M438.2,186h1.2v9.6h-1.2V186z"/>
		<path class="st1" d="M448,192.6h-5.6c0.1,0.6,0.3,1.1,0.8,1.5c0.5,0.4,1,0.5,1.7,0.5c0.8,0,1.5-0.3,2-0.8l0.7,0.8
			c-0.3,0.4-0.7,0.6-1.2,0.8c-0.5,0.2-1,0.3-1.5,0.3c-0.7,0-1.4-0.1-1.9-0.4c-0.6-0.3-1-0.7-1.3-1.2s-0.5-1.1-0.5-1.8
			c0-0.7,0.1-1.3,0.4-1.8s0.7-1,1.2-1.2c0.5-0.3,1.1-0.4,1.8-0.4s1.2,0.1,1.8,0.4c0.5,0.3,0.9,0.7,1.2,1.2s0.4,1.1,0.4,1.8
			C448,192.3,448,192.4,448,192.6z M443.1,190.3c-0.4,0.4-0.6,0.8-0.7,1.4h4.4c-0.1-0.6-0.3-1.1-0.7-1.4c-0.4-0.4-0.9-0.6-1.5-0.6
			S443.5,189.9,443.1,190.3z"/>
		<path class="st1" d="M460.3,189.4c0.5,0.5,0.8,1.2,0.8,2.2v4h-1.2v-3.8c0-0.7-0.2-1.2-0.5-1.5s-0.7-0.5-1.3-0.5s-1.1,0.2-1.5,0.6
			c-0.4,0.4-0.6,1-0.6,1.7v3.5h-1.2v-3.8c0-0.7-0.2-1.2-0.5-1.5s-0.7-0.5-1.3-0.5s-1.1,0.2-1.5,0.6c-0.4,0.4-0.6,1-0.6,1.7v3.5h-1.2
			v-6.9h1.2v1c0.2-0.4,0.6-0.6,1-0.8c0.4-0.2,0.9-0.3,1.4-0.3s1,0.1,1.4,0.3c0.4,0.2,0.7,0.5,1,0.9c0.3-0.4,0.6-0.7,1.1-0.9
			c0.5-0.2,1-0.3,1.6-0.3C459.2,188.7,459.8,188.9,460.3,189.4z"/>
		<path class="st1" d="M469.6,192.6H464c0.1,0.6,0.3,1.1,0.8,1.5c0.5,0.4,1,0.5,1.7,0.5c0.8,0,1.5-0.3,2-0.8l0.7,0.8
			c-0.3,0.4-0.7,0.6-1.2,0.8c-0.5,0.2-1,0.3-1.5,0.3c-0.7,0-1.4-0.1-1.9-0.4c-0.6-0.3-1-0.7-1.3-1.2s-0.5-1.1-0.5-1.8
			c0-0.7,0.1-1.3,0.4-1.8s0.7-1,1.2-1.2c0.5-0.3,1.1-0.4,1.8-0.4s1.2,0.1,1.8,0.4c0.5,0.3,0.9,0.7,1.2,1.2s0.4,1.1,0.4,1.8
			C469.6,192.3,469.6,192.4,469.6,192.6z M464.7,190.3c-0.4,0.4-0.6,0.8-0.7,1.4h4.4c-0.1-0.6-0.3-1.1-0.7-1.4s-0.9-0.6-1.5-0.6
			S465.1,189.9,464.7,190.3z"/>
		<path class="st1" d="M477.1,189.4c0.5,0.5,0.8,1.2,0.8,2.2v4h-1.3v-3.8c0-0.7-0.2-1.2-0.5-1.5s-0.8-0.5-1.4-0.5
			c-0.7,0-1.2,0.2-1.6,0.6c-0.4,0.4-0.6,1-0.6,1.7v3.5h-1.2v-6.9h1.2v1c0.2-0.4,0.6-0.6,1-0.8c0.4-0.2,0.9-0.3,1.5-0.3
			C475.9,188.7,476.6,188.9,477.1,189.4z"/>
		<path class="st1" d="M484,195.2c-0.2,0.2-0.4,0.3-0.7,0.4c-0.3,0.1-0.5,0.1-0.8,0.1c-0.7,0-1.2-0.2-1.6-0.6
			c-0.4-0.4-0.6-0.9-0.6-1.6v-3.8h-1.2v-1h1.2v-1.5h1.2v1.5h2v1h-2v3.7c0,0.4,0.1,0.7,0.3,0.9c0.2,0.2,0.5,0.3,0.8,0.3
			c0.4,0,0.7-0.1,1-0.3L484,195.2z"/>
		<path class="st1" d="M490.2,189.4c0.5,0.5,0.8,1.2,0.8,2.1v4.1h-1.2v-0.9c-0.2,0.3-0.5,0.6-0.9,0.7c-0.4,0.2-0.8,0.3-1.4,0.3
			c-0.8,0-1.4-0.2-1.8-0.6c-0.5-0.4-0.7-0.9-0.7-1.5c0-0.6,0.2-1.1,0.7-1.5c0.4-0.4,1.1-0.6,2.1-0.6h2v-0.2c0-0.5-0.2-0.9-0.5-1.2
			c-0.3-0.3-0.8-0.4-1.4-0.4c-0.4,0-0.8,0.1-1.2,0.2c-0.4,0.1-0.7,0.3-1,0.5l-0.5-0.9c0.4-0.3,0.8-0.5,1.3-0.7s1-0.2,1.6-0.2
			C489,188.7,489.7,188.9,490.2,189.4z M489,194.4c0.3-0.2,0.6-0.5,0.8-0.9v-1h-1.9c-1.1,0-1.6,0.4-1.6,1.1c0,0.3,0.1,0.6,0.4,0.8
			c0.3,0.2,0.6,0.3,1.1,0.3C488.2,194.7,488.6,194.6,489,194.4z"/>
		<path class="st1" d="M495.4,189c0.4-0.2,0.9-0.3,1.5-0.3v1.2c-0.1,0-0.2,0-0.3,0c-0.7,0-1.2,0.2-1.6,0.6c-0.4,0.4-0.6,1-0.6,1.7
			v3.4h-1.2v-6.9h1.2v1.2C494.7,189.5,495,189.2,495.4,189z"/>
		<path class="st1" d="M498.5,187.2c-0.2-0.2-0.2-0.3-0.2-0.6c0-0.2,0.1-0.4,0.2-0.6c0.2-0.2,0.4-0.2,0.6-0.2c0.2,0,0.4,0.1,0.6,0.2
			c0.2,0.2,0.2,0.3,0.2,0.6c0,0.2-0.1,0.4-0.2,0.6c-0.2,0.2-0.4,0.2-0.6,0.2C498.9,187.4,498.7,187.3,498.5,187.2z M498.5,188.7h1.2
			v6.9h-1.2V188.7z"/>
		<path class="st1" d="M503.2,195.2c-0.5-0.3-1-0.7-1.3-1.2s-0.5-1.1-0.5-1.8c0-0.7,0.2-1.3,0.5-1.8s0.7-0.9,1.3-1.2
			c0.5-0.3,1.2-0.4,1.8-0.4s1.3,0.1,1.8,0.4s1,0.7,1.3,1.2s0.5,1.1,0.5,1.8s-0.2,1.3-0.5,1.8s-0.7,0.9-1.3,1.2
			c-0.5,0.3-1.1,0.5-1.8,0.5S503.7,195.5,503.2,195.2z M506.2,194.3c0.3-0.2,0.6-0.5,0.8-0.9c0.2-0.4,0.3-0.8,0.3-1.3
			s-0.1-0.9-0.3-1.3c-0.2-0.4-0.5-0.6-0.8-0.8c-0.3-0.2-0.7-0.3-1.2-0.3c-0.4,0-0.8,0.1-1.2,0.3c-0.3,0.2-0.6,0.5-0.8,0.8
			c-0.2,0.4-0.3,0.8-0.3,1.3s0.1,0.9,0.3,1.3c0.2,0.4,0.5,0.7,0.8,0.9c0.3,0.2,0.7,0.3,1.2,0.3C505.5,194.6,505.9,194.5,506.2,194.3
			z"/>
		<path class="st1" d="M510.7,195.4c-0.5-0.2-0.9-0.3-1.2-0.6l0.5-1c0.3,0.2,0.7,0.4,1.1,0.5c0.4,0.1,0.9,0.2,1.3,0.2
			c1.1,0,1.6-0.3,1.6-0.9c0-0.2-0.1-0.4-0.2-0.5c-0.1-0.1-0.3-0.2-0.5-0.3s-0.5-0.1-0.9-0.2c-0.6-0.1-1-0.2-1.4-0.3
			c-0.3-0.1-0.6-0.3-0.9-0.6c-0.3-0.3-0.4-0.6-0.4-1.1c0-0.6,0.3-1.1,0.8-1.5c0.5-0.4,1.2-0.6,2.1-0.6c0.5,0,0.9,0.1,1.4,0.2
			c0.5,0.1,0.8,0.3,1.1,0.5l-0.5,1c-0.6-0.4-1.2-0.5-2-0.5c-0.5,0-0.9,0.1-1.2,0.3s-0.4,0.4-0.4,0.7c0,0.2,0.1,0.4,0.2,0.5
			c0.1,0.1,0.3,0.2,0.6,0.3s0.5,0.1,1,0.2c0.6,0.1,1,0.2,1.3,0.3s0.6,0.3,0.9,0.6c0.2,0.3,0.4,0.6,0.4,1.1c0,0.6-0.3,1.1-0.8,1.5
			c-0.5,0.4-1.3,0.6-2.2,0.6C511.7,195.7,511.2,195.6,510.7,195.4z"/>
	</g>
	<rect x="-326.4" y="115.6" class="st2" width="1493" height="120"/>
	<g>
		<g>
			<g>
				<path class="st1" d="M389.7,168.3c-3.2-11.9-14-20.7-27-20.7c-2.5,0-4.9,0.3-7.2,0.9c-11,2.9-19.3,12.4-20.6,23.9h-14.3
					c0.1-0.9,0.2-1.8,0.3-2.6c2.8-16.5,17.2-29.1,34.5-29.1C372.3,140.7,386.3,152.5,389.7,168.3z"/>
			</g>
			<g>
				<path class="st1" d="M390.1,181.2c-2.7,16.7-17.2,29.4-34.6,29.4c-17.9,0-32.7-13.5-34.7-30.8c0-0.4-0.1-0.8-0.1-1.2H335
					c1.3,11.5,9.6,20.9,20.5,23.8c2.3,0.6,4.7,0.9,7.2,0.9C376.2,203.4,387.4,193.9,390.1,181.2z"/>
			</g>
		</g>
		<g>
			<path class="st1" d="M353.1,171.8c0.2,0.5,0.7,0.8,1.2,0.8c0.3,0,0.6-0.1,0.8-0.3C354.4,172.7,353.5,172.5,353.1,171.8z"/>
			<path class="st1" d="M380.7,161.2c-0.1,0-0.2,0.1-0.2,0.2c0,0.2,0.3,0.2,0.3,0C380.8,161.3,380.7,161.2,380.7,161.2z
				 M373.3,192.2c-0.4,0.5-0.7,1.1-0.7,1.8c0,0.3,0,0.6,0.1,0.8c0,0,0,0,0.1,0C372.5,193.8,372.8,192.9,373.3,192.2z M375.4,193.8
				c-0.1,0-0.2,0.1-0.2,0.2c0,0.2,0.3,0.2,0.3,0C375.6,193.9,375.5,193.8,375.4,193.8z M373.6,195.8c-0.1,0-0.2,0.1-0.2,0.1
				c0.5,0.5,1.2,0.9,2,0.9c0.5,0,0.9-0.1,1.3-0.3C375.8,196.9,374.6,196.8,373.6,195.8z M375.1,156.1c-0.1,0-0.2,0.1-0.2,0.2
				c0,0.2,0.3,0.2,0.3,0C375.3,156.2,375.2,156.1,375.1,156.1z M362.8,161.4c-0.1,0-0.2,0.1-0.2,0.2c0,0.2,0.3,0.2,0.3,0
				S362.9,161.4,362.8,161.4z M360.2,160.6c-0.1,0.3-0.2,0.7-0.2,1c0,0.4,0.1,0.8,0.3,1.2l0.1-0.1
				C360.1,162.1,360,161.3,360.2,160.6z M340.9,175L340.9,175c0.1,0,0.3,0,0.4-0.1C341.1,175,340.9,175,340.9,175z M347.5,192.6
				L347.5,192.6c-0.2,0.3-0.3,0.7-0.3,1.1c0,1.4,1.1,2.7,2.5,2.8C348.1,196.2,346.8,194.5,347.5,192.6z M350,193.5
				c-0.1,0-0.2,0.1-0.2,0.2c0,0.2,0.3,0.2,0.3,0C350.1,193.6,350.1,193.5,350,193.5z M351.5,171.3L351.5,171.3
				c0,0.8,0.3,1.4,0.7,1.9c0-0.1,0-0.1,0.1-0.2C351.8,172.6,351.6,172,351.5,171.3z M354.3,171.2c-0.1,0-0.2,0.1-0.2,0.2
				c0,0.2,0.3,0.2,0.3,0C354.5,171.2,354.4,171.2,354.3,171.2z M353.1,171.8c0.2,0.5,0.7,0.8,1.2,0.8c0.3,0,0.6-0.1,0.8-0.3
				C354.4,172.7,353.5,172.5,353.1,171.8z M353.5,173.8c0,0.1-0.1,0.2-0.1,0.2c0.3,0.1,0.6,0.1,0.9,0.1c1.2,0,2.2-0.8,2.6-1.8
				C356.3,173.5,354.8,174.2,353.5,173.8z M348.6,158.5l-0.1,0.1c0.5,0.3,1,0.5,1.6,0.5c0.5,0,0.9-0.1,1.3-0.3
				C350.5,159.2,349.4,159.1,348.6,158.5z M347.3,156.6c0,0.3,0.1,0.7,0.3,1l0,0C347.4,157.2,347.4,156.9,347.3,156.6z"/>
			<path class="st1" d="M384.7,163.2c0.7-1.5,0.6-3.2-0.5-4.6c-1-1.3-2.7-1.9-4.3-1.6c-0.1-0.1-0.2-0.2-0.3-0.3
				c0.2-1.6-0.5-3.3-2-4.2c-1.4-0.9-3.1-0.9-4.5-0.1c-6.4-2.9-14.1-2.9-20.5,0.1c-1.5-0.9-3.3-0.9-4.8,0.1s-2.2,2.7-1.9,4.4
				c-0.5,0.5-1.1,1.1-1.6,1.7c-0.6,0.6-0.7,1.5-0.4,2.2c-0.8-0.1-1.6,0.3-2,1c-1.2,1.9-2.1,3.9-2.7,6c-1.7,0.5-3,1.9-3.2,3.7
				c-0.3,1.9,0.6,3.5,2.1,4.4c0.2,6.6,3,12.8,7.7,17.3c-0.2,1.6,0.5,3.1,1.9,4.1s3.1,1.1,4.5,0.3c3.3,1.6,6.9,2.4,10.6,2.4
				c3.6,0,7.3-0.8,10.6-2.4c1.5,0.8,3.2,0.8,4.7-0.2c1.5-1.1,2.2-2.7,1.9-4.4c2.4-2.4,4.3-5.1,5.6-8.2l0.1-0.1
				C388.7,177.9,388.3,169.7,384.7,163.2z M340.9,175.1L340.9,175.1c0-0.1,0.2-0.1,0.4-0.2C341.2,175,341,175,340.9,175.1z
				 M380.7,161.2c0,0,0.1,0.1,0.1,0.2c0,0.2-0.3,0.2-0.3,0C380.5,161.3,380.6,161.2,380.7,161.2z M375.1,156.1
				c0.1,0,0.2,0.1,0.1,0.2c0,0.2-0.3,0.2-0.3,0C374.9,156.2,375,156.1,375.1,156.1z M374.5,160.6c0.7,0.1,1.3,0.1,2-0.1
				c-0.1,0.6-0.1,1.3,0,1.9c0.1,0.8,0.5,1.5,1.1,2.1c-0.8,2.5-1.9,5-3.2,7.3c-1.9-3.5-4.4-6.7-7.3-9.4c0-0.3,0.1-0.6,0.2-0.9
				c1.6-0.8,3.2-1.5,4.9-2.1C372.8,160,373.6,160.4,374.5,160.6z M375.5,194c0,0.2-0.3,0.2-0.3,0c0-0.1,0.1-0.2,0.2-0.2
				C375.5,193.8,375.6,193.9,375.5,194z M362.8,161.4c0.1,0,0.1,0,0.1,0.2s-0.3,0.2-0.3,0C362.6,161.5,362.7,161.4,362.8,161.4z
				 M369.2,155.7c-1.5,0.6-2.9,1.3-4.2,2c-0.7-0.4-1.4-0.6-2.2-0.6s-1.5,0.2-2.1,0.6c-1.4-0.8-2.8-1.4-4.2-2
				C360.6,154.4,365.1,154.4,369.2,155.7z M360.4,162.7l-0.1,0.1c-0.2-0.4-0.3-0.8-0.3-1.2c0-0.3,0.1-0.7,0.2-1
				C360,161.3,360.1,162.1,360.4,162.7z M361.4,165.7c0.9,0.3,1.8,0.3,2.7,0c2,1.8,3.7,3.9,5.1,6.1c-3.4-1.4-7-2.4-10.7-2.9
				C359.4,167.7,360.4,166.7,361.4,165.7z M348.6,158.5c0.8,0.6,1.9,0.7,2.8,0.3c-0.4,0.2-0.8,0.3-1.3,0.3c-0.6,0-1.2-0.2-1.6-0.5
				L348.6,158.5z M347.6,157.5L347.6,157.5c-0.2-0.3-0.3-0.6-0.3-1C347.4,156.9,347.4,157.2,347.6,157.5z M347.2,193.7
				c0-0.4,0.1-0.8,0.3-1.1l0,0c-0.7,1.9,0.6,3.6,2.2,3.9C348.3,196.4,347.2,195.1,347.2,193.7z M349.8,193.7c0-0.1,0.1-0.2,0.2-0.2
				c0.1,0,0.1,0.1,0.1,0.2C350.1,193.9,349.8,193.9,349.8,193.7z M347.4,188.5c-3.1-3.8-4.7-8.7-4.9-12.5c0.7-0.5,1.6-1.2,2-2.4
				c1.4-0.2,4-0.6,5.9-0.7c0.1,0.1,0.1,0.3,0.2,0.4C348.4,178.1,347.3,183.3,347.4,188.5z M350.8,168.4c-2.5,0-5,0.3-7.5,0.7
				c0.5-1.6,1.3-3.2,2.1-4.7c0.4-0.6,0.4-1.3,0.2-1.9c0.7,0.1,1.3-0.2,1.8-0.7c0.4-0.5,0.8-0.9,1.2-1.3c0.8,0.3,1.7,0.3,2.5,0.1
				c0.8-0.2,1.5-0.6,2.1-1.2c1.7,0.6,3.5,1.3,5.1,2.2c0,0.3,0,0.5,0.1,0.8c-1.5,1.3-2.8,2.7-4,4.3
				C353,166.6,351.7,167.3,350.8,168.4z M355.1,172.3c-0.2,0.2-0.5,0.3-0.8,0.3c-0.5,0-1-0.3-1.2-0.8
				C353.5,172.5,354.4,172.7,355.1,172.3z M354.1,171.4c0-0.1,0.1-0.2,0.2-0.2c0.1,0,0.2,0,0.1,0.2
				C354.4,171.6,354.1,171.6,354.1,171.4z M353.5,173.8c1.3,0.4,2.8-0.3,3.4-1.4c-0.4,1-1.4,1.8-2.6,1.8c-0.3,0-0.6,0-0.9-0.1
				C353.4,174,353.5,173.9,353.5,173.8z M351.5,171.3c0.1,0.7,0.3,1.3,0.8,1.8c0,0.1-0.1,0.1-0.1,0.2
				C351.8,172.8,351.5,172.1,351.5,171.3L351.5,171.3z M351.8,189.8c-0.3-4.9,0.6-9.8,2.5-14.4c0.8,0,1.5-0.2,2.2-0.6
				c0.7-0.4,1.2-1,1.6-1.6c4,0.7,7.9,1.8,11.6,3.6c0,0.5,0.1,1,0.3,1.4c-4.6,5.5-10.4,9.7-17,12.3
				C352.6,190.2,352.2,190,351.8,189.8z M371.2,193.9c-4.9,2.2-10.8,2.4-15.8,0.4c6.9-2.8,12.9-7.3,17.7-12.9c0.2,0.7,0.3,1.3,0.4,2
				c0.1,0.9,0.8,1.6,1.7,1.8c-0.9,0.4-1.4,1.2-1.4,2.1c0,0.9,0,1.8-0.1,2.7c-0.7,0.3-1.3,0.9-1.8,1.6
				C371.5,192.3,371.2,193.1,371.2,193.9z M372.8,194.8L372.8,194.8c-0.2-0.2-0.2-0.5-0.2-0.8c0-0.7,0.3-1.3,0.7-1.8
				C372.8,192.9,372.5,193.8,372.8,194.8z M375.4,196.8c-0.8,0-1.5-0.3-2-0.9c0.1,0,0.1-0.1,0.2-0.1c1,1,2.2,1.1,3.1,0.7
				C376.3,196.7,375.9,196.8,375.4,196.8z M378.2,188.5v-1.3c0-1-0.7-1.9-1.7-2.1c1-0.4,1.5-1.3,1.3-2.4c0-0.3,0-0.6-0.1-0.9
				c1.1,0.9,2.1,1.8,3.1,2.8C380.1,186,379.2,187.3,378.2,188.5z M382.6,180.2c-1.3-1.2-2.7-2.3-4.1-3.3c0-0.9-0.2-1.7-0.6-2.3
				c1.4-2.5,2.6-5,3.5-7.7C383.3,171,383.7,175.8,382.6,180.2z"/>
		</g>
		<g>
			<path class="st1" d="M340.9,175L340.9,175c0.1,0,0.3,0,0.4-0.1C341.1,175,340.9,175,340.9,175z"/>
		</g>
		<g>
			<path class="st1" d="M347.3,156.6c0,0.3,0.1,0.7,0.3,1l0,0C347.4,157.2,347.4,156.9,347.3,156.6z M348.6,158.5l-0.1,0.1
				c0.5,0.3,1,0.5,1.6,0.5c0.5,0,0.9-0.1,1.3-0.3C350.5,159.2,349.4,159.1,348.6,158.5z"/>
		</g>
		<g>
			<path class="st1" d="M362.9,161.6c0,0.2-0.3,0.2-0.3,0c0-0.1,0.1-0.2,0.2-0.2C362.9,161.4,362.9,161.4,362.9,161.6z"/>
			<path class="st1" d="M360.2,160.6c-0.1,0.3-0.2,0.7-0.2,1c0,0.4,0.1,0.8,0.3,1.2l0.1-0.1C360.1,162.1,360,161.3,360.2,160.6z"/>
		</g>
		<g>
			<path class="st1" d="M354.4,171.4c0,0.2-0.3,0.2-0.3,0c0-0.1,0.1-0.2,0.2-0.2C354.4,171.2,354.5,171.2,354.4,171.4z"/>
			<path class="st1" d="M355.1,172.3c-0.2,0.2-0.5,0.3-0.8,0.3c-0.5,0-1-0.3-1.2-0.8C353.5,172.5,354.4,172.7,355.1,172.3z"/>
			<path class="st1" d="M351.5,171.3L351.5,171.3c0,0.8,0.3,1.4,0.7,1.9c0-0.1,0-0.1,0.1-0.2C351.8,172.6,351.6,172,351.5,171.3z
				 M353.1,171.8c0.2,0.5,0.7,0.8,1.2,0.8c0.3,0,0.6-0.1,0.8-0.3C354.4,172.7,353.5,172.5,353.1,171.8z M353.5,173.8
				c0,0.1-0.1,0.2-0.1,0.2c0.3,0.1,0.6,0.1,0.9,0.1c1.2,0,2.2-0.8,2.6-1.8C356.3,173.5,354.8,174.2,353.5,173.8z"/>
		</g>
		<g>
			<path class="st1" d="M375.2,156.3c0,0.2-0.3,0.2-0.3,0c0-0.1,0.1-0.2,0.2-0.2S375.3,156.2,375.2,156.3z"/>
		</g>
		<g>
			<path class="st1" d="M380.8,161.4c0,0.2-0.3,0.2-0.3,0c0-0.1,0.1-0.2,0.2-0.2C380.7,161.2,380.8,161.3,380.8,161.4z"/>
		</g>
		<g>
			<path class="st1" d="M375.5,194c0,0.2-0.3,0.2-0.3,0c0-0.1,0.1-0.2,0.2-0.2C375.5,193.8,375.6,193.9,375.5,194z"/>
			<path class="st1" d="M373.3,192.2c-0.4,0.5-0.7,1.1-0.7,1.8c0,0.3,0,0.6,0.1,0.8c0,0,0,0,0.1,0
				C372.5,193.8,372.8,192.9,373.3,192.2z M373.6,195.8c-0.1,0-0.2,0.1-0.2,0.1c0.5,0.5,1.2,0.9,2,0.9c0.5,0,0.9-0.1,1.3-0.3
				C375.8,196.9,374.6,196.8,373.6,195.8z"/>
		</g>
		<g>
			<path class="st1" d="M350.1,193.7c0,0.2-0.3,0.2-0.3,0c0-0.1,0.1-0.2,0.2-0.2C350.1,193.5,350.1,193.6,350.1,193.7z"/>
			<path class="st1" d="M347.5,192.6L347.5,192.6c-0.2,0.3-0.3,0.7-0.3,1.1c0,1.4,1.1,2.7,2.5,2.8
				C348.1,196.2,346.8,194.5,347.5,192.6z"/>
		</g>
	</g>
</g>
<rect x="-1065.7" y="208.7" class="st2" width="1493" height="120"/>
<g>
	<g>
		<g>
			<path class="st1" d="M593.4,40.5l-5.7,5.5c-3.9-4.1-8.3-6.2-13.2-6.2c-4.1,0-7.6,1.4-10.4,4.2s-4.2,6.3-4.2,10.4
				c0,2.9,0.6,5.4,1.9,7.7c1.3,2.2,3,4,5.3,5.3s4.8,1.9,7.6,1.9c2.4,0,4.6-0.4,6.5-1.3c2-0.9,4.1-2.5,6.5-4.9l5.6,5.8
				c-3.2,3.1-6.2,5.3-9,6.5s-6.1,1.8-9.7,1.8c-6.7,0-12.2-2.1-16.5-6.4s-6.4-9.7-6.4-16.4c0-4.3,1-8.1,2.9-11.5
				c1.9-3.3,4.7-6,8.4-8.1c3.6-2,7.5-3.1,11.7-3.1c3.6,0,7,0.8,10.3,2.3C588.1,35.6,591,37.7,593.4,40.5z"/>
			<path class="st1" d="M597.8,32.9h23.9V41h-7.9v35.1h-8.3V41h-7.7V32.9z"/>
			<path class="st1" d="M629.2,32.9h8.2v43.2h-8.2V32.9z"/>
			<path class="st1" d="M656.6,32.9h8.3l16.6,43.2H673l-3.4-8.9H652l-3.5,8.9H640L656.6,32.9z M660.8,44.3L655,59.1h11.5L660.8,44.3
				z"/>
		</g>
	</g>
	<g>
		<path class="st1" d="M569.5,91.2c-0.3-0.2-0.6-0.5-0.8-1c-0.2-0.4-0.3-0.9-0.3-1.5s0.1-1.1,0.3-1.5c0.2-0.4,0.4-0.7,0.8-1
			c0.3-0.2,0.7-0.3,1.1-0.3s0.8,0.1,1.1,0.3c0.3,0.2,0.6,0.5,0.8,1c0.2,0.4,0.3,0.9,0.3,1.5s-0.1,1.1-0.3,1.5
			c-0.2,0.4-0.4,0.7-0.8,1c-0.3,0.2-0.7,0.3-1.1,0.3C570.2,91.5,569.9,91.4,569.5,91.2z M571.6,90.8c0.3-0.2,0.5-0.5,0.6-0.8
			c0.1-0.4,0.2-0.8,0.2-1.3s-0.1-0.9-0.2-1.3s-0.3-0.6-0.6-0.8c-0.3-0.2-0.6-0.3-0.9-0.3s-0.6,0.1-0.9,0.3c-0.3,0.2-0.5,0.5-0.6,0.8
			c-0.1,0.4-0.2,0.8-0.2,1.3s0.1,0.9,0.2,1.3s0.3,0.6,0.6,0.8c0.3,0.2,0.6,0.3,0.9,0.3S571.3,91,571.6,90.8z"/>
		<path class="st1" d="M576.1,86v5.5h-0.4v-5.1h-1.3V86H576.1z"/>
		<path class="st1" d="M579.6,91.2c-0.3-0.2-0.6-0.5-0.8-1c-0.2-0.4-0.3-0.9-0.3-1.5s0.1-1.1,0.3-1.5c0.2-0.4,0.4-0.7,0.8-1
			c0.3-0.2,0.7-0.3,1.1-0.3s0.8,0.1,1.1,0.3c0.3,0.2,0.6,0.5,0.8,1c0.2,0.4,0.3,0.9,0.3,1.5s-0.1,1.1-0.3,1.5
			c-0.2,0.4-0.4,0.7-0.8,1c-0.3,0.2-0.7,0.3-1.1,0.3C580.3,91.5,579.9,91.4,579.6,91.2z M581.6,90.8c0.3-0.2,0.5-0.5,0.6-0.8
			c0.1-0.4,0.2-0.8,0.2-1.3s-0.1-0.9-0.2-1.3s-0.3-0.6-0.6-0.8c-0.3-0.2-0.6-0.3-0.9-0.3s-0.6,0.1-0.9,0.3c-0.3,0.2-0.5,0.5-0.6,0.8
			c-0.1,0.4-0.2,0.8-0.2,1.3s0.1,0.9,0.2,1.3s0.3,0.6,0.6,0.8c0.3,0.2,0.6,0.3,0.9,0.3C581.1,91.1,581.4,91,581.6,90.8z"/>
		<path class="st1" d="M585.8,91.2c-0.3-0.2-0.6-0.5-0.8-1c-0.2-0.4-0.3-0.9-0.3-1.5s0.1-1.1,0.3-1.5c0.2-0.4,0.4-0.7,0.8-1
			c0.3-0.2,0.7-0.3,1.1-0.3s0.8,0.1,1.1,0.3c0.3,0.2,0.6,0.5,0.8,1c0.2,0.4,0.3,0.9,0.3,1.5s-0.1,1.1-0.3,1.5
			c-0.2,0.4-0.4,0.7-0.8,1c-0.3,0.2-0.7,0.3-1.1,0.3C586.5,91.5,586.2,91.4,585.8,91.2z M587.9,90.8c0.3-0.2,0.5-0.5,0.6-0.8
			c0.1-0.4,0.2-0.8,0.2-1.3s-0.1-0.9-0.2-1.3s-0.3-0.6-0.6-0.8c-0.3-0.2-0.6-0.3-0.9-0.3s-0.6,0.1-0.9,0.3c-0.3,0.2-0.5,0.5-0.6,0.8
			c-0.1,0.4-0.2,0.8-0.2,1.3s0.1,0.9,0.2,1.3s0.3,0.6,0.6,0.8c0.3,0.2,0.6,0.3,0.9,0.3S587.6,91,587.9,90.8z"/>
		<path class="st1" d="M592.1,91.2c-0.3-0.2-0.6-0.5-0.8-1c-0.2-0.4-0.3-0.9-0.3-1.5s0.1-1.1,0.3-1.5c0.2-0.4,0.4-0.7,0.8-1
			c0.3-0.2,0.7-0.3,1.1-0.3s0.8,0.1,1.1,0.3c0.3,0.2,0.6,0.5,0.8,1c0.2,0.4,0.3,0.9,0.3,1.5s-0.1,1.1-0.3,1.5
			c-0.2,0.4-0.4,0.7-0.8,1c-0.3,0.2-0.7,0.3-1.1,0.3C592.8,91.5,592.4,91.4,592.1,91.2z M594.1,90.8c0.3-0.2,0.5-0.5,0.6-0.8
			c0.1-0.4,0.2-0.8,0.2-1.3s-0.1-0.9-0.2-1.3s-0.3-0.6-0.6-0.8c-0.3-0.2-0.6-0.3-0.9-0.3s-0.6,0.1-0.9,0.3c-0.3,0.2-0.5,0.5-0.6,0.8
			c-0.1,0.4-0.2,0.8-0.2,1.3s0.1,0.9,0.2,1.3s0.3,0.6,0.6,0.8c0.3,0.2,0.6,0.3,0.9,0.3S593.8,91,594.1,90.8z"/>
		<path class="st1" d="M598.3,91.2c-0.3-0.2-0.6-0.5-0.8-1c-0.2-0.4-0.3-0.9-0.3-1.5s0.1-1.1,0.3-1.5c0.2-0.4,0.4-0.7,0.8-1
			c0.3-0.2,0.7-0.3,1.1-0.3s0.8,0.1,1.1,0.3c0.3,0.2,0.6,0.5,0.8,1c0.2,0.4,0.3,0.9,0.3,1.5s-0.1,1.1-0.3,1.5
			c-0.2,0.4-0.4,0.7-0.8,1c-0.3,0.2-0.7,0.3-1.1,0.3C599,91.5,598.6,91.4,598.3,91.2z M600.3,90.8c0.3-0.2,0.5-0.5,0.6-0.8
			c0.1-0.4,0.2-0.8,0.2-1.3s-0.1-0.9-0.2-1.3s-0.3-0.6-0.6-0.8c-0.3-0.2-0.6-0.3-0.9-0.3s-0.6,0.1-0.9,0.3c-0.3,0.2-0.5,0.5-0.6,0.8
			c-0.1,0.4-0.2,0.8-0.2,1.3s0.1,0.9,0.2,1.3s0.3,0.6,0.6,0.8c0.3,0.2,0.6,0.3,0.9,0.3C599.8,91.1,600.1,91,600.3,90.8z"/>
		<path class="st1" d="M604.9,86v5.5h-0.4v-5.1h-1.3V86H604.9z"/>
		<path class="st1" d="M608.7,86v5.5h-0.4v-5.1H607V86H608.7z"/>
		<path class="st1" d="M612.2,91.2c-0.3-0.2-0.6-0.5-0.8-1c-0.2-0.4-0.3-0.9-0.3-1.5s0.1-1.1,0.3-1.5c0.2-0.4,0.4-0.7,0.8-1
			c0.3-0.2,0.7-0.3,1.1-0.3s0.8,0.1,1.1,0.3c0.3,0.2,0.6,0.5,0.8,1c0.2,0.4,0.3,0.9,0.3,1.5s-0.1,1.1-0.3,1.5
			c-0.2,0.4-0.4,0.7-0.8,1c-0.3,0.2-0.7,0.3-1.1,0.3C612.9,91.5,612.6,91.4,612.2,91.2z M614.3,90.8c0.3-0.2,0.5-0.5,0.6-0.8
			c0.1-0.4,0.2-0.8,0.2-1.3s-0.1-0.9-0.2-1.3s-0.3-0.6-0.6-0.8c-0.3-0.2-0.6-0.3-0.9-0.3s-0.6,0.1-0.9,0.3c-0.3,0.2-0.5,0.5-0.6,0.8
			c-0.1,0.4-0.2,0.8-0.2,1.3s0.1,0.9,0.2,1.3s0.3,0.6,0.6,0.8c0.3,0.2,0.6,0.3,0.9,0.3C613.7,91.1,614,91,614.3,90.8z"/>
		<path class="st1" d="M618.8,86v5.5h-0.4v-5.1h-1.3V86H618.8z"/>
		<path class="st1" d="M622.3,91.2c-0.3-0.2-0.6-0.5-0.8-1c-0.2-0.4-0.3-0.9-0.3-1.5s0.1-1.1,0.3-1.5c0.2-0.4,0.4-0.7,0.8-1
			c0.3-0.2,0.7-0.3,1.1-0.3s0.8,0.1,1.1,0.3c0.3,0.2,0.6,0.5,0.8,1c0.2,0.4,0.3,0.9,0.3,1.5s-0.1,1.1-0.3,1.5
			c-0.2,0.4-0.4,0.7-0.8,1c-0.3,0.2-0.7,0.3-1.1,0.3C623,91.5,622.6,91.4,622.3,91.2z M624.3,90.8c0.3-0.2,0.5-0.5,0.6-0.8
			c0.1-0.4,0.2-0.8,0.2-1.3s-0.1-0.9-0.2-1.3s-0.3-0.6-0.6-0.8c-0.3-0.2-0.6-0.3-0.9-0.3s-0.6,0.1-0.9,0.3c-0.3,0.2-0.5,0.5-0.6,0.8
			c-0.1,0.4-0.2,0.8-0.2,1.3s0.1,0.9,0.2,1.3s0.3,0.6,0.6,0.8c0.3,0.2,0.6,0.3,0.9,0.3C623.8,91.1,624.1,91,624.3,90.8z"/>
		<path class="st1" d="M628.9,86v5.5h-0.4v-5.1h-1.3V86H628.9z"/>
		<path class="st1" d="M632.4,91.2c-0.3-0.2-0.6-0.5-0.8-1c-0.2-0.4-0.3-0.9-0.3-1.5s0.1-1.1,0.3-1.5c0.2-0.4,0.4-0.7,0.8-1
			c0.3-0.2,0.7-0.3,1.1-0.3s0.8,0.1,1.1,0.3c0.3,0.2,0.6,0.5,0.8,1c0.2,0.4,0.3,0.9,0.3,1.5s-0.1,1.1-0.3,1.5
			c-0.2,0.4-0.4,0.7-0.8,1c-0.3,0.2-0.7,0.3-1.1,0.3C633.1,91.5,632.7,91.4,632.4,91.2z M634.4,90.8c0.3-0.2,0.5-0.5,0.6-0.8
			c0.1-0.4,0.2-0.8,0.2-1.3s-0.1-0.9-0.2-1.3s-0.3-0.6-0.6-0.8c-0.3-0.2-0.6-0.3-0.9-0.3s-0.6,0.1-0.9,0.3c-0.3,0.2-0.5,0.5-0.6,0.8
			c-0.1,0.4-0.2,0.8-0.2,1.3s0.1,0.9,0.2,1.3s0.3,0.6,0.6,0.8c0.3,0.2,0.6,0.3,0.9,0.3S634.1,91,634.4,90.8z"/>
		<path class="st1" d="M639,86v5.5h-0.4v-5.1h-1.3V86H639z"/>
		<path class="st1" d="M642.5,91.2c-0.3-0.2-0.6-0.5-0.8-1c-0.2-0.4-0.3-0.9-0.3-1.5s0.1-1.1,0.3-1.5c0.2-0.4,0.4-0.7,0.8-1
			c0.3-0.2,0.7-0.3,1.1-0.3s0.8,0.1,1.1,0.3c0.3,0.2,0.6,0.5,0.8,1c0.2,0.4,0.3,0.9,0.3,1.5s-0.1,1.1-0.3,1.5
			c-0.2,0.4-0.4,0.7-0.8,1c-0.3,0.2-0.7,0.3-1.1,0.3S642.8,91.4,642.5,91.2z M644.5,90.8c0.3-0.2,0.5-0.5,0.6-0.8
			c0.1-0.4,0.2-0.8,0.2-1.3s-0.1-0.9-0.2-1.3s-0.3-0.6-0.6-0.8c-0.3-0.2-0.6-0.3-0.9-0.3s-0.6,0.1-0.9,0.3c-0.3,0.2-0.5,0.5-0.6,0.8
			c-0.1,0.4-0.2,0.8-0.2,1.3s0.1,0.9,0.2,1.3s0.3,0.6,0.6,0.8c0.3,0.2,0.6,0.3,0.9,0.3S644.2,91,644.5,90.8z"/>
		<path class="st1" d="M648.7,91.2c-0.3-0.2-0.6-0.5-0.8-1c-0.2-0.4-0.3-0.9-0.3-1.5s0.1-1.1,0.3-1.5c0.2-0.4,0.4-0.7,0.8-1
			c0.3-0.2,0.7-0.3,1.1-0.3s0.8,0.1,1.1,0.3c0.3,0.2,0.6,0.5,0.8,1c0.2,0.4,0.3,0.9,0.3,1.5s-0.1,1.1-0.3,1.5
			c-0.2,0.4-0.4,0.7-0.8,1c-0.3,0.2-0.7,0.3-1.1,0.3C649.4,91.5,649,91.4,648.7,91.2z M650.7,90.8c0.3-0.2,0.5-0.5,0.6-0.8
			c0.1-0.4,0.2-0.8,0.2-1.3s-0.1-0.9-0.2-1.3s-0.3-0.6-0.6-0.8c-0.3-0.2-0.6-0.3-0.9-0.3s-0.6,0.1-0.9,0.3c-0.3,0.2-0.5,0.5-0.6,0.8
			c-0.1,0.4-0.2,0.8-0.2,1.3s0.1,0.9,0.2,1.3s0.3,0.6,0.6,0.8c0.3,0.2,0.6,0.3,0.9,0.3C650.2,91.1,650.5,91,650.7,90.8z"/>
		<path class="st1" d="M654.9,91.2c-0.3-0.2-0.6-0.5-0.8-1c-0.2-0.4-0.3-0.9-0.3-1.5s0.1-1.1,0.3-1.5c0.2-0.4,0.4-0.7,0.8-1
			c0.3-0.2,0.7-0.3,1.1-0.3s0.8,0.1,1.1,0.3c0.3,0.2,0.6,0.5,0.8,1c0.2,0.4,0.3,0.9,0.3,1.5s-0.1,1.1-0.3,1.5
			c-0.2,0.4-0.4,0.7-0.8,1c-0.3,0.2-0.7,0.3-1.1,0.3C655.6,91.5,655.3,91.4,654.9,91.2z M656.9,90.8c0.3-0.2,0.5-0.5,0.6-0.8
			c0.1-0.4,0.2-0.8,0.2-1.3s-0.1-0.9-0.2-1.3s-0.3-0.6-0.6-0.8c-0.3-0.2-0.6-0.3-0.9-0.3s-0.6,0.1-0.9,0.3c-0.3,0.2-0.5,0.5-0.6,0.8
			c-0.1,0.4-0.2,0.8-0.2,1.3s0.1,0.9,0.2,1.3s0.3,0.6,0.6,0.8c0.3,0.2,0.6,0.3,0.9,0.3C656.4,91.1,656.7,91,656.9,90.8z"/>
		<path class="st1" d="M661.5,86v5.5h-0.4v-5.1h-1.3V86H661.5z"/>
		<path class="st1" d="M665,91.2c-0.3-0.2-0.6-0.5-0.8-1c-0.2-0.4-0.3-0.9-0.3-1.5s0.1-1.1,0.3-1.5c0.2-0.4,0.4-0.7,0.8-1
			c0.3-0.2,0.7-0.3,1.1-0.3s0.8,0.1,1.1,0.3c0.3,0.2,0.6,0.5,0.8,1c0.2,0.4,0.3,0.9,0.3,1.5s-0.1,1.1-0.3,1.5
			c-0.2,0.4-0.4,0.7-0.8,1c-0.3,0.2-0.7,0.3-1.1,0.3S665.3,91.4,665,91.2z M667,90.8c0.3-0.2,0.5-0.5,0.6-0.8
			c0.1-0.4,0.2-0.8,0.2-1.3s-0.1-0.9-0.2-1.3s-0.3-0.6-0.6-0.8c-0.3-0.2-0.6-0.3-0.9-0.3s-0.6,0.1-0.9,0.3c-0.3,0.2-0.5,0.5-0.6,0.8
			c-0.1,0.4-0.2,0.8-0.2,1.3s0.1,0.9,0.2,1.3s0.3,0.6,0.6,0.8c0.3,0.2,0.6,0.3,0.9,0.3C666.5,91.1,666.8,91,667,90.8z"/>
		<path class="st1" d="M671.2,91.2c-0.3-0.2-0.6-0.5-0.8-1c-0.2-0.4-0.3-0.9-0.3-1.5s0.1-1.1,0.3-1.5c0.2-0.4,0.4-0.7,0.8-1
			c0.3-0.2,0.7-0.3,1.1-0.3s0.8,0.1,1.1,0.3c0.3,0.2,0.6,0.5,0.8,1c0.2,0.4,0.3,0.9,0.3,1.5s-0.1,1.1-0.3,1.5
			c-0.2,0.4-0.4,0.7-0.8,1c-0.3,0.2-0.7,0.3-1.1,0.3C671.9,91.5,671.6,91.4,671.2,91.2z M673.3,90.8c0.3-0.2,0.5-0.5,0.6-0.8
			c0.1-0.4,0.2-0.8,0.2-1.3s-0.1-0.9-0.2-1.3s-0.3-0.6-0.6-0.8c-0.3-0.2-0.6-0.3-0.9-0.3s-0.6,0.1-0.9,0.3c-0.3,0.2-0.5,0.5-0.6,0.8
			c-0.1,0.4-0.2,0.8-0.2,1.3s0.1,0.9,0.2,1.3s0.3,0.6,0.6,0.8c0.3,0.2,0.6,0.3,0.9,0.3S673,91,673.3,90.8z"/>
		<path class="st1" d="M677.8,86v5.5h-0.4v-5.1h-1.3V86H677.8z"/>
		<path class="st1" d="M681.3,91.2c-0.3-0.2-0.6-0.5-0.8-1c-0.2-0.4-0.3-0.9-0.3-1.5s0.1-1.1,0.3-1.5c0.2-0.4,0.4-0.7,0.8-1
			c0.3-0.2,0.7-0.3,1.1-0.3s0.8,0.1,1.1,0.3c0.3,0.2,0.6,0.5,0.8,1c0.2,0.4,0.3,0.9,0.3,1.5s-0.1,1.1-0.3,1.5
			c-0.2,0.4-0.4,0.7-0.8,1c-0.3,0.2-0.7,0.3-1.1,0.3C682,91.5,681.6,91.4,681.3,91.2z M683.3,90.8c0.3-0.2,0.5-0.5,0.6-0.8
			c0.1-0.4,0.2-0.8,0.2-1.3s-0.1-0.9-0.2-1.3s-0.3-0.6-0.6-0.8c-0.3-0.2-0.6-0.3-0.9-0.3s-0.6,0.1-0.9,0.3c-0.3,0.2-0.5,0.5-0.6,0.8
			c-0.1,0.4-0.2,0.8-0.2,1.3s0.1,0.9,0.2,1.3s0.3,0.6,0.6,0.8c0.3,0.2,0.6,0.3,0.9,0.3S683.1,91,683.3,90.8z"/>
		<path class="st1" d="M687.5,91.2c-0.3-0.2-0.6-0.5-0.8-1c-0.2-0.4-0.3-0.9-0.3-1.5s0.1-1.1,0.3-1.5c0.2-0.4,0.4-0.7,0.8-1
			c0.3-0.2,0.7-0.3,1.1-0.3s0.8,0.1,1.1,0.3c0.3,0.2,0.6,0.5,0.8,1c0.2,0.4,0.3,0.9,0.3,1.5s-0.1,1.1-0.3,1.5
			c-0.2,0.4-0.4,0.7-0.8,1c-0.3,0.2-0.7,0.3-1.1,0.3C688.2,91.5,687.9,91.4,687.5,91.2z M689.6,90.8c0.3-0.2,0.5-0.5,0.6-0.8
			c0.1-0.4,0.2-0.8,0.2-1.3s-0.1-0.9-0.2-1.3s-0.3-0.6-0.6-0.8c-0.3-0.2-0.6-0.3-0.9-0.3s-0.6,0.1-0.9,0.3c-0.3,0.2-0.5,0.5-0.6,0.8
			c-0.1,0.4-0.2,0.8-0.2,1.3s0.1,0.9,0.2,1.3s0.3,0.6,0.6,0.8c0.3,0.2,0.6,0.3,0.9,0.3S689.3,91,689.6,90.8z"/>
		<path class="st1" d="M694.1,86v5.5h-0.4v-5.1h-1.3V86H694.1z"/>
		<path class="st1" d="M697.6,91.2c-0.3-0.2-0.6-0.5-0.8-1c-0.2-0.4-0.3-0.9-0.3-1.5s0.1-1.1,0.3-1.5c0.2-0.4,0.4-0.7,0.8-1
			c0.3-0.2,0.7-0.3,1.1-0.3s0.8,0.1,1.1,0.3c0.3,0.2,0.6,0.5,0.8,1c0.2,0.4,0.3,0.9,0.3,1.5s-0.1,1.1-0.3,1.5
			c-0.2,0.4-0.4,0.7-0.8,1c-0.3,0.2-0.7,0.3-1.1,0.3C698.3,91.5,697.9,91.4,697.6,91.2z M699.6,90.8c0.3-0.2,0.5-0.5,0.6-0.8
			c0.1-0.4,0.2-0.8,0.2-1.3s-0.1-0.9-0.2-1.3s-0.3-0.6-0.6-0.8c-0.3-0.2-0.6-0.3-0.9-0.3s-0.6,0.1-0.9,0.3c-0.3,0.2-0.5,0.5-0.6,0.8
			c-0.1,0.4-0.2,0.8-0.2,1.3s0.1,0.9,0.2,1.3s0.3,0.6,0.6,0.8c0.3,0.2,0.6,0.3,0.9,0.3C699.1,91.1,699.4,91,699.6,90.8z"/>
		<path class="st1" d="M704.2,86v5.5h-0.4v-5.1h-1.3V86H704.2z"/>
		<path class="st1" d="M707.7,91.2c-0.3-0.2-0.6-0.5-0.8-1c-0.2-0.4-0.3-0.9-0.3-1.5s0.1-1.1,0.3-1.5c0.2-0.4,0.4-0.7,0.8-1
			c0.3-0.2,0.7-0.3,1.1-0.3s0.8,0.1,1.1,0.3c0.3,0.2,0.6,0.5,0.8,1c0.2,0.4,0.3,0.9,0.3,1.5s-0.1,1.1-0.3,1.5
			c-0.2,0.4-0.4,0.7-0.8,1c-0.3,0.2-0.7,0.3-1.1,0.3C708.4,91.5,708,91.4,707.7,91.2z M709.7,90.8c0.3-0.2,0.5-0.5,0.6-0.8
			c0.1-0.4,0.2-0.8,0.2-1.3s-0.1-0.9-0.2-1.3s-0.3-0.6-0.6-0.8c-0.3-0.2-0.6-0.3-0.9-0.3s-0.6,0.1-0.9,0.3c-0.3,0.2-0.5,0.5-0.6,0.8
			c-0.1,0.4-0.2,0.8-0.2,1.3s0.1,0.9,0.2,1.3s0.3,0.6,0.6,0.8c0.3,0.2,0.6,0.3,0.9,0.3S709.5,91,709.7,90.8z"/>
		<path class="st1" d="M713.9,91.2c-0.3-0.2-0.6-0.5-0.8-1c-0.2-0.4-0.3-0.9-0.3-1.5s0.1-1.1,0.3-1.5c0.2-0.4,0.4-0.7,0.8-1
			c0.3-0.2,0.7-0.3,1.1-0.3s0.8,0.1,1.1,0.3c0.3,0.2,0.6,0.5,0.8,1c0.2,0.4,0.3,0.9,0.3,1.5s-0.1,1.1-0.3,1.5
			c-0.2,0.4-0.4,0.7-0.8,1c-0.3,0.2-0.7,0.3-1.1,0.3C714.6,91.5,714.3,91.4,713.9,91.2z M715.9,90.8c0.3-0.2,0.5-0.5,0.6-0.8
			c0.1-0.4,0.2-0.8,0.2-1.3s-0.1-0.9-0.2-1.3s-0.3-0.6-0.6-0.8c-0.3-0.2-0.6-0.3-0.9-0.3s-0.6,0.1-0.9,0.3c-0.3,0.2-0.5,0.5-0.6,0.8
			c-0.1,0.4-0.2,0.8-0.2,1.3s0.1,0.9,0.2,1.3s0.3,0.6,0.6,0.8c0.3,0.2,0.6,0.3,0.9,0.3C715.4,91.1,715.7,91,715.9,90.8z"/>
		<path class="st1" d="M720.2,91.2c-0.3-0.2-0.6-0.5-0.8-1c-0.2-0.4-0.3-0.9-0.3-1.5s0.1-1.1,0.3-1.5c0.2-0.4,0.4-0.7,0.8-1
			c0.3-0.2,0.7-0.3,1.1-0.3s0.8,0.1,1.1,0.3c0.3,0.2,0.6,0.5,0.8,1c0.2,0.4,0.3,0.9,0.3,1.5s-0.1,1.1-0.3,1.5
			c-0.2,0.4-0.4,0.7-0.8,1c-0.3,0.2-0.7,0.3-1.1,0.3C720.9,91.5,720.5,91.4,720.2,91.2z M722.2,90.8c0.3-0.2,0.5-0.5,0.6-0.8
			c0.1-0.4,0.2-0.8,0.2-1.3s-0.1-0.9-0.2-1.3s-0.3-0.6-0.6-0.8c-0.3-0.2-0.6-0.3-0.9-0.3s-0.6,0.1-0.9,0.3c-0.3,0.2-0.5,0.5-0.6,0.8
			c-0.1,0.4-0.2,0.8-0.2,1.3s0.1,0.9,0.2,1.3s0.3,0.6,0.6,0.8c0.3,0.2,0.6,0.3,0.9,0.3S721.9,91,722.2,90.8z"/>
		<path class="st1" d="M726.4,91.2c-0.3-0.2-0.6-0.5-0.8-1c-0.2-0.4-0.3-0.9-0.3-1.5s0.1-1.1,0.3-1.5c0.2-0.4,0.4-0.7,0.8-1
			c0.3-0.2,0.7-0.3,1.1-0.3s0.8,0.1,1.1,0.3c0.3,0.2,0.6,0.5,0.8,1c0.2,0.4,0.3,0.9,0.3,1.5s-0.1,1.1-0.3,1.5
			c-0.2,0.4-0.4,0.7-0.8,1c-0.3,0.2-0.7,0.3-1.1,0.3C727.1,91.5,726.7,91.4,726.4,91.2z M728.4,90.8c0.3-0.2,0.5-0.5,0.6-0.8
			c0.1-0.4,0.2-0.8,0.2-1.3s-0.1-0.9-0.2-1.3s-0.3-0.6-0.6-0.8c-0.3-0.2-0.6-0.3-0.9-0.3s-0.6,0.1-0.9,0.3c-0.3,0.2-0.5,0.5-0.6,0.8
			c-0.1,0.4-0.2,0.8-0.2,1.3s0.1,0.9,0.2,1.3s0.3,0.6,0.6,0.8c0.3,0.2,0.6,0.3,0.9,0.3S728.1,91,728.4,90.8z"/>
		<path class="st1" d="M732.6,91.2c-0.3-0.2-0.6-0.5-0.8-1c-0.2-0.4-0.3-0.9-0.3-1.5s0.1-1.1,0.3-1.5c0.2-0.4,0.4-0.7,0.8-1
			c0.3-0.2,0.7-0.3,1.1-0.3s0.8,0.1,1.1,0.3c0.3,0.2,0.6,0.5,0.8,1c0.2,0.4,0.3,0.9,0.3,1.5s-0.1,1.1-0.3,1.5
			c-0.2,0.4-0.4,0.7-0.8,1c-0.3,0.2-0.7,0.3-1.1,0.3C733.3,91.5,732.9,91.4,732.6,91.2z M734.6,90.8c0.3-0.2,0.5-0.5,0.6-0.8
			c0.1-0.4,0.2-0.8,0.2-1.3s-0.1-0.9-0.2-1.3s-0.3-0.6-0.6-0.8c-0.3-0.2-0.6-0.3-0.9-0.3s-0.6,0.1-0.9,0.3c-0.3,0.2-0.5,0.5-0.6,0.8
			c-0.1,0.4-0.2,0.8-0.2,1.3s0.1,0.9,0.2,1.3s0.3,0.6,0.6,0.8c0.3,0.2,0.6,0.3,0.9,0.3C734.1,91.1,734.4,91,734.6,90.8z"/>
		<path class="st1" d="M739.2,86v5.5h-0.4v-5.1h-1.3V86H739.2z"/>
	</g>
	<g>
		<path class="st1" d="M745.8,89.9c-0.9,0-1.1,0-2-0.1l-2.1-0.1V87h1.8c7.1,0.9,15.9-2.5,21.2-5.6c6.6-3.9,11.7-10,13.8-16.6
			c1.8-5.8,1.7-12.6-0.3-19.9c-2.1-7.4-5.6-13.4-10.3-17.3c-8.9-7.6-21.7-7.9-30.5-7.5h-0.3l-0.1-2.8l1.4-0.1
			c18.2-0.8,26.6,4.3,31.2,8.2c5.1,4.3,9,10.8,11.2,18.7c2.2,7.7,2.2,15.2,0.2,21.4c-2.3,7.3-7.8,13.9-15,18.1
			C761,86.7,753,89.9,745.8,89.9z"/>
	</g>
	<path class="st1" d="M720.2,20.6v-3.7h-3V13h-8.3v11.5h8.3v-3.9H720.2z M712.6,22.9h-2.8V22h2.8V22.9z M712.6,21.1h-2.8v-0.9h2.8
		V21.1z M712.6,19.2h-2.8v-0.9h2.8V19.2z M712.6,17.4h-2.8v-0.9h2.8V17.4z M712.6,15.5h-2.8v-0.9h2.8V15.5z"/>
	<polygon class="st1" points="737.8,13 737.8,24.5 735.5,24.5 735.5,22.2 733.6,22.2 733.6,25 731.8,25 731.8,22.2 729.5,22.2 
		729.5,26.1 727.7,26.1 727.7,22.2 725.4,22.2 725.4,26.3 718.5,26.3 718.5,21.1 720.6,21.1 720.6,16.5 718.5,16.5 718.5,11.2 
		725.4,11.2 725.4,15.3 727.7,15.3 727.7,11.4 729.5,11.4 729.5,15.3 731.8,15.3 731.8,12.6 733.6,12.6 733.6,15.3 735.5,15.3 
		735.5,13 	"/>
	<rect x="709.8" y="20.2" class="st2" width="2.8" height="0.9"/>
	<rect x="709.8" y="18.3" class="st2" width="2.8" height="0.9"/>
	<rect x="709.8" y="14.6" class="st2" width="2.8" height="0.9"/>
	<rect x="709.8" y="16.5" class="st2" width="2.8" height="0.9"/>
	<rect x="709.8" y="22" class="st2" width="2.8" height="0.9"/>
	<path class="st1" d="M560.5,81.5h-2.7c-3.2,0-5.8,2.6-5.8,5.8v2.3c0,3.2,2.6,5.8,5.8,5.8h2.7c3.2,0,5.7-2.6,5.8-5.8v-2.3
		C566.3,84.1,563.7,81.5,560.5,81.5z M564.1,91.7H562l0.1,1.6h-6v-1.6H554v-8.3h10.1V91.7z"/>
	<polygon class="st1" points="556.6,92.9 561.6,92.9 561.6,91.3 563.7,91.3 563.7,84 563.1,84 563.1,85.7 562.2,85.7 562.2,84 
		561.3,84 561.3,85.7 560.4,85.7 560.4,84 559.6,84 559.6,85.7 558.7,85.7 558.7,84 557.9,84 557.9,85.7 557,85.7 557,84 556.1,84 
		556.1,85.7 555.2,85.7 555.2,84 554.5,84 554.5,91.3 556.6,91.3 	"/>
	<g>
		<path class="st1" d="M689.8,37.9c-0.6-0.3-1.1-0.8-1.4-1.4c-0.3-0.6-0.5-1.2-0.5-2c0-0.7,0.2-1.4,0.5-2c0.3-0.6,0.8-1,1.4-1.4
			c0.6-0.3,1.3-0.5,2-0.5c0.6,0,1.2,0.1,1.7,0.3s0.9,0.5,1.3,0.9l-0.9,0.8c-0.5-0.6-1.2-0.9-2-0.9c-0.5,0-1,0.1-1.4,0.3
			c-0.4,0.2-0.7,0.5-0.9,0.9c-0.2,0.4-0.3,0.8-0.3,1.3s0.1,0.9,0.3,1.3c0.2,0.4,0.5,0.7,0.9,0.9s0.9,0.3,1.4,0.3
			c0.8,0,1.4-0.3,2-0.9l0.9,0.8c-0.3,0.4-0.8,0.7-1.3,0.9s-1.1,0.3-1.7,0.3C691,38.4,690.4,38.3,689.8,37.9z"/>
		<path class="st1" d="M696.5,38c-0.5-0.2-0.8-0.6-1.1-1c-0.3-0.4-0.4-0.9-0.4-1.5s0.1-1.1,0.4-1.5s0.6-0.8,1.1-1s1-0.4,1.5-0.4
			c0.6,0,1.1,0.1,1.6,0.4c0.5,0.2,0.8,0.6,1.1,1c0.3,0.4,0.4,0.9,0.4,1.5s-0.1,1.1-0.4,1.5s-0.6,0.8-1.1,1s-1,0.4-1.6,0.4
			C697.5,38.4,696.9,38.3,696.5,38z M699.2,36.8c0.3-0.3,0.5-0.7,0.5-1.3c0-0.5-0.2-1-0.5-1.3s-0.7-0.5-1.2-0.5s-0.9,0.2-1.2,0.5
			c-0.3,0.3-0.5,0.7-0.5,1.3c0,0.5,0.2,1,0.5,1.3s0.7,0.5,1.2,0.5S698.9,37.1,699.2,36.8z"/>
		<path class="st1" d="M703.1,38c-0.5-0.2-0.8-0.6-1.1-1c-0.3-0.4-0.4-0.9-0.4-1.5s0.1-1.1,0.4-1.5s0.6-0.8,1.1-1s1-0.4,1.5-0.4
			c0.6,0,1.1,0.1,1.6,0.4c0.5,0.2,0.8,0.6,1.1,1c0.3,0.4,0.4,0.9,0.4,1.5s-0.1,1.1-0.4,1.5s-0.6,0.8-1.1,1s-1,0.4-1.6,0.4
			C704,38.4,703.5,38.3,703.1,38z M705.8,36.8c0.3-0.3,0.5-0.7,0.5-1.3c0-0.5-0.2-1-0.5-1.3s-0.7-0.5-1.2-0.5s-0.9,0.2-1.2,0.5
			c-0.3,0.3-0.5,0.7-0.5,1.3c0,0.5,0.2,1,0.5,1.3s0.7,0.5,1.2,0.5C705.1,37.3,705.5,37.1,705.8,36.8z"/>
		<path class="st1" d="M711.9,32.6v1.3c-0.1,0-0.2,0-0.3,0c-0.5,0-0.9,0.1-1.2,0.4c-0.3,0.3-0.4,0.7-0.4,1.3v2.7h-1.3v-5.6h1.3v0.8
			C710.3,32.9,711,32.6,711.9,32.6z"/>
		<path class="st1" d="M718.3,30.5v7.8H717v-0.7c-0.2,0.3-0.5,0.5-0.8,0.6s-0.7,0.2-1.1,0.2c-0.5,0-1-0.1-1.5-0.4
			c-0.4-0.2-0.8-0.6-1-1s-0.4-0.9-0.4-1.5s0.1-1.1,0.4-1.5c0.2-0.4,0.6-0.8,1-1s0.9-0.4,1.5-0.4c0.4,0,0.7,0.1,1,0.2
			c0.3,0.1,0.6,0.3,0.8,0.6v-2.9C716.9,30.5,718.3,30.5,718.3,30.5z M716.2,37.1c0.3-0.1,0.5-0.3,0.6-0.6s0.2-0.6,0.2-0.9
			c0-0.4-0.1-0.7-0.2-0.9c-0.1-0.3-0.3-0.5-0.6-0.6c-0.3-0.1-0.5-0.2-0.9-0.2c-0.3,0-0.6,0.1-0.9,0.2c-0.3,0.1-0.5,0.3-0.6,0.6
			s-0.2,0.6-0.2,0.9c0,0.4,0.1,0.7,0.2,0.9c0.1,0.3,0.3,0.5,0.6,0.6c0.3,0.1,0.5,0.2,0.9,0.2S715.9,37.2,716.2,37.1z"/>
		<path class="st1" d="M719.9,31.5c-0.2-0.2-0.2-0.3-0.2-0.6s0.1-0.4,0.2-0.6c0.2-0.2,0.4-0.2,0.6-0.2s0.4,0.1,0.6,0.2
			c0.2,0.1,0.2,0.3,0.2,0.5s-0.1,0.4-0.2,0.6c-0.2,0.2-0.4,0.2-0.6,0.2C720.3,31.8,720.1,31.7,719.9,31.5z M719.8,32.7h1.3v5.6h-1.3
			V32.7z"/>
		<path class="st1" d="M727.6,33.2c0.4,0.4,0.6,1,0.6,1.8v3.3h-1.3v-3c0-0.5-0.1-0.9-0.3-1.1c-0.2-0.2-0.6-0.4-1-0.4
			c-0.5,0-0.9,0.1-1.2,0.4s-0.4,0.7-0.4,1.3v2.8h-1.3v-5.6h1.3v0.7c0.2-0.3,0.5-0.5,0.8-0.6s0.7-0.2,1.1-0.2
			C726.6,32.6,727.1,32.8,727.6,33.2z"/>
		<path class="st1" d="M733.7,33.2c0.4,0.4,0.7,1,0.7,1.8v3.3h-1.2v-0.7c-0.2,0.2-0.4,0.4-0.7,0.6c-0.3,0.1-0.7,0.2-1.1,0.2
			s-0.8-0.1-1.1-0.2c-0.3-0.1-0.6-0.3-0.7-0.6c-0.2-0.3-0.3-0.5-0.3-0.9c0-0.5,0.2-0.9,0.6-1.2s1-0.5,1.8-0.5h1.5v-0.1
			c0-0.4-0.1-0.7-0.4-0.9c-0.2-0.2-0.6-0.3-1-0.3c-0.3,0-0.6,0-0.9,0.1s-0.6,0.2-0.8,0.4l-0.5-1c0.3-0.2,0.7-0.4,1.1-0.5
			s0.9-0.2,1.3-0.2C732.7,32.6,733.3,32.8,733.7,33.2z M732.5,37.2c0.3-0.2,0.4-0.4,0.5-0.6v-0.7h-1.4c-0.8,0-1.1,0.2-1.1,0.7
			c0,0.2,0.1,0.4,0.3,0.6c0.2,0.1,0.5,0.2,0.8,0.2C732,37.4,732.3,37.4,732.5,37.2z"/>
		<path class="st1" d="M736.9,38c-0.5-0.2-0.8-0.6-1.1-1c-0.3-0.4-0.4-0.9-0.4-1.5s0.1-1.1,0.4-1.5s0.6-0.8,1.1-1s1-0.4,1.6-0.4
			s1,0.1,1.5,0.3c0.4,0.2,0.7,0.5,0.9,1l-1,0.6c-0.2-0.3-0.4-0.5-0.6-0.6s-0.5-0.2-0.8-0.2c-0.5,0-0.9,0.2-1.2,0.5
			c-0.3,0.3-0.5,0.7-0.5,1.3c0,0.5,0.2,1,0.5,1.3s0.7,0.5,1.2,0.5c0.3,0,0.6-0.1,0.8-0.2c0.2-0.1,0.4-0.3,0.6-0.6l1,0.6
			c-0.2,0.4-0.5,0.7-1,1c-0.4,0.2-0.9,0.3-1.5,0.3C737.9,38.4,737.4,38.3,736.9,38z"/>
		<path class="st1" d="M741.9,31.5c-0.2-0.2-0.2-0.3-0.2-0.6s0.1-0.4,0.2-0.6c0.2-0.2,0.4-0.2,0.6-0.2s0.4,0.1,0.6,0.2
			c0.2,0.1,0.2,0.3,0.2,0.5s-0.1,0.4-0.2,0.6c-0.2,0.2-0.4,0.2-0.6,0.2C742.3,31.8,742.1,31.7,741.9,31.5z M741.9,32.7h1.3v5.6h-1.3
			V32.7z"/>
		<path class="st1" d="M745.7,38c-0.5-0.2-0.8-0.6-1.1-1c-0.3-0.4-0.4-0.9-0.4-1.5s0.1-1.1,0.4-1.5s0.6-0.8,1.1-1s1-0.4,1.5-0.4
			c0.6,0,1.1,0.1,1.6,0.4c0.5,0.2,0.8,0.6,1.1,1c0.3,0.4,0.4,0.9,0.4,1.5s-0.1,1.1-0.4,1.5s-0.6,0.8-1.1,1s-1,0.4-1.6,0.4
			C746.7,38.4,746.1,38.3,745.7,38z M748.4,36.8c0.3-0.3,0.5-0.7,0.5-1.3c0-0.5-0.2-1-0.5-1.3s-0.7-0.5-1.2-0.5s-0.9,0.2-1.2,0.5
			c-0.3,0.3-0.5,0.7-0.5,1.3c0,0.5,0.2,1,0.5,1.3s0.7,0.5,1.2,0.5C747.7,37.3,748.1,37.1,748.4,36.8z M747.8,30.5h1.6l-1.8,1.4h-1.1
			L747.8,30.5z"/>
		<path class="st1" d="M756.2,33.2c0.4,0.4,0.6,1,0.6,1.8v3.3h-1.3v-3c0-0.5-0.1-0.9-0.3-1.1c-0.2-0.2-0.6-0.4-1-0.4
			c-0.5,0-0.9,0.1-1.2,0.4c-0.3,0.3-0.4,0.7-0.4,1.3v2.8h-1.3v-5.6h1.3v0.7c0.2-0.3,0.5-0.5,0.8-0.6s0.7-0.2,1.1-0.2
			C755.2,32.6,755.8,32.8,756.2,33.2z"/>
		<path class="st1" d="M693.8,43.2V51h-1.3v-0.7c-0.2,0.3-0.5,0.5-0.8,0.6s-0.7,0.2-1.1,0.2c-0.5,0-1-0.1-1.5-0.4
			c-0.4-0.2-0.8-0.6-1-1s-0.4-0.9-0.4-1.5s0.1-1.1,0.4-1.5c0.2-0.4,0.6-0.8,1-1s0.9-0.4,1.5-0.4c0.4,0,0.7,0.1,1,0.2
			c0.3,0.1,0.6,0.3,0.8,0.6v-2.9C692.4,43.2,693.8,43.2,693.8,43.2z M691.6,49.7c0.3-0.1,0.5-0.3,0.6-0.6s0.2-0.6,0.2-0.9
			c0-0.4-0.1-0.7-0.2-0.9c-0.1-0.3-0.3-0.5-0.6-0.6c-0.3-0.1-0.5-0.2-0.9-0.2c-0.3,0-0.6,0.1-0.9,0.2c-0.3,0.1-0.5,0.3-0.6,0.6
			s-0.2,0.6-0.2,0.9c0,0.4,0.1,0.7,0.2,0.9c0.1,0.3,0.3,0.5,0.6,0.6c0.3,0.1,0.5,0.2,0.9,0.2C691.1,49.9,691.4,49.9,691.6,49.7z"/>
		<path class="st1" d="M700.6,48.6h-4.4c0.1,0.4,0.3,0.7,0.6,1c0.3,0.2,0.7,0.4,1.2,0.4c0.6,0,1.1-0.2,1.5-0.6l0.7,0.8
			c-0.3,0.3-0.6,0.5-1,0.7s-0.8,0.2-1.3,0.2c-0.6,0-1.2-0.1-1.6-0.4c-0.5-0.2-0.8-0.6-1.1-1c-0.3-0.4-0.4-0.9-0.4-1.5
			c0-0.5,0.1-1,0.4-1.5s0.6-0.8,1-1s0.9-0.4,1.5-0.4c0.5,0,1,0.1,1.5,0.4c0.4,0.2,0.8,0.6,1,1s0.4,0.9,0.4,1.5
			C700.6,48.3,700.6,48.4,700.6,48.6z M696.7,46.7c-0.3,0.2-0.5,0.6-0.5,1h3.2c-0.1-0.4-0.2-0.7-0.5-1s-0.6-0.4-1.1-0.4
			C697.3,46.3,696.9,46.5,696.7,46.7z"/>
		<path class="st1" d="M706,44.8h-2.4v-1.2h6.3v1.2h-2.4V51h-1.4L706,44.8L706,44.8z"/>
		<path class="st1" d="M715.2,48.6h-4.4c0.1,0.4,0.3,0.7,0.6,1s0.7,0.4,1.2,0.4c0.6,0,1.1-0.2,1.5-0.6l0.7,0.8
			c-0.3,0.3-0.6,0.5-1,0.7s-0.8,0.2-1.3,0.2c-0.6,0-1.2-0.1-1.6-0.4c-0.5-0.2-0.8-0.6-1.1-1c-0.3-0.4-0.4-0.9-0.4-1.5
			c0-0.5,0.1-1,0.4-1.5s0.6-0.8,1-1s0.9-0.4,1.5-0.4c0.5,0,1,0.1,1.5,0.4c0.4,0.2,0.8,0.6,1,1s0.4,0.9,0.4,1.5
			C715.2,48.3,715.2,48.4,715.2,48.6z M711.3,46.7c-0.3,0.2-0.5,0.6-0.5,1h3.2c-0.1-0.4-0.2-0.7-0.5-1s-0.6-0.4-1.1-0.4
			S711.6,46.5,711.3,46.7z"/>
		<path class="st1" d="M717.3,50.7c-0.5-0.2-0.8-0.6-1.1-1c-0.3-0.4-0.4-0.9-0.4-1.5s0.1-1.1,0.4-1.5s0.6-0.8,1.1-1s1-0.4,1.6-0.4
			s1,0.1,1.5,0.3c0.4,0.2,0.7,0.5,0.9,1l-1,0.6c-0.2-0.3-0.4-0.5-0.6-0.6s-0.5-0.2-0.8-0.2c-0.5,0-0.9,0.2-1.2,0.5
			c-0.3,0.3-0.5,0.7-0.5,1.3c0,0.5,0.2,1,0.5,1.3s0.7,0.5,1.2,0.5c0.3,0,0.6-0.1,0.8-0.2c0.2-0.1,0.4-0.3,0.6-0.6l1,0.6
			c-0.2,0.4-0.5,0.7-1,1c-0.4,0.2-0.9,0.3-1.5,0.3C718.2,51.1,717.7,50.9,717.3,50.7z"/>
		<path class="st1" d="M727.1,45.9c0.4,0.4,0.6,1,0.6,1.8v3.2h-1.3v-3.1c0-0.5-0.1-0.9-0.3-1.1c-0.2-0.2-0.6-0.4-1-0.4
			c-0.5,0-0.9,0.1-1.2,0.4s-0.4,0.7-0.4,1.3v2.8h-1.3v-5.5h1.3V46c0.2-0.3,0.5-0.5,0.8-0.6s0.7-0.2,1.1-0.2
			C726.1,45.3,726.6,45.5,727.1,45.9z"/>
		<path class="st1" d="M730.2,50.7c-0.5-0.2-0.8-0.6-1.1-1c-0.3-0.4-0.4-0.9-0.4-1.5s0.1-1.1,0.4-1.5s0.6-0.8,1.1-1s1-0.4,1.5-0.4
			c0.6,0,1.1,0.1,1.6,0.4c0.5,0.2,0.8,0.6,1.1,1c0.3,0.4,0.4,0.9,0.4,1.5s-0.1,1.1-0.4,1.5s-0.6,0.8-1.1,1s-1,0.4-1.6,0.4
			C731.2,51.1,730.7,50.9,730.2,50.7z M733,49.4c0.3-0.3,0.5-0.7,0.5-1.3c0-0.5-0.2-1-0.5-1.3s-0.7-0.5-1.2-0.5s-0.9,0.2-1.2,0.5
			c-0.3,0.3-0.5,0.7-0.5,1.3c0,0.5,0.2,1,0.5,1.3s0.7,0.5,1.2,0.5S732.7,49.8,733,49.4z"/>
		<path class="st1" d="M735.8,43.2h1.3V51h-1.3V43.2z"/>
		<path class="st1" d="M739.7,50.7c-0.5-0.2-0.8-0.6-1.1-1c-0.3-0.4-0.4-0.9-0.4-1.5s0.1-1.1,0.4-1.5s0.6-0.8,1.1-1s1-0.4,1.5-0.4
			c0.6,0,1.1,0.1,1.6,0.4c0.5,0.2,0.8,0.6,1.1,1c0.3,0.4,0.4,0.9,0.4,1.5s-0.1,1.1-0.4,1.5s-0.6,0.8-1.1,1s-1,0.4-1.6,0.4
			C740.6,51.1,740.1,50.9,739.7,50.7z M742.4,49.4c0.3-0.3,0.5-0.7,0.5-1.3c0-0.5-0.2-1-0.5-1.3s-0.7-0.5-1.2-0.5s-0.9,0.2-1.2,0.5
			c-0.3,0.3-0.5,0.7-0.5,1.3c0,0.5,0.2,1,0.5,1.3s0.7,0.5,1.2,0.5C741.7,49.9,742.1,49.8,742.4,49.4z"/>
		<path class="st1" d="M750.9,45.3v4.8c0,2-1,3-3,3c-0.5,0-1.1-0.1-1.5-0.2c-0.5-0.1-0.9-0.3-1.2-0.6l0.6-1c0.2,0.2,0.6,0.4,0.9,0.5
			c0.4,0.1,0.8,0.2,1.1,0.2c0.6,0,1.1-0.1,1.4-0.4c0.3-0.3,0.4-0.7,0.4-1.3V50c-0.2,0.2-0.5,0.4-0.8,0.6c-0.3,0.1-0.7,0.2-1.1,0.2
			c-0.5,0-1-0.1-1.5-0.3c-0.4-0.2-0.8-0.6-1-1s-0.4-0.9-0.4-1.4s0.1-1,0.4-1.4c0.2-0.4,0.6-0.7,1-1c0.4-0.2,0.9-0.3,1.5-0.3
			c0.4,0,0.8,0.1,1.1,0.2c0.3,0.1,0.6,0.3,0.8,0.6v-0.9H750.9z M749.1,49.2c0.3-0.3,0.5-0.7,0.5-1.2s-0.2-0.9-0.5-1.2
			s-0.7-0.4-1.2-0.4s-0.9,0.1-1.2,0.4c-0.3,0.3-0.5,0.7-0.5,1.2s0.2,0.9,0.5,1.2s0.7,0.4,1.2,0.4C748.3,49.6,748.8,49.5,749.1,49.2z
			"/>
		<path class="st1" d="M753.6,43.1h1.6l-1.8,1.4h-1.1L753.6,43.1z M752.4,45.3h1.3v5.6h-1.3V45.3z"/>
		<path class="st1" d="M759.3,45.9c0.4,0.4,0.7,1,0.7,1.8V51h-1.2v-0.7c-0.2,0.2-0.4,0.4-0.7,0.6c-0.3,0.1-0.7,0.2-1.1,0.2
			s-0.8-0.1-1.1-0.2c-0.3-0.1-0.6-0.3-0.7-0.6c-0.2-0.3-0.3-0.5-0.3-0.9c0-0.5,0.2-0.9,0.6-1.2s1-0.5,1.8-0.5h1.5v-0.1
			c0-0.4-0.1-0.7-0.4-0.9c-0.2-0.2-0.6-0.3-1-0.3c-0.3,0-0.6,0-0.9,0.1s-0.6,0.2-0.8,0.4l-0.5-1c0.3-0.2,0.7-0.4,1.1-0.5
			s0.9-0.2,1.3-0.2C758.2,45.3,758.8,45.5,759.3,45.9z M758.1,49.9c0.3-0.2,0.4-0.4,0.5-0.6v-0.7h-1.4c-0.8,0-1.1,0.2-1.1,0.7
			c0,0.2,0.1,0.4,0.3,0.6c0.2,0.1,0.5,0.2,0.8,0.2C757.5,50.1,757.8,50,758.1,49.9z"/>
		<path class="st1" d="M761.8,50.9c-0.4-0.1-0.8-0.3-1-0.5l0.5-1c0.3,0.2,0.6,0.3,0.9,0.4c0.4,0.1,0.7,0.2,1.1,0.2
			c0.8,0,1.2-0.2,1.2-0.6c0-0.2-0.1-0.3-0.3-0.4c-0.2-0.1-0.5-0.2-1-0.2c-0.5-0.1-0.8-0.2-1.1-0.2c-0.3-0.1-0.5-0.3-0.8-0.5
			c-0.2-0.2-0.3-0.5-0.3-1s0.2-1,0.7-1.3s1-0.5,1.8-0.5c0.4,0,0.8,0,1.2,0.1c0.4,0.1,0.7,0.2,0.9,0.4l-0.5,1c-0.5-0.3-1-0.4-1.6-0.4
			c-0.4,0-0.7,0.1-0.9,0.2c-0.2,0.1-0.3,0.3-0.3,0.5s0.1,0.4,0.3,0.4c0.2,0.1,0.5,0.2,1,0.2c0.4,0.1,0.8,0.2,1.1,0.2
			c0.3,0.1,0.5,0.2,0.7,0.5c0.2,0.2,0.3,0.5,0.3,0.9c0,0.5-0.2,0.9-0.7,1.3c-0.5,0.3-1.1,0.5-1.9,0.5
			C762.7,51.1,762.2,51,761.8,50.9z"/>
		<path class="st1" d="M693.8,55.8v7.8h-1.3v-0.7c-0.2,0.3-0.5,0.5-0.8,0.6s-0.7,0.2-1.1,0.2c-0.5,0-1-0.1-1.5-0.4
			c-0.4-0.2-0.8-0.6-1-1s-0.4-0.9-0.4-1.5s0.1-1.1,0.4-1.5c0.2-0.4,0.6-0.8,1-1s0.9-0.4,1.5-0.4c0.4,0,0.7,0.1,1,0.2
			s0.6,0.3,0.8,0.6v-2.9C692.4,55.8,693.8,55.8,693.8,55.8z M691.6,62.4c0.3-0.1,0.5-0.3,0.6-0.6s0.2-0.6,0.2-0.9s-0.1-0.7-0.2-0.9
			c-0.1-0.3-0.3-0.5-0.6-0.6c-0.3-0.1-0.5-0.2-0.9-0.2c-0.3,0-0.6,0.1-0.9,0.2s-0.5,0.4-0.6,0.6c-0.1,0.3-0.2,0.6-0.2,0.9
			s0.1,0.7,0.2,0.9c0.1,0.3,0.3,0.5,0.6,0.6c0.3,0.1,0.5,0.2,0.9,0.2C691.1,62.6,691.4,62.5,691.6,62.4z"/>
		<path class="st1" d="M700.6,61.3h-4.4c0.1,0.4,0.3,0.7,0.6,1c0.3,0.2,0.7,0.4,1.2,0.4c0.6,0,1.1-0.2,1.5-0.6l0.7,0.8
			c-0.3,0.3-0.6,0.5-1,0.7s-0.8,0.2-1.3,0.2c-0.6,0-1.2-0.1-1.6-0.4c-0.5-0.2-0.8-0.6-1.1-1c-0.3-0.4-0.4-0.9-0.4-1.5
			c0-0.5,0.1-1,0.4-1.5c0.2-0.4,0.6-0.8,1-1s0.9-0.4,1.5-0.4c0.5,0,1,0.1,1.5,0.4c0.4,0.2,0.8,0.6,1,1s0.4,0.9,0.4,1.5
			C700.6,61,700.6,61.1,700.6,61.3z M696.7,59.4c-0.3,0.2-0.5,0.6-0.5,1h3.2c-0.1-0.4-0.2-0.7-0.5-1s-0.6-0.4-1.1-0.4
			C697.3,59,696.9,59.1,696.7,59.4z"/>
		<path class="st1" d="M704.5,56.3h1.4v7.4h-1.4V56.3z"/>
		<path class="st1" d="M712.4,58.6c0.4,0.4,0.6,1,0.6,1.8v3.2h-1.3v-3.1c0-0.5-0.1-0.9-0.3-1.1c-0.2-0.2-0.6-0.4-1-0.4
			c-0.5,0-0.9,0.1-1.2,0.4c-0.3,0.3-0.4,0.7-0.4,1.3v2.8h-1.3v-5.6h1.3v0.7c0.2-0.3,0.5-0.5,0.8-0.6s0.7-0.2,1.1-0.2
			C711.4,57.9,712,58.2,712.4,58.6z"/>
		<path class="st1" d="M716,57.7V58h1.6v1.1h-1.5v4.5h-1.3v-4.5h-0.9V58h0.9v-0.4c0-0.6,0.2-1.1,0.5-1.4c0.4-0.3,0.8-0.5,1.5-0.5
			c0.5,0,0.9,0.1,1.2,0.3l-0.4,1c-0.2-0.2-0.5-0.2-0.7-0.2C716.2,56.8,716,57.1,716,57.7z"/>
		<path class="st1" d="M719.1,63.4c-0.5-0.2-0.8-0.6-1.1-1c-0.3-0.4-0.4-0.9-0.4-1.5s0.1-1.1,0.4-1.5s0.6-0.8,1.1-1s1-0.4,1.5-0.4
			c0.6,0,1.1,0.1,1.6,0.4c0.5,0.2,0.8,0.6,1.1,1c0.3,0.4,0.4,0.9,0.4,1.5s-0.1,1.1-0.4,1.5s-0.6,0.8-1.1,1s-1,0.4-1.6,0.4
			C720.1,63.7,719.6,63.6,719.1,63.4z M721.8,62.1c0.3-0.3,0.5-0.7,0.5-1.3c0-0.5-0.2-1-0.5-1.3s-0.7-0.5-1.2-0.5s-0.9,0.2-1.2,0.5
			c-0.3,0.3-0.5,0.7-0.5,1.3c0,0.5,0.2,1,0.5,1.3s0.7,0.5,1.2,0.5C721.1,62.6,721.5,62.4,721.8,62.1z"/>
		<path class="st1" d="M728,57.9v1.3c-0.1,0-0.2,0-0.3,0c-0.5,0-0.9,0.1-1.2,0.4c-0.3,0.3-0.4,0.7-0.4,1.3v2.7h-1.3V58h1.3v0.8
			C726.3,58.2,727,57.9,728,57.9z"/>
		<path class="st1" d="M737.7,58.6c0.4,0.4,0.6,1,0.6,1.9v3.2H737v-3.1c0-0.5-0.1-0.9-0.3-1.1c-0.2-0.2-0.5-0.4-0.9-0.4
			s-0.8,0.1-1.1,0.4c-0.3,0.3-0.4,0.7-0.4,1.3v2.9H733v-3.1c0-0.5-0.1-0.9-0.3-1.1c-0.2-0.2-0.5-0.4-0.9-0.4c-0.5,0-0.8,0.1-1.1,0.4
			c-0.3,0.3-0.4,0.7-0.4,1.3v2.9H729v-5.6h1.3v0.7c0.2-0.3,0.5-0.4,0.8-0.6c0.3-0.1,0.7-0.2,1.1-0.2s0.8,0.1,1.1,0.2
			c0.3,0.2,0.6,0.4,0.8,0.7c0.2-0.3,0.5-0.5,0.9-0.7s0.8-0.2,1.2-0.2C736.7,57.9,737.3,58.2,737.7,58.6z"/>
		<path class="st1" d="M743.8,58.5c0.4,0.4,0.7,1,0.7,1.8v3.3h-1.2v-0.7c-0.2,0.2-0.4,0.4-0.7,0.6c-0.3,0.1-0.7,0.2-1.1,0.2
			s-0.8-0.1-1.1-0.2c-0.3-0.1-0.6-0.3-0.7-0.6s-0.3-0.5-0.3-0.9c0-0.5,0.2-0.9,0.6-1.2s1-0.5,1.8-0.5h1.5l0,0c0-0.4-0.1-0.7-0.4-0.9
			c-0.2-0.2-0.6-0.3-1-0.3c-0.3,0-0.6,0-0.9,0.1s-0.6,0.2-0.8,0.4l-0.5-1c0.3-0.2,0.7-0.4,1.1-0.5s0.9-0.2,1.3-0.2
			C742.7,57.9,743.4,58.1,743.8,58.5z M742.6,62.5c0.3-0.2,0.4-0.4,0.5-0.6v-0.7h-1.4c-0.8,0-1.1,0.2-1.1,0.7c0,0.2,0.1,0.4,0.3,0.6
			c0.2,0.1,0.5,0.2,0.8,0.2C742.1,62.8,742.4,62.7,742.6,62.5z"/>
		<path class="st1" d="M747,63.4c-0.5-0.2-0.8-0.6-1.1-1c-0.3-0.4-0.4-0.9-0.4-1.5s0.1-1.1,0.4-1.5s0.6-0.8,1.1-1s1-0.4,1.6-0.4
			s1,0.1,1.5,0.3c0.4,0.2,0.7,0.5,0.9,1l-1,0.6c-0.2-0.3-0.4-0.5-0.6-0.6s-0.5-0.2-0.8-0.2c-0.5,0-0.9,0.2-1.2,0.5
			c-0.3,0.3-0.5,0.7-0.5,1.3c0,0.5,0.2,1,0.5,1.3c0.3,0.3,0.7,0.5,1.2,0.5c0.3,0,0.6-0.1,0.8-0.2c0.2-0.1,0.4-0.3,0.6-0.6l1,0.6
			c-0.2,0.4-0.5,0.7-1,1c-0.4,0.2-0.9,0.3-1.5,0.3C748,63.7,747.5,63.6,747,63.4z"/>
		<path class="st1" d="M752,56.9c-0.2-0.2-0.2-0.3-0.2-0.6c0-0.2,0.1-0.4,0.2-0.6c0.2-0.2,0.4-0.2,0.6-0.2s0.4,0.1,0.6,0.2
			c0.2,0.1,0.2,0.3,0.2,0.5s-0.1,0.4-0.2,0.6c-0.2,0.2-0.4,0.2-0.6,0.2C752.4,57.1,752.2,57,752,56.9z M751.9,58h1.3v5.6h-1.3V58z"
			/>
		<path class="st1" d="M755.8,63.4c-0.5-0.2-0.8-0.6-1.1-1c-0.3-0.4-0.4-0.9-0.4-1.5s0.1-1.1,0.4-1.5s0.6-0.8,1.1-1s1-0.4,1.5-0.4
			c0.6,0,1.1,0.1,1.6,0.4c0.5,0.2,0.8,0.6,1.1,1c0.3,0.4,0.4,0.9,0.4,1.5s-0.1,1.1-0.4,1.5s-0.6,0.8-1.1,1s-1,0.4-1.6,0.4
			C756.7,63.7,756.2,63.6,755.8,63.4z M758.5,62.1c0.3-0.3,0.5-0.7,0.5-1.3c0-0.5-0.2-1-0.5-1.3s-0.7-0.5-1.2-0.5s-0.9,0.2-1.2,0.5
			c-0.3,0.3-0.5,0.7-0.5,1.3c0,0.5,0.2,1,0.5,1.3s0.7,0.5,1.2,0.5S758.2,62.4,758.5,62.1z M757.8,55.8h1.6l-1.8,1.4h-1.1L757.8,55.8
			z"/>
		<path class="st1" d="M766.3,58.6c0.4,0.4,0.6,1,0.6,1.8v3.2h-1.3v-3.1c0-0.5-0.1-0.9-0.3-1.1c-0.2-0.2-0.6-0.4-1-0.4
			c-0.5,0-0.9,0.1-1.2,0.4c-0.3,0.3-0.4,0.7-0.4,1.3v2.8h-1.3v-5.6h1.3v0.7c0.2-0.3,0.5-0.5,0.8-0.6s0.7-0.2,1.1-0.2
			C765.3,57.9,765.8,58.2,766.3,58.6z"/>
		<path class="st1" d="M693.2,74.6h-3.7l-0.7,1.7h-1.4l3.3-7.4h1.4l3.3,7.4H694L693.2,74.6z M692.7,73.5l-1.4-3.2l-1.4,3.2H692.7z"
			/>
		<path class="st1" d="M701.4,68.5v7.8h-1.3v-0.7c-0.2,0.3-0.5,0.5-0.8,0.6s-0.7,0.2-1.1,0.2c-0.5,0-1-0.1-1.5-0.4s-0.8-0.6-1-1
			s-0.4-0.9-0.4-1.5s0.1-1.1,0.4-1.5c0.2-0.4,0.6-0.8,1-1s0.9-0.4,1.5-0.4c0.4,0,0.7,0.1,1,0.2s0.6,0.3,0.8,0.6v-2.9
			C700,68.5,701.4,68.5,701.4,68.5z M699.3,75c0.3-0.1,0.5-0.3,0.6-0.6c0.1-0.3,0.2-0.6,0.2-0.9s-0.1-0.7-0.2-0.9
			c-0.1-0.3-0.3-0.5-0.6-0.6c-0.3-0.1-0.5-0.2-0.9-0.2c-0.3,0-0.6,0.1-0.9,0.2s-0.5,0.4-0.6,0.6c-0.1,0.3-0.2,0.6-0.2,0.9
			s0.1,0.7,0.2,0.9c0.1,0.3,0.3,0.5,0.6,0.6c0.3,0.1,0.5,0.2,0.9,0.2C698.7,75.3,699,75.2,699.3,75z"/>
		<path class="st1" d="M711.7,71.2c0.4,0.4,0.6,1,0.6,1.9v3.2H711v-3.1c0-0.5-0.1-0.9-0.3-1.1c-0.2-0.2-0.5-0.4-0.9-0.4
			s-0.8,0.1-1.1,0.4c-0.3,0.3-0.4,0.7-0.4,1.3v2.9H707v-3.1c0-0.5-0.1-0.9-0.3-1.1c-0.2-0.2-0.5-0.4-0.9-0.4c-0.5,0-0.8,0.1-1.1,0.4
			c-0.3,0.3-0.4,0.7-0.4,1.3v2.9H703v-5.6h1.3v0.7c0.2-0.3,0.5-0.4,0.8-0.6c0.3-0.1,0.7-0.2,1.1-0.2s0.8,0.1,1.1,0.2
			c0.3,0.2,0.6,0.4,0.8,0.7c0.2-0.3,0.5-0.5,0.9-0.7s0.8-0.2,1.2-0.2C710.7,70.6,711.3,70.8,711.7,71.2z"/>
		<path class="st1" d="M713.9,69.5c-0.2-0.2-0.2-0.3-0.2-0.6c0-0.2,0.1-0.4,0.2-0.6c0.2-0.2,0.4-0.2,0.6-0.2s0.4,0.1,0.6,0.2
			s0.2,0.3,0.2,0.5s-0.1,0.4-0.2,0.6c-0.2,0.2-0.4,0.2-0.6,0.2C714.2,69.7,714,69.7,713.9,69.5z M713.8,70.7h1.3v5.6h-1.3V70.7z"/>
		<path class="st1" d="M721.6,71.2c0.4,0.4,0.6,1,0.6,1.8v3.3h-1.3v-3.1c0-0.5-0.1-0.9-0.3-1.1c-0.2-0.2-0.6-0.4-1-0.4
			c-0.5,0-0.9,0.1-1.2,0.4c-0.3,0.3-0.4,0.7-0.4,1.3v2.9h-1.3v-5.6h1.3v0.7c0.2-0.3,0.5-0.5,0.8-0.6s0.7-0.2,1.1-0.2
			C720.6,70.6,721.1,70.8,721.6,71.2z"/>
		<path class="st1" d="M723.7,69.5c-0.2-0.2-0.2-0.3-0.2-0.6c0-0.2,0.1-0.4,0.2-0.6c0.2-0.2,0.4-0.2,0.6-0.2s0.4,0.1,0.6,0.2
			s0.2,0.3,0.2,0.5s-0.1,0.4-0.2,0.6c-0.2,0.2-0.4,0.2-0.6,0.2C724.1,69.7,723.9,69.7,723.7,69.5z M723.7,70.7h1.3v5.6h-1.3V70.7z"
			/>
		<path class="st1" d="M726.9,76.2c-0.4-0.1-0.8-0.3-1-0.5l0.5-1c0.3,0.2,0.6,0.3,0.9,0.4c0.4,0.1,0.7,0.2,1.1,0.2
			c0.8,0,1.2-0.2,1.2-0.6c0-0.2-0.1-0.3-0.3-0.4c-0.2-0.1-0.5-0.2-1-0.2c-0.5-0.1-0.8-0.2-1.1-0.2c-0.3-0.1-0.5-0.3-0.8-0.5
			s-0.3-0.5-0.3-1s0.2-1,0.7-1.3c0.4-0.3,1-0.5,1.8-0.5c0.4,0,0.8,0,1.2,0.1c0.4,0.1,0.7,0.2,0.9,0.4l-0.5,1c-0.5-0.3-1-0.4-1.6-0.4
			c-0.4,0-0.7,0.1-0.9,0.2c-0.2,0.1-0.3,0.3-0.3,0.5s0.1,0.4,0.3,0.4c0.2,0.1,0.5,0.2,1,0.2c0.4,0.1,0.8,0.2,1.1,0.2
			c0.3,0.1,0.5,0.2,0.7,0.5c0.2,0.2,0.3,0.5,0.3,0.9c0,0.5-0.2,0.9-0.7,1.3s-1.1,0.5-1.9,0.5C727.8,76.4,727.3,76.3,726.9,76.2z"/>
		<path class="st1" d="M735.1,76c-0.2,0.1-0.3,0.2-0.6,0.3c-0.2,0.1-0.5,0.1-0.7,0.1c-0.6,0-1.1-0.2-1.4-0.5s-0.5-0.8-0.5-1.4v-2.7
			H731v-1.1h0.9v-1.3h1.3v1.3h1.5v1.1h-1.5v2.7c0,0.3,0.1,0.5,0.2,0.6s0.3,0.2,0.6,0.2c0.3,0,0.5-0.1,0.7-0.2L735.1,76z"/>
		<path class="st1" d="M739.3,70.6v1.3c-0.1,0-0.2,0-0.3,0c-0.5,0-0.9,0.1-1.2,0.4s-0.4,0.7-0.4,1.3v2.7h-1.3v-5.6h1.3v0.8
			C737.6,70.9,738.3,70.6,739.3,70.6z"/>
		<path class="st1" d="M744.2,71.2c0.4,0.4,0.7,1,0.7,1.8v3.3h-1.2v-0.7c-0.2,0.2-0.4,0.4-0.7,0.6c-0.3,0.1-0.7,0.2-1.1,0.2
			s-0.8-0.1-1.1-0.2c-0.3-0.1-0.6-0.3-0.7-0.6s-0.3-0.5-0.3-0.9c0-0.5,0.2-0.9,0.6-1.2c0.4-0.3,1-0.5,1.8-0.5h1.5v-0.1
			c0-0.4-0.1-0.7-0.4-0.9c-0.2-0.2-0.6-0.3-1-0.3c-0.3,0-0.6,0-0.9,0.1s-0.6,0.2-0.8,0.4l-0.5-1c0.3-0.2,0.7-0.4,1.1-0.5
			s0.9-0.2,1.3-0.2C743.1,70.6,743.8,70.8,744.2,71.2z M743,75.2c0.3-0.2,0.4-0.4,0.5-0.6v-0.7h-1.4c-0.8,0-1.1,0.2-1.1,0.7
			c0,0.2,0.1,0.4,0.3,0.6c0.2,0.1,0.5,0.2,0.8,0.2C742.4,75.4,742.7,75.3,743,75.2z"/>
		<path class="st1" d="M749.7,76c-0.2,0.1-0.3,0.2-0.6,0.3c-0.2,0.1-0.5,0.1-0.7,0.1c-0.6,0-1.1-0.2-1.4-0.5s-0.5-0.8-0.5-1.4v-2.7
			h-0.9v-1.1h0.9v-1.3h1.3v1.3h1.5v1.1h-1.5v2.7c0,0.3,0.1,0.5,0.2,0.6s0.3,0.2,0.6,0.2c0.3,0,0.5-0.1,0.7-0.2L749.7,76z"/>
		<path class="st1" d="M750.7,69.5c-0.2-0.2-0.2-0.3-0.2-0.6c0-0.2,0.1-0.4,0.2-0.6c0.2-0.2,0.4-0.2,0.6-0.2s0.4,0.1,0.6,0.2
			s0.2,0.3,0.2,0.5s-0.1,0.4-0.2,0.6c-0.2,0.2-0.4,0.2-0.6,0.2C751,69.7,750.8,69.7,750.7,69.5z M750.6,70.7h1.3v5.6h-1.3V70.7z"/>
		<path class="st1" d="M758.7,70.7l-2.4,5.6h-1.4l-2.4-5.6h1.4l1.8,4.2l1.8-4.2H758.7z"/>
		<path class="st1" d="M763.2,71.2c0.4,0.4,0.7,1,0.7,1.8v3.3h-1.2v-0.7c-0.2,0.2-0.4,0.4-0.7,0.6c-0.3,0.1-0.7,0.2-1.1,0.2
			s-0.8-0.1-1.1-0.2c-0.3-0.1-0.6-0.3-0.7-0.6s-0.3-0.5-0.3-0.9c0-0.5,0.2-0.9,0.6-1.2c0.4-0.3,1-0.5,1.8-0.5h1.5v-0.1
			c0-0.4-0.1-0.7-0.4-0.9c-0.2-0.2-0.6-0.3-1-0.3c-0.3,0-0.6,0-0.9,0.1s-0.6,0.2-0.8,0.4l-0.5-1c0.3-0.2,0.7-0.4,1.1-0.5
			s0.9-0.2,1.3-0.2C762.1,70.6,762.8,70.8,763.2,71.2z M762,75.2c0.3-0.2,0.4-0.4,0.5-0.6v-0.7h-1.4c-0.8,0-1.1,0.2-1.1,0.7
			c0,0.2,0.1,0.4,0.3,0.6c0.2,0.1,0.5,0.2,0.8,0.2C761.4,75.4,761.7,75.3,762,75.2z"/>
	</g>
</g>
</svg>
