<?xml version="1.0" encoding="utf-8"?>
<!-- Generator: Adobe Illustrator 23.0.1, SVG Export Plug-In . SVG Version: 6.00 Build 0)  -->
<svg version="1.1" id="Capa_1" xmlns="http://www.w3.org/2000/svg" xmlns:xlink="http://www.w3.org/1999/xlink" x="0px" y="0px"
	 viewBox="0 0 512 512" style="enable-background:new 0 0 512 512;" xml:space="preserve">
<style type="text/css">
	.st0{fill:#000333;}
	.st1{clip-path:url(#SVGID_2_);fill:none;}
	.st2{clip-path:url(#SVGID_2_);}
	.st3{fill:#CD2F8A;}
	.st4{fill:none;}
	.st5{clip-path:url(#SVGID_4_);fill:none;}
	.st6{clip-path:url(#SVGID_4_);}
	.st7{clip-path:url(#SVGID_6_);}
	.st8{clip-path:url(#SVGID_8_);fill:#000333;}
	.st9{clip-path:url(#SVGID_10_);}
	.st10{clip-path:url(#SVGID_12_);fill:#000333;}
</style>
<g>
	<path class="st0" d="M239.5,461.2c-54.6,0-105.9-21.2-144.9-60.2S34.4,310.6,34.4,256s21.2-105.9,60.2-144.9s90.3-60.2,144.9-60.2
		S345.5,72,384.5,111.1c80.3,80.3,80.3,209.6,0,289.9C345.5,440,294.2,461.2,239.5,461.2z M239.5,73.1c-49.1,0-94.8,19-129.3,53.5
		S56.7,206.9,56.7,256s19,94.8,53.5,129.3s80.3,53.5,129.3,53.5s94.8-19,129.3-53.5c71.4-71.4,71.4-187.3,0-258.7
		C334.3,92.1,288.6,73.1,239.5,73.1z"/>
</g>
<g>
	<defs>
		<circle id="SVGID_9_" cx="239.5" cy="256" r="159.9"/>
	</defs>
	<clipPath id="SVGID_2_">
		<use xlink:href="#SVGID_9_"  style="overflow:visible;"/>
	</clipPath>
	<g class="st2">
		<g>
			<path class="st3" d="M343.2,330.4c-20.3,0-37.1-16.8-37.1-37.1s16.8-37.1,37.1-37.1c20.3,0,37.1,16.8,37.1,37.1
				C380.4,313.6,364.3,330.4,343.2,330.4z M343.2,270.1c-12.6,0-23.1,10.5-23.1,23.1c0,12.6,10.5,23.1,23.1,23.1
				c12.6,0,23.1-10.5,23.1-23.1C366.4,280.6,356.5,270.1,343.2,270.1z"/>
			<g>
				<path class="st3" d="M403.5,389.9H284.4c-4.2,0-7-2.8-7-7c0-36.4,30.1-66.6,66.6-66.6s66.6,30.1,66.6,66.6
					C410.5,387.1,407,389.9,403.5,389.9z M291.4,375.9h104.4c-3.5-25.9-25.2-45.5-52.5-45.5C315.9,330.4,294.9,350,291.4,375.9z"/>
			</g>
		</g>
		<path class="st0" d="M218.3,193.8c0-2.9-2.3-5.2-5.2-5.2h-23.9l-8.9-8.9c-1-1-2.3-1.5-3.7-1.5h-26c-2.9,0-5.2,2.3-5.2,5.2v52.1
			c0,2.9,2.3,5.2,5.2,5.2h62.5c2.9,0,5.2-2.3,5.2-5.2V193.8z M207.9,230.3h-52.1v-41.6h18.7l8.9,8.9c1,1,2.3,1.5,3.7,1.5h20.8V230.3
			z M207.9,230.3"/>
		<path class="st0" d="M218.3,286.6c0-2.9-2.3-5.2-5.2-5.2h-23.9l-8.9-8.9c-1-1-2.3-1.5-3.7-1.5h-26c-2.9,0-5.2,2.3-5.2,5.2v52.1
			c0,2.9,2.3,5.2,5.2,5.2h62.5c2.9,0,5.2-2.3,5.2-5.2V286.6z M207.9,323h-52.1v-41.6h18.7l8.9,8.9c1,1,2.3,1.5,3.7,1.5h20.8V323z
			 M207.9,323"/>
		<path class="st0" d="M256.1,323v-41.6h18.7l8.9,8.9c1,1,2.3,1.5,3.7,1.5h7.8c0-3.5,0-6.9,0-10.4h-5.6l-8.9-8.9
			c-1-1-2.3-1.5-3.7-1.5h-26c-2.9,0-5.2,2.3-5.2,5.2v52.1c0,2.9,2.3,5.2,5.2,5.2h29.2c0-3.7,0-6.6,0-10.4H256.1z"/>
		<path class="st0" d="M318.5,193.8c0-2.9-2.3-5.2-5.2-5.2h-23.9l-8.9-8.9c-1-1-2.3-1.5-3.7-1.5h-26c-2.9,0-5.2,2.3-5.2,5.2v52.1
			c0,2.9,2.3,5.2,5.2,5.2h62.5c2.9,0,5.2-2.3,5.2-5.2V193.8z M308.1,230.3h-52.1v-41.6h18.7l8.9,8.9c1,1,2.3,1.5,3.7,1.5h20.8V230.3
			z M308.1,230.3"/>
		<g>
			<g>
				<defs>
					<rect id="SVGID_11_" x="106.5" y="116.4" width="288.2" height="279.3"/>
				</defs>
				<clipPath id="SVGID_4_">
					<use xlink:href="#SVGID_11_"  style="overflow:visible;"/>
				</clipPath>
				<path style="clip-path:url(#SVGID_4_);fill:#000333;" d="M129.7,367.5h120.9v-9.3H129.7c-7.7,0-13.9-6.2-13.9-13.9V139.6
					c0-7.7,6.2-13.9,13.9-13.9h204.6c7.7,0,13.9,6.2,13.9,13.9v106.9h9.3V139.6c0-12.8-10.4-23.2-23.2-23.2H129.7
					c-12.8,0-23.2,10.4-23.2,23.2v204.6C106.5,357.1,116.9,367.5,129.7,367.5L129.7,367.5z M129.7,367.5"/>
			</g>
			<rect x="125.1" y="135" class="st0" width="9.3" height="9.3"/>
			<rect x="143.7" y="135" class="st0" width="9.3" height="9.3"/>
			<rect x="162.3" y="135" class="st0" width="9.3" height="9.3"/>
			<rect x="125.1" y="153.6" class="st0" width="213.9" height="9.3"/>
		</g>
	</g>
</g>
</svg>
