<?xml version="1.0" encoding="iso-8859-1"?>
<!-- Generator: Adobe Illustrator 23.0.1, SVG Export Plug-In . SVG Version: 6.00 Build 0)  -->
<svg version="1.1" id="Capa_1" xmlns="http://www.w3.org/2000/svg" xmlns:xlink="http://www.w3.org/1999/xlink" x="0px" y="0px"
	 viewBox="1015 141 512 512" style="enable-background:new 1015 141 512 512;" xml:space="preserve">
<g>
	<defs>
		<rect id="SVGID_5_" x="1141.659" y="237.028" width="319.945" height="319.945"/>
	</defs>
	<clipPath id="SVGID_2_">
		<use xlink:href="#SVGID_5_"  style="overflow:visible;"/>
	</clipPath>
</g>
<g>
	<path style="fill:#000333;" d="M1271,602.152c-54.633,0-105.921-21.184-144.945-60.208s-60.208-90.312-60.208-144.945
		s21.184-105.921,60.208-144.945s90.312-60.208,144.945-60.208s105.921,21.184,144.945,60.208
		c80.277,80.277,80.277,209.612,0,289.889C1376.921,580.968,1325.633,602.152,1271,602.152z M1271,214.147
		c-49.058,0-94.771,18.954-129.335,53.518c-34.564,34.564-53.518,80.277-53.518,129.335s18.954,94.772,53.518,129.335
		s80.277,53.518,129.335,53.518s94.771-18.954,129.335-53.518c71.357-71.357,71.357-187.313,0-258.671
		C1365.771,233.101,1320.058,214.147,1271,214.147z"/>
</g>
<g>
	<defs>
		<circle id="SVGID_7_" cx="1271" cy="397" r="159.947"/>
	</defs>
	<clipPath id="SVGID_4_">
		<use xlink:href="#SVGID_7_"  style="overflow:visible;"/>
	</clipPath>
	<g style="clip-path:url(#SVGID_4_);">
		<path style="fill:#000333;" d="M1232.504,475.96l-18.869,18.822l-11.305-11.305c-2.078-2.067-5.436-2.067-7.517,0
			c-1.01,1.003-1.578,2.364-1.578,3.786s0.567,2.786,1.578,3.786l11.303,11.303c2,1.984,4.703,3.095,7.519,3.093
			c2.833,0.016,5.556-1.096,7.569-3.093l18.819-18.875c1.812-2.116,1.69-5.267-0.279-7.235
			C1237.774,474.271,1234.621,474.148,1232.504,475.96L1232.504,475.96z M1232.504,475.96"/>
		<path style="fill:#000333;" d="M1169.702,490.302c0,25.029,20.289,45.318,45.318,45.318c25.027,0,45.318-20.289,45.318-45.318
			c0-2.945-2.388-5.332-5.333-5.332s-5.332,2.388-5.332,5.332c0,19.139-15.516,34.655-34.653,34.655
			c-19.139,0-34.655-15.516-34.655-34.655c0-19.14,15.516-34.656,34.655-34.656c7.501-0.021,14.805,2.414,20.791,6.934
			c2.356,1.768,5.7,1.288,7.465-1.068c1.768-2.356,1.291-5.697-1.065-7.465c-13.732-10.298-32.107-11.954-47.458-4.278
			C1179.398,457.446,1169.702,473.138,1169.702,490.302L1169.702,490.302z M1169.702,490.302"/>
		<path style="fill:#000333;" d="M1340.308,279.707c2.945,0,5.332-2.385,5.332-5.332c0-2.945-2.388-5.332-5.332-5.332h-138.617
			c-2.945,0-5.333,2.388-5.333,5.332v21.327c0,2.945,2.388,5.33,5.333,5.33h138.617c2.945,0,5.332-2.385,5.332-5.33
			c0-2.945-2.388-5.332-5.332-5.332h-133.287v-10.662H1340.308z M1340.308,279.707"/>
		<path style="fill:#000333;" d="M1217.683,311.697c-2.942,0-5.33,2.386-5.33,5.33c0,2.947,2.388,5.332,5.33,5.332h106.63
			c2.945,0,5.332-2.386,5.332-5.332c0-2.945-2.388-5.33-5.332-5.33H1217.683z M1217.683,311.697"/>
		<path style="fill:#000333;" d="M1329.646,340.649h-117.292c-2.945,0-5.332,2.388-5.332,5.332c0,2.947,2.388,5.33,5.332,5.33
			h117.292c2.945,0,5.332-2.382,5.332-5.33C1334.978,343.036,1332.59,340.649,1329.646,340.649L1329.646,340.649z M1329.646,340.649
			"/>
		<path style="fill:#000333;" d="M1302.989,386.338c0-2.945-2.388-5.332-5.332-5.332h-106.63c-2.945,0-5.33,2.388-5.33,5.332
			c0,2.947,2.385,5.33,5.33,5.33h106.63C1300.602,391.668,1302.989,389.285,1302.989,386.338L1302.989,386.338z M1302.989,386.338"
			/>
		<path style="fill:#000333;" d="M1244.343,418.327c2.945,0,5.33-2.385,5.33-5.332c0-2.945-2.385-5.332-5.33-5.332h-53.317
			c-2.945,0-5.33,2.388-5.33,5.332c0,2.947,2.385,5.332,5.33,5.332H1244.343z M1244.343,418.327"/>
		<path style="fill:#000333;" d="M1265.668,418.327h37.322c2.945,0,5.332-2.385,5.332-5.332c0-2.945-2.388-5.332-5.332-5.332
			h-37.322c-2.942,0-5.33,2.388-5.33,5.332C1260.338,415.942,1262.725,418.327,1265.668,418.327L1265.668,418.327z
			 M1265.668,418.327"/>
		<path style="fill:#000333;" d="M1388.292,482.303c-2.945,0-5.33,2.388-5.33,5.332v53.316c0,2.945-2.388,5.33-5.332,5.33h-213.26
			c-2.945,0-5.332-2.385-5.332-5.33V253.048c0-2.942,2.388-5.33,5.332-5.33h213.26c2.945,0,5.332,2.388,5.332,5.33v100.129
			c0,2.945,2.386,5.332,5.33,5.332c2.944,0,5.332-2.388,5.332-5.332V253.048c0-8.832-7.163-15.995-15.995-15.995h-213.26
			c-8.832,0-15.995,7.163-15.995,15.995v287.904c0,8.834,7.163,15.995,15.995,15.995h213.26c8.832,0,15.995-7.16,15.995-15.995
			v-53.316C1393.625,484.691,1391.237,482.303,1388.292,482.303L1388.292,482.303z M1388.292,482.303"/>
	</g>
	<g style="clip-path:url(#SVGID_4_);">
		<path style="fill:#CD2F8A;" d="M1386.603,425.684c-20.318,0-37.134-16.815-37.134-37.133c0-20.318,16.815-37.133,37.134-37.133
			c20.318,0,37.133,16.815,37.133,37.133C1423.736,408.868,1407.622,425.684,1386.603,425.684z M1386.603,365.429
			c-12.611,0-23.121,10.509-23.121,23.121c0,12.611,10.509,23.121,23.121,23.121c12.611,0,23.121-10.509,23.121-23.121
			C1409.724,375.939,1399.915,365.429,1386.603,365.429z"/>
		<g>
			<path style="fill:#CD2F8A;" d="M1446.857,485.237H1327.75c-4.204,0-7.006-2.803-7.006-7.006c0-36.433,30.127-66.56,66.56-66.56
				s66.56,30.127,66.56,66.56C1453.863,482.435,1450.36,485.237,1446.857,485.237z M1334.756,471.225h104.394
				c-3.503-25.923-25.223-45.541-52.547-45.541C1359.278,425.684,1338.259,445.301,1334.756,471.225z"/>
		</g>
	</g>
</g>
</svg>
