<?xml version="1.0" encoding="utf-8"?>
<!-- Generator: Adobe Illustrator 23.0.1, SVG Export Plug-In . SVG Version: 6.00 Build 0)  -->
<svg version="1.1" id="Capa_1" xmlns="http://www.w3.org/2000/svg" xmlns:xlink="http://www.w3.org/1999/xlink" x="0px" y="0px"
	 viewBox="0 0 512 512" style="enable-background:new 0 0 512 512;" xml:space="preserve">
<style type="text/css">
	.st0{fill:#000333;}
	.st1{clip-path:url(#SVGID_2_);fill:none;}
	.st2{clip-path:url(#SVGID_2_);}
	.st3{fill:#CD2F8A;}
	.st4{fill:none;}
	.st5{clip-path:url(#SVGID_4_);fill:none;}
	.st6{clip-path:url(#SVGID_4_);}
	.st7{clip-path:url(#SVGID_6_);}
	.st8{clip-path:url(#SVGID_8_);fill:#000333;}
	.st9{clip-path:url(#SVGID_10_);}
	.st10{clip-path:url(#SVGID_12_);fill:#000333;}
</style>
<g>
	<path class="st0" d="M256,461.2c-54.6,0-105.9-21.2-144.9-60.2S50.8,310.6,50.8,256S72,150.1,111.1,111.1S201.4,50.8,256,50.8
		S361.9,72,400.9,111.1c80.3,80.3,80.3,209.6,0,289.9C361.9,440,310.6,461.2,256,461.2z M256,73.1c-49.1,0-94.8,19-129.3,53.5
		S73.1,206.9,73.1,256s19,94.8,53.5,129.3s80.3,53.5,129.3,53.5s94.8-19,129.3-53.5c71.4-71.4,71.4-187.3,0-258.7
		C350.8,92.1,305.1,73.1,256,73.1z"/>
</g>
<circle class="st4" cx="256" cy="256" r="159.9"/>
<g>
	<defs>
		<circle id="SVGID_5_" cx="256" cy="256" r="159.9"/>
	</defs>
	<clipPath id="SVGID_2_">
		<use xlink:href="#SVGID_5_"  style="overflow:visible;"/>
	</clipPath>
	<g class="st2">
		<g>
			<g>
				<defs>
					<rect id="SVGID_7_" x="111.9" y="116.4" width="288.2" height="279.3"/>
				</defs>
				<clipPath id="SVGID_4_">
					<use xlink:href="#SVGID_7_"  style="overflow:visible;"/>
				</clipPath>
				<path style="clip-path:url(#SVGID_4_);fill:#000333;" d="M135.1,367.5H256v-9.3H135.1c-7.7,0-13.9-6.2-13.9-13.9V139.6
					c0-7.7,6.2-13.9,13.9-13.9h204.6c7.7,0,13.9,6.2,13.9,13.9v106.9h9.3V139.6c0-12.8-10.4-23.2-23.2-23.2H135.1
					c-12.8,0-23.2,10.4-23.2,23.2v204.6C111.9,357.1,122.3,367.5,135.1,367.5L135.1,367.5z M135.1,367.5"/>
			</g>
			<rect x="130.5" y="135" class="st0" width="9.3" height="9.3"/>
			<rect x="149" y="135" class="st0" width="9.3" height="9.3"/>
			<rect x="167.6" y="135" class="st0" width="9.3" height="9.3"/>
			<rect x="130.5" y="153.6" class="st0" width="213.9" height="9.3"/>
			<path class="st0" d="M178.3,173.6l-11.8,11.8c-10-6.6-23.4-4.6-30.9,4.7c-7.6,9.3-6.9,22.8,1.6,31.2c8.5,8.5,22,9.1,31.2,1.6
				c9.3-7.6,11.3-20.9,4.7-30.9l11.8-11.8L178.3,173.6z M153.7,218.7c-7.7,0-13.9-6.2-13.9-13.9c0-7.7,6.2-13.9,13.9-13.9
				c2.1,0,4.1,0.5,6,1.4l-9.3,9.3l6.6,6.6l9.3-9.3c0.9,1.9,1.4,3.9,1.4,6C167.6,212.4,161.4,218.7,153.7,218.7L153.7,218.7z
				 M153.7,218.7"/>
			<rect x="190.9" y="190.8" class="st0" width="79" height="9.3"/>
			<rect x="190.9" y="209.4" class="st0" width="32.5" height="9.3"/>
			<rect x="232.7" y="209.4" class="st0" width="65.1" height="9.3"/>
			<rect x="279.2" y="190.8" class="st0" width="46.5" height="9.3"/>
			<path class="st0" d="M178.3,229.3l-11.8,11.8c-10-6.6-23.4-4.6-30.9,4.7c-7.6,9.3-6.9,22.8,1.6,31.2c8.5,8.5,22,9.1,31.2,1.6
				c9.3-7.6,11.3-20.9,4.7-30.9l11.8-11.8L178.3,229.3z M153.7,274.5c-7.7,0-13.9-6.2-13.9-13.9c0-7.7,6.2-13.9,13.9-13.9
				c2.1,0,4.1,0.5,6,1.4l-9.3,9.3l6.6,6.6l9.3-9.3c0.9,1.9,1.4,3.9,1.4,6C167.6,268.2,161.4,274.5,153.7,274.5L153.7,274.5z
				 M153.7,274.5"/>
			<rect x="190.9" y="246.6" class="st0" width="79" height="9.3"/>
			<rect x="190.9" y="265.2" class="st0" width="32.5" height="9.3"/>
			<rect x="232.7" y="265.2" class="st0" width="37.2" height="9.3"/>
			<rect x="279.2" y="246.6" class="st0" width="18.6" height="9.3"/>
			<path class="st0" d="M178.3,285.1L166.5,297c-10-6.6-23.4-4.6-30.9,4.7c-7.6,9.3-6.9,22.8,1.6,31.2c8.5,8.5,22,9.1,31.2,1.6
				c9.3-7.6,11.3-20.9,4.7-30.9l11.8-11.8L178.3,285.1z M153.7,330.3c-7.7,0-13.9-6.2-13.9-13.9c0-7.7,6.2-13.9,13.9-13.9
				c2.1,0,4.1,0.5,6,1.4l-9.3,9.3l6.6,6.6l9.3-9.3c0.9,1.9,1.4,3.9,1.4,6C167.6,324,161.4,330.3,153.7,330.3L153.7,330.3z
				 M153.7,330.3"/>
			<rect x="190.9" y="302.4" class="st0" width="60.4" height="9.3"/>
			<rect x="190.9" y="321" class="st0" width="32.5" height="9.3"/>
			<rect x="232.7" y="321" class="st0" width="18.6" height="9.3"/>
		</g>
		<g>
			<g>
				<g>
					<path class="st3" d="M377.1,277.1c-11.1-11.1-25.7-17.1-41.4-17.1c-14.3,0-28.1,5.2-38.8,14.7c-0.7,0.6-0.8,1.7-0.1,2.4
						c0.6,0.7,1.7,0.8,2.4,0.1c10.1-8.9,23.1-13.9,36.5-13.9c30.4,0,55.1,24.7,55.1,55.1s-24.7,55.1-55.1,55.1s-55.1-24.7-55.1-55.1
						c0-13.5,4.9-26.5,13.9-36.5c0.6-0.7,0.6-1.8-0.1-2.4c-0.7-0.6-1.8-0.6-2.4,0.1c-9.5,10.7-14.7,24.5-14.7,38.8
						c0,15.6,6.1,30.3,17.1,41.4c11.1,11.1,25.7,17.1,41.4,17.1c15.6,0,30.3-6.1,41.4-17.1c11.1-11.1,17.1-25.7,17.1-41.4
						C394.3,302.9,388.2,288.2,377.1,277.1L377.1,277.1z"/>
					<path class="st3" d="M335.7,377.9c-15.9,0-30.8-6.2-42-17.4c-11.2-11.2-17.4-26.1-17.4-42c0-14.5,5.3-28.5,14.9-39.4
						c0.5-0.5,1.1-0.8,1.8-0.9c0.7,0,1.4,0.2,1.9,0.6c1.1,0.9,1.2,2.6,0.2,3.6c-8.8,9.9-13.6,22.7-13.6,36
						c0,29.9,24.3,54.2,54.2,54.2s54.2-24.3,54.2-54.2s-24.3-54.2-54.2-54.2c-13.3,0-26,4.8-36,13.6c-1.1,0.9-2.7,0.8-3.6-0.2
						c-0.9-1.1-0.8-2.7,0.2-3.6c10.9-9.6,24.9-14.9,39.4-14.9c15.9,0,30.8,6.2,42,17.4l0,0c11.2,11.2,17.4,26.1,17.4,42
						c0,15.9-6.2,30.8-17.4,42C366.5,371.7,351.6,377.9,335.7,377.9z M293.2,280C293.2,280,293.2,280,293.2,280
						c-0.3,0-0.5,0.1-0.6,0.3c-9.4,10.5-14.5,24.1-14.5,38.2c0,15.4,6,29.9,16.9,40.8c10.9,10.9,25.4,16.9,40.8,16.9
						s29.9-6,40.8-16.9c10.9-10.9,16.9-25.4,16.9-40.8c0-15.4-6-29.9-16.9-40.8v0c-10.9-10.9-25.4-16.9-40.8-16.9
						c-14.1,0-27.7,5.2-38.2,14.5c-0.3,0.3-0.4,0.8-0.1,1.2c0.3,0.3,0.8,0.4,1.2,0.1c10.2-9.1,23.4-14.1,37.1-14.1
						c30.9,0,56,25.1,56,56s-25.1,56-56,56s-56-25.1-56-56c0-13.7,5-26.9,14.1-37.1c0.3-0.3,0.3-0.9-0.1-1.2
						C293.6,280.1,293.4,280,293.2,280z"/>
				</g>
			</g>
			<g>
				<g>
					<rect x="293.7" y="285.2" class="st4" width="84.1" height="66.6"/>
					<g>
						<path class="st3" d="M377.4,295.1l-9.3-9.3c-0.2-0.2-0.5-0.4-0.9-0.4s-0.6,0.1-0.9,0.4L322.1,330l-17-17
							c-0.2-0.2-0.5-0.4-0.9-0.4c-0.3,0-0.6,0.1-0.9,0.4l-9.3,9.3c-0.5,0.5-0.5,1.3,0,1.7l27.2,27.2c0.2,0.2,0.6,0.4,0.9,0.4
							c0.3,0,0.6-0.1,0.9-0.4l54.4-54.4C377.9,296.3,377.9,295.6,377.4,295.1L377.4,295.1z M322.1,348.6l-25.5-25.5l7.5-7.5l17,17
							c0.5,0.5,1.3,0.5,1.7,0l44.3-44.3l7.5,7.5L322.1,348.6z"/>
						<path class="st3" d="M322.1,352.5c-0.6,0-1.1-0.2-1.5-0.6l-27.2-27.2c-0.4-0.4-0.6-0.9-0.6-1.5c0-0.6,0.2-1.1,0.6-1.5l9.3-9.3
							c0.4-0.4,0.9-0.6,1.5-0.6s1.1,0.2,1.5,0.6l16.4,16.4l43.6-43.6c0.4-0.4,0.9-0.6,1.5-0.6s1.1,0.2,1.5,0.6l9.3,9.3
							c0.4,0.4,0.6,0.9,0.6,1.5c0,0.6-0.2,1.1-0.6,1.5l-54.4,54.4C323.2,352.2,322.7,352.5,322.1,352.5z M304.2,313.5
							c-0.1,0-0.2,0-0.3,0.1l-9.3,9.3c-0.1,0.1-0.1,0.2-0.1,0.3s0,0.2,0.1,0.3l27.2,27.2c0.1,0.1,0.2,0.1,0.3,0.1s0.2,0,0.3-0.1
							l54.4-54.4c0.1-0.1,0.1-0.2,0.1-0.3s0-0.2-0.1-0.3l-9.3-9.3c-0.1-0.1-0.4-0.1-0.5,0l-44.9,44.9l-17.7-17.7
							C304.4,313.5,304.3,313.5,304.2,313.5z M322.1,349.8l-26.7-26.7l8.8-8.8l17.7,17.7c0.1,0.1,0.4,0.1,0.5,0l44.9-44.9l8.8,8.8
							L322.1,349.8z M297.9,323.2l24.2,24.2l51.4-51.4l-6.3-6.3l-43.6,43.6c-0.8,0.8-2.1,0.8-3,0l-16.4-16.4L297.9,323.2z"/>
					</g>
				</g>
			</g>
		</g>
	</g>
</g>
</svg>
