<?xml version="1.0" encoding="utf-8"?>
<!-- Generator: Adobe Illustrator 23.0.1, SVG Export Plug-In . SVG Version: 6.00 Build 0)  -->
<svg version="1.1" id="Capa_1" xmlns="http://www.w3.org/2000/svg" xmlns:xlink="http://www.w3.org/1999/xlink" x="0px" y="0px"
	 viewBox="0 0 512 512" style="enable-background:new 0 0 512 512;" xml:space="preserve">
<style type="text/css">
	.st0{fill:#000333;}
	.st1{clip-path:url(#SVGID_2_);fill:none;}
	.st2{clip-path:url(#SVGID_2_);}
	.st3{fill:#CD2F8A;}
	.st4{fill:none;}
	.st5{clip-path:url(#SVGID_4_);fill:none;}
	.st6{clip-path:url(#SVGID_4_);}
	.st7{clip-path:url(#SVGID_6_);}
	.st8{clip-path:url(#SVGID_8_);fill:#000333;}
	.st9{clip-path:url(#SVGID_10_);}
	.st10{clip-path:url(#SVGID_12_);fill:#000333;}
</style>
<g>
	<path class="st0" d="M256,461.2c-54.6,0-105.9-21.2-144.9-60.2S50.8,310.6,50.8,256S72,150.1,111.1,111.1S201.4,50.8,256,50.8
		S361.9,72,400.9,111.1c80.3,80.3,80.3,209.6,0,289.9C361.9,440,310.6,461.2,256,461.2z M256,73.1c-49.1,0-94.8,19-129.3,53.5
		S73.1,206.9,73.1,256s19,94.8,53.5,129.3s80.3,53.5,129.3,53.5s94.8-19,129.3-53.5c71.4-71.4,71.4-187.3,0-258.7
		C350.8,92.1,305.1,73.1,256,73.1z"/>
</g>
<g>
	<defs>
		<circle id="SVGID_3_" cx="256" cy="256" r="159.9"/>
	</defs>
	<clipPath id="SVGID_2_">
		<use xlink:href="#SVGID_3_"  style="overflow:visible;"/>
	</clipPath>
	<circle class="st1" cx="256" cy="256" r="159.9"/>
	<g class="st2">
		<path class="st0" d="M412.8,354c0,0,0-0.1,0-0.1c0-0.2,0-0.4-0.1-0.5c0,0,0,0,0-0.1c0-0.2-0.1-0.3-0.1-0.5c0,0,0-0.1,0-0.1
			c-0.1-0.1-0.1-0.3-0.2-0.4c0,0,0,0,0-0.1l-24.6-48.5V144.4c0-4.9-4-8.9-8.9-8.9H133.2c-4.9,0-8.9,4-8.9,8.9v159.4l-24.6,48.5
			c0,0,0,0,0,0.1c-0.1,0.1-0.1,0.3-0.2,0.4c0,0,0,0.1,0,0.1c-0.1,0.2-0.1,0.3-0.1,0.5c0,0,0,0,0,0c0,0.2-0.1,0.4-0.1,0.5
			c0,0,0,0.1,0,0.1c0,0.1,0,0.2,0,0.3V366c0,5.8,4.7,10.6,10.6,10.6h292.4c5.8,0,10.6-4.7,10.6-10.6v-11.7
			C412.8,354.2,412.8,354.1,412.8,354z M133.5,144.7h245v155.6h-245V144.7z M131.7,309.5h248.6l20.4,40.2H299.8l-5.1-18.4
			c-1-3.7-4.5-6.3-8.3-6.3h-60.8c-3.9,0-7.3,2.6-8.3,6.3l-5.1,18.4H111.3L131.7,309.5z M290.3,349.7h-68.5l4.3-15.5h60L290.3,349.7z
			 M403.6,366c0,0.8-0.6,1.4-1.4,1.4H109.8c-0.8,0-1.4-0.6-1.4-1.4v-7.1l0,0h295.2l0,0V366z"/>
		<path class="st0" d="M364.1,230.1c-2.5,0-4.6,2.1-4.6,4.6v46.6H152.5v-46.6c0-2.5-2.1-4.6-4.6-4.6s-4.6,2.1-4.6,4.6v48.6
			c0,4,3.2,7.2,7.2,7.2h211c4,0,7.2-3.2,7.2-7.2v-48.6C368.7,232.2,366.7,230.1,364.1,230.1z"/>
		<path class="st0" d="M361.5,154.5h-211c-4,0-7.2,3.2-7.2,7.2v48.6c0,2.5,2.1,4.6,4.6,4.6s4.6-2.1,4.6-4.6v-46.6h207.1v46.6
			c0,2.5,2.1,4.6,4.6,4.6s4.6-2.1,4.6-4.6v-48.6C368.7,157.7,365.5,154.5,361.5,154.5z"/>
	</g>
	<g class="st2">
		<g>
			<g>
				<path class="st3" d="M290.6,187.8c-9.3-9.3-21.6-14.4-34.6-14.4c-12,0-23.5,4.4-32.5,12.3c-0.6,0.5-0.6,1.4-0.1,2
					c0.5,0.6,1.4,0.6,2,0.1c8.4-7.5,19.3-11.6,30.6-11.6c25.4,0,46.1,20.7,46.1,46.1s-20.7,46.1-46.1,46.1
					c-25.4,0-46.1-20.7-46.1-46.1c0-11.3,4.1-22.1,11.6-30.6c0.5-0.6,0.5-1.5-0.1-2c-0.6-0.5-1.5-0.5-2,0.1
					c-7.9,9-12.3,20.5-12.3,32.5c0,13.1,5.1,25.4,14.4,34.6c9.3,9.3,21.6,14.4,34.6,14.4c13.1,0,25.4-5.1,34.6-14.4
					c9.3-9.3,14.4-21.6,14.4-34.6C305,209.4,299.9,197.1,290.6,187.8L290.6,187.8z"/>
				<path class="st3" d="M256,272.2c-13.3,0-25.8-5.2-35.2-14.6c-9.4-9.4-14.6-21.9-14.6-35.2c0-12.2,4.4-23.9,12.5-33
					c0.4-0.4,0.9-0.7,1.5-0.7c0.6,0,1.1,0.2,1.6,0.5c0.9,0.8,1,2.2,0.2,3.1c-7.4,8.3-11.4,19-11.4,30.1c0,25,20.4,45.4,45.4,45.4
					s45.4-20.4,45.4-45.4S281,177.1,256,177.1c-11.1,0-21.8,4.1-30.1,11.4c-0.9,0.8-2.3,0.7-3.1-0.2c-0.8-0.9-0.7-2.3,0.2-3.1
					c9.1-8.1,20.8-12.5,33-12.5c13.3,0,25.8,5.2,35.2,14.6l0,0c9.4,9.4,14.6,21.9,14.6,35.2c0,13.3-5.2,25.8-14.6,35.2
					C281.8,267,269.3,272.2,256,272.2z M220.4,190.2C220.4,190.2,220.4,190.2,220.4,190.2c-0.2,0-0.4,0.1-0.5,0.2
					c-7.8,8.8-12.1,20.2-12.1,32c0,12.9,5,25,14.1,34.1c9.1,9.1,21.2,14.1,34.1,14.1s25-5,34.1-14.1c9.1-9.1,14.1-21.2,14.1-34.1
					c0-12.9-5-25-14.1-34.1v0c-9.1-9.1-21.2-14.1-34.1-14.1c-11.8,0-23.2,4.3-32,12.1c-0.3,0.3-0.3,0.7-0.1,1c0.3,0.3,0.7,0.3,1,0.1
					c8.6-7.6,19.6-11.8,31.1-11.8c25.8,0,46.9,21,46.9,46.9s-21,46.9-46.9,46.9s-46.9-21-46.9-46.9c0-11.5,4.2-22.5,11.8-31.1
					c0.3-0.3,0.2-0.7-0.1-1C220.7,190.3,220.6,190.2,220.4,190.2z"/>
			</g>
		</g>
		<g>
			<g>
				<rect x="220.8" y="194.6" class="st4" width="70.4" height="55.7"/>
				<g>
					<path class="st3" d="M290.9,202.9l-7.8-7.8c-0.2-0.2-0.5-0.3-0.7-0.3s-0.5,0.1-0.7,0.3l-37.1,37.1l-14.3-14.3
						c-0.2-0.2-0.5-0.3-0.7-0.3c-0.3,0-0.5,0.1-0.7,0.3l-7.8,7.8c-0.4,0.4-0.4,1.1,0,1.5l22.8,22.8c0.2,0.2,0.5,0.3,0.7,0.3
						c0.3,0,0.5-0.1,0.7-0.3l45.6-45.6C291.3,203.9,291.3,203.3,290.9,202.9L290.9,202.9z M244.6,247.7l-21.3-21.3l6.3-6.3
						l14.3,14.3c0.4,0.4,1.1,0.4,1.5,0l37.1-37.1l6.3,6.3L244.6,247.7z"/>
					<path class="st3" d="M244.6,250.9c-0.5,0-0.9-0.2-1.2-0.5l-22.8-22.8c-0.3-0.3-0.5-0.8-0.5-1.2c0-0.5,0.2-0.9,0.5-1.2l7.8-7.8
						c0.3-0.3,0.8-0.5,1.2-0.5s0.9,0.2,1.2,0.5l13.8,13.8l36.5-36.5c0.3-0.3,0.8-0.5,1.2-0.5c0.5,0,0.9,0.2,1.2,0.5l7.8,7.8
						c0.3,0.3,0.5,0.8,0.5,1.2c0,0.5-0.2,0.9-0.5,1.2l-45.6,45.6C245.5,250.7,245.1,250.9,244.6,250.9z M229.6,218.3
						c-0.1,0-0.2,0-0.2,0.1l-7.8,7.8c-0.1,0.1-0.1,0.2-0.1,0.2c0,0,0,0.1,0.1,0.2l22.8,22.8c0.1,0.1,0.2,0.1,0.2,0.1s0.1,0,0.2-0.1
						l45.6-45.6c0.1-0.1,0.1-0.2,0.1-0.2s0-0.1-0.1-0.2l-7.8-7.8c-0.1-0.1-0.3-0.1-0.4,0l-37.6,37.6l-14.8-14.8
						C229.8,218.3,229.7,218.3,229.6,218.3z M244.6,248.7l-22.3-22.3l7.3-7.3l14.8,14.8c0.1,0.1,0.3,0.1,0.4,0l37.6-37.6l7.3,7.3
						L244.6,248.7z M224.3,226.4l20.3,20.3l43.1-43.1l-5.3-5.3l-36.5,36.5c-0.7,0.7-1.8,0.7-2.5,0l-13.8-13.8L224.3,226.4z"/>
				</g>
			</g>
		</g>
	</g>
</g>
</svg>
