<?xml version="1.0" encoding="utf-8"?>
<!-- Generator: Adobe Illustrator 23.0.1, SVG Export Plug-In . SVG Version: 6.00 Build 0)  -->
<svg version="1.1" id="Capa_1" xmlns="http://www.w3.org/2000/svg" xmlns:xlink="http://www.w3.org/1999/xlink" x="0px" y="0px"
	 viewBox="0 0 512 512" style="enable-background:new 0 0 512 512;" xml:space="preserve">
<style type="text/css">
	.st0{fill:#000333;}
	.st1{clip-path:url(#SVGID_2_);fill:none;}
	.st2{clip-path:url(#SVGID_2_);}
	.st3{fill:#CD2F8A;}
	.st4{fill:none;}
	.st5{clip-path:url(#SVGID_4_);fill:none;}
	.st6{clip-path:url(#SVGID_4_);}
	.st7{clip-path:url(#SVGID_6_);}
	.st8{clip-path:url(#SVGID_8_);fill:#000333;}
	.st9{clip-path:url(#SVGID_10_);}
	.st10{clip-path:url(#SVGID_12_);fill:#000333;}
</style>
<g>
	<path class="st0" d="M256,461.2c-54.6,0-105.9-21.2-144.9-60.2S50.8,310.6,50.8,256S72,150.1,111.1,111.1S201.4,50.8,256,50.8
		S361.9,72,400.9,111.1c80.3,80.3,80.3,209.6,0,289.9C361.9,440,310.6,461.2,256,461.2z M256,73.1c-49.1,0-94.8,19-129.3,53.5
		S73.1,206.9,73.1,256s19,94.8,53.5,129.3s80.3,53.5,129.3,53.5s94.8-19,129.3-53.5c71.4-71.4,71.4-187.3,0-258.7
		C350.8,92.1,305.1,73.1,256,73.1z"/>
</g>
<g>
	<defs>
		<circle id="SVGID_1_" cx="256" cy="256" r="159.9"/>
	</defs>
	<clipPath id="SVGID_2_">
		<use xlink:href="#SVGID_1_"  style="overflow:visible;"/>
	</clipPath>
	<circle class="st1" cx="256" cy="256" r="159.9"/>
	<g class="st2">
		<path class="st0" d="M412.8,354c0,0,0-0.1,0-0.1c0-0.2,0-0.4-0.1-0.5c0,0,0,0,0-0.1c0-0.2-0.1-0.3-0.1-0.5c0,0,0-0.1,0-0.1
			c-0.1-0.1-0.1-0.3-0.2-0.4c0,0,0,0,0-0.1l-24.6-48.5V144.4c0-4.9-4-8.9-8.9-8.9H133.2c-4.9,0-8.9,4-8.9,8.9v159.4l-24.6,48.5
			c0,0,0,0,0,0.1c-0.1,0.1-0.1,0.3-0.2,0.4c0,0,0,0.1,0,0.1c-0.1,0.2-0.1,0.3-0.1,0.5c0,0,0,0,0,0c0,0.2-0.1,0.4-0.1,0.5
			c0,0,0,0.1,0,0.1c0,0.1,0,0.2,0,0.3V366c0,5.8,4.7,10.6,10.6,10.6h292.4c5.8,0,10.6-4.7,10.6-10.6v-11.7
			C412.8,354.2,412.8,354.1,412.8,354z M133.5,144.7h245v155.6h-245V144.7z M131.7,309.5h248.6l20.4,40.2H299.8l-5.1-18.4
			c-1-3.7-4.5-6.3-8.3-6.3h-60.8c-3.9,0-7.3,2.6-8.3,6.3l-5.1,18.4H111.3L131.7,309.5z M290.3,349.7h-68.5l4.3-15.5h60L290.3,349.7z
			 M403.6,366c0,0.8-0.6,1.4-1.4,1.4H109.8c-0.8,0-1.4-0.6-1.4-1.4v-7.1l0,0h295.2l0,0V366z"/>
		<path class="st0" d="M364.1,230.1c-2.5,0-4.6,2.1-4.6,4.6v46.6H152.5v-46.6c0-2.5-2.1-4.6-4.6-4.6s-4.6,2.1-4.6,4.6v48.6
			c0,4,3.2,7.2,7.2,7.2h211c4,0,7.2-3.2,7.2-7.2v-48.6C368.7,232.2,366.7,230.1,364.1,230.1z"/>
		<path class="st0" d="M361.5,154.5h-211c-4,0-7.2,3.2-7.2,7.2v48.6c0,2.5,2.1,4.6,4.6,4.6s4.6-2.1,4.6-4.6v-46.6h207.1v46.6
			c0,2.5,2.1,4.6,4.6,4.6c2.5,0,4.6-2.1,4.6-4.6v-48.6C368.7,157.7,365.5,154.5,361.5,154.5z"/>
	</g>
	<g class="st2">
		<rect x="209.6" y="176" class="st3" width="4" height="4"/>
		<rect x="217.6" y="176" class="st3" width="4" height="4"/>
		<rect x="225.6" y="176" class="st3" width="4" height="4"/>
		<rect x="209.6" y="184.1" class="st3" width="92.4" height="4"/>
		<rect x="235.7" y="200.1" class="st3" width="34.1" height="4"/>
		<rect x="235.7" y="208.2" class="st3" width="14.1" height="4"/>
		<rect x="253.8" y="208.2" class="st3" width="28.1" height="4"/>
		<rect x="273.8" y="200.1" class="st3" width="20.1" height="4"/>
		<rect x="235.7" y="224.2" class="st3" width="34.1" height="4"/>
		<rect x="235.7" y="232.3" class="st3" width="14.1" height="4"/>
		<rect x="253.8" y="232.3" class="st3" width="28.1" height="4"/>
		<rect x="273.8" y="224.2" class="st3" width="20.1" height="4"/>
		<rect x="235.7" y="248.3" class="st3" width="34.1" height="4"/>
		<rect x="235.7" y="256.4" class="st3" width="14.1" height="4"/>
		<rect x="253.8" y="256.4" class="st3" width="28.1" height="4"/>
		<rect x="273.8" y="248.3" class="st3" width="20.1" height="4"/>
		<g>
			<g>
				<g>
					<path class="st3" d="M225.6,201.1c-1.2-1.2-2.9-1.9-4.6-1.9c-1.6,0-3.1,0.6-4.3,1.6c-0.1,0.1-0.1,0.2,0,0.3
						c0.1,0.1,0.2,0.1,0.3,0c1.1-1,2.6-1.5,4.1-1.5c3.4,0,6.1,2.8,6.1,6.1s-2.8,6.1-6.1,6.1s-6.1-2.8-6.1-6.1c0-1.5,0.5-3,1.5-4.1
						c0.1-0.1,0.1-0.2,0-0.3c-0.1-0.1-0.2-0.1-0.3,0c-1.1,1.2-1.6,2.7-1.6,4.3c0,1.7,0.7,3.4,1.9,4.6c1.2,1.2,2.9,1.9,4.6,1.9
						c1.7,0,3.4-0.7,4.6-1.9c1.2-1.2,1.9-2.9,1.9-4.6C227.6,204,226.9,202.3,225.6,201.1L225.6,201.1z"/>
					<path class="st3" d="M221,212.3c-1.8,0-3.4-0.7-4.7-1.9c-1.3-1.3-1.9-2.9-1.9-4.7c0-1.6,0.6-3.2,1.7-4.4
						c0.1-0.1,0.1-0.1,0.2-0.1c0.1,0,0.2,0,0.2,0.1c0.1,0.1,0.1,0.3,0,0.4c-1,1.1-1.5,2.5-1.5,4c0,3.3,2.7,6.1,6.1,6.1
						c3.3,0,6.1-2.7,6.1-6.1s-2.7-6.1-6.1-6.1c-1.5,0-2.9,0.5-4,1.5c-0.1,0.1-0.3,0.1-0.4,0c-0.1-0.1-0.1-0.3,0-0.4
						c1.2-1.1,2.8-1.7,4.4-1.7c1.8,0,3.4,0.7,4.7,1.9l0,0c1.3,1.3,1.9,2.9,1.9,4.7c0,1.8-0.7,3.4-1.9,4.7
						C224.5,211.6,222.8,212.3,221,212.3z M216.3,201.4C216.3,201.4,216.3,201.4,216.3,201.4C216.2,201.4,216.2,201.4,216.3,201.4
						c-1.1,1.2-1.7,2.7-1.7,4.3c0,1.7,0.7,3.3,1.9,4.5c1.2,1.2,2.8,1.9,4.5,1.9c1.7,0,3.3-0.7,4.5-1.9c1.2-1.2,1.9-2.8,1.9-4.5
						c0-1.7-0.7-3.3-1.9-4.5v0c-1.2-1.2-2.8-1.9-4.5-1.9c-1.6,0-3.1,0.6-4.3,1.6c0,0,0,0.1,0,0.1c0,0,0.1,0,0.1,0
						c1.1-1,2.6-1.6,4.1-1.6c3.4,0,6.2,2.8,6.2,6.2s-2.8,6.2-6.2,6.2c-3.4,0-6.2-2.8-6.2-6.2c0-1.5,0.6-3,1.6-4.1
						C216.4,201.5,216.4,201.5,216.3,201.4C216.3,201.4,216.3,201.4,216.3,201.4z"/>
				</g>
			</g>
			<g>
				<g>
					<rect x="216.3" y="202" class="st4" width="9.4" height="7.4"/>
					<g>
						<path class="st3" d="M225.7,203.1l-1-1c0,0-0.1,0-0.1,0s-0.1,0-0.1,0l-4.9,4.9l-1.9-1.9c0,0-0.1,0-0.1,0c0,0-0.1,0-0.1,0l-1,1
							c-0.1,0.1-0.1,0.1,0,0.2l3,3c0,0,0.1,0,0.1,0c0,0,0.1,0,0.1,0l6.1-6.1C225.7,203.2,225.7,203.1,225.7,203.1L225.7,203.1z
							 M219.5,209.1l-2.8-2.8l0.8-0.8l1.9,1.9c0.1,0.1,0.1,0.1,0.2,0l4.9-4.9l0.8,0.8L219.5,209.1z"/>
						<path class="st3" d="M219.5,209.5c-0.1,0-0.1,0-0.2-0.1l-3-3c0,0-0.1-0.1-0.1-0.2c0-0.1,0-0.1,0.1-0.2l1-1
							c0,0,0.1-0.1,0.2-0.1s0.1,0,0.2,0.1l1.8,1.8l4.9-4.9c0,0,0.1-0.1,0.2-0.1s0.1,0,0.2,0.1l1,1c0,0,0.1,0.1,0.1,0.2
							c0,0.1,0,0.1-0.1,0.2l-6.1,6.1C219.6,209.5,219.6,209.5,219.5,209.5z M217.5,205.1C217.5,205.1,217.5,205.1,217.5,205.1
							l-1.1,1c0,0,0,0,0,0s0,0,0,0l3,3c0,0,0,0,0,0c0,0,0,0,0,0l6.1-6.1c0,0,0,0,0,0s0,0,0,0l-1-1c0,0,0,0-0.1,0l-5,5L217.5,205.1
							C217.5,205.1,217.5,205.1,217.5,205.1z M219.5,209.2l-3-3l1-1l2,2c0,0,0,0,0.1,0l5-5l1,1L219.5,209.2z M216.8,206.2l2.7,2.7
							l5.7-5.7l-0.7-0.7l-4.9,4.9c-0.1,0.1-0.2,0.1-0.3,0l-1.8-1.8L216.8,206.2z"/>
					</g>
				</g>
			</g>
		</g>
		<g>
			<g>
				<g>
					<path class="st3" d="M225.6,225.3c-1.2-1.2-2.9-1.9-4.6-1.9c-1.6,0-3.1,0.6-4.3,1.6c-0.1,0.1-0.1,0.2,0,0.3
						c0.1,0.1,0.2,0.1,0.3,0c1.1-1,2.6-1.5,4.1-1.5c3.4,0,6.1,2.8,6.1,6.1s-2.8,6.1-6.1,6.1s-6.1-2.8-6.1-6.1c0-1.5,0.5-3,1.5-4.1
						c0.1-0.1,0.1-0.2,0-0.3c-0.1-0.1-0.2-0.1-0.3,0c-1.1,1.2-1.6,2.7-1.6,4.3c0,1.7,0.7,3.4,1.9,4.6c1.2,1.2,2.9,1.9,4.6,1.9
						c1.7,0,3.4-0.7,4.6-1.9c1.2-1.2,1.9-2.9,1.9-4.6C227.6,228.2,226.9,226.6,225.6,225.3L225.6,225.3z"/>
					<path class="st3" d="M221,236.6c-1.8,0-3.4-0.7-4.7-1.9c-1.3-1.3-1.9-2.9-1.9-4.7c0-1.6,0.6-3.2,1.7-4.4
						c0.1-0.1,0.1-0.1,0.2-0.1c0.1,0,0.2,0,0.2,0.1c0.1,0.1,0.1,0.3,0,0.4c-1,1.1-1.5,2.5-1.5,4c0,3.3,2.7,6.1,6.1,6.1
						c3.3,0,6.1-2.7,6.1-6.1s-2.7-6.1-6.1-6.1c-1.5,0-2.9,0.5-4,1.5c-0.1,0.1-0.3,0.1-0.4,0c-0.1-0.1-0.1-0.3,0-0.4
						c1.2-1.1,2.8-1.7,4.4-1.7c1.8,0,3.4,0.7,4.7,1.9l0,0c1.3,1.3,1.9,2.9,1.9,4.7c0,1.8-0.7,3.4-1.9,4.7
						C224.5,235.9,222.8,236.6,221,236.6z M216.3,225.6C216.3,225.6,216.3,225.6,216.3,225.6C216.2,225.6,216.2,225.6,216.3,225.6
						c-1.1,1.2-1.7,2.7-1.7,4.3c0,1.7,0.7,3.3,1.9,4.5c1.2,1.2,2.8,1.9,4.5,1.9c1.7,0,3.3-0.7,4.5-1.9c1.2-1.2,1.9-2.8,1.9-4.5
						c0-1.7-0.7-3.3-1.9-4.5v0c-1.2-1.2-2.8-1.9-4.5-1.9c-1.6,0-3.1,0.6-4.3,1.6c0,0,0,0.1,0,0.1c0,0,0.1,0,0.1,0
						c1.1-1,2.6-1.6,4.1-1.6c3.4,0,6.2,2.8,6.2,6.2c0,3.4-2.8,6.2-6.2,6.2c-3.4,0-6.2-2.8-6.2-6.2c0-1.5,0.6-3,1.6-4.1
						C216.4,225.8,216.4,225.7,216.3,225.6C216.3,225.6,216.3,225.6,216.3,225.6z"/>
				</g>
			</g>
			<g>
				<g>
					<rect x="216.3" y="226.2" class="st4" width="9.4" height="7.4"/>
					<g>
						<path class="st3" d="M225.7,227.3l-1-1c0,0-0.1,0-0.1,0s-0.1,0-0.1,0l-4.9,4.9l-1.9-1.9c0,0-0.1,0-0.1,0c0,0-0.1,0-0.1,0l-1,1
							c-0.1,0.1-0.1,0.1,0,0.2l3,3c0,0,0.1,0,0.1,0c0,0,0.1,0,0.1,0l6.1-6.1C225.7,227.5,225.7,227.4,225.7,227.3L225.7,227.3z
							 M219.5,233.3l-2.8-2.8l0.8-0.8l1.9,1.9c0.1,0.1,0.1,0.1,0.2,0l4.9-4.9l0.8,0.8L219.5,233.3z"/>
						<path class="st3" d="M219.5,233.7c-0.1,0-0.1,0-0.2-0.1l-3-3c0,0-0.1-0.1-0.1-0.2c0-0.1,0-0.1,0.1-0.2l1-1
							c0,0,0.1-0.1,0.2-0.1s0.1,0,0.2,0.1l1.8,1.8l4.9-4.9c0,0,0.1-0.1,0.2-0.1s0.1,0,0.2,0.1l1,1c0,0,0.1,0.1,0.1,0.2
							c0,0.1,0,0.1-0.1,0.2l-6.1,6.1C219.6,233.7,219.6,233.7,219.5,233.7z M217.5,229.4C217.5,229.4,217.5,229.4,217.5,229.4
							l-1.1,1c0,0,0,0,0,0s0,0,0,0l3,3c0,0,0,0,0,0c0,0,0,0,0,0l6.1-6.1c0,0,0,0,0,0s0,0,0,0l-1-1c0,0,0,0-0.1,0l-5,5L217.5,229.4
							C217.5,229.4,217.5,229.4,217.5,229.4z M219.5,233.4l-3-3l1-1l2,2c0,0,0,0,0.1,0l5-5l1,1L219.5,233.4z M216.8,230.5l2.7,2.7
							l5.7-5.7l-0.7-0.7l-4.9,4.9c-0.1,0.1-0.2,0.1-0.3,0l-1.8-1.8L216.8,230.5z"/>
					</g>
				</g>
			</g>
		</g>
		<g>
			<g>
				<g>
					<path class="st3" d="M225.6,249.6c-1.2-1.2-2.9-1.9-4.6-1.9c-1.6,0-3.1,0.6-4.3,1.6c-0.1,0.1-0.1,0.2,0,0.3
						c0.1,0.1,0.2,0.1,0.3,0c1.1-1,2.6-1.5,4.1-1.5c3.4,0,6.1,2.8,6.1,6.1c0,3.4-2.8,6.1-6.1,6.1s-6.1-2.8-6.1-6.1
						c0-1.5,0.5-3,1.5-4.1c0.1-0.1,0.1-0.2,0-0.3c-0.1-0.1-0.2-0.1-0.3,0c-1.1,1.2-1.6,2.7-1.6,4.3c0,1.7,0.7,3.4,1.9,4.6
						c1.2,1.2,2.9,1.9,4.6,1.9c1.7,0,3.4-0.7,4.6-1.9c1.2-1.2,1.9-2.9,1.9-4.6S226.9,250.8,225.6,249.6L225.6,249.6z"/>
					<path class="st3" d="M221,260.8c-1.8,0-3.4-0.7-4.7-1.9c-1.3-1.3-1.9-2.9-1.9-4.7c0-1.6,0.6-3.2,1.7-4.4
						c0.1-0.1,0.1-0.1,0.2-0.1c0.1,0,0.2,0,0.2,0.1c0.1,0.1,0.1,0.3,0,0.4c-1,1.1-1.5,2.5-1.5,4c0,3.3,2.7,6.1,6.1,6.1
						c3.3,0,6.1-2.7,6.1-6.1c0-3.3-2.7-6.1-6.1-6.1c-1.5,0-2.9,0.5-4,1.5c-0.1,0.1-0.3,0.1-0.4,0c-0.1-0.1-0.1-0.3,0-0.4
						c1.2-1.1,2.8-1.7,4.4-1.7c1.8,0,3.4,0.7,4.7,1.9l0,0c1.3,1.3,1.9,2.9,1.9,4.7s-0.7,3.4-1.9,4.7
						C224.5,260.1,222.8,260.8,221,260.8z M216.3,249.9C216.3,249.9,216.3,249.9,216.3,249.9C216.2,249.9,216.2,249.9,216.3,249.9
						c-1.1,1.2-1.7,2.7-1.7,4.3c0,1.7,0.7,3.3,1.9,4.5c1.2,1.2,2.8,1.9,4.5,1.9c1.7,0,3.3-0.7,4.5-1.9c1.2-1.2,1.9-2.8,1.9-4.5
						s-0.7-3.3-1.9-4.5v0c-1.2-1.2-2.8-1.9-4.5-1.9c-1.6,0-3.1,0.6-4.3,1.6c0,0,0,0.1,0,0.1c0,0,0.1,0,0.1,0c1.1-1,2.6-1.6,4.1-1.6
						c3.4,0,6.2,2.8,6.2,6.2c0,3.4-2.8,6.2-6.2,6.2c-3.4,0-6.2-2.8-6.2-6.2c0-1.5,0.6-3,1.6-4.1C216.4,250,216.4,249.9,216.3,249.9
						C216.3,249.9,216.3,249.9,216.3,249.9z"/>
				</g>
			</g>
			<g>
				<g>
					<rect x="216.3" y="250.5" class="st4" width="9.4" height="7.4"/>
					<g>
						<path class="st3" d="M225.7,251.6l-1-1c0,0-0.1,0-0.1,0s-0.1,0-0.1,0l-4.9,4.9l-1.9-1.9c0,0-0.1,0-0.1,0c0,0-0.1,0-0.1,0l-1,1
							c-0.1,0.1-0.1,0.1,0,0.2l3,3c0,0,0.1,0,0.1,0c0,0,0.1,0,0.1,0l6.1-6.1C225.7,251.7,225.7,251.6,225.7,251.6L225.7,251.6z
							 M219.5,257.5l-2.8-2.8l0.8-0.8l1.9,1.9c0.1,0.1,0.1,0.1,0.2,0l4.9-4.9l0.8,0.8L219.5,257.5z"/>
						<path class="st3" d="M219.5,258c-0.1,0-0.1,0-0.2-0.1l-3-3c0,0-0.1-0.1-0.1-0.2c0-0.1,0-0.1,0.1-0.2l1-1c0,0,0.1-0.1,0.2-0.1
							s0.1,0,0.2,0.1l1.8,1.8l4.9-4.9c0,0,0.1-0.1,0.2-0.1s0.1,0,0.2,0.1l1,1c0,0,0.1,0.1,0.1,0.2c0,0.1,0,0.1-0.1,0.2l-6.1,6.1
							C219.6,257.9,219.6,258,219.5,258z M217.5,253.6C217.5,253.6,217.5,253.6,217.5,253.6l-1.1,1c0,0,0,0,0,0s0,0,0,0l3,3
							c0,0,0,0,0,0c0,0,0,0,0,0l6.1-6.1c0,0,0,0,0,0c0,0,0,0,0,0l-1-1c0,0,0,0-0.1,0l-5,5L217.5,253.6
							C217.5,253.6,217.5,253.6,217.5,253.6z M219.5,257.7l-3-3l1-1l2,2c0,0,0,0,0.1,0l5-5l1,1L219.5,257.7z M216.8,254.7l2.7,2.7
							l5.7-5.7l-0.7-0.7l-4.9,4.9c-0.1,0.1-0.2,0.1-0.3,0l-1.8-1.8L216.8,254.7z"/>
					</g>
				</g>
			</g>
		</g>
		<g>
			<path class="st3" d="M304.9,274.6h-97.7c-2.7,0-4.9-2.2-4.9-4.9v-94.4c0-2.7,2.2-4.9,4.9-4.9h97.7c2.7,0,4.9,2.2,4.9,4.9v94.4
				C309.7,272.4,307.6,274.6,304.9,274.6z M207.1,174.1c-0.6,0-1.1,0.5-1.1,1.1v94.4c0,0.6,0.5,1.1,1.1,1.1h97.7
				c0.6,0,1.1-0.5,1.1-1.1v-94.4c0-0.6-0.5-1.1-1.1-1.1H207.1z"/>
		</g>
	</g>
</g>
</svg>
