<?xml version="1.0" encoding="utf-8"?>
<!-- Generator: Adobe Illustrator 23.0.1, SVG Export Plug-In . SVG Version: 6.00 Build 0)  -->
<svg version="1.1" id="Capa_1" xmlns="http://www.w3.org/2000/svg" xmlns:xlink="http://www.w3.org/1999/xlink" x="0px" y="0px"
	 viewBox="0 0 207 120" style="enable-background:new 0 0 207 120;" xml:space="preserve">
<style type="text/css">
	.st0{fill:#000333;}
	.st1{fill:#FFFFFF;}
</style>
<g>
	<g>
		<g>
			<path class="st0" d="M82.6,64.3c-0.6-0.2-1.1-0.5-1.5-0.8l0.5-1c0.3,0.3,0.8,0.6,1.3,0.8s1.1,0.3,1.7,0.3c0.8,0,1.3-0.1,1.7-0.4
				s0.6-0.6,0.6-1c0-0.3-0.1-0.6-0.3-0.8c-0.2-0.2-0.5-0.3-0.8-0.4c-0.3-0.1-0.7-0.2-1.3-0.3c-0.7-0.2-1.2-0.3-1.7-0.5
				s-0.8-0.4-1.1-0.8s-0.4-0.8-0.4-1.4c0-0.5,0.1-0.9,0.4-1.3c0.3-0.4,0.6-0.7,1.2-0.9s1.2-0.3,1.9-0.3c0.5,0,1.1,0.1,1.6,0.2
				c0.5,0.1,1,0.3,1.3,0.6l-0.4,1c-0.4-0.2-0.8-0.4-1.2-0.5c-0.4-0.1-0.9-0.2-1.3-0.2c-0.7,0-1.3,0.1-1.7,0.4s-0.6,0.6-0.6,1
				c0,0.3,0.1,0.6,0.3,0.8c0.2,0.2,0.5,0.3,0.8,0.5c0.3,0.1,0.7,0.2,1.2,0.3c0.7,0.2,1.2,0.3,1.6,0.5s0.8,0.4,1.1,0.8
				c0.3,0.3,0.4,0.8,0.4,1.4c0,0.5-0.1,0.9-0.4,1.3c-0.3,0.4-0.7,0.7-1.2,0.9s-1.2,0.3-1.9,0.3C83.9,64.6,83.3,64.5,82.6,64.3z"/>
			<path class="st0" d="M89.8,56.1c-0.2-0.2-0.2-0.3-0.2-0.6c0-0.2,0.1-0.4,0.2-0.6c0.2-0.2,0.4-0.2,0.6-0.2s0.4,0.1,0.6,0.2
				s0.2,0.3,0.2,0.6c0,0.2-0.1,0.4-0.2,0.6s-0.4,0.2-0.6,0.2C90.2,56.3,90,56.2,89.8,56.1z M89.8,57.6H91v6.9h-1.2V57.6z"/>
			<path class="st0" d="M93.8,64.3c-0.5-0.2-0.9-0.3-1.2-0.6l0.5-1c0.3,0.2,0.7,0.4,1.1,0.5s0.9,0.2,1.3,0.2c1.1,0,1.6-0.3,1.6-0.9
				c0-0.2-0.1-0.4-0.2-0.5s-0.3-0.2-0.6-0.3c-0.2-0.1-0.5-0.1-0.9-0.2c-0.6-0.1-1-0.2-1.4-0.3c-0.3-0.1-0.6-0.3-0.9-0.6
				s-0.4-0.6-0.4-1.1c0-0.6,0.3-1.1,0.8-1.5s1.2-0.6,2.1-0.6c0.5,0,0.9,0.1,1.4,0.2c0.5,0.1,0.8,0.3,1.1,0.5l-0.5,1
				c-0.6-0.4-1.2-0.5-2-0.5c-0.5,0-0.9,0.1-1.2,0.3C94.1,59,94,59.3,94,59.5s0.1,0.4,0.2,0.5s0.3,0.2,0.6,0.3c0.2,0.1,0.6,0.1,1,0.2
				c0.6,0.1,1,0.2,1.3,0.3s0.6,0.3,0.9,0.6c0.2,0.3,0.4,0.6,0.4,1.1c0,0.6-0.3,1.1-0.8,1.5c-0.5,0.4-1.3,0.6-2.2,0.6
				C94.8,64.5,94.3,64.5,93.8,64.3z"/>
			<path class="st0" d="M103.8,64.1c-0.2,0.2-0.4,0.3-0.7,0.4s-0.5,0.1-0.8,0.1c-0.7,0-1.2-0.2-1.6-0.6s-0.6-0.9-0.6-1.6v-3.8h-1.2
				v-1h1.2v-1.5h1.2v1.5h2v1h-2v3.7c0,0.4,0.1,0.7,0.3,0.9c0.2,0.2,0.5,0.3,0.8,0.3c0.4,0,0.7-0.1,1-0.3L103.8,64.1z"/>
			<path class="st0" d="M111.2,61.4h-5.6c0.1,0.6,0.3,1.1,0.8,1.5s1,0.5,1.7,0.5c0.8,0,1.5-0.3,2-0.8l0.7,0.8
				c-0.3,0.4-0.7,0.6-1.2,0.8c-0.5,0.2-1,0.3-1.5,0.3c-0.7,0-1.4-0.1-1.9-0.4c-0.6-0.3-1-0.7-1.3-1.2s-0.5-1.1-0.5-1.8
				s0.1-1.3,0.4-1.8s0.7-1,1.2-1.2c0.5-0.3,1.1-0.4,1.8-0.4c0.7,0,1.2,0.1,1.8,0.4c0.5,0.3,0.9,0.7,1.2,1.2c0.3,0.5,0.4,1.1,0.4,1.8
				C111.2,61.2,111.2,61.3,111.2,61.4z M106.4,59.1c-0.4,0.4-0.6,0.8-0.7,1.4h4.4c-0.1-0.6-0.3-1.1-0.7-1.4
				c-0.4-0.4-0.9-0.6-1.5-0.6C107.2,58.6,106.8,58.8,106.4,59.1z"/>
			<path class="st0" d="M123.6,58.3c0.5,0.5,0.8,1.2,0.8,2.2v3.9h-1.2v-3.8c0-0.7-0.2-1.2-0.5-1.5s-0.7-0.5-1.3-0.5
				c-0.6,0-1.1,0.2-1.5,0.6s-0.6,1-0.6,1.7v3.5H118v-3.8c0-0.7-0.2-1.2-0.5-1.5s-0.7-0.5-1.3-0.5c-0.6,0-1.1,0.2-1.5,0.6
				s-0.6,1-0.6,1.7v3.5H113v-6.9h1.2v1c0.2-0.4,0.6-0.6,1-0.8s0.9-0.3,1.4-0.3s1,0.1,1.4,0.3s0.7,0.5,1,0.9c0.3-0.4,0.6-0.7,1.1-0.9
				s1-0.3,1.6-0.3C122.4,57.5,123.1,57.8,123.6,58.3z"/>
			<path class="st0" d="M131.3,58.2c0.5,0.5,0.8,1.2,0.8,2.1v4.1h-1.2v-0.9c-0.2,0.3-0.5,0.6-0.9,0.7c-0.4,0.2-0.8,0.3-1.4,0.3
				c-0.8,0-1.4-0.2-1.8-0.6c-0.5-0.4-0.7-0.9-0.7-1.5s0.2-1.1,0.7-1.5c0.4-0.4,1.1-0.6,2.1-0.6h2v-0.2c0-0.5-0.2-0.9-0.5-1.2
				s-0.8-0.4-1.4-0.4c-0.4,0-0.8,0.1-1.2,0.2s-0.7,0.3-1,0.5l-0.5-0.9c0.4-0.3,0.8-0.5,1.3-0.7s1-0.2,1.6-0.2
				C130.1,57.5,130.8,57.8,131.3,58.2z M130.1,63.3c0.3-0.2,0.6-0.5,0.8-0.9v-1H129c-1.1,0-1.6,0.4-1.6,1.1c0,0.3,0.1,0.6,0.4,0.8
				s0.6,0.3,1.1,0.3S129.7,63.5,130.1,63.3z"/>
			<path class="st0" d="M134.7,64.3c-0.5-0.2-0.9-0.3-1.2-0.6l0.5-1c0.3,0.2,0.7,0.4,1.1,0.5c0.4,0.1,0.9,0.2,1.3,0.2
				c1.1,0,1.6-0.3,1.6-0.9c0-0.2-0.1-0.4-0.2-0.5c-0.1-0.1-0.3-0.2-0.6-0.3c-0.2-0.1-0.5-0.1-0.9-0.2c-0.6-0.1-1-0.2-1.4-0.3
				c-0.3-0.1-0.6-0.3-0.9-0.6c-0.3-0.3-0.4-0.6-0.4-1.1c0-0.6,0.3-1.1,0.8-1.5s1.2-0.6,2.1-0.6c0.5,0,0.9,0.1,1.4,0.2
				c0.5,0.1,0.8,0.3,1.1,0.5l-0.5,1c-0.6-0.4-1.2-0.5-2-0.5c-0.5,0-0.9,0.1-1.2,0.3s-0.4,0.4-0.4,0.7c0,0.2,0.1,0.4,0.2,0.5
				s0.3,0.2,0.6,0.3c0.2,0.1,0.6,0.1,1,0.2c0.6,0.1,1,0.2,1.3,0.3s0.6,0.3,0.9,0.6c0.2,0.3,0.4,0.6,0.4,1.1c0,0.6-0.3,1.1-0.8,1.5
				s-1.3,0.6-2.2,0.6C135.8,64.5,135.2,64.5,134.7,64.3z"/>
			<path class="st0" d="M83.6,79.5c-0.7-0.4-1.3-1-1.7-1.7c-0.4-0.7-0.6-1.5-0.6-2.4s0.2-1.7,0.6-2.4s1-1.3,1.7-1.7
				c0.7-0.4,1.6-0.6,2.5-0.6c0.7,0,1.4,0.1,1.9,0.4s1.1,0.6,1.5,1.1L88.7,73c-0.7-0.7-1.5-1.1-2.5-1.1c-0.7,0-1.3,0.2-1.8,0.5
				s-1,0.7-1.3,1.2s-0.5,1.1-0.5,1.8s0.2,1.2,0.5,1.8s0.7,0.9,1.3,1.2c0.5,0.3,1.2,0.5,1.8,0.5c1,0,1.9-0.4,2.5-1.1l0.8,0.8
				c-0.4,0.5-0.9,0.8-1.5,1.1c-0.6,0.2-1.2,0.4-1.9,0.4C85.1,80.1,84.3,79.9,83.6,79.5z"/>
			<path class="st0" d="M92,79.6c-0.5-0.3-1-0.7-1.3-1.2s-0.5-1.1-0.5-1.8c0-0.7,0.2-1.3,0.5-1.8s0.7-0.9,1.3-1.2
				c0.5-0.3,1.2-0.4,1.8-0.4c0.7,0,1.3,0.1,1.8,0.4s1,0.7,1.3,1.2s0.5,1.1,0.5,1.8c0,0.7-0.2,1.3-0.5,1.8s-0.7,0.9-1.3,1.2
				c-0.5,0.3-1.1,0.5-1.8,0.5S92.5,79.9,92,79.6z M95,78.7c0.3-0.2,0.6-0.5,0.8-0.9c0.2-0.4,0.3-0.8,0.3-1.3s-0.1-0.9-0.3-1.3
				c-0.2-0.4-0.5-0.6-0.8-0.8c-0.3-0.2-0.7-0.3-1.2-0.3c-0.4,0-0.8,0.1-1.2,0.3c-0.3,0.2-0.6,0.5-0.8,0.8c-0.2,0.4-0.3,0.8-0.3,1.3
				s0.1,0.9,0.3,1.3c0.2,0.4,0.5,0.7,0.8,0.9c0.3,0.2,0.7,0.3,1.2,0.3C94.2,79,94.6,78.9,95,78.7z"/>
			<path class="st0" d="M109.7,73.8c0.5,0.5,0.8,1.2,0.8,2.2v4h-1.2v-3.8c0-0.7-0.2-1.2-0.5-1.5s-0.7-0.5-1.3-0.5
				c-0.6,0-1.1,0.2-1.5,0.6s-0.6,1-0.6,1.7V80h-1.2v-3.8c0-0.7-0.2-1.2-0.5-1.5s-0.7-0.5-1.3-0.5c-0.6,0-1.1,0.2-1.5,0.6
				s-0.6,1-0.6,1.7V80h-1.2v-6.9h1.2v1c0.2-0.4,0.6-0.6,1-0.8c0.4-0.2,0.9-0.3,1.4-0.3s1,0.1,1.4,0.3s0.7,0.5,1,0.9
				c0.3-0.4,0.6-0.7,1.1-0.9c0.5-0.2,1-0.3,1.6-0.3C108.5,73.1,109.2,73.3,109.7,73.8z"/>
			<path class="st0" d="M118.2,73.5c0.5,0.3,0.9,0.7,1.2,1.2s0.4,1.1,0.4,1.8c0,0.7-0.1,1.3-0.4,1.8s-0.7,0.9-1.2,1.2
				s-1.1,0.4-1.8,0.4c-0.5,0-0.9-0.1-1.4-0.3c-0.4-0.2-0.8-0.5-1-0.8v3.5h-1.2v-9.4h1.2V74c0.3-0.4,0.6-0.7,1-0.9
				c0.4-0.2,0.9-0.3,1.4-0.3C117.1,73.1,117.6,73.2,118.2,73.5z M117.5,78.7c0.3-0.2,0.6-0.5,0.8-0.9s0.3-0.8,0.3-1.3
				s-0.1-0.9-0.3-1.3s-0.5-0.6-0.8-0.8c-0.3-0.2-0.7-0.3-1.2-0.3c-0.4,0-0.8,0.1-1.2,0.3s-0.6,0.5-0.8,0.8c-0.2,0.4-0.3,0.8-0.3,1.3
				s0.1,0.9,0.3,1.3c0.2,0.4,0.5,0.7,0.8,0.9c0.4,0.2,0.7,0.3,1.2,0.3C116.7,79,117.1,78.9,117.5,78.7z"/>
			<path class="st0" d="M121.6,70.4h1.2V80h-1.2V70.4z"/>
			<path class="st0" d="M131.4,77h-5.6c0.1,0.6,0.3,1.1,0.8,1.5s1,0.5,1.7,0.5c0.8,0,1.5-0.3,2-0.8L131,79c-0.3,0.4-0.7,0.6-1.2,0.8
				c-0.5,0.2-1,0.3-1.5,0.3c-0.7,0-1.4-0.1-1.9-0.4c-0.6-0.3-1-0.7-1.3-1.2s-0.5-1.1-0.5-1.8c0-0.7,0.1-1.3,0.4-1.8s0.7-1,1.2-1.2
				c0.5-0.3,1.1-0.4,1.8-0.4c0.7,0,1.2,0.1,1.8,0.4c0.5,0.3,0.9,0.7,1.2,1.2s0.4,1.1,0.4,1.8C131.4,76.7,131.4,76.8,131.4,77z
				 M126.5,74.7c-0.4,0.4-0.6,0.8-0.7,1.4h4.4c-0.1-0.6-0.3-1.1-0.7-1.4c-0.4-0.4-0.9-0.6-1.5-0.6C127.4,74.1,126.9,74.3,126.5,74.7
				z"/>
			<path class="st0" d="M143.7,73.8c0.5,0.5,0.8,1.2,0.8,2.2v4h-1.2v-3.8c0-0.7-0.2-1.2-0.5-1.5s-0.7-0.5-1.3-0.5s-1.1,0.2-1.5,0.6
				s-0.6,1-0.6,1.7V80h-1.2v-3.8c0-0.7-0.2-1.2-0.5-1.5s-0.7-0.5-1.3-0.5s-1.1,0.2-1.5,0.6s-0.6,1-0.6,1.7V80h-1.2v-6.9h1.2v1
				c0.2-0.4,0.6-0.6,1-0.8c0.4-0.2,0.9-0.3,1.4-0.3s1,0.1,1.4,0.3s0.7,0.5,1,0.9c0.3-0.4,0.6-0.7,1.1-0.9c0.5-0.2,1-0.3,1.6-0.3
				C142.6,73.1,143.2,73.3,143.7,73.8z"/>
			<path class="st0" d="M153,77h-5.6c0.1,0.6,0.3,1.1,0.8,1.5s1,0.5,1.7,0.5c0.8,0,1.5-0.3,2-0.8l0.7,0.8c-0.3,0.4-0.7,0.6-1.2,0.8
				c-0.5,0.2-1,0.3-1.5,0.3c-0.7,0-1.4-0.1-1.9-0.4c-0.6-0.3-1-0.7-1.3-1.2s-0.5-1.1-0.5-1.8c0-0.7,0.1-1.3,0.4-1.8s0.7-1,1.2-1.2
				c0.5-0.3,1.1-0.4,1.8-0.4s1.2,0.1,1.8,0.4c0.5,0.3,0.9,0.7,1.2,1.2s0.4,1.1,0.4,1.8C153,76.7,153,76.8,153,77z M148.1,74.7
				c-0.4,0.4-0.6,0.8-0.7,1.4h4.4c-0.1-0.6-0.3-1.1-0.7-1.4c-0.4-0.4-0.9-0.6-1.5-0.6S148.5,74.3,148.1,74.7z"/>
			<path class="st0" d="M160.5,73.8c0.5,0.5,0.8,1.2,0.8,2.2v4H160v-3.8c0-0.7-0.2-1.2-0.5-1.5s-0.8-0.5-1.4-0.5
				c-0.7,0-1.2,0.2-1.6,0.6s-0.6,1-0.6,1.7V80h-1.2v-6.9h1.2v1c0.2-0.4,0.6-0.6,1-0.8c0.4-0.2,0.9-0.3,1.5-0.3
				C159.3,73.1,160,73.3,160.5,73.8z"/>
			<path class="st0" d="M167.4,79.6c-0.2,0.2-0.4,0.3-0.7,0.4s-0.5,0.1-0.8,0.1c-0.7,0-1.2-0.2-1.6-0.6c-0.4-0.4-0.6-0.9-0.6-1.6
				v-3.8h-1.2v-1h1.2v-1.5h1.2v1.5h2v1h-2v3.7c0,0.4,0.1,0.7,0.3,0.9c0.2,0.2,0.5,0.3,0.8,0.3c0.4,0,0.7-0.1,1-0.3L167.4,79.6z"/>
			<path class="st0" d="M173.6,73.8c0.5,0.5,0.8,1.2,0.8,2.1V80h-1.2v-0.9c-0.2,0.3-0.5,0.6-0.9,0.7c-0.4,0.2-0.8,0.3-1.4,0.3
				c-0.8,0-1.4-0.2-1.8-0.6c-0.5-0.4-0.7-0.9-0.7-1.5s0.2-1.1,0.7-1.5c0.4-0.4,1.1-0.6,2.1-0.6h2v-0.2c0-0.5-0.2-0.9-0.5-1.2
				s-0.8-0.4-1.4-0.4c-0.4,0-0.8,0.1-1.2,0.2s-0.7,0.3-1,0.5l-0.5-0.9c0.4-0.3,0.8-0.5,1.3-0.7s1-0.2,1.6-0.2
				C172.4,73.1,173.1,73.3,173.6,73.8z M172.4,78.8c0.3-0.2,0.6-0.5,0.8-0.9v-1h-1.9c-1.1,0-1.6,0.4-1.6,1.1c0,0.3,0.1,0.6,0.4,0.8
				c0.3,0.2,0.6,0.3,1.1,0.3C171.6,79.1,172,79,172.4,78.8z"/>
			<path class="st0" d="M178.8,73.4c0.4-0.2,0.9-0.3,1.5-0.3v1.2c-0.1,0-0.2,0-0.3,0c-0.7,0-1.2,0.2-1.6,0.6c-0.4,0.4-0.6,1-0.6,1.7
				V80h-1.2v-6.9h1.2v1.2C178.1,73.9,178.4,73.6,178.8,73.4z"/>
			<path class="st0" d="M181.9,71.6c-0.2-0.2-0.2-0.3-0.2-0.6c0-0.2,0.1-0.4,0.2-0.6c0.2-0.2,0.4-0.2,0.6-0.2c0.2,0,0.4,0.1,0.6,0.2
				c0.2,0.2,0.2,0.3,0.2,0.6c0,0.2-0.1,0.4-0.2,0.6c-0.2,0.2-0.4,0.2-0.6,0.2C182.3,71.8,182.1,71.7,181.9,71.6z M181.9,73.1h1.2V80
				h-1.2V73.1z"/>
			<path class="st0" d="M186.6,79.6c-0.5-0.3-1-0.7-1.3-1.2s-0.5-1.1-0.5-1.8c0-0.7,0.2-1.3,0.5-1.8s0.7-0.9,1.3-1.2
				c0.5-0.3,1.2-0.4,1.8-0.4s1.3,0.1,1.8,0.4s1,0.7,1.3,1.2s0.5,1.1,0.5,1.8c0,0.7-0.2,1.3-0.5,1.8s-0.7,0.9-1.3,1.2
				c-0.5,0.3-1.1,0.5-1.8,0.5S187.1,79.9,186.6,79.6z M189.6,78.7c0.3-0.2,0.6-0.5,0.8-0.9s0.3-0.8,0.3-1.3s-0.1-0.9-0.3-1.3
				s-0.5-0.6-0.8-0.8c-0.3-0.2-0.7-0.3-1.2-0.3c-0.4,0-0.8,0.1-1.2,0.3c-0.3,0.2-0.6,0.5-0.8,0.8c-0.2,0.4-0.3,0.8-0.3,1.3
				s0.1,0.9,0.3,1.3s0.5,0.7,0.8,0.9c0.3,0.2,0.7,0.3,1.2,0.3C188.9,79,189.3,78.9,189.6,78.7z"/>
			<path class="st0" d="M194.1,79.8c-0.5-0.2-0.9-0.3-1.2-0.6l0.5-1c0.3,0.2,0.7,0.4,1.1,0.5s0.9,0.2,1.3,0.2c1.1,0,1.6-0.3,1.6-0.9
				c0-0.2-0.1-0.4-0.2-0.5c-0.1-0.1-0.3-0.2-0.5-0.3c-0.2-0.1-0.5-0.1-0.9-0.2c-0.6-0.1-1-0.2-1.4-0.3c-0.3-0.1-0.6-0.3-0.9-0.6
				c-0.3-0.3-0.4-0.6-0.4-1.1c0-0.6,0.3-1.1,0.8-1.5s1.2-0.6,2.1-0.6c0.5,0,0.9,0.1,1.4,0.2s0.8,0.3,1.1,0.5l-0.5,1
				c-0.6-0.4-1.2-0.5-2-0.5c-0.5,0-0.9,0.1-1.2,0.3c-0.3,0.2-0.4,0.4-0.4,0.7c0,0.2,0.1,0.4,0.2,0.5s0.3,0.2,0.6,0.3s0.5,0.1,1,0.2
				c0.6,0.1,1,0.2,1.3,0.3s0.6,0.3,0.9,0.6c0.2,0.3,0.4,0.6,0.4,1.1c0,0.6-0.3,1.1-0.8,1.5s-1.3,0.6-2.2,0.6
				C195.1,80.1,194.6,80,194.1,79.8z"/>
		</g>
		<g>
			<g>
				<g>
					<path class="st0" d="M73.1,52.7c-3.2-11.9-14-20.7-27-20.7c-2.5,0-4.9,0.3-7.2,0.9c-11,2.9-19.3,12.4-20.6,23.9H4.1
						c0.1-0.9,0.2-1.8,0.3-2.6c2.8-16.5,17.2-29.1,34.5-29.1C55.7,25.1,69.7,36.9,73.1,52.7z"/>
				</g>
				<g>
					<path class="st0" d="M73.5,65.6C70.8,82.3,56.3,95,38.9,95C21,95,6.3,81.5,4.2,64.2c0-0.4-0.1-0.8-0.1-1.2h14.3
						C19.7,74.5,28,83.9,39,86.8c2.3,0.6,4.7,0.9,7.2,0.9C59.6,87.8,70.8,78.3,73.5,65.6z"/>
				</g>
			</g>
			<g>
				<path class="st1" d="M67.6,68.9C67.6,68.8,67.6,68.8,67.6,68.9c2.9-6.8,2.4-14.9-1.3-21.2c2-2.4-0.6-5.8-3.4-4.5
					c-0.5-0.5-1-1-1.6-1.5c1.1-2.9-2.5-5.3-4.7-3.1c-6.4-3.3-14.5-3.2-20.9,0.1c-2.3-2.4-6.1,0.2-4.7,3.2c-0.8,0.7-1.5,1.4-2.2,2.2
					c-0.6,0.7,0.5,1.6,1.1,0.9c0.6-0.7,1.3-1.4,2.1-2.1c1.4,1,3.5,0.5,4.3-1.1c2.6,0.7,5,1.8,7.3,3.2c-0.2,0.7-0.1,1.5,0.2,2.1
					c-1.9,1.6-3.6,3.5-5.1,5.5c-1.4-0.4-2.9,0.3-3.5,1.6c-3,0-6,0.3-9,1c-0.3-0.5-0.7-0.9-1.1-1.2c0.6-2.2,1.4-4.2,2.6-6.1
					c0.5-0.8-0.7-1.5-1.2-0.8c-1.3,2-2.2,4.2-2.8,6.5c-3.4,0.1-4,4.8-0.7,5.7c0,6.7,2.9,13.3,7.9,17.7c-1.1,2.8,2.4,5.2,4.6,3.2
					c6.6,3.5,14.9,3.5,21.5,0c2.3,2.3,6-0.3,4.7-3.2C64.2,74.8,66.2,72,67.6,68.9L67.6,68.9z M66.7,67.3c-2-2-4.1-3.7-6.4-5.3
					c0.3-1,0-2.2-0.7-2.9c1.9-3.2,3.5-6.7,4.5-10.3c0.4,0,0.7-0.1,1-0.2C68.4,54.1,69,61.2,66.7,67.3L66.7,67.3z M33.8,75.3
					c-0.6-5.9,0.5-11.8,3.1-17.1c1.6,0.5,3.4-0.6,3.7-2.2c4.9,0.6,9.7,2.1,14.1,4.3c-0.2,0.8,0,1.7,0.5,2.4
					c-5,6.4-11.6,11.1-19.2,13.9C35.5,75.9,34.7,75.4,33.8,75.3L33.8,75.3z M56,61.1c0-0.8,0.7-1.5,1.5-1.5c1.9,0.1,1.9,2.9,0,2.9
					C56.7,62.5,56,61.9,56,61.1L56,61.1z M65.5,45.8c0,0.8-0.7,1.5-1.5,1.5c-1.9-0.1-1.9-2.9,0-2.9C64.9,44.3,65.5,45,65.5,45.8
					L65.5,45.8z M61.7,44.1c-1,1.4-0.5,3.4,1,4.2c-1,3.5-2.5,6.8-4.4,9.9c-0.4-0.1-0.8-0.1-1.2-0.1c-2-4.2-4.8-8-8.3-11
					c0.3-0.6,0.4-1.4,0.2-2.1c2.2-1.3,4.6-2.3,7-3.1c0.8,1.6,3,2,4.4,0.8C60.8,43.3,61.3,43.7,61.7,44.1L61.7,44.1z M44.7,45.9
					c0-0.8,0.7-1.5,1.5-1.5c1.9,0.1,1.9,2.9,0,2.9C45.4,47.4,44.7,46.7,44.7,45.9L44.7,45.9z M58.5,39.2c0.8,0,1.5,0.7,1.5,1.5
					c-0.1,1.9-2.8,1.9-2.9,0C57.1,39.9,57.7,39.2,58.5,39.2L58.5,39.2z M33.5,42.1c-0.8,0-1.5-0.7-1.5-1.5c0.1-1.9,2.8-1.9,2.9,0
					C35,41.5,34.3,42.1,33.5,42.1L33.5,42.1z M36.4,40.6c0-0.2,0-0.4-0.1-0.6c6-3.1,13.4-3.1,19.5-0.1c-0.1,0.3-0.1,0.5-0.1,0.8
					c-2.6,0.8-5.1,1.9-7.4,3.2c-1.1-1.2-3-1.2-4.1,0C41.7,42.5,39.1,41.3,36.4,40.6L36.4,40.6z M44.6,48.3c1,0.7,2.3,0.7,3.2,0
					c3.3,2.9,6.1,6.5,7.9,10.5c-0.1,0.1-0.2,0.2-0.4,0.3c-4.7-2.4-9.7-3.9-14.9-4.5c-0.1-0.4-0.4-0.8-0.7-1.1
					C41.2,51.6,42.8,49.8,44.6,48.3L44.6,48.3z M37.7,54c0.8,0,1.5,0.7,1.5,1.5c-0.1,1.9-2.8,1.9-2.9,0C36.3,54.7,36.9,54,37.7,54
					L37.7,54z M22.2,56.6c0-0.8,0.7-1.5,1.5-1.5c1.9,0.1,1.9,2.9,0,2.9C22.8,58.1,22.2,57.4,22.2,56.6L22.2,56.6z M24.3,59.4
					c0,0,2.2-0.5,2.2-2.8c0,0,5.6-0.9,8.4-0.9c0.1,0.7,0.3,1.3,0.8,1.8c-2.8,5.6-3.9,11.8-3.3,18c-0.3,0.1-0.5,0.3-0.8,0.5
					C27,71.8,24.3,64.8,24.3,59.4L24.3,59.4z M33.5,79.7c-0.8,0-1.5-0.7-1.5-1.5s0.7-1.5,1.5-1.5s1.5,0.7,1.5,1.5
					S34.3,79.7,33.5,79.7L33.5,79.7z M46.2,81.6c-3.5,0-6.9-0.8-10-2.4c0.1-0.4,0.2-0.8,0.2-1.1c7.8-2.8,14.7-7.8,19.9-14.3
					c0.4,0.2,0.9,0.3,1.4,0.3c0.3,1.2,0.6,2.4,0.7,3.6c0.1,0.9,1.5,0.7,1.4-0.2c-0.2-1.3-0.5-2.6-0.8-3.8c0.2-0.1,0.3-0.2,0.5-0.4
					c2.4,1.6,4.6,3.5,6.6,5.5c-1.2,2.8-3.1,5.3-5.4,7.3c-0.2-0.2-0.5-0.3-0.8-0.4c0.1-1.3,0.2-2.7,0.2-4c0-0.9-1.4-0.9-1.4,0
					c0,1.3,0,2.6-0.2,3.8c-1.7,0.3-2.8,2-2.3,3.7C53.1,80.7,49.7,81.6,46.2,81.6L46.2,81.6z M59,79.8c-0.8,0-1.5-0.7-1.5-1.5
					c0.1-1.9,2.8-1.9,2.9,0C60.4,79.1,59.8,79.8,59,79.8L59,79.8z"/>
				<path class="st0" d="M46.2,84.5c-3.7,0-7.3-0.8-10.6-2.4c-1.4,0.8-3.1,0.7-4.5-0.3c-1.4-1-2.1-2.5-1.9-4.1
					c-4.7-4.5-7.5-10.7-7.7-17.3c-1.5-0.9-2.4-2.5-2.1-4.4c0.2-1.8,1.5-3.2,3.2-3.7c0.6-2.1,1.5-4.1,2.7-6c0.4-0.7,1.2-1.1,2-1
					c-0.3-0.7-0.2-1.6,0.4-2.2c0.5-0.6,1.1-1.2,1.6-1.7C29,39.7,29.7,38,31.2,37s3.3-1,4.8-0.1c6.4-3,14.1-3,20.5-0.1
					c1.4-0.8,3.1-0.8,4.5,0.1c1.5,0.9,2.2,2.6,2,4.2c0.1,0.1,0.2,0.2,0.3,0.3c1.6-0.3,3.3,0.3,4.3,1.6c1.1,1.4,1.2,3.1,0.5,4.6
					c3.6,6.5,4,14.7,1,21.6L69,69.4l0,0c-1.3,3.1-3.2,5.8-5.6,8.2c0.3,1.7-0.4,3.3-1.9,4.4c-1.5,1-3.2,1-4.7,0.2
					C53.5,83.7,49.8,84.5,46.2,84.5z M38.8,78.7c5,2,10.9,1.8,15.8-0.4c0-0.8,0.3-1.6,0.7-2.3c0.5-0.7,1.1-1.3,1.8-1.6
					c0.1-0.9,0.1-1.8,0.1-2.7c0-0.9,0.5-1.7,1.4-2.1c-0.9-0.2-1.6-0.9-1.7-1.8c-0.1-0.7-0.2-1.3-0.4-2
					C51.7,71.4,45.7,75.9,38.8,78.7z M59,78.3C59,78.3,58.9,78.3,59,78.3L59,78.3z M33.5,78.2L33.5,78.2L33.5,78.2z M35.2,74.2
					c0.4,0.2,0.8,0.4,1.2,0.7c6.6-2.6,12.4-6.8,17-12.3c-0.2-0.4-0.3-0.9-0.3-1.4c-3.7-1.8-7.6-2.9-11.6-3.6
					c-0.4,0.6-0.9,1.2-1.6,1.6c-0.7,0.4-1.4,0.6-2.2,0.6C35.8,64.4,34.9,69.3,35.2,74.2z M59.9,69.5c1,0.2,1.7,1.1,1.7,2.1
					c0,0.4,0,0.9,0,1.3c1-1.2,1.9-2.5,2.6-3.9c-1-1-2-1.9-3.1-2.8c0.1,0.3,0.1,0.6,0.1,0.9C61.4,68.2,60.9,69.1,59.9,69.5z
					 M25.9,60.4c0.2,3.8,1.8,8.7,4.9,12.5c-0.1-5.2,1-10.4,3.2-15.2c-0.1-0.1-0.1-0.3-0.2-0.4c-1.9,0.1-4.5,0.5-5.9,0.7
					C27.5,59.2,26.6,59.9,25.9,60.4z M61.9,61.3c1.4,1,2.8,2.1,4.1,3.3c1.1-4.4,0.7-9.2-1.2-13.3c-0.9,2.7-2.1,5.2-3.5,7.7
					C61.7,59.6,61.9,60.4,61.9,61.3z M56.1,61.1h1.4l0,0H56.1L56.1,61.1z M22.2,56.6h1.4l0,0H22.2L22.2,56.6z M50.5,46.8
					c2.9,2.7,5.4,5.9,7.3,9.4c1.3-2.3,2.4-4.8,3.2-7.3c-0.6-0.6-1-1.3-1.1-2.1c-0.1-0.6-0.1-1.3,0-1.9c-0.7,0.2-1.3,0.2-2,0.1
					c-0.9-0.2-1.7-0.6-2.3-1.2c-1.7,0.6-3.3,1.3-4.9,2.1C50.6,46.2,50.5,46.5,50.5,46.8z M41.9,53.3c3.7,0.5,7.3,1.5,10.7,2.9
					c-1.4-2.2-3.1-4.3-5.1-6.1c-0.9,0.3-1.8,0.3-2.7,0C43.8,51.1,42.8,52.1,41.9,53.3z M37.8,55.5L37.8,55.5L37.8,55.5z M26.7,53.5
					C26.8,53.6,26.8,53.6,26.7,53.5c2.5-0.4,5-0.7,7.5-0.7c0.9-1.1,2.2-1.8,3.6-1.7c1.2-1.6,2.5-3,4-4.3c-0.1-0.3-0.1-0.5-0.1-0.8
					c-1.6-0.9-3.4-1.6-5.1-2.2c-0.6,0.6-1.3,1-2.1,1.2s-1.7,0.2-2.5-0.1c-0.4,0.4-0.8,0.8-1.2,1.3c-0.5,0.5-1.1,0.8-1.8,0.7
					c0.2,0.6,0.2,1.3-0.2,1.9C28,50.3,27.2,51.9,26.7,53.5z M44.8,45.9h1.4l0,0H44.8L44.8,45.9z M64,45.8L64,45.8h1.4l0,0H64z
					 M46.2,41.5c0.8,0,1.5,0.2,2.2,0.6c1.3-0.7,2.7-1.4,4.2-2c-4.1-1.3-8.6-1.3-12.7,0c1.4,0.6,2.8,1.2,4.2,2
					C44.7,41.7,45.4,41.5,46.2,41.5z M58.6,40.7L58.6,40.7L58.6,40.7z M33.5,40.6C33.5,40.6,33.5,40.7,33.5,40.6L33.5,40.6z"/>
			</g>
			<g>
				<circle class="st0" cx="23.2" cy="56.8" r="1.3"/>
				<path class="st0" d="M23.2,59.7c-1.6,0-2.8-1.3-2.8-2.8s1.3-2.8,2.8-2.8s2.8,1.3,2.8,2.8S24.8,59.7,23.2,59.7z M23.2,56.7
					c-0.1,0-0.2,0.1-0.2,0.2c0,0.2,0.3,0.2,0.3,0C23.4,56.7,23.3,56.7,23.2,56.7z"/>
			</g>
			<g>
				<circle class="st0" cx="33.5" cy="40.7" r="1.3"/>
				<path class="st0" d="M33.5,43.5c-1.6,0-2.8-1.3-2.8-2.8s1.3-2.8,2.8-2.8s2.8,1.3,2.8,2.8S35.1,43.5,33.5,43.5z M33.5,40.5
					c-0.1,0-0.2,0.1-0.2,0.2c0,0.2,0.3,0.2,0.3,0C33.7,40.6,33.6,40.5,33.5,40.5z"/>
			</g>
			<g>
				<circle class="st0" cx="46.2" cy="45.9" r="1.3"/>
				<path class="st0" d="M46.2,48.8c-1.6,0-2.8-1.3-2.8-2.8s1.3-2.8,2.8-2.8S49,44.5,49,46S47.8,48.8,46.2,48.8z M46.2,45.8
					c-0.1,0-0.2,0.1-0.2,0.2c0,0.2,0.3,0.2,0.3,0S46.3,45.8,46.2,45.8z"/>
			</g>
			<g>
				<circle class="st0" cx="37.7" cy="55.7" r="1.3"/>
				<path class="st0" d="M37.7,58.6c-1.6,0-2.8-1.3-2.8-2.8s1.3-2.8,2.8-2.8s2.8,1.3,2.8,2.8S39.3,58.6,37.7,58.6z M37.7,55.6
					c-0.1,0-0.2,0.1-0.2,0.2c0,0.2,0.3,0.2,0.3,0C37.9,55.6,37.8,55.6,37.7,55.6z"/>
			</g>
			<g>
				<circle class="st0" cx="58.5" cy="40.7" r="1.3"/>
				<path class="st0" d="M58.5,43.5c-1.6,0-2.8-1.3-2.8-2.8s1.3-2.8,2.8-2.8s2.8,1.3,2.8,2.8S60.1,43.5,58.5,43.5z M58.5,40.5
					c-0.1,0-0.2,0.1-0.2,0.2c0,0.2,0.3,0.2,0.3,0C58.7,40.6,58.6,40.5,58.5,40.5z"/>
			</g>
			<g>
				<circle class="st0" cx="64.1" cy="45.8" r="1.3"/>
				<path class="st0" d="M64.1,48.6c-1.6,0-2.8-1.3-2.8-2.8s1.3-2.8,2.8-2.8s2.8,1.3,2.8,2.8S65.6,48.6,64.1,48.6z M64.1,45.6
					c-0.1,0-0.2,0.1-0.2,0.2c0,0.2,0.3,0.2,0.3,0C64.2,45.7,64.1,45.6,64.1,45.6z"/>
			</g>
			<g>
				<circle class="st0" cx="57.5" cy="61.1" r="1.3"/>
				<path class="st0" d="M57.5,63.9c-1.6,0-2.8-1.3-2.8-2.8s1.3-2.8,2.8-2.8s2.8,1.3,2.8,2.8S59,63.9,57.5,63.9z M57.5,60.9
					c-0.1,0-0.2,0.1-0.2,0.2c0,0.2,0.3,0.2,0.3,0C57.6,61,57.6,60.9,57.5,60.9z"/>
			</g>
			<g>
				<circle class="st0" cx="58.8" cy="78.3" r="1.3"/>
				<path class="st0" d="M58.8,81.2c-1.6,0-2.8-1.3-2.8-2.8s1.3-2.8,2.8-2.8s2.8,1.3,2.8,2.8S60.4,81.2,58.8,81.2z M58.8,78.2
					c-0.1,0-0.2,0.1-0.2,0.2c0,0.2,0.3,0.2,0.3,0C59,78.3,58.9,78.2,58.8,78.2z"/>
			</g>
			<g>
				<circle class="st0" cx="33.4" cy="78.1" r="1.3"/>
				<path class="st0" d="M33.4,80.9c-1.6,0-2.8-1.3-2.8-2.8s1.3-2.8,2.8-2.8s2.8,1.3,2.8,2.8S35,80.9,33.4,80.9z M33.4,77.9
					c-0.1,0-0.2,0.1-0.2,0.2c0,0.2,0.3,0.2,0.3,0C33.5,78,33.5,77.9,33.4,77.9z"/>
			</g>
		</g>
	</g>
</g>
</svg>
