<?xml version="1.0" encoding="utf-8"?>
<!-- Generator: Adobe Illustrator 23.0.1, SVG Export Plug-In . SVG Version: 6.00 Build 0)  -->
<svg version="1.1" id="Layer_1" xmlns="http://www.w3.org/2000/svg" xmlns:xlink="http://www.w3.org/1999/xlink" x="0px" y="0px"
	 viewBox="0 0 375.2 118.7" style="enable-background:new 0 0 375.2 118.7;" xml:space="preserve">
<style type="text/css">
	.st0{fill-rule:evenodd;clip-rule:evenodd;}
	.st1{fill:#D9117B;}
	.st2{fill-rule:evenodd;clip-rule:evenodd;fill:none;}
	.st3{stroke:#231F20;stroke-width:0.5;stroke-miterlimit:10;}
</style>
<g>
	<g>
		<path class="st0" d="M29,67.9h96.8l5.7,1.8H24.2L29,67.9L29,67.9z M10.8,72.1h133.7l-17.3-6.8H28.2L10.8,72.1z"/>
		<g>
			<defs>
				<path id="SVGID_1_" d="M34.7,48.6C48.3,31.3,59.9,13.5,78.9,2.7c2.3-1.3,6.5,21,45.7,45.9h0.1l0.2,0.2h-0.5
					c-26,15-45.1,39.8-45.1,39.8c-3.9,0-31-16.9-45-40H34.7z"/>
			</defs>
			<clipPath id="SVGID_2_">
				<use xlink:href="#SVGID_1_"  style="overflow:visible;"/>
			</clipPath>
		</g>
		<path class="st1" d="M92.2,74.3c-8,8.1-12.8,14.3-12.8,14.3c-2.2,0-11.7-5.3-22.1-14.1"/>
		<path class="st1" d="M51.9,69.7c-7.3-6.5-12.1-12.2-17.6-21.2h0.3C48.3,31.3,59.9,13.5,78.9,2.7c2.3-1.3,6.6,21,45.7,45.9h0.1
			l0.1,0.2h-0.5c-11.8,6.9-19.7,13.3-27.6,21"/>
		<g>
			<rect x="153.9" y="23.6" class="st0" width="21.9" height="64.9"/>
			<polyline class="st2" points="215,61.6 215,88.6 190.9,88.6 190.9,23.6 269,23.6 			"/>
			<polygon class="st0" points="288.4,23.6 288.4,88.6 365.1,88.6 365.1,76.3 309.5,76.3 309.5,61.6 365.1,61.6 365.1,50.2 
				309.9,50.2 309.9,35.4 365.1,35.4 365.1,23.6 			"/>
			<polygon class="st3" points="183.2,88.6 183.2,23.8 207.3,23.8 256.1,62 255.7,23.8 279.8,23.8 279.8,88.6 254.2,88.6 
				208.6,49.8 209,88.6 			"/>
		</g>
		<g>
			<path d="M10.8,97.6h5.2v16.9h-5.2V97.6z"/>
			<path d="M19.5,102.3h4.4v2c0.7-0.8,1.3-1.4,2-1.7c0.7-0.4,1.5-0.5,2.4-0.5c1.3,0,2.3,0.4,3.1,1.2c0.7,0.8,1.1,2,1.1,3.6v7.8h-4.7
				v-6.7c0-0.8-0.1-1.3-0.4-1.6c-0.3-0.3-0.7-0.5-1.2-0.5c-0.6,0-1,0.2-1.4,0.6c-0.4,0.4-0.5,1.2-0.5,2.3v5.9h-4.7V102.3z"/>
			<path d="M34.5,111.2l4.7-0.4c0.2,0.6,0.5,0.9,0.8,1.2c0.3,0.2,0.8,0.4,1.4,0.4c0.6,0,1.1-0.1,1.5-0.4c0.3-0.2,0.4-0.4,0.4-0.7
				c0-0.3-0.2-0.6-0.5-0.8c-0.3-0.1-0.9-0.3-2-0.5c-1.6-0.3-2.8-0.5-3.4-0.8c-0.6-0.2-1.2-0.7-1.6-1.2c-0.4-0.6-0.7-1.2-0.7-2
				c0-0.8,0.2-1.5,0.7-2.1c0.5-0.6,1.1-1,1.9-1.3c0.8-0.3,1.9-0.4,3.3-0.4c1.5,0,2.5,0.1,3.2,0.3c0.7,0.2,1.3,0.6,1.7,1
				c0.5,0.5,0.9,1.1,1.2,1.9l-4.5,0.4c-0.1-0.4-0.3-0.7-0.6-0.9c-0.4-0.2-0.8-0.4-1.3-0.4c-0.5,0-0.9,0.1-1.2,0.3
				c-0.2,0.2-0.4,0.4-0.4,0.7c0,0.3,0.2,0.5,0.5,0.7c0.3,0.2,1,0.3,2,0.4c1.6,0.2,2.7,0.4,3.5,0.7c0.8,0.3,1.3,0.8,1.7,1.3
				c0.4,0.6,0.6,1.2,0.6,1.9c0,0.7-0.2,1.4-0.6,2.1c-0.4,0.7-1.1,1.2-2,1.6c-0.9,0.4-2.2,0.6-3.8,0.6c-2.2,0-3.8-0.3-4.8-1
				C35.4,113.2,34.7,112.3,34.5,111.2z"/>
			<path d="M55.4,97.6v4.7H58v3.4h-2.6v4.3c0,0.5,0.1,0.9,0.2,1c0.2,0.3,0.4,0.4,0.8,0.4c0.3,0,0.8-0.1,1.5-0.3l0.3,3.2
				c-1.2,0.3-2.2,0.4-3.3,0.4c-1.2,0-2-0.2-2.6-0.4c-0.6-0.3-1-0.8-1.2-1.4c-0.3-0.6-0.4-1.6-0.4-3v-4.3H49v-3.4h1.7V100L55.4,97.6z
				"/>
			<path d="M60.4,97.6h4.7v3.2h-4.7V97.6z M60.4,102.3h4.7v12.3h-4.7V102.3z"/>
			<path d="M73.8,97.6v4.7h2.6v3.4h-2.6v4.3c0,0.5,0,0.9,0.1,1c0.2,0.3,0.4,0.4,0.8,0.4c0.3,0,0.8-0.1,1.5-0.3l0.3,3.2
				c-1.2,0.3-2.2,0.4-3.3,0.4c-1.2,0-2-0.2-2.6-0.4c-0.6-0.3-1-0.8-1.2-1.4c-0.3-0.6-0.4-1.6-0.4-3v-4.3h-1.7v-3.4h1.7V100
				L73.8,97.6z"/>
			<path d="M91.6,114.6h-4.4v-2c-0.7,0.8-1.3,1.4-2,1.7c-0.7,0.3-1.5,0.5-2.5,0.5c-1.3,0-2.3-0.4-3-1.2c-0.7-0.8-1.1-2-1.1-3.6v-7.8
				h4.7v6.7c0,0.8,0.1,1.3,0.4,1.6c0.3,0.3,0.7,0.5,1.2,0.5c0.6,0,1-0.2,1.4-0.6c0.4-0.4,0.5-1.2,0.5-2.3v-5.9h4.7V114.6z"/>
			<path d="M100.1,97.6v4.7h2.6v3.4h-2.6v4.3c0,0.5,0,0.9,0.2,1c0.2,0.3,0.4,0.4,0.8,0.4c0.3,0,0.8-0.1,1.5-0.3l0.3,3.2
				c-1.2,0.3-2.2,0.4-3.3,0.4c-1.2,0-2-0.2-2.6-0.4c-0.6-0.3-1-0.8-1.2-1.4c-0.3-0.6-0.4-1.6-0.4-3v-4.3h-1.7v-3.4h1.7V100
				L100.1,97.6z"/>
			<path d="M104.3,108.5c0-1.9,0.6-3.4,1.9-4.6c1.3-1.2,3-1.8,5.1-1.8c2.5,0,4.3,0.7,5.6,2.1c1,1.1,1.5,2.6,1.5,4.2
				c0,1.9-0.6,3.4-1.9,4.6c-1.3,1.2-3,1.8-5.2,1.8c-2,0-3.6-0.5-4.8-1.5C105.1,112.1,104.3,110.5,104.3,108.5z M109,108.5
				c0,1.1,0.2,1.9,0.7,2.4c0.4,0.5,1,0.8,1.7,0.8c0.7,0,1.2-0.3,1.7-0.8c0.4-0.5,0.7-1.3,0.7-2.5c0-1.1-0.2-1.9-0.7-2.4
				c-0.4-0.5-1-0.8-1.6-0.8c-0.7,0-1.3,0.3-1.7,0.8C109.3,106.6,109,107.4,109,108.5z"/>
			<path d="M128.9,97.6h4.9l6.4,9.4v-9.4h4.9v16.9h-4.9l-6.3-9.3v9.3h-4.9V97.6z"/>
			<path d="M152.6,106.3l-4.5-0.5c0.2-0.8,0.4-1.4,0.7-1.9c0.3-0.4,0.8-0.8,1.4-1.2c0.4-0.2,1-0.4,1.8-0.6c0.8-0.1,1.6-0.2,2.4-0.2
				c1.4,0,2.5,0.1,3.4,0.2c0.9,0.2,1.6,0.5,2.1,1c0.4,0.3,0.7,0.8,0.9,1.5c0.2,0.6,0.3,1.2,0.3,1.8v5.4c0,0.6,0,1,0.1,1.4
				c0.1,0.3,0.2,0.7,0.5,1.3h-4.4c-0.2-0.3-0.3-0.6-0.3-0.7c-0.1-0.2-0.1-0.4-0.2-0.8c-0.6,0.6-1.2,1-1.8,1.3
				c-0.8,0.3-1.8,0.5-2.9,0.5c-1.5,0-2.6-0.3-3.3-1c-0.8-0.7-1.1-1.5-1.1-2.5c0-0.9,0.3-1.7,0.8-2.3c0.5-0.6,1.6-1,3-1.3
				c1.8-0.4,2.9-0.6,3.4-0.7c0.5-0.1,1.1-0.3,1.7-0.6c0-0.6-0.1-1-0.4-1.2c-0.2-0.2-0.7-0.3-1.3-0.3c-0.8,0-1.3,0.1-1.7,0.4
				C153,105.4,152.7,105.7,152.6,106.3z M156.6,108.7c-0.6,0.2-1.3,0.4-2,0.6c-1,0.3-1.6,0.5-1.8,0.8c-0.3,0.3-0.4,0.5-0.4,0.9
				c0,0.4,0.1,0.7,0.4,0.9c0.3,0.2,0.6,0.4,1.1,0.4c0.5,0,1-0.1,1.5-0.4c0.4-0.3,0.8-0.6,1-0.9c0.2-0.4,0.3-0.8,0.3-1.4V108.7z"/>
			<path d="M173.2,109.8l4.5,0.5c-0.2,0.9-0.7,1.7-1.2,2.4c-0.6,0.7-1.3,1.2-2.2,1.6c-0.9,0.4-2,0.6-3.3,0.6c-1.3,0-2.4-0.1-3.3-0.4
				c-0.9-0.2-1.6-0.6-2.2-1.2c-0.6-0.5-1.1-1.2-1.5-1.9c-0.4-0.7-0.5-1.7-0.5-2.9c0-1.3,0.2-2.3,0.6-3.2c0.3-0.6,0.7-1.2,1.3-1.7
				c0.5-0.5,1.1-0.9,1.7-1.1c0.9-0.4,2.1-0.6,3.5-0.6c2,0,3.5,0.4,4.6,1.1c1,0.7,1.8,1.8,2.2,3.1l-4.4,0.6c-0.1-0.5-0.4-0.9-0.8-1.2
				c-0.4-0.3-0.9-0.4-1.5-0.4c-0.8,0-1.4,0.3-1.9,0.8c-0.5,0.6-0.7,1.4-0.7,2.5c0,1,0.2,1.8,0.7,2.3c0.5,0.5,1.1,0.8,1.8,0.8
				c0.6,0,1.1-0.2,1.6-0.5C172.7,110.9,173,110.4,173.2,109.8z"/>
			<path d="M180,97.6h4.7v3.2H180V97.6z M180,102.3h4.7v12.3H180V102.3z"/>
			<path d="M187.1,108.5c0-1.9,0.6-3.4,1.9-4.6c1.3-1.2,3-1.8,5.1-1.8c2.5,0,4.3,0.7,5.6,2.1c1,1.1,1.5,2.6,1.5,4.2
				c0,1.9-0.6,3.4-1.9,4.6c-1.3,1.2-3,1.8-5.2,1.8c-2,0-3.6-0.5-4.8-1.5C187.9,112.1,187.1,110.5,187.1,108.5z M191.8,108.5
				c0,1.1,0.2,1.9,0.7,2.4c0.4,0.5,1,0.8,1.7,0.8c0.7,0,1.2-0.3,1.7-0.8c0.4-0.5,0.7-1.3,0.7-2.5c0-1.1-0.2-1.9-0.7-2.4
				c-0.4-0.5-1-0.8-1.6-0.8c-0.7,0-1.3,0.3-1.7,0.8C192.1,106.6,191.8,107.4,191.8,108.5z"/>
			<path d="M203.5,102.3h4.4v2c0.7-0.8,1.3-1.4,2-1.7c0.7-0.4,1.5-0.5,2.5-0.5c1.3,0,2.3,0.4,3.1,1.2c0.7,0.8,1.1,2,1.1,3.6v7.8
				h-4.7v-6.7c0-0.8-0.1-1.3-0.4-1.6c-0.3-0.3-0.7-0.5-1.2-0.5c-0.6,0-1,0.2-1.4,0.6c-0.4,0.4-0.5,1.2-0.5,2.3v5.9h-4.7V102.3z"/>
			<path d="M223.5,106.3l-4.5-0.5c0.2-0.8,0.4-1.4,0.7-1.9c0.3-0.4,0.8-0.8,1.4-1.2c0.4-0.2,1-0.4,1.8-0.6c0.8-0.1,1.6-0.2,2.4-0.2
				c1.4,0,2.5,0.1,3.4,0.2c0.9,0.2,1.6,0.5,2.1,1c0.4,0.3,0.7,0.8,0.9,1.5c0.2,0.6,0.3,1.2,0.3,1.8v5.4c0,0.6,0,1,0.1,1.4
				c0.1,0.3,0.2,0.7,0.5,1.3h-4.4c-0.2-0.3-0.3-0.6-0.3-0.7c-0.1-0.2-0.1-0.4-0.2-0.8c-0.6,0.6-1.2,1-1.8,1.3
				c-0.8,0.3-1.8,0.5-2.9,0.5c-1.5,0-2.6-0.3-3.3-1c-0.8-0.7-1.1-1.5-1.1-2.5c0-0.9,0.3-1.7,0.8-2.3c0.5-0.6,1.6-1,3-1.3
				c1.8-0.4,2.9-0.6,3.4-0.7c0.5-0.1,1.1-0.3,1.7-0.6c0-0.6-0.1-1-0.4-1.2c-0.2-0.2-0.7-0.3-1.3-0.3c-0.8,0-1.3,0.1-1.7,0.4
				C224,105.4,223.7,105.7,223.5,106.3z M227.6,108.7c-0.6,0.2-1.3,0.4-2,0.6c-1,0.3-1.6,0.5-1.8,0.8c-0.3,0.3-0.4,0.5-0.4,0.9
				c0,0.4,0.1,0.7,0.4,0.9c0.3,0.2,0.6,0.4,1.1,0.4c0.5,0,1-0.1,1.5-0.4c0.4-0.3,0.8-0.6,1-0.9c0.2-0.4,0.3-0.8,0.3-1.4V108.7z"/>
			<path d="M235.2,97.6h4.7v16.9h-4.7V97.6z"/>
			<path d="M251.1,97.6h14v3.6h-8.8v2.7h8.1v3.5h-8.1v3.3h9v3.8h-14.3V97.6z"/>
			<path d="M268.1,97.6h4.7v16.9h-4.7V97.6z"/>
			<path d="M289.4,109.6H280c0.1,0.8,0.3,1.3,0.6,1.7c0.5,0.5,1,0.8,1.8,0.8c0.5,0,0.9-0.1,1.3-0.3c0.3-0.1,0.5-0.4,0.8-0.8l4.6,0.4
				c-0.7,1.2-1.6,2.1-2.6,2.7c-1,0.5-2.4,0.8-4.3,0.8c-1.6,0-2.9-0.2-3.8-0.7c-0.9-0.5-1.7-1.2-2.3-2.2c-0.6-1-0.9-2.2-0.9-3.5
				c0-1.9,0.6-3.5,1.8-4.7c1.2-1.2,2.9-1.8,5.1-1.8c1.8,0,3.1,0.3,4.2,0.8c1,0.5,1.8,1.3,2.3,2.3c0.5,1,0.8,2.3,0.8,3.9V109.6z
				 M284.6,107.3c-0.1-0.9-0.3-1.6-0.7-1.9c-0.4-0.4-0.9-0.6-1.6-0.6c-0.7,0-1.3,0.3-1.8,0.9c-0.3,0.4-0.5,0.9-0.5,1.6H284.6z"/>
			<path d="M300.7,109.8l4.5,0.5c-0.2,0.9-0.7,1.7-1.2,2.4c-0.6,0.7-1.3,1.2-2.2,1.6c-0.9,0.4-2,0.6-3.3,0.6c-1.3,0-2.4-0.1-3.3-0.4
				c-0.9-0.2-1.6-0.6-2.2-1.2c-0.6-0.5-1.1-1.2-1.5-1.9c-0.4-0.7-0.5-1.7-0.5-2.9c0-1.3,0.2-2.3,0.6-3.2c0.3-0.6,0.7-1.2,1.3-1.7
				c0.5-0.5,1.1-0.9,1.7-1.1c0.9-0.4,2.1-0.6,3.5-0.6c2,0,3.5,0.4,4.6,1.1c1,0.7,1.8,1.8,2.2,3.1l-4.4,0.6c-0.1-0.5-0.4-0.9-0.8-1.2
				c-0.4-0.3-0.9-0.4-1.5-0.4c-0.8,0-1.4,0.3-1.9,0.8c-0.5,0.6-0.7,1.4-0.7,2.5c0,1,0.2,1.8,0.7,2.3c0.5,0.5,1.1,0.8,1.8,0.8
				c0.6,0,1.1-0.2,1.6-0.5C300.2,110.9,300.5,110.4,300.7,109.8z"/>
			<path d="M313,97.6v4.7h2.6v3.4H313v4.3c0,0.5,0.1,0.9,0.1,1c0.2,0.3,0.4,0.4,0.8,0.4c0.3,0,0.8-0.1,1.5-0.3l0.3,3.2
				c-1.2,0.3-2.3,0.4-3.3,0.4c-1.2,0-2-0.2-2.6-0.4c-0.6-0.3-1-0.8-1.2-1.4c-0.3-0.6-0.4-1.6-0.4-3v-4.3h-1.7v-3.4h1.7V100L313,97.6
				z"/>
			<path d="M317.2,108.5c0-1.9,0.6-3.4,1.9-4.6c1.3-1.2,3-1.8,5.1-1.8c2.5,0,4.3,0.7,5.6,2.1c1,1.1,1.5,2.6,1.5,4.2
				c0,1.9-0.6,3.4-1.9,4.6c-1.3,1.2-3,1.8-5.2,1.8c-2,0-3.6-0.5-4.8-1.5C318,112.1,317.2,110.5,317.2,108.5z M322,108.5
				c0,1.1,0.2,1.9,0.7,2.4c0.4,0.5,1,0.8,1.7,0.8c0.7,0,1.2-0.3,1.7-0.8c0.4-0.5,0.7-1.3,0.7-2.5c0-1.1-0.2-1.9-0.7-2.4
				c-0.4-0.5-1-0.8-1.6-0.8c-0.7,0-1.3,0.3-1.7,0.8C322.2,106.6,322,107.4,322,108.5z"/>
			<path d="M333.6,102.3h4.4v2c0.4-0.9,0.9-1.5,1.3-1.8c0.5-0.3,1-0.5,1.7-0.5c0.7,0,1.5,0.2,2.3,0.6l-1.5,3.3
				c-0.6-0.2-1-0.3-1.3-0.3c-0.6,0-1.1,0.3-1.4,0.8c-0.5,0.7-0.7,2.1-0.7,4v4.1h-4.7V102.3z"/>
			<path d="M348.8,106.3l-4.5-0.5c0.2-0.8,0.4-1.4,0.7-1.9c0.3-0.4,0.8-0.8,1.4-1.2c0.4-0.2,1-0.4,1.8-0.6c0.8-0.1,1.6-0.2,2.4-0.2
				c1.4,0,2.5,0.1,3.4,0.2c0.9,0.2,1.6,0.5,2.1,1c0.4,0.3,0.7,0.8,0.9,1.5c0.2,0.6,0.3,1.2,0.3,1.8v5.4c0,0.6,0,1,0.1,1.4
				c0.1,0.3,0.2,0.7,0.5,1.3h-4.4c-0.2-0.3-0.3-0.6-0.3-0.7c-0.1-0.2-0.1-0.4-0.2-0.8c-0.6,0.6-1.2,1-1.8,1.3
				c-0.8,0.3-1.8,0.5-2.9,0.5c-1.5,0-2.6-0.3-3.3-1c-0.8-0.7-1.1-1.5-1.1-2.5c0-0.9,0.3-1.7,0.8-2.3c0.6-0.6,1.6-1,3-1.3
				c1.8-0.4,2.9-0.6,3.4-0.7c0.5-0.1,1.1-0.3,1.7-0.6c0-0.6-0.1-1-0.4-1.2c-0.2-0.2-0.7-0.3-1.3-0.3c-0.8,0-1.3,0.1-1.7,0.4
				C349.2,105.4,349,105.7,348.8,106.3z M352.9,108.7c-0.6,0.2-1.3,0.4-2,0.6c-1,0.3-1.6,0.5-1.8,0.8c-0.3,0.3-0.4,0.5-0.4,0.9
				c0,0.4,0.1,0.7,0.4,0.9c0.3,0.2,0.6,0.4,1.1,0.4c0.5,0,1-0.1,1.5-0.4c0.5-0.3,0.8-0.6,1-0.9c0.2-0.4,0.3-0.8,0.3-1.4V108.7z"/>
			<path d="M360.4,97.6h4.7v16.9h-4.7V97.6z"/>
		</g>
	</g>
</g>
</svg>
