<?xml version="1.0" encoding="iso-8859-1"?>
<!-- Generator: Adobe Illustrator 23.0.1, SVG Export Plug-In . SVG Version: 6.00 Build 0)  -->
<svg version="1.1" id="Capa_1" xmlns="http://www.w3.org/2000/svg" xmlns:xlink="http://www.w3.org/1999/xlink" x="0px" y="0px"
	 viewBox="0 0 1200 1200" style="enable-background:new 0 0 1200 1200;" xml:space="preserve">
<g>
	<rect x="435.017" y="468.145" style="fill:#FFFFFF;" width="80.482" height="207.545"/>
	<polygon style="fill:#FFFFFF;" points="1189,506.123 1189,468.013 994.157,468.013 994.157,468.009 913.679,468.009 
		913.679,675.554 968.62,675.554 994.157,675.554 1189,675.554 1189,637.061 994.157,637.061 994.157,590.84 1189,590.84 
		1189,552.726 994.157,552.726 994.157,506.123 	"/>
	<polygon style="fill:#FFFFFF;" points="795.065,468.145 795.065,590.977 634.101,468.145 553.623,468.145 553.623,675.69 
		634.101,675.69 634.101,552.851 795.065,675.69 875.547,675.69 875.547,468.145 	"/>
	<g>
		<path style="fill:#FFFFFF;" d="M340.86,608.414h-60.626c22.166-18.118,45.204-35.208,69.131-51.096
			c-55.184-33.949-101.636-80.666-135.296-136.041c-55.225,35.008-102.478,81.416-138.557,135.887
			c13.006,18.313,27.559,35.428,43.404,51.25H67.224l-55.067,17.79h383.771L340.86,608.414z M50.275,619.433l16.949-6.783h55.959
			c2.36,2.289,4.745,4.552,7.161,6.783H50.275z M275.08,612.649h65.78l16.943,6.783h-90.822
			C269.664,617.153,272.37,614.898,275.08,612.649z"/>
		<path style="fill:#FFFFFF;" d="M207.153,675.124c15.123-15.474,30.846-30.353,47.063-44.673H142.726
			C162.617,647.348,184.183,662.333,207.153,675.124z"/>
	</g>
	<g>
		<path style="fill:#FFFFFF;" d="M12.519,722.157h17.414v56.225H12.519V722.157z"/>
		<path style="fill:#FFFFFF;" d="M41.359,737.646h14.532v6.632c2.178-2.702,4.378-4.64,6.604-5.801
			c2.22-1.173,4.931-1.757,8.124-1.757c4.321,0,7.704,1.29,10.149,3.857c2.439,2.574,3.658,6.544,3.658,11.916v25.89H68.742v-22.397
			c0-2.57-0.473-4.371-1.419-5.43c-0.948-1.059-2.277-1.596-3.989-1.596c-1.895,0-3.427,0.717-4.603,2.151
			c-1.174,1.43-1.764,3.996-1.764,7.717v19.555H41.359V737.646z"/>
		<path style="fill:#FFFFFF;" d="M90.99,767.062l15.489-1.456c0.641,1.845,1.536,3.151,2.69,3.941
			c1.149,0.802,2.682,1.191,4.6,1.191c2.097,0,3.723-0.438,4.868-1.338c0.894-0.662,1.342-1.485,1.342-2.485
			c0-1.118-0.585-2-1.764-2.599c-0.843-0.43-3.082-0.974-6.709-1.618c-5.422-0.937-9.183-1.809-11.292-2.614
			c-2.11-0.809-3.886-2.173-5.334-4.085c-1.445-1.908-2.167-4.096-2.167-6.555c0-2.68,0.778-4.993,2.34-6.93
			c1.558-1.949,3.705-3.39,6.443-4.349c2.737-0.963,6.405-1.445,11.008-1.445c4.86,0,8.44,0.379,10.759,1.118
			c2.312,0.743,4.241,1.897,5.791,3.452c1.544,1.559,2.831,3.669,3.851,6.327l-14.801,1.463c-0.389-1.305-1.024-2.272-1.919-2.882
			c-1.228-0.82-2.708-1.224-4.448-1.224c-1.764,0-3.051,0.312-3.855,0.941c-0.81,0.621-1.211,1.375-1.211,2.272
			c0,0.996,0.512,1.754,1.538,2.257c1.018,0.515,3.245,0.978,6.671,1.386c5.189,0.585,9.055,1.397,11.582,2.449
			c2.529,1.051,4.466,2.552,5.809,4.478c1.343,1.945,2.015,4.077,2.015,6.404c0,2.346-0.705,4.633-2.126,6.853
			c-1.421,2.228-3.659,3.993-6.715,5.312c-3.054,1.313-7.216,1.967-12.485,1.967c-7.437,0-12.739-1.059-15.893-3.184
			C93.908,773.992,91.881,770.977,90.99,767.062z"/>
		<path style="fill:#FFFFFF;" d="M160.557,722.157v15.489h8.59v11.434h-8.59v14.43c0,1.732,0.167,2.882,0.498,3.441
			c0.512,0.868,1.406,1.298,2.685,1.298c1.149,0,2.76-0.324,4.831-0.989l1.153,10.768c-3.86,0.842-7.467,1.265-10.815,1.265
			c-3.887,0-6.753-0.5-8.59-1.493c-1.843-0.996-3.202-2.5-4.085-4.533c-0.882-2.029-1.322-5.32-1.322-9.864V749.08h-5.753v-11.434
			h5.753v-7.478L160.557,722.157z"/>
		<path style="fill:#FFFFFF;" d="M177.164,722.157h15.606v10.621h-15.606V722.157z M177.164,737.646h15.606v40.735h-15.606V737.646z
			"/>
		<path style="fill:#FFFFFF;" d="M221.576,722.157v15.489h8.589v11.434h-8.589v14.43c0,1.732,0.162,2.882,0.495,3.441
			c0.512,0.868,1.406,1.298,2.685,1.298c1.153,0,2.764-0.324,4.834-0.989l1.153,10.768c-3.864,0.842-7.466,1.265-10.815,1.265
			c-3.886,0-6.753-0.5-8.589-1.493c-1.843-0.996-3.202-2.5-4.085-4.533c-0.883-2.029-1.325-5.32-1.325-9.864V749.08h-5.755v-11.434
			h5.755v-7.478L221.576,722.157z"/>
		<path style="fill:#FFFFFF;" d="M280.52,778.382h-14.572v-6.603c-2.175,2.709-4.365,4.636-6.576,5.794
			c-2.211,1.151-4.928,1.721-8.152,1.721c-4.296,0-7.665-1.283-10.105-3.857c-2.445-2.566-3.664-6.522-3.664-11.86v-25.93h15.688
			v22.401c0,2.552,0.471,4.375,1.415,5.441c0.948,1.074,2.278,1.614,3.99,1.614c1.868,0,3.397-0.721,4.579-2.151
			c1.193-1.43,1.787-3.993,1.787-7.71v-19.596h15.609V778.382z"/>
		<path style="fill:#FFFFFF;" d="M308.821,722.157v15.489h8.595v11.434h-8.595v14.43c0,1.732,0.164,2.882,0.5,3.441
			c0.512,0.868,1.406,1.298,2.685,1.298c1.154,0,2.76-0.324,4.834-0.989l1.15,10.768c-3.861,0.842-7.467,1.265-10.815,1.265
			c-3.887,0-6.75-0.5-8.59-1.493c-1.839-0.996-3.202-2.5-4.085-4.533c-0.886-2.029-1.322-5.32-1.322-9.864V749.08h-5.753v-11.434
			h5.753v-7.478L308.821,722.157z"/>
		<path style="fill:#FFFFFF;" d="M322.938,758.135c0-6.224,2.091-11.342,6.288-15.371c4.193-4.029,9.856-6.044,16.992-6.044
			c8.156,0,14.313,2.375,18.481,7.103c3.352,3.813,5.028,8.493,5.028,14.074c0,6.265-2.08,11.393-6.233,15.401
			c-4.154,4-9.903,5.996-17.237,5.996c-6.546,0-11.839-1.662-15.881-4.985C325.418,770.194,322.938,764.797,322.938,758.135z
			 M338.582,758.084c0,3.632,0.736,6.316,2.208,8.059c1.468,1.739,3.319,2.603,5.539,2.603c2.252,0,4.103-0.849,5.545-2.57
			c1.445-1.706,2.165-4.459,2.165-8.239c0-3.537-0.728-6.154-2.182-7.886c-1.46-1.724-3.264-2.588-5.411-2.588
			c-2.276,0-4.152,0.875-5.638,2.625C339.327,751.841,338.582,754.503,338.582,758.084z"/>
		<path style="fill:#FFFFFF;" d="M404.586,722.157h16.224l21.171,31.099v-31.099h16.375v56.225h-16.375l-21.054-30.879v30.879
			h-16.341V722.157z"/>
		<path style="fill:#FFFFFF;" d="M483.092,750.837l-14.918-1.566c0.564-2.618,1.374-4.665,2.437-6.162
			c1.059-1.493,2.591-2.79,4.583-3.893c1.434-0.794,3.401-1.401,5.905-1.842c2.509-0.43,5.217-0.654,8.13-0.654
			c4.679,0,8.44,0.265,11.278,0.79c2.84,0.526,5.202,1.621,7.092,3.29c1.329,1.136,2.381,2.772,3.146,4.879
			c0.77,2.11,1.154,4.121,1.154,6.037v17.989c0,1.919,0.116,3.423,0.362,4.511c0.24,1.085,0.773,2.471,1.591,4.165h-14.65
			c-0.59-1.055-0.973-1.849-1.149-2.405c-0.181-0.551-0.362-1.408-0.538-2.592c-2.045,1.971-4.076,3.379-6.095,4.221
			c-2.764,1.129-5.973,1.688-9.628,1.688c-4.864,0-8.552-1.118-11.065-3.371c-2.518-2.25-3.778-5.029-3.778-8.316
			c0-3.099,0.907-5.651,2.72-7.647c1.82-1.985,5.168-3.467,10.049-4.438c5.858-1.173,9.654-2,11.393-2.482
			c1.734-0.467,3.58-1.085,5.521-1.86c0-1.908-0.395-3.25-1.188-4.026c-0.792-0.757-2.19-1.154-4.183-1.154
			c-2.552,0-4.472,0.415-5.749,1.239C484.511,747.874,483.707,749.08,483.092,750.837z M496.631,759.047
			c-2.147,0.757-4.384,1.445-6.71,2.029c-3.172,0.846-5.176,1.673-6.021,2.5c-0.874,0.846-1.304,1.798-1.304,2.871
			c0,1.228,0.427,2.232,1.283,3.018c0.857,0.772,2.112,1.169,3.78,1.169c1.737,0,3.357-0.434,4.849-1.276
			c1.494-0.842,2.558-1.868,3.185-3.081c0.625-1.217,0.939-2.798,0.939-4.739V759.047z"/>
		<path style="fill:#FFFFFF;" d="M551.625,762.422l14.845,1.687c-0.819,3.099-2.161,5.765-4.025,8.03
			c-1.868,2.265-4.257,4.018-7.158,5.279c-2.896,1.254-6.589,1.875-11.061,1.875c-4.325,0-7.918-0.397-10.798-1.206
			c-2.875-0.802-5.349-2.11-7.42-3.908c-2.071-1.798-3.691-3.908-4.872-6.346c-1.174-2.415-1.764-5.632-1.764-9.647
			c0-4.191,0.719-7.677,2.152-10.467c1.045-2.048,2.475-3.875,4.291-5.5c1.816-1.618,3.679-2.831,5.598-3.614
			c3.043-1.25,6.942-1.886,11.698-1.886c6.65,0,11.72,1.198,15.211,3.573c3.486,2.382,5.939,5.857,7.341,10.419l-14.688,1.967
			c-0.461-1.739-1.296-3.048-2.515-3.927c-1.209-0.886-2.84-1.327-4.884-1.327c-2.585,0-4.674,0.934-6.274,2.772
			c-1.596,1.853-2.398,4.651-2.398,8.412c0,3.338,0.796,5.879,2.38,7.617c1.583,1.728,3.607,2.599,6.06,2.599
			c2.044,0,3.761-0.526,5.156-1.577C549.894,766.201,550.937,764.591,551.625,762.422z"/>
		<path style="fill:#FFFFFF;" d="M574.216,722.157h15.61v10.621h-15.61V722.157z M574.216,737.646h15.61v40.735h-15.61V737.646z"/>
		<path style="fill:#FFFFFF;" d="M597.878,758.135c0-6.224,2.096-11.342,6.289-15.371c4.198-4.029,9.864-6.044,16.989-6.044
			c8.162,0,14.323,2.375,18.489,7.103c3.349,3.813,5.029,8.493,5.029,14.074c0,6.265-2.085,11.393-6.232,15.401
			c-4.169,4-9.901,5.996-17.25,5.996c-6.544,0-11.835-1.662-15.875-4.985C600.361,770.194,597.878,764.797,597.878,758.135z
			 M613.531,758.084c0,3.632,0.732,6.316,2.206,8.059c1.46,1.739,3.312,2.603,5.54,2.603c2.246,0,4.099-0.849,5.544-2.57
			c1.438-1.706,2.169-4.459,2.169-8.239c0-3.537-0.739-6.154-2.195-7.886c-1.456-1.724-3.265-2.588-5.408-2.588
			c-2.279,0-4.154,0.875-5.636,2.625C614.27,751.841,613.531,754.503,613.531,758.084z"/>
		<path style="fill:#FFFFFF;" d="M652.189,737.646h14.537v6.632c2.169-2.702,4.371-4.64,6.592-5.801
			c2.224-1.173,4.941-1.757,8.136-1.757c4.312,0,7.702,1.29,10.147,3.857c2.437,2.574,3.666,6.544,3.666,11.916v25.89h-15.699
			v-22.397c0-2.57-0.463-4.371-1.419-5.43c-0.937-1.059-2.272-1.596-3.985-1.596c-1.893,0-3.426,0.717-4.596,2.151
			c-1.191,1.43-1.776,3.996-1.776,7.717v19.555h-15.603V737.646z"/>
		<path style="fill:#FFFFFF;" d="M718.803,750.837l-14.919-1.566c0.57-2.618,1.379-4.665,2.437-6.162
			c1.059-1.493,2.588-2.79,4.577-3.893c1.437-0.794,3.412-1.401,5.915-1.842c2.504-0.43,5.206-0.654,8.132-0.654
			c4.677,0,8.438,0.265,11.269,0.79c2.831,0.526,5.209,1.621,7.099,3.29c1.327,1.136,2.379,2.772,3.136,4.879
			c0.772,2.11,1.162,4.121,1.162,6.037v17.989c0,1.919,0.11,3.423,0.36,4.511c0.25,1.085,0.776,2.471,1.592,4.165h-14.647
			c-0.596-1.055-0.985-1.849-1.154-2.405c-0.184-0.551-0.36-1.408-0.533-2.592c-2.051,1.971-4.081,3.379-6.103,4.221
			c-2.765,1.129-5.967,1.688-9.625,1.688c-4.853,0-8.548-1.118-11.059-3.371c-2.526-2.25-3.787-5.029-3.787-8.316
			c0-3.099,0.912-5.651,2.735-7.647c1.809-1.985,5.158-3.467,10.037-4.438c5.853-1.173,9.658-2,11.397-2.482
			c1.739-0.467,3.577-1.085,5.526-1.86c0-1.908-0.397-3.25-1.198-4.026c-0.79-0.757-2.184-1.154-4.173-1.154
			c-2.566,0-4.474,0.415-5.761,1.239C720.23,747.874,719.421,749.08,718.803,750.837z M732.351,759.047
			c-2.151,0.757-4.39,1.445-6.713,2.029c-3.169,0.846-5.184,1.673-6.026,2.5c-0.871,0.846-1.309,1.798-1.309,2.871
			c0,1.228,0.43,2.232,1.291,3.018c0.86,0.772,2.11,1.169,3.772,1.169c1.735,0,3.357-0.434,4.86-1.276
			c1.489-0.842,2.548-1.868,3.176-3.081c0.629-1.217,0.949-2.798,0.949-4.739V759.047z"/>
		<path style="fill:#FFFFFF;" d="M757.502,722.157h15.647v56.225h-15.647V722.157z"/>
		<path style="fill:#FFFFFF;" d="M810.311,722.157h46.566v11.997h-29.154v8.937h27.044v11.463h-27.044v11.084h29.989v12.743h-47.401
			V722.157z"/>
		<path style="fill:#FFFFFF;" d="M866.576,722.157h15.651v56.225h-15.651V722.157z"/>
		<path style="fill:#FFFFFF;" d="M937.407,761.885h-31.294c0.283,2.5,0.963,4.375,2.04,5.599c1.496,1.765,3.467,2.647,5.904,2.647
			c1.533,0,2.996-0.393,4.371-1.147c0.842-0.485,1.757-1.346,2.721-2.566l15.371,1.408c-2.338,4.095-5.18,7.026-8.504,8.805
			c-3.323,1.776-8.088,2.662-14.305,2.662c-5.404,0-9.64-0.761-12.739-2.283c-3.092-1.522-5.654-3.93-7.688-7.239
			c-2.029-3.324-3.055-7.21-3.055-11.688c0-6.368,2.048-11.515,6.121-15.456c4.081-3.93,9.717-5.908,16.897-5.908
			c5.835,0,10.43,0.886,13.805,2.651c3.375,1.772,5.941,4.323,7.702,7.68c1.765,3.335,2.651,7.695,2.651,13.066V761.885z
			 M921.528,754.4c-0.312-3.011-1.118-5.173-2.426-6.471c-1.327-1.312-3.055-1.967-5.198-1.967c-2.482,0-4.46,0.982-5.941,2.963
			c-0.945,1.224-1.548,3.048-1.805,5.474H921.528z"/>
		<path style="fill:#FFFFFF;" d="M974.955,762.422l14.849,1.687c-0.827,3.099-2.169,5.765-4.029,8.03
			c-1.875,2.265-4.254,4.018-7.154,5.279c-2.915,1.254-6.592,1.875-11.066,1.875c-4.324,0-7.912-0.397-10.794-1.206
			c-2.875-0.802-5.346-2.11-7.43-3.908c-2.066-1.798-3.691-3.908-4.871-6.346c-1.169-2.415-1.757-5.632-1.757-9.647
			c0-4.191,0.717-7.677,2.143-10.467c1.059-2.048,2.482-3.875,4.298-5.5c1.816-1.618,3.684-2.831,5.596-3.614
			c3.055-1.25,6.952-1.886,11.706-1.886c6.643,0,11.713,1.198,15.209,3.573c3.485,2.382,5.93,5.857,7.338,10.419l-14.691,1.967
			c-0.456-1.739-1.301-3.048-2.504-3.927c-1.224-0.886-2.849-1.327-4.897-1.327c-2.585,0-4.666,0.934-6.276,2.772
			c-1.592,1.853-2.393,4.651-2.393,8.412c0,3.338,0.794,5.879,2.375,7.617c1.585,1.728,3.599,2.599,6.059,2.599
			c2.048,0,3.772-0.526,5.165-1.577C973.223,766.201,974.268,764.591,974.955,762.422z"/>
		<path style="fill:#FFFFFF;" d="M1015.801,722.157v15.489h8.588v11.434h-8.588v14.43c0,1.732,0.169,2.882,0.496,3.441
			c0.518,0.868,1.416,1.298,2.684,1.298c1.158,0,2.765-0.324,4.838-0.989l1.158,10.768c-3.879,0.842-7.474,1.265-10.831,1.265
			c-3.875,0-6.739-0.5-8.585-1.493c-1.842-0.996-3.198-2.5-4.088-4.533c-0.875-2.029-1.316-5.32-1.316-9.864V749.08H994.4v-11.434
			h5.757v-7.478L1015.801,722.157z"/>
		<path style="fill:#FFFFFF;" d="M1029.915,758.135c0-6.224,2.092-11.342,6.294-15.371c4.191-4.029,9.853-6.044,16.989-6.044
			c8.151,0,14.316,2.375,18.482,7.103c3.338,3.813,5.018,8.493,5.018,14.074c0,6.265-2.073,11.393-6.224,15.401
			c-4.166,4-9.897,5.996-17.25,5.996c-6.541,0-11.827-1.662-15.871-4.985C1032.393,770.194,1029.915,764.797,1029.915,758.135z
			 M1045.566,758.084c0,3.632,0.731,6.316,2.202,8.059c1.471,1.739,3.313,2.603,5.544,2.603c2.254,0,4.096-0.849,5.544-2.57
			c1.434-1.706,2.169-4.459,2.169-8.239c0-3.537-0.743-6.154-2.198-7.886c-1.452-1.724-3.261-2.588-5.412-2.588
			c-2.276,0-4.151,0.875-5.632,2.625C1046.305,751.841,1045.566,754.503,1045.566,758.084z"/>
		<path style="fill:#FFFFFF;" d="M1084.367,737.646h14.614v6.665c1.404-2.882,2.86-4.871,4.357-5.956
			c1.496-1.085,3.342-1.636,5.544-1.636c2.294,0,4.82,0.724,7.559,2.154l-4.838,11.118c-1.842-0.765-3.298-1.151-4.375-1.151
			c-2.048,0-3.632,0.842-4.761,2.526c-1.607,2.386-2.408,6.838-2.408,13.36v13.654h-15.691V737.646z"/>
		<path style="fill:#FFFFFF;" d="M1134.651,750.837l-14.923-1.566c0.566-2.618,1.375-4.665,2.445-6.162
			c1.059-1.493,2.581-2.79,4.581-3.893c1.426-0.794,3.404-1.401,5.901-1.842c2.515-0.43,5.217-0.654,8.125-0.654
			c4.684,0,8.452,0.265,11.28,0.79c2.842,0.526,5.217,1.621,7.11,3.29c1.324,1.136,2.375,2.772,3.129,4.879
			c0.779,2.11,1.154,4.121,1.154,6.037v17.989c0,1.919,0.121,3.423,0.371,4.511c0.231,1.085,0.768,2.471,1.592,4.165h-14.651
			c-0.592-1.055-0.978-1.849-1.158-2.405c-0.177-0.551-0.357-1.408-0.526-2.592c-2.048,1.971-4.085,3.379-6.107,4.221
			c-2.761,1.129-5.963,1.688-9.621,1.688c-4.864,0-8.559-1.118-11.07-3.371c-2.515-2.25-3.776-5.029-3.776-8.316
			c0-3.099,0.912-5.651,2.717-7.647c1.827-1.985,5.166-3.467,10.055-4.438c5.853-1.173,9.647-2,11.39-2.482
			c1.743-0.467,3.585-1.085,5.515-1.86c0-1.908-0.397-3.25-1.169-4.026c-0.802-0.757-2.199-1.154-4.188-1.154
			c-2.562,0-4.482,0.415-5.757,1.239C1136.073,747.874,1135.264,749.08,1134.651,750.837z M1148.184,759.047
			c-2.144,0.757-4.379,1.445-6.713,2.029c-3.169,0.846-5.166,1.673-6.007,2.5c-0.879,0.846-1.309,1.798-1.309,2.871
			c0,1.228,0.43,2.232,1.29,3.018c0.853,0.772,2.118,1.169,3.769,1.169c1.742,0,3.357-0.434,4.856-1.276
			c1.496-0.842,2.555-1.868,3.173-3.081c0.64-1.217,0.941-2.798,0.941-4.739V759.047z"/>
		<path style="fill:#FFFFFF;" d="M1173.353,722.157H1189v56.225h-15.647V722.157z"/>
	</g>
</g>
</svg>
