<?xml version="1.0" encoding="utf-8"?>
<!-- Generator: Adobe Illustrator 25.4.0, SVG Export Plug-In . SVG Version: 6.00 Build 0)  -->
<svg version="1.1" id="Capa_1" xmlns="http://www.w3.org/2000/svg" xmlns:xlink="http://www.w3.org/1999/xlink" x="0px" y="0px"
	 viewBox="0 0 526 300" style="enable-background:new 0 0 526 300;" xml:space="preserve">
<style type="text/css">
	.st0{fill:#C7CBCB;}
	.st1{fill:#717070;}
	.st2{fill:#394445;}
	.st3{fill:none;stroke:#394445;stroke-miterlimit:10;}
	.st4{fill:#394445;stroke:#FFFFFF;stroke-miterlimit:10;}
	.st5{fill:#FFFFFF;}
	.st6{enable-background:new    ;}
</style>
<path class="st0" d="M25,505.1c0.3,0,0.6,0,0.9,0c-0.4,3.3,0.9,6.7-0.9,9.9C25.1,511.6,25.1,508.3,25,505.1z"/>
<g>
	<g>
		<g>
			<path class="st1" d="M103.2,118.3l-12.5,11.9c-8.5-9-18.1-13.5-28.8-13.5c-9,0-16.6,3.1-22.7,9.2C33,132,30,139.6,30,148.6
				c0,6.3,1.4,11.8,4.1,16.7s6.6,8.7,11.6,11.5s10.5,4.2,16.6,4.2c5.2,0,9.9-1,14.3-2.9c4.3-1.9,9-5.5,14.2-10.6l12.1,12.7
				c-7,6.8-13.5,11.5-19.7,14.1S70,198.2,62,198.2c-14.6,0-26.6-4.6-35.9-13.9c-9.3-9.3-14-21.2-14-35.7c0-9.4,2.1-17.7,6.4-25
				c4.2-7.3,10.3-13.2,18.2-17.6s16.4-6.7,25.6-6.7c7.8,0,15.2,1.6,22.4,4.9C91.8,107.6,98,112.2,103.2,118.3z"/>
			<path class="st1" d="M113,101.8h52v17.7h-17.1v76.4h-18.2v-76.4H113V101.8z"/>
			<path class="st1" d="M181.3,101.8h17.8v94.1h-17.8V101.8z"/>
			<path class="st1" d="M241,101.8h18.2l36.2,94.1h-18.6l-7.4-19.4H231l-7.7,19.4h-18.6L241,101.8z M250.2,126.7L237.6,159h25.2
				L250.2,126.7z"/>
		</g>
	</g>
	<g>
		<path class="st2" d="M51.3,228.8c-0.7-0.5-1.3-1.2-1.6-2.1c-0.4-0.9-0.6-2-0.6-3.2s0.2-2.3,0.6-3.2c0.4-0.9,0.9-1.6,1.6-2.1
			c0.7-0.5,1.5-0.7,2.4-0.7s1.7,0.2,2.4,0.7s1.3,1.2,1.6,2.1c0.4,0.9,0.6,2,0.6,3.2s-0.2,2.3-0.6,3.2c-0.4,0.9-0.9,1.6-1.6,2.1
			c-0.7,0.5-1.5,0.7-2.4,0.7S52,229.3,51.3,228.8z M55.7,228.1c0.6-0.4,1-1,1.3-1.8s0.5-1.7,0.5-2.8s-0.2-2-0.5-2.8
			s-0.8-1.4-1.3-1.8c-0.6-0.4-1.2-0.6-2-0.6c-0.7,0-1.4,0.2-2,0.6s-1,1-1.3,1.8s-0.5,1.7-0.5,2.8s0.2,2,0.5,2.8s0.8,1.4,1.3,1.8
			c0.6,0.4,1.2,0.6,2,0.6C54.4,228.7,55.1,228.5,55.7,228.1z"/>
		<path class="st2" d="M65.6,217.5v11.9h-0.9v-11.1h-2.9v-0.8L65.6,217.5L65.6,217.5z"/>
		<path class="st2" d="M73.2,228.8c-0.7-0.5-1.3-1.2-1.6-2.1c-0.4-0.9-0.6-2-0.6-3.2s0.2-2.3,0.6-3.2s0.9-1.6,1.6-2.1
			s1.5-0.7,2.4-0.7s1.7,0.2,2.4,0.7c0.7,0.5,1.3,1.2,1.6,2.1c0.4,0.9,0.6,2,0.6,3.2s-0.2,2.3-0.6,3.2s-0.9,1.6-1.6,2.1
			s-1.5,0.7-2.4,0.7S73.9,229.3,73.2,228.8z M77.6,228.1c0.6-0.4,1-1,1.3-1.8s0.5-1.7,0.5-2.8s-0.2-2-0.5-2.8s-0.8-1.4-1.3-1.8
			c-0.6-0.4-1.2-0.6-2-0.6c-0.7,0-1.4,0.2-2,0.6s-1,1-1.3,1.8s-0.5,1.7-0.5,2.8s0.2,2,0.5,2.8s0.8,1.4,1.3,1.8
			c0.6,0.4,1.2,0.6,2,0.6C76.4,228.7,77.1,228.5,77.6,228.1z"/>
		<path class="st2" d="M86.8,228.8c-0.7-0.5-1.3-1.2-1.6-2.1c-0.4-0.9-0.6-2-0.6-3.2s0.2-2.3,0.6-3.2s0.9-1.6,1.6-2.1
			s1.5-0.7,2.4-0.7s1.7,0.2,2.4,0.7c0.7,0.5,1.3,1.2,1.6,2.1c0.4,0.9,0.6,2,0.6,3.2s-0.2,2.3-0.6,3.2s-0.9,1.6-1.6,2.1
			s-1.5,0.7-2.4,0.7S87.5,229.3,86.8,228.8z M91.2,228.1c0.6-0.4,1-1,1.3-1.8s0.5-1.7,0.5-2.8s-0.2-2-0.5-2.8s-0.8-1.4-1.3-1.8
			c-0.6-0.4-1.2-0.6-2-0.6c-0.7,0-1.4,0.2-2,0.6s-1,1-1.3,1.8s-0.5,1.7-0.5,2.8s0.2,2,0.5,2.8s0.8,1.4,1.3,1.8
			c0.6,0.4,1.2,0.6,2,0.6C90,228.7,90.6,228.5,91.2,228.1z"/>
		<path class="st2" d="M100.4,228.8c-0.7-0.5-1.3-1.2-1.6-2.1c-0.4-0.9-0.6-2-0.6-3.2s0.2-2.3,0.6-3.2s0.9-1.6,1.6-2.1
			s1.5-0.7,2.4-0.7s1.7,0.2,2.4,0.7c0.7,0.5,1.3,1.2,1.6,2.1c0.4,0.9,0.6,2,0.6,3.2s-0.2,2.3-0.6,3.2s-0.9,1.6-1.6,2.1
			s-1.5,0.7-2.4,0.7S101.1,229.3,100.4,228.8z M104.8,228.1c0.6-0.4,1-1,1.3-1.8s0.5-1.7,0.5-2.8s-0.2-2-0.5-2.8s-0.8-1.4-1.3-1.8
			c-0.6-0.4-1.2-0.6-2-0.6c-0.7,0-1.4,0.2-2,0.6s-1,1-1.3,1.8s-0.5,1.7-0.5,2.8s0.2,2,0.5,2.8s0.8,1.4,1.3,1.8
			c0.6,0.4,1.2,0.6,2,0.6C103.6,228.7,104.2,228.5,104.8,228.1z"/>
		<path class="st2" d="M114,228.8c-0.7-0.5-1.3-1.2-1.6-2.1c-0.4-0.9-0.6-2-0.6-3.2s0.2-2.3,0.6-3.2s0.9-1.6,1.6-2.1
			s1.5-0.7,2.4-0.7s1.7,0.2,2.4,0.7c0.7,0.5,1.3,1.2,1.6,2.1c0.4,0.9,0.6,2,0.6,3.2s-0.2,2.3-0.6,3.2s-0.9,1.6-1.6,2.1
			s-1.5,0.7-2.4,0.7S114.7,229.3,114,228.8z M118.4,228.1c0.6-0.4,1-1,1.3-1.8s0.5-1.7,0.5-2.8s-0.2-2-0.5-2.8s-0.8-1.4-1.3-1.8
			c-0.6-0.4-1.2-0.6-2-0.6c-0.7,0-1.4,0.2-2,0.6s-1,1-1.3,1.8s-0.5,1.7-0.5,2.8s0.2,2,0.5,2.8s0.8,1.4,1.3,1.8
			c0.6,0.4,1.2,0.6,2,0.6C117.1,228.7,117.8,228.5,118.4,228.1z"/>
		<path class="st2" d="M128.3,217.5v11.9h-0.9v-11.1h-2.9v-0.8L128.3,217.5L128.3,217.5z"/>
		<path class="st2" d="M136.7,217.5v11.9h-0.9v-11.1h-2.9v-0.8L136.7,217.5L136.7,217.5z"/>
		<path class="st2" d="M144.3,228.8c-0.7-0.5-1.3-1.2-1.6-2.1c-0.4-0.9-0.6-2-0.6-3.2s0.2-2.3,0.6-3.2c0.4-0.9,0.9-1.6,1.6-2.1
			c0.7-0.5,1.5-0.7,2.4-0.7s1.7,0.2,2.4,0.7s1.3,1.2,1.6,2.1c0.4,0.9,0.6,2,0.6,3.2s-0.2,2.3-0.6,3.2c-0.4,0.9-0.9,1.6-1.6,2.1
			c-0.7,0.5-1.5,0.7-2.4,0.7S145,229.3,144.3,228.8z M148.7,228.1c0.6-0.4,1-1,1.3-1.8s0.5-1.7,0.5-2.8s-0.2-2-0.5-2.8
			s-0.8-1.4-1.3-1.8c-0.6-0.4-1.2-0.6-2-0.6c-0.7,0-1.4,0.2-2,0.6s-1,1-1.3,1.8s-0.5,1.7-0.5,2.8s0.2,2,0.5,2.8s0.8,1.4,1.3,1.8
			c0.6,0.4,1.2,0.6,2,0.6C147.5,228.7,148.2,228.5,148.7,228.1z"/>
		<path class="st2" d="M158.7,217.5v11.9h-0.9v-11.1h-2.9v-0.8L158.7,217.5L158.7,217.5z"/>
		<path class="st2" d="M166.3,228.8c-0.7-0.5-1.3-1.2-1.6-2.1c-0.4-0.9-0.6-2-0.6-3.2s0.2-2.3,0.6-3.2c0.4-0.9,0.9-1.6,1.6-2.1
			c0.7-0.5,1.5-0.7,2.4-0.7s1.7,0.2,2.4,0.7s1.3,1.2,1.6,2.1c0.4,0.9,0.6,2,0.6,3.2s-0.2,2.3-0.6,3.2c-0.4,0.9-0.9,1.6-1.6,2.1
			c-0.7,0.5-1.5,0.7-2.4,0.7S167,229.3,166.3,228.8z M170.7,228.1c0.6-0.4,1-1,1.3-1.8s0.5-1.7,0.5-2.8s-0.2-2-0.5-2.8
			s-0.8-1.4-1.3-1.8c-0.6-0.4-1.2-0.6-2-0.6c-0.7,0-1.4,0.2-2,0.6s-1,1-1.3,1.8s-0.5,1.7-0.5,2.8s0.2,2,0.5,2.8s0.8,1.4,1.3,1.8
			c0.6,0.4,1.2,0.6,2,0.6C169.5,228.7,170.1,228.5,170.7,228.1z"/>
		<path class="st2" d="M180.6,217.5v11.9h-0.9v-11.1h-2.9v-0.8L180.6,217.5L180.6,217.5z"/>
		<path class="st2" d="M188.3,228.8c-0.7-0.5-1.3-1.2-1.6-2.1c-0.4-0.9-0.6-2-0.6-3.2s0.2-2.3,0.6-3.2c0.4-0.9,0.9-1.6,1.6-2.1
			c0.7-0.5,1.5-0.7,2.4-0.7s1.7,0.2,2.4,0.7s1.3,1.2,1.6,2.1c0.4,0.9,0.6,2,0.6,3.2s-0.2,2.3-0.6,3.2c-0.4,0.9-0.9,1.6-1.6,2.1
			c-0.7,0.5-1.5,0.7-2.4,0.7S189,229.3,188.3,228.8z M192.7,228.1c0.6-0.4,1-1,1.3-1.8s0.5-1.7,0.5-2.8s-0.2-2-0.5-2.8
			s-0.8-1.4-1.3-1.8c-0.6-0.4-1.2-0.6-2-0.6c-0.7,0-1.4,0.2-2,0.6s-1,1-1.3,1.8s-0.5,1.7-0.5,2.8s0.2,2,0.5,2.8s0.8,1.4,1.3,1.8
			c0.6,0.4,1.2,0.6,2,0.6C191.4,228.7,192.1,228.5,192.7,228.1z"/>
		<path class="st2" d="M202.6,217.5v11.9h-0.9v-11.1h-2.9v-0.8L202.6,217.5L202.6,217.5z"/>
		<path class="st2" d="M210.2,228.8c-0.7-0.5-1.3-1.2-1.6-2.1c-0.4-0.9-0.6-2-0.6-3.2s0.2-2.3,0.6-3.2c0.4-0.9,0.9-1.6,1.6-2.1
			c0.7-0.5,1.5-0.7,2.4-0.7s1.7,0.2,2.4,0.7s1.3,1.2,1.6,2.1c0.4,0.9,0.6,2,0.6,3.2s-0.2,2.3-0.6,3.2c-0.4,0.9-0.9,1.6-1.6,2.1
			c-0.7,0.5-1.5,0.7-2.4,0.7S210.9,229.3,210.2,228.8z M214.6,228.1c0.6-0.4,1-1,1.3-1.8s0.5-1.7,0.5-2.8s-0.2-2-0.5-2.8
			s-0.8-1.4-1.3-1.8c-0.6-0.4-1.2-0.6-2-0.6c-0.7,0-1.4,0.2-2,0.6s-1,1-1.3,1.8s-0.5,1.7-0.5,2.8s0.2,2,0.5,2.8s0.8,1.4,1.3,1.8
			c0.6,0.4,1.2,0.6,2,0.6C213.4,228.7,214.1,228.5,214.6,228.1z"/>
		<path class="st2" d="M223.8,228.8c-0.7-0.5-1.3-1.2-1.6-2.1c-0.4-0.9-0.6-2-0.6-3.2s0.2-2.3,0.6-3.2c0.4-0.9,0.9-1.6,1.6-2.1
			c0.7-0.5,1.5-0.7,2.4-0.7s1.7,0.2,2.4,0.7s1.3,1.2,1.6,2.1c0.4,0.9,0.6,2,0.6,3.2s-0.2,2.3-0.6,3.2c-0.4,0.9-0.9,1.6-1.6,2.1
			c-0.7,0.5-1.5,0.7-2.4,0.7S224.5,229.3,223.8,228.8z M228.2,228.1c0.6-0.4,1-1,1.3-1.8s0.5-1.7,0.5-2.8s-0.2-2-0.5-2.8
			s-0.8-1.4-1.3-1.8c-0.6-0.4-1.2-0.6-2-0.6c-0.7,0-1.4,0.2-2,0.6s-1,1-1.3,1.8s-0.5,1.7-0.5,2.8s0.2,2,0.5,2.8s0.8,1.4,1.3,1.8
			c0.6,0.4,1.2,0.6,2,0.6C227,228.7,227.6,228.5,228.2,228.1z"/>
		<path class="st2" d="M237.4,228.8c-0.7-0.5-1.3-1.2-1.6-2.1c-0.4-0.9-0.6-2-0.6-3.2s0.2-2.3,0.6-3.2c0.4-0.9,0.9-1.6,1.6-2.1
			c0.7-0.5,1.5-0.7,2.4-0.7s1.7,0.2,2.4,0.7s1.3,1.2,1.6,2.1c0.4,0.9,0.6,2,0.6,3.2s-0.2,2.3-0.6,3.2c-0.4,0.9-0.9,1.6-1.6,2.1
			c-0.7,0.5-1.5,0.7-2.4,0.7S238.1,229.3,237.4,228.8z M241.8,228.1c0.6-0.4,1-1,1.3-1.8s0.5-1.7,0.5-2.8s-0.2-2-0.5-2.8
			s-0.8-1.4-1.3-1.8c-0.6-0.4-1.2-0.6-2-0.6c-0.7,0-1.4,0.2-2,0.6s-1,1-1.3,1.8s-0.5,1.7-0.5,2.8s0.2,2,0.5,2.8s0.8,1.4,1.3,1.8
			c0.6,0.4,1.2,0.6,2,0.6C240.6,228.7,241.2,228.5,241.8,228.1z"/>
		<path class="st2" d="M251.7,217.5v11.9h-0.9v-11.1h-2.9v-0.8L251.7,217.5L251.7,217.5z"/>
		<path class="st2" d="M259.4,228.8c-0.7-0.5-1.3-1.2-1.6-2.1c-0.4-0.9-0.6-2-0.6-3.2s0.2-2.3,0.6-3.2s0.9-1.6,1.6-2.1
			s1.5-0.7,2.4-0.7s1.7,0.2,2.4,0.7c0.7,0.5,1.3,1.2,1.6,2.1c0.4,0.9,0.6,2,0.6,3.2s-0.2,2.3-0.6,3.2s-0.9,1.6-1.6,2.1
			s-1.5,0.7-2.4,0.7S260.1,229.3,259.4,228.8z M263.8,228.1c0.6-0.4,1-1,1.3-1.8s0.5-1.7,0.5-2.8s-0.2-2-0.5-2.8s-0.8-1.4-1.3-1.8
			c-0.6-0.4-1.2-0.6-2-0.6c-0.7,0-1.4,0.2-2,0.6s-1,1-1.3,1.8s-0.5,1.7-0.5,2.8s0.2,2,0.5,2.8s0.8,1.4,1.3,1.8
			c0.6,0.4,1.2,0.6,2,0.6C262.5,228.7,263.2,228.5,263.8,228.1z"/>
		<path class="st2" d="M272.9,228.8c-0.7-0.5-1.3-1.2-1.6-2.1c-0.4-0.9-0.6-2-0.6-3.2s0.2-2.3,0.6-3.2s0.9-1.6,1.6-2.1
			s1.5-0.7,2.4-0.7s1.7,0.2,2.4,0.7c0.7,0.5,1.3,1.2,1.6,2.1c0.4,0.9,0.6,2,0.6,3.2s-0.2,2.3-0.6,3.2s-0.9,1.6-1.6,2.1
			s-1.5,0.7-2.4,0.7C274.5,229.5,273.6,229.3,272.9,228.8z M277.3,228.1c0.6-0.4,1-1,1.3-1.8s0.5-1.7,0.5-2.8s-0.2-2-0.5-2.8
			s-0.8-1.4-1.3-1.8s-1.2-0.6-2-0.6s-1.4,0.2-2,0.6s-1,1-1.3,1.8s-0.5,1.7-0.5,2.8s0.2,2,0.5,2.8s0.8,1.4,1.3,1.8
			c0.6,0.4,1.2,0.6,2,0.6S276.8,228.5,277.3,228.1z"/>
		<path class="st2" d="M287.3,217.5v11.9h-0.9v-11.1h-2.9v-0.8L287.3,217.5L287.3,217.5z"/>
		<path class="st2" d="M294.9,228.8c-0.7-0.5-1.3-1.2-1.6-2.1c-0.4-0.9-0.6-2-0.6-3.2s0.2-2.3,0.6-3.2s0.9-1.6,1.6-2.1
			s1.5-0.7,2.4-0.7s1.7,0.2,2.4,0.7c0.7,0.5,1.3,1.2,1.6,2.1c0.4,0.9,0.6,2,0.6,3.2s-0.2,2.3-0.6,3.2s-0.9,1.6-1.6,2.1
			s-1.5,0.7-2.4,0.7S295.6,229.3,294.9,228.8z M299.3,228.1c0.6-0.4,1-1,1.3-1.8s0.5-1.7,0.5-2.8s-0.2-2-0.5-2.8s-0.8-1.4-1.3-1.8
			s-1.2-0.6-2-0.6s-1.4,0.2-2,0.6s-1,1-1.3,1.8s-0.5,1.7-0.5,2.8s0.2,2,0.5,2.8s0.8,1.4,1.3,1.8c0.6,0.4,1.2,0.6,2,0.6
			S298.7,228.5,299.3,228.1z"/>
		<path class="st2" d="M308.5,228.8c-0.7-0.5-1.3-1.2-1.6-2.1c-0.4-0.9-0.6-2-0.6-3.2s0.2-2.3,0.6-3.2s0.9-1.6,1.6-2.1
			s1.5-0.7,2.4-0.7s1.7,0.2,2.4,0.7c0.7,0.5,1.3,1.2,1.6,2.1c0.4,0.9,0.6,2,0.6,3.2s-0.2,2.3-0.6,3.2s-0.9,1.6-1.6,2.1
			s-1.5,0.7-2.4,0.7S309.2,229.3,308.5,228.8z M312.9,228.1c0.6-0.4,1-1,1.3-1.8s0.5-1.7,0.5-2.8s-0.2-2-0.5-2.8s-0.8-1.4-1.3-1.8
			s-1.2-0.6-2-0.6s-1.4,0.2-2,0.6s-1,1-1.3,1.8s-0.5,1.7-0.5,2.8s0.2,2,0.5,2.8s0.8,1.4,1.3,1.8c0.6,0.4,1.2,0.6,2,0.6
			S312.3,228.5,312.9,228.1z"/>
		<path class="st2" d="M322.8,217.5v11.9h-0.9v-11.1H319v-0.8L322.8,217.5L322.8,217.5z"/>
		<path class="st2" d="M330.5,228.8c-0.7-0.5-1.3-1.2-1.6-2.1c-0.4-0.9-0.6-2-0.6-3.2s0.2-2.3,0.6-3.2s0.9-1.6,1.6-2.1
			s1.5-0.7,2.4-0.7s1.7,0.2,2.4,0.7c0.7,0.5,1.3,1.2,1.6,2.1c0.4,0.9,0.6,2,0.6,3.2s-0.2,2.3-0.6,3.2s-0.9,1.6-1.6,2.1
			s-1.5,0.7-2.4,0.7S331.2,229.3,330.5,228.8z M334.9,228.1c0.6-0.4,1-1,1.3-1.8s0.5-1.7,0.5-2.8s-0.2-2-0.5-2.8s-0.8-1.4-1.3-1.8
			s-1.2-0.6-2-0.6s-1.4,0.2-2,0.6s-1,1-1.3,1.8s-0.5,1.7-0.5,2.8s0.2,2,0.5,2.8s0.8,1.4,1.3,1.8c0.6,0.4,1.2,0.6,2,0.6
			S334.3,228.5,334.9,228.1z"/>
		<path class="st2" d="M344.8,217.5v11.9h-0.9v-11.1H341v-0.8L344.8,217.5L344.8,217.5z"/>
		<path class="st2" d="M352.4,228.8c-0.7-0.5-1.3-1.2-1.6-2.1c-0.4-0.9-0.6-2-0.6-3.2s0.2-2.3,0.6-3.2s0.9-1.6,1.6-2.1
			s1.5-0.7,2.4-0.7s1.7,0.2,2.4,0.7c0.7,0.5,1.3,1.2,1.6,2.1c0.4,0.9,0.6,2,0.6,3.2s-0.2,2.3-0.6,3.2s-0.9,1.6-1.6,2.1
			s-1.5,0.7-2.4,0.7S353.1,229.3,352.4,228.8z M356.8,228.1c0.6-0.4,1-1,1.3-1.8s0.5-1.7,0.5-2.8s-0.2-2-0.5-2.8s-0.8-1.4-1.3-1.8
			s-1.2-0.6-2-0.6s-1.4,0.2-2,0.6s-1,1-1.3,1.8s-0.5,1.7-0.5,2.8s0.2,2,0.5,2.8s0.8,1.4,1.3,1.8c0.6,0.4,1.2,0.6,2,0.6
			S356.2,228.5,356.8,228.1z"/>
		<path class="st2" d="M366,228.8c-0.7-0.5-1.3-1.2-1.6-2.1c-0.4-0.9-0.6-2-0.6-3.2s0.2-2.3,0.6-3.2s0.9-1.6,1.6-2.1
			s1.5-0.7,2.4-0.7s1.7,0.2,2.4,0.7c0.7,0.5,1.3,1.2,1.6,2.1c0.4,0.9,0.6,2,0.6,3.2s-0.2,2.3-0.6,3.2s-0.9,1.6-1.6,2.1
			s-1.5,0.7-2.4,0.7S366.7,229.3,366,228.8z M370.4,228.1c0.6-0.4,1-1,1.3-1.8s0.5-1.7,0.5-2.8s-0.2-2-0.5-2.8s-0.8-1.4-1.3-1.8
			s-1.2-0.6-2-0.6s-1.4,0.2-2,0.6s-1,1-1.3,1.8s-0.5,1.7-0.5,2.8s0.2,2,0.5,2.8s0.8,1.4,1.3,1.8c0.6,0.4,1.2,0.6,2,0.6
			S369.8,228.5,370.4,228.1z"/>
		<path class="st2" d="M379.6,228.8c-0.7-0.5-1.3-1.2-1.6-2.1c-0.4-0.9-0.6-2-0.6-3.2s0.2-2.3,0.6-3.2s0.9-1.6,1.6-2.1
			s1.5-0.7,2.4-0.7s1.7,0.2,2.4,0.7c0.7,0.5,1.3,1.2,1.6,2.1c0.4,0.9,0.6,2,0.6,3.2s-0.2,2.3-0.6,3.2s-0.9,1.6-1.6,2.1
			s-1.5,0.7-2.4,0.7S380.3,229.3,379.6,228.8z M384,228.1c0.6-0.4,1-1,1.3-1.8s0.5-1.7,0.5-2.8s-0.2-2-0.5-2.8s-0.8-1.4-1.3-1.8
			s-1.2-0.6-2-0.6s-1.4,0.2-2,0.6s-1,1-1.3,1.8s-0.5,1.7-0.5,2.8s0.2,2,0.5,2.8s0.8,1.4,1.3,1.8c0.6,0.4,1.2,0.6,2,0.6
			S383.4,228.5,384,228.1z"/>
		<path class="st2" d="M393.2,228.8c-0.7-0.5-1.3-1.2-1.6-2.1c-0.4-0.9-0.6-2-0.6-3.2s0.2-2.3,0.6-3.2s0.9-1.6,1.6-2.1
			s1.5-0.7,2.4-0.7s1.7,0.2,2.4,0.7c0.7,0.5,1.3,1.2,1.6,2.1c0.4,0.9,0.6,2,0.6,3.2s-0.2,2.3-0.6,3.2s-0.9,1.6-1.6,2.1
			s-1.5,0.7-2.4,0.7S393.9,229.3,393.2,228.8z M397.6,228.1c0.6-0.4,1-1,1.3-1.8s0.5-1.7,0.5-2.8s-0.2-2-0.5-2.8s-0.8-1.4-1.3-1.8
			s-1.2-0.6-2-0.6s-1.4,0.2-2,0.6s-1,1-1.3,1.8s-0.5,1.7-0.5,2.8s0.2,2,0.5,2.8s0.8,1.4,1.3,1.8c0.6,0.4,1.2,0.6,2,0.6
			S397,228.5,397.6,228.1z"/>
		<path class="st2" d="M406.7,228.8c-0.7-0.5-1.3-1.2-1.6-2.1c-0.4-0.9-0.6-2-0.6-3.2s0.2-2.3,0.6-3.2s0.9-1.6,1.6-2.1
			s1.5-0.7,2.4-0.7s1.7,0.2,2.4,0.7c0.7,0.5,1.3,1.2,1.6,2.1c0.4,0.9,0.6,2,0.6,3.2s-0.2,2.3-0.6,3.2s-0.9,1.6-1.6,2.1
			s-1.5,0.7-2.4,0.7C408.3,229.5,407.5,229.3,406.7,228.8z M411.1,228.1c0.6-0.4,1-1,1.3-1.8s0.5-1.7,0.5-2.8s-0.2-2-0.5-2.8
			s-0.8-1.4-1.3-1.8s-1.2-0.6-2-0.6s-1.4,0.2-2,0.6s-1,1-1.3,1.8s-0.5,1.7-0.5,2.8s0.2,2,0.5,2.8s0.8,1.4,1.3,1.8
			c0.6,0.4,1.2,0.6,2,0.6S410.6,228.5,411.1,228.1z"/>
		<path class="st2" d="M421.1,217.5v11.9h-0.9v-11.1h-2.9v-0.8L421.1,217.5L421.1,217.5z"/>
	</g>
	<path class="st2" d="M415,71"/>
	<path class="st3" d="M512,149"/>
	<path class="st3" d="M418.5,72.5"/>
	<path class="st3" d="M512,150.7"/>
	<path class="st3" d="M418,220.7"/>
	<g>
		<path class="st2" d="M435.5,226c-2,0-2.4,0-4.3-0.2l-4.6-0.2l-0.1-6h3.9c15.5,1.9,34.6-5.4,46.2-12.2
			c14.5-8.5,25.4-21.7,30.1-36.1c4-12.6,3.8-27.5-0.6-43.3c-4.5-16.1-12.2-29.1-22.4-37.8c-19.5-16.5-47.3-17.2-66.5-16.3h-0.6
			l-0.1-6l3-0.1c39.6-1.9,57.9,9.3,68,17.9c11.1,9.4,19.5,23.5,24.3,40.7c4.7,16.9,4.9,33,0.5,46.7c-5.1,15.8-17,30.2-32.7,39.5
			C468.6,219.2,451.1,226,435.5,226z"/>
	</g>
	<rect x="376" y="54.5" class="st2" width="15" height="33"/>
	<rect x="396" y="55" class="st2" width="4" height="32"/>
	<rect x="405" y="57.5" class="st2" width="4" height="27"/>
	<rect x="413" y="58.5" class="st2" width="5" height="25"/>
	<rect x="399" y="63.5" class="st2" width="7" height="15"/>
	<rect x="408" y="63.5" class="st2" width="5" height="15"/>
	<rect x="390" y="63.5" class="st2" width="7" height="15"/>
	<rect x="371" y="66.5" class="st4" width="9" height="9"/>
	<rect x="355" y="58.5" class="st2" width="18" height="25"/>
	<g>
		<rect x="357" y="62" class="st5" width="6" height="2"/>
		<rect x="357" y="66" class="st5" width="6" height="2"/>
		<rect x="357" y="70" class="st5" width="6" height="2"/>
		<rect x="357" y="74" class="st5" width="6" height="2"/>
		<rect x="357" y="78" class="st5" width="6" height="2"/>
	</g>
	<path class="st2" d="M38.3,238H18.8c-3.2,0-5.8-2.6-5.8-5.8v-18.5c0-3.2,2.6-5.8,5.8-5.8h19.5c3.2,0,5.8,2.6,5.8,5.8v18.5
		C44.1,235.4,41.5,238,38.3,238z"/>
	<polygon class="st4" points="39.1,212.5 18.1,212.5 18.1,229.5 22.6,229.5 22.6,233 34.6,233 34.6,229.5 39.1,229.5 	"/>
	<rect x="20" y="213" class="st5" width="2" height="4"/>
	<rect x="24" y="213" class="st5" width="2" height="4"/>
	<rect x="27.7" y="213" class="st5" width="2" height="4"/>
	<rect x="31.4" y="213" class="st5" width="2" height="4"/>
	<rect x="35.3" y="213" class="st5" width="2" height="4"/>
	<g class="st6">
		<path class="st1" d="M313.3,112.8c-1.3-0.7-2.3-1.7-3.1-3c-0.7-1.3-1.1-2.7-1.1-4.3s0.4-3,1.1-4.3c0.8-1.3,1.8-2.2,3.1-3
			c1.3-0.7,2.8-1.1,4.4-1.1c1.3,0,2.5,0.2,3.6,0.7s2,1.1,2.8,2l-1.9,1.8c-1.2-1.3-2.6-1.9-4.3-1.9c-1.1,0-2.1,0.2-3,0.7
			s-1.6,1.2-2,2c-0.5,0.9-0.7,1.8-0.7,2.9s0.2,2.1,0.7,2.9c0.5,0.9,1.2,1.5,2,2c0.9,0.5,1.9,0.7,3,0.7c1.7,0,3.1-0.6,4.3-1.9
			l1.9,1.8c-0.8,0.9-1.7,1.5-2.8,2s-2.3,0.7-3.6,0.7C316.1,113.8,314.6,113.5,313.3,112.8z"/>
		<path class="st1" d="M328.4,113c-1-0.5-1.8-1.3-2.3-2.2c-0.6-1-0.8-2-0.8-3.3c0-1.2,0.3-2.3,0.8-3.2c0.6-1,1.3-1.7,2.3-2.2
			c1-0.5,2.1-0.8,3.4-0.8c1.3,0,2.4,0.3,3.4,0.8c1,0.5,1.8,1.3,2.3,2.2s0.8,2,0.8,3.2c0,1.2-0.3,2.3-0.8,3.3c-0.6,1-1.3,1.7-2.3,2.2
			c-1,0.5-2.1,0.8-3.4,0.8C330.5,113.8,329.4,113.5,328.4,113z M334.4,110.2c0.7-0.7,1-1.6,1-2.8c0-1.2-0.3-2.1-1-2.8
			c-0.7-0.7-1.6-1.1-2.6-1.1c-1.1,0-1.9,0.4-2.6,1.1c-0.7,0.7-1,1.6-1,2.8c0,1.1,0.3,2.1,1,2.8c0.7,0.7,1.6,1.1,2.6,1.1
			C332.8,111.3,333.7,110.9,334.4,110.2z"/>
		<path class="st1" d="M343.3,113c-1-0.5-1.8-1.3-2.3-2.2c-0.6-1-0.8-2-0.8-3.3c0-1.2,0.3-2.3,0.8-3.2c0.6-1,1.3-1.7,2.3-2.2
			c1-0.5,2.1-0.8,3.4-0.8c1.3,0,2.4,0.3,3.4,0.8c1,0.5,1.8,1.3,2.3,2.2s0.8,2,0.8,3.2c0,1.2-0.3,2.3-0.8,3.3c-0.6,1-1.3,1.7-2.3,2.2
			c-1,0.5-2.1,0.8-3.4,0.8C345.4,113.8,344.3,113.5,343.3,113z M349.2,110.2c0.7-0.7,1-1.6,1-2.8c0-1.2-0.3-2.1-1-2.8
			c-0.7-0.7-1.6-1.1-2.6-1.1c-1.1,0-1.9,0.4-2.6,1.1c-0.7,0.7-1,1.6-1,2.8c0,1.1,0.3,2.1,1,2.8c0.7,0.7,1.6,1.1,2.6,1.1
			C347.7,111.3,348.6,110.9,349.2,110.2z"/>
		<path class="st1" d="M363,101.2v2.7c-0.2,0-0.5-0.1-0.7-0.1c-1.1,0-2,0.3-2.6,1s-0.9,1.6-0.9,2.8v6h-2.9v-12.3h2.7v1.8
			C359.5,101.8,361,101.2,363,101.2z"/>
		<path class="st1" d="M377.4,96.5v17.1h-2.8V112c-0.5,0.6-1.1,1-1.8,1.3c-0.7,0.3-1.5,0.4-2.3,0.4c-1.2,0-2.2-0.3-3.2-0.8
			s-1.7-1.3-2.2-2.2c-0.5-1-0.8-2.1-0.8-3.3c0-1.2,0.3-2.3,0.8-3.3c0.5-1,1.3-1.7,2.2-2.2s2-0.8,3.2-0.8c0.8,0,1.6,0.1,2.2,0.4
			c0.7,0.3,1.2,0.7,1.7,1.2v-6.3H377.4z M372.8,110.8c0.6-0.3,1-0.8,1.3-1.3c0.3-0.6,0.5-1.3,0.5-2s-0.2-1.4-0.5-2
			c-0.3-0.6-0.8-1-1.3-1.3c-0.6-0.3-1.2-0.5-1.9-0.5c-0.7,0-1.3,0.2-1.9,0.5c-0.6,0.3-1,0.8-1.3,1.3c-0.3,0.6-0.5,1.3-0.5,2
			s0.2,1.4,0.5,2c0.3,0.6,0.8,1,1.3,1.3c0.6,0.3,1.2,0.5,1.9,0.5C371.6,111.3,372.2,111.1,372.8,110.8z"/>
		<path class="st1" d="M381.3,98.8c-0.4-0.3-0.5-0.7-0.5-1.2s0.2-0.9,0.5-1.2c0.4-0.3,0.8-0.5,1.3-0.5s1,0.2,1.3,0.5
			c0.4,0.3,0.5,0.7,0.5,1.2c0,0.5-0.2,0.9-0.5,1.3c-0.3,0.3-0.8,0.5-1.3,0.5C382.1,99.3,381.7,99.1,381.3,98.8z M381.2,101.3h2.9
			v12.3h-2.9V101.3z"/>
		<path class="st1" d="M398.5,102.5c0.9,0.9,1.4,2.2,1.4,4v7H397v-6.7c0-1.1-0.3-1.9-0.8-2.4c-0.5-0.5-1.2-0.8-2.2-0.8
			c-1.1,0-1.9,0.3-2.5,1c-0.6,0.6-0.9,1.6-0.9,2.7v6.2h-2.9v-12.3h2.7v1.6c0.5-0.6,1.1-1,1.8-1.3c0.7-0.3,1.5-0.4,2.4-0.4
			C396.3,101.2,397.6,101.6,398.5,102.5z"/>
		<path class="st1" d="M412.4,102.5c1,0.9,1.4,2.2,1.4,3.9v7.2h-2.7v-1.5c-0.4,0.5-0.9,0.9-1.5,1.2c-0.7,0.3-1.4,0.4-2.4,0.4
			s-1.7-0.2-2.4-0.5c-0.7-0.3-1.2-0.8-1.6-1.3s-0.6-1.2-0.6-1.9c0-1.1,0.4-2,1.2-2.7s2.1-1,3.9-1h3.2v-0.2c0-0.9-0.3-1.5-0.8-2
			s-1.3-0.7-2.3-0.7c-0.7,0-1.4,0.1-2,0.3s-1.2,0.5-1.7,0.9l-1.1-2.1c0.6-0.5,1.4-0.9,2.3-1.1c0.9-0.3,1.9-0.4,2.9-0.4
			C410.1,101.2,411.5,101.6,412.4,102.5z M409.8,111.2c0.6-0.3,1-0.8,1.2-1.4v-1.4h-3c-1.7,0-2.5,0.5-2.5,1.6c0,0.5,0.2,0.9,0.6,1.2
			s1,0.5,1.7,0.5C408.6,111.7,409.2,111.5,409.8,111.2z"/>
		<path class="st1" d="M419.9,113c-1-0.5-1.8-1.3-2.4-2.2c-0.6-1-0.9-2-0.9-3.3c0-1.2,0.3-2.3,0.9-3.2s1.4-1.7,2.4-2.2
			c1-0.5,2.2-0.8,3.4-0.8c1.2,0,2.3,0.2,3.2,0.7c0.9,0.5,1.6,1.2,2.1,2.1l-2.2,1.3c-0.4-0.6-0.8-1-1.3-1.3c-0.5-0.3-1.1-0.4-1.7-0.4
			c-1.1,0-2,0.3-2.7,1c-0.7,0.7-1.1,1.6-1.1,2.8s0.3,2.1,1,2.8c0.7,0.7,1.6,1,2.7,1c0.6,0,1.2-0.1,1.7-0.4c0.5-0.3,1-0.7,1.3-1.3
			l2.2,1.3c-0.5,0.9-1.2,1.6-2.1,2.1c-0.9,0.5-2,0.7-3.2,0.7C422,113.8,420.9,113.5,419.9,113z"/>
		<path class="st1" d="M431.1,98.8c-0.4-0.3-0.5-0.7-0.5-1.2s0.2-0.9,0.5-1.2c0.4-0.3,0.8-0.5,1.3-0.5s1,0.2,1.3,0.5
			c0.4,0.3,0.5,0.7,0.5,1.2c0,0.5-0.2,0.9-0.5,1.3c-0.3,0.3-0.8,0.5-1.3,0.5C431.9,99.3,431.5,99.1,431.1,98.8z M431,101.3h2.9v12.3
			H431V101.3z"/>
		<path class="st1" d="M439.8,113c-1-0.5-1.8-1.3-2.3-2.2c-0.6-1-0.8-2-0.8-3.3c0-1.2,0.3-2.3,0.8-3.2c0.6-1,1.3-1.7,2.3-2.2
			c1-0.5,2.1-0.8,3.4-0.8c1.3,0,2.4,0.3,3.4,0.8c1,0.5,1.8,1.3,2.3,2.2s0.8,2,0.8,3.2c0,1.2-0.3,2.3-0.8,3.3c-0.6,1-1.3,1.7-2.3,2.2
			c-1,0.5-2.1,0.8-3.4,0.8C441.9,113.8,440.8,113.5,439.8,113z M445.8,110.2c0.7-0.7,1-1.6,1-2.8c0-1.2-0.3-2.1-1-2.8
			c-0.7-0.7-1.6-1.1-2.6-1.1c-1.1,0-1.9,0.4-2.6,1.1c-0.7,0.7-1,1.6-1,2.8c0,1.1,0.3,2.1,1,2.8c0.7,0.7,1.6,1.1,2.6,1.1
			C444.2,111.3,445.1,110.9,445.8,110.2z M444.3,96.5h3.4l-4,3.2h-2.5L444.3,96.5z"/>
		<path class="st1" d="M463.2,102.5c0.9,0.9,1.4,2.2,1.4,4v7h-2.9v-6.7c0-1.1-0.3-1.9-0.8-2.4c-0.5-0.5-1.2-0.8-2.2-0.8
			c-1.1,0-1.9,0.3-2.5,1c-0.6,0.6-0.9,1.6-0.9,2.7v6.2h-2.9v-12.3h2.7v1.6c0.5-0.6,1.1-1,1.8-1.3c0.7-0.3,1.5-0.4,2.4-0.4
			C461,101.2,462.3,101.6,463.2,102.5z"/>
	</g>
	<g class="st6">
		<path class="st1" d="M322,124.1v17.1h-2.8v-1.6c-0.5,0.6-1.1,1-1.8,1.3c-0.7,0.3-1.5,0.4-2.3,0.4c-1.2,0-2.2-0.3-3.2-0.8
			c-0.9-0.5-1.7-1.3-2.2-2.2c-0.5-1-0.8-2.1-0.8-3.3c0-1.2,0.3-2.3,0.8-3.3c0.5-1,1.3-1.7,2.2-2.2c0.9-0.5,2-0.8,3.2-0.8
			c0.8,0,1.6,0.1,2.2,0.4c0.7,0.3,1.2,0.7,1.7,1.2v-6.3H322z M317.4,138.4c0.6-0.3,1-0.8,1.3-1.3c0.3-0.6,0.5-1.3,0.5-2
			s-0.2-1.4-0.5-2c-0.3-0.6-0.8-1-1.3-1.3c-0.6-0.3-1.2-0.5-1.9-0.5s-1.3,0.2-1.9,0.5c-0.6,0.3-1,0.8-1.3,1.3
			c-0.3,0.6-0.5,1.3-0.5,2s0.2,1.4,0.5,2c0.3,0.6,0.8,1,1.3,1.3c0.6,0.3,1.2,0.5,1.9,0.5S316.9,138.7,317.4,138.4z"/>
		<path class="st1" d="M337.3,136h-9.6c0.2,0.9,0.6,1.6,1.3,2.2s1.6,0.8,2.7,0.8c1.3,0,2.5-0.4,3.3-1.3l1.5,1.8
			c-0.6,0.7-1.2,1.2-2.1,1.5c-0.8,0.3-1.8,0.5-2.9,0.5c-1.3,0-2.5-0.3-3.6-0.8c-1-0.5-1.8-1.3-2.4-2.2c-0.6-1-0.8-2-0.8-3.3
			c0-1.2,0.3-2.3,0.8-3.2c0.5-1,1.3-1.7,2.3-2.2c1-0.5,2.1-0.8,3.3-0.8c1.2,0,2.3,0.3,3.2,0.8c0.9,0.5,1.7,1.3,2.2,2.2
			s0.8,2.1,0.8,3.3C337.4,135.3,337.3,135.6,337.3,136z M328.8,131.9c-0.6,0.5-1,1.3-1.2,2.2h7c-0.1-0.9-0.5-1.6-1.1-2.2
			c-0.6-0.6-1.4-0.8-2.3-0.8C330.2,131.1,329.4,131.4,328.8,131.9z"/>
		<path class="st1" d="M350,127.6h-5.3v-2.5h13.7v2.5H353v13.6h-3V127.6z"/>
		<path class="st1" d="M370.5,136h-9.6c0.2,0.9,0.6,1.6,1.3,2.2s1.6,0.8,2.7,0.8c1.3,0,2.5-0.4,3.3-1.3l1.5,1.8
			c-0.6,0.7-1.2,1.2-2.1,1.5c-0.8,0.3-1.8,0.5-2.9,0.5c-1.3,0-2.5-0.3-3.6-0.8c-1-0.5-1.8-1.3-2.4-2.2c-0.6-1-0.8-2-0.8-3.3
			c0-1.2,0.3-2.3,0.8-3.2c0.5-1,1.3-1.7,2.3-2.2c1-0.5,2.1-0.8,3.3-0.8c1.2,0,2.3,0.3,3.2,0.8c0.9,0.5,1.7,1.3,2.2,2.2
			s0.8,2.1,0.8,3.3C370.6,135.3,370.6,135.6,370.5,136z M362,131.9c-0.6,0.5-1,1.3-1.2,2.2h7c-0.1-0.9-0.5-1.6-1.1-2.2
			c-0.6-0.6-1.4-0.8-2.3-0.8C363.5,131.1,362.7,131.4,362,131.9z"/>
		<path class="st1" d="M375.6,140.6c-1-0.5-1.8-1.3-2.4-2.2c-0.6-1-0.9-2-0.9-3.3c0-1.2,0.3-2.3,0.9-3.2s1.4-1.7,2.4-2.2
			c1-0.5,2.2-0.8,3.4-0.8c1.2,0,2.3,0.2,3.2,0.7c0.9,0.5,1.6,1.2,2.1,2.1l-2.2,1.3c-0.4-0.6-0.8-1-1.3-1.3c-0.5-0.3-1.1-0.4-1.7-0.4
			c-1.1,0-2,0.3-2.7,1c-0.7,0.7-1.1,1.6-1.1,2.8s0.3,2.1,1,2.8c0.7,0.7,1.6,1,2.7,1c0.6,0,1.2-0.1,1.7-0.4c0.5-0.3,1-0.7,1.3-1.3
			l2.2,1.3c-0.5,0.9-1.2,1.6-2.1,2.1c-0.9,0.5-2,0.7-3.2,0.7C377.7,141.4,376.6,141.1,375.6,140.6z"/>
		<path class="st1" d="M397.4,130.1c0.9,0.9,1.4,2.2,1.4,4v7h-2.9v-6.7c0-1.1-0.3-1.9-0.8-2.4c-0.5-0.5-1.2-0.8-2.2-0.8
			c-1.1,0-1.9,0.3-2.5,1c-0.6,0.6-0.9,1.6-0.9,2.7v6.2h-2.9v-12.3h2.7v1.6c0.5-0.6,1.1-1,1.8-1.3c0.7-0.3,1.5-0.4,2.4-0.4
			C395.2,128.8,396.5,129.2,397.4,130.1z"/>
		<path class="st1" d="M404.7,140.6c-1-0.5-1.8-1.3-2.3-2.2c-0.6-1-0.8-2-0.8-3.3c0-1.2,0.3-2.3,0.8-3.2c0.6-1,1.3-1.7,2.3-2.2
			c1-0.5,2.1-0.8,3.4-0.8c1.3,0,2.4,0.3,3.4,0.8c1,0.5,1.8,1.3,2.3,2.2s0.8,2,0.8,3.2c0,1.2-0.3,2.3-0.8,3.3c-0.6,1-1.3,1.7-2.3,2.2
			c-1,0.5-2.1,0.8-3.4,0.8C406.9,141.4,405.7,141.1,404.7,140.6z M410.7,137.8c0.7-0.7,1-1.6,1-2.8c0-1.2-0.3-2.1-1-2.8
			c-0.7-0.7-1.6-1.1-2.6-1.1c-1.1,0-1.9,0.4-2.6,1.1c-0.7,0.7-1,1.6-1,2.8c0,1.1,0.3,2.1,1,2.8c0.7,0.7,1.6,1.1,2.6,1.1
			C409.2,138.9,410,138.5,410.7,137.8z"/>
		<path class="st1" d="M417.4,124.1h2.9v17.1h-2.9V124.1z"/>
		<path class="st1" d="M426.2,140.6c-1-0.5-1.8-1.3-2.3-2.2c-0.6-1-0.8-2-0.8-3.3c0-1.2,0.3-2.3,0.8-3.2c0.6-1,1.3-1.7,2.3-2.2
			c1-0.5,2.1-0.8,3.4-0.8c1.3,0,2.4,0.3,3.4,0.8c1,0.5,1.8,1.3,2.3,2.2s0.8,2,0.8,3.2c0,1.2-0.3,2.3-0.8,3.3c-0.6,1-1.3,1.7-2.3,2.2
			c-1,0.5-2.1,0.8-3.4,0.8C428.3,141.4,427.2,141.1,426.2,140.6z M432.2,137.8c0.7-0.7,1-1.6,1-2.8c0-1.2-0.3-2.1-1-2.8
			c-0.7-0.7-1.6-1.1-2.6-1.1c-1.1,0-1.9,0.4-2.6,1.1c-0.7,0.7-1,1.6-1,2.8c0,1.1,0.3,2.1,1,2.8c0.7,0.7,1.6,1.1,2.6,1.1
			C430.6,138.9,431.5,138.5,432.2,137.8z"/>
		<path class="st1" d="M451.1,128.9v10.4c0,4.3-2.2,6.5-6.6,6.5c-1.2,0-2.3-0.1-3.4-0.4c-1.1-0.3-1.9-0.7-2.6-1.3l1.3-2.2
			c0.5,0.4,1.2,0.8,2,1.1c0.8,0.3,1.7,0.4,2.5,0.4c1.3,0,2.3-0.3,3-0.9s0.9-1.5,0.9-2.8V139c-0.5,0.5-1.1,0.9-1.8,1.2
			c-0.7,0.3-1.5,0.4-2.3,0.4c-1.2,0-2.2-0.2-3.2-0.7c-0.9-0.5-1.7-1.2-2.2-2.1c-0.5-0.9-0.8-1.9-0.8-3.1s0.3-2.2,0.8-3.1
			c0.5-0.9,1.3-1.6,2.2-2.1c0.9-0.5,2-0.7,3.2-0.7c0.9,0,1.7,0.1,2.4,0.4c0.7,0.3,1.3,0.7,1.8,1.3v-1.6H451.1z M447.2,137.2
			c0.7-0.7,1-1.5,1-2.5c0-1-0.3-1.9-1-2.5c-0.7-0.6-1.6-1-2.7-1c-1.1,0-2,0.3-2.7,1c-0.7,0.6-1,1.5-1,2.5c0,1,0.3,1.9,1,2.5
			c0.7,0.7,1.6,1,2.7,1C445.6,138.2,446.5,137.9,447.2,137.2z"/>
		<path class="st1" d="M457.5,124.1h3.4l-4,3.2h-2.5L457.5,124.1z M454.9,128.9h2.9v12.3h-2.9V128.9z"/>
		<path class="st1" d="M470.4,130.1c1,0.9,1.4,2.2,1.4,3.9v7.2h-2.7v-1.5c-0.4,0.5-0.9,0.9-1.5,1.2c-0.7,0.3-1.4,0.4-2.4,0.4
			s-1.7-0.2-2.4-0.5c-0.7-0.3-1.2-0.8-1.6-1.3s-0.6-1.2-0.6-1.9c0-1.1,0.4-2,1.2-2.7s2.1-1,3.9-1h3.2v-0.2c0-0.9-0.3-1.5-0.8-2
			s-1.3-0.7-2.3-0.7c-0.7,0-1.4,0.1-2,0.3s-1.2,0.5-1.7,0.9l-1.1-2.1c0.6-0.5,1.4-0.9,2.3-1.1c0.9-0.3,1.9-0.4,2.9-0.4
			C468,128.8,469.4,129.2,470.4,130.1z M467.7,138.8c0.6-0.3,1-0.8,1.2-1.4v-1.4h-3c-1.7,0-2.5,0.5-2.5,1.6c0,0.5,0.2,0.9,0.6,1.2
			s1,0.5,1.7,0.5C466.5,139.3,467.2,139.1,467.7,138.8z"/>
		<path class="st1" d="M476.3,141c-1-0.3-1.7-0.6-2.3-1l1.1-2.2c0.6,0.4,1.2,0.7,2,0.9c0.8,0.2,1.5,0.3,2.3,0.3
			c1.7,0,2.6-0.5,2.6-1.4c0-0.4-0.2-0.7-0.7-0.9c-0.4-0.2-1.1-0.3-2.1-0.5c-1-0.2-1.8-0.3-2.5-0.5c-0.6-0.2-1.2-0.5-1.7-1
			s-0.7-1.2-0.7-2.1c0-1.2,0.5-2.1,1.5-2.8c1-0.7,2.3-1,3.9-1c0.8,0,1.7,0.1,2.5,0.3c0.8,0.2,1.5,0.4,2.1,0.8l-1.1,2.2
			c-1-0.6-2.2-0.9-3.5-0.9c-0.8,0-1.5,0.1-1.9,0.4s-0.7,0.6-0.7,1c0,0.5,0.2,0.8,0.7,1s1.2,0.4,2.2,0.5c1,0.2,1.8,0.3,2.4,0.5
			c0.6,0.2,1.2,0.5,1.6,1c0.5,0.5,0.7,1.2,0.7,2c0,1.1-0.5,2.1-1.5,2.8s-2.4,1-4.1,1C478.3,141.4,477.3,141.2,476.3,141z"/>
	</g>
	<g class="st6">
		<path class="st1" d="M322,151.7v17.1h-2.8v-1.6c-0.5,0.6-1.1,1-1.8,1.3c-0.7,0.3-1.5,0.4-2.3,0.4c-1.2,0-2.2-0.3-3.2-0.8
			c-0.9-0.5-1.7-1.3-2.2-2.2c-0.5-1-0.8-2.1-0.8-3.3c0-1.2,0.3-2.3,0.8-3.3c0.5-1,1.3-1.7,2.2-2.2c0.9-0.5,2-0.8,3.2-0.8
			c0.8,0,1.6,0.1,2.2,0.4c0.7,0.3,1.2,0.7,1.7,1.2v-6.3H322z M317.4,166c0.6-0.3,1-0.8,1.3-1.3c0.3-0.6,0.5-1.3,0.5-2
			s-0.2-1.4-0.5-2c-0.3-0.6-0.8-1-1.3-1.3c-0.6-0.3-1.2-0.5-1.9-0.5s-1.3,0.2-1.9,0.5c-0.6,0.3-1,0.8-1.3,1.3
			c-0.3,0.6-0.5,1.3-0.5,2s0.2,1.4,0.5,2c0.3,0.6,0.8,1,1.3,1.3c0.6,0.3,1.2,0.5,1.9,0.5S316.9,166.3,317.4,166z"/>
		<path class="st1" d="M337.3,163.6h-9.6c0.2,0.9,0.6,1.6,1.3,2.2s1.6,0.8,2.7,0.8c1.3,0,2.5-0.4,3.3-1.3l1.5,1.8
			c-0.6,0.7-1.2,1.2-2.1,1.5c-0.8,0.3-1.8,0.5-2.9,0.5c-1.3,0-2.5-0.3-3.6-0.8c-1-0.5-1.8-1.3-2.4-2.2c-0.6-1-0.8-2-0.8-3.3
			c0-1.2,0.3-2.3,0.8-3.2c0.5-1,1.3-1.7,2.3-2.2c1-0.5,2.1-0.8,3.3-0.8c1.2,0,2.3,0.3,3.2,0.8c0.9,0.5,1.7,1.3,2.2,2.2
			s0.8,2.1,0.8,3.3C337.4,162.9,337.3,163.2,337.3,163.6z M328.8,159.5c-0.6,0.5-1,1.3-1.2,2.2h7c-0.1-0.9-0.5-1.6-1.1-2.2
			c-0.6-0.6-1.4-0.8-2.3-0.8C330.2,158.7,329.4,159,328.8,159.5z"/>
		<path class="st1" d="M346.7,152.7h3v16.1h-3V152.7z"/>
		<path class="st1" d="M364.5,157.7c0.9,0.9,1.4,2.2,1.4,4v7H363v-6.7c0-1.1-0.3-1.9-0.8-2.4c-0.5-0.5-1.2-0.8-2.2-0.8
			c-1.1,0-1.9,0.3-2.5,1c-0.6,0.6-0.9,1.6-0.9,2.7v6.2h-2.9v-12.3h2.7v1.6c0.5-0.6,1.1-1,1.8-1.3c0.7-0.3,1.5-0.4,2.4-0.4
			C362.3,156.4,363.6,156.8,364.5,157.7z"/>
		<path class="st1" d="M372.7,155.9v0.7h3.4v2.3h-3.3v9.9h-2.9v-9.9h-2v-2.3h2v-0.8c0-1.3,0.4-2.4,1.1-3.1c0.8-0.8,1.8-1.1,3.2-1.1
			c1.1,0,2,0.2,2.6,0.7l-0.8,2.2c-0.5-0.3-1-0.5-1.6-0.5C373.3,153.9,372.7,154.6,372.7,155.9z"/>
		<path class="st1" d="M380,168.2c-1-0.5-1.8-1.3-2.3-2.2c-0.6-1-0.8-2-0.8-3.3c0-1.2,0.3-2.3,0.8-3.2c0.6-1,1.3-1.7,2.3-2.2
			c1-0.5,2.1-0.8,3.4-0.8c1.3,0,2.4,0.3,3.4,0.8c1,0.5,1.8,1.3,2.3,2.2s0.8,2,0.8,3.2c0,1.2-0.3,2.3-0.8,3.3c-0.6,1-1.3,1.7-2.3,2.2
			c-1,0.5-2.1,0.8-3.4,0.8C382.1,169,381,168.7,380,168.2z M386,165.4c0.7-0.7,1-1.6,1-2.8c0-1.2-0.3-2.1-1-2.8
			c-0.7-0.7-1.6-1.1-2.6-1.1c-1.1,0-1.9,0.4-2.6,1.1c-0.7,0.7-1,1.6-1,2.8c0,1.1,0.3,2.1,1,2.8c0.7,0.7,1.6,1.1,2.6,1.1
			C384.4,166.5,385.3,166.1,386,165.4z"/>
		<path class="st1" d="M399.8,156.4v2.7c-0.2,0-0.5-0.1-0.7-0.1c-1.1,0-2,0.3-2.6,1s-0.9,1.6-0.9,2.8v6h-2.9v-12.3h2.7v1.8
			C396.3,157,397.7,156.4,399.8,156.4z"/>
		<path class="st1" d="M421.4,157.7c0.9,0.9,1.4,2.2,1.4,4v7h-2.9v-6.7c0-1.1-0.2-1.9-0.7-2.4c-0.5-0.5-1.2-0.8-2-0.8
			c-1,0-1.7,0.3-2.3,1c-0.6,0.6-0.9,1.5-0.9,2.7v6.2h-2.9v-6.7c0-1.1-0.2-1.9-0.7-2.4c-0.5-0.5-1.2-0.8-2-0.8c-1,0-1.8,0.3-2.3,0.9
			c-0.6,0.6-0.9,1.5-0.9,2.7v6.2h-2.9v-12.3h2.7v1.6c0.5-0.6,1-1,1.7-1.3c0.7-0.3,1.5-0.4,2.3-0.4c0.9,0,1.7,0.2,2.4,0.5
			s1.3,0.9,1.7,1.5c0.5-0.6,1.2-1.1,2-1.5c0.8-0.4,1.7-0.5,2.6-0.5C419.3,156.4,420.5,156.8,421.4,157.7z"/>
		<path class="st1" d="M435.3,157.7c1,0.9,1.4,2.2,1.4,3.9v7.2H434v-1.5c-0.4,0.5-0.9,0.9-1.5,1.2c-0.7,0.3-1.4,0.4-2.4,0.4
			s-1.7-0.2-2.4-0.5c-0.7-0.3-1.2-0.8-1.6-1.3s-0.6-1.2-0.6-1.9c0-1.1,0.4-2,1.2-2.7s2.1-1,3.9-1h3.2v-0.2c0-0.9-0.3-1.5-0.8-2
			s-1.3-0.7-2.3-0.7c-0.7,0-1.4,0.1-2,0.3s-1.2,0.5-1.7,0.9l-1.1-2.1c0.6-0.5,1.4-0.9,2.3-1.1c0.9-0.3,1.9-0.4,2.9-0.4
			C433,156.4,434.3,156.8,435.3,157.7z M432.7,166.4c0.6-0.3,1-0.8,1.2-1.4v-1.4h-3c-1.7,0-2.5,0.5-2.5,1.6c0,0.5,0.2,0.9,0.6,1.2
			s1,0.5,1.7,0.5C431.5,166.9,432.1,166.7,432.7,166.4z"/>
		<path class="st1" d="M442.7,168.2c-1-0.5-1.8-1.3-2.4-2.2c-0.6-1-0.9-2-0.9-3.3c0-1.2,0.3-2.3,0.9-3.2s1.4-1.7,2.4-2.2
			c1-0.5,2.2-0.8,3.4-0.8c1.2,0,2.3,0.2,3.2,0.7s1.6,1.2,2.1,2.1l-2.2,1.3c-0.4-0.6-0.8-1-1.3-1.3c-0.5-0.3-1.1-0.4-1.7-0.4
			c-1.1,0-2,0.3-2.7,1c-0.7,0.7-1.1,1.6-1.1,2.8s0.3,2.1,1,2.8c0.7,0.7,1.6,1,2.7,1c0.6,0,1.2-0.1,1.7-0.4c0.5-0.3,1-0.7,1.3-1.3
			l2.2,1.3c-0.5,0.9-1.2,1.6-2.1,2.1c-0.9,0.5-2,0.7-3.2,0.7C444.9,169,443.8,168.7,442.7,168.2z"/>
		<path class="st1" d="M454,154c-0.4-0.3-0.5-0.7-0.5-1.2c0-0.5,0.2-0.9,0.5-1.2c0.4-0.3,0.8-0.5,1.3-0.5s1,0.2,1.3,0.5
			c0.4,0.3,0.5,0.7,0.5,1.2c0,0.5-0.2,0.9-0.5,1.3c-0.3,0.3-0.8,0.5-1.3,0.5C454.8,154.5,454.4,154.3,454,154z M453.9,156.5h2.9
			v12.3h-2.9V156.5z"/>
		<path class="st1" d="M462.7,168.2c-1-0.5-1.8-1.3-2.3-2.2c-0.6-1-0.8-2-0.8-3.3c0-1.2,0.3-2.3,0.8-3.2c0.6-1,1.3-1.7,2.3-2.2
			c1-0.5,2.1-0.8,3.4-0.8c1.3,0,2.4,0.3,3.4,0.8c1,0.5,1.8,1.3,2.3,2.2s0.8,2,0.8,3.2c0,1.2-0.3,2.3-0.8,3.3c-0.6,1-1.3,1.7-2.3,2.2
			c-1,0.5-2.1,0.8-3.4,0.8C464.8,169,463.7,168.7,462.7,168.2z M468.7,165.4c0.7-0.7,1-1.6,1-2.8c0-1.2-0.3-2.1-1-2.8
			c-0.7-0.7-1.6-1.1-2.6-1.1c-1.1,0-1.9,0.4-2.6,1.1c-0.7,0.7-1,1.6-1,2.8c0,1.1,0.3,2.1,1,2.8c0.7,0.7,1.6,1.1,2.6,1.1
			C467.1,166.5,468,166.1,468.7,165.4z M467.2,151.7h3.4l-4,3.2h-2.5L467.2,151.7z"/>
		<path class="st1" d="M486.1,157.7c0.9,0.9,1.4,2.2,1.4,4v7h-2.9v-6.7c0-1.1-0.3-1.9-0.8-2.4c-0.5-0.5-1.2-0.8-2.2-0.8
			c-1.1,0-1.9,0.3-2.5,1c-0.6,0.6-0.9,1.6-0.9,2.7v6.2h-2.9v-12.3h2.7v1.6c0.5-0.6,1.1-1,1.8-1.3c0.7-0.3,1.5-0.4,2.4-0.4
			C483.9,156.4,485.1,156.8,486.1,157.7z"/>
	</g>
	<g class="st6">
		<path class="st1" d="M320.7,192.7h-8l-1.6,3.7H308l7.2-16.1h2.9l7.3,16.1h-3.1L320.7,192.7z M319.7,190.3l-3-7l-3,7H319.7z"/>
		<path class="st1" d="M339.2,179.3v17.1h-2.8v-1.6c-0.5,0.6-1.1,1-1.8,1.3c-0.7,0.3-1.5,0.4-2.3,0.4c-1.2,0-2.2-0.3-3.2-0.8
			s-1.7-1.3-2.2-2.2c-0.5-1-0.8-2.1-0.8-3.3c0-1.2,0.3-2.3,0.8-3.3c0.5-1,1.3-1.7,2.2-2.2s2-0.8,3.2-0.8c0.8,0,1.6,0.1,2.2,0.4
			c0.7,0.3,1.2,0.7,1.7,1.2v-6.3H339.2z M334.5,193.6c0.6-0.3,1-0.8,1.3-1.3c0.3-0.6,0.5-1.3,0.5-2s-0.2-1.4-0.5-2
			c-0.3-0.6-0.8-1-1.3-1.3c-0.6-0.3-1.2-0.5-1.9-0.5c-0.7,0-1.3,0.2-1.9,0.5c-0.6,0.3-1,0.8-1.3,1.3c-0.3,0.6-0.5,1.3-0.5,2
			s0.2,1.4,0.5,2c0.3,0.6,0.8,1,1.3,1.3c0.6,0.3,1.2,0.5,1.9,0.5C333.4,194.1,334,193.9,334.5,193.6z"/>
		<path class="st1" d="M362.1,185.3c0.9,0.9,1.4,2.2,1.4,4v7h-2.9v-6.7c0-1.1-0.2-1.9-0.7-2.4c-0.5-0.5-1.2-0.8-2-0.8
			c-1,0-1.7,0.3-2.3,1c-0.6,0.6-0.9,1.5-0.9,2.7v6.2h-2.9v-6.7c0-1.1-0.2-1.9-0.7-2.4c-0.5-0.5-1.2-0.8-2-0.8c-1,0-1.8,0.3-2.3,0.9
			c-0.6,0.6-0.9,1.5-0.9,2.7v6.2h-2.9v-12.3h2.7v1.6c0.5-0.6,1-1,1.7-1.3c0.7-0.3,1.5-0.4,2.3-0.4c0.9,0,1.7,0.2,2.4,0.5
			c0.7,0.3,1.3,0.9,1.7,1.5c0.5-0.6,1.2-1.1,2-1.5c0.8-0.4,1.7-0.5,2.6-0.5C360,184,361.2,184.4,362.1,185.3z"/>
		<path class="st1" d="M367.3,181.6c-0.4-0.3-0.5-0.7-0.5-1.2c0-0.5,0.2-0.9,0.5-1.2c0.4-0.3,0.8-0.5,1.3-0.5s1,0.2,1.3,0.5
			c0.4,0.3,0.5,0.7,0.5,1.2c0,0.5-0.2,0.9-0.5,1.3c-0.3,0.3-0.8,0.5-1.3,0.5C368.1,182.1,367.6,181.9,367.3,181.6z M367.1,184.1h2.9
			v12.3h-2.9V184.1z"/>
		<path class="st1" d="M384.5,185.3c0.9,0.9,1.4,2.2,1.4,4v7H383v-6.7c0-1.1-0.3-1.9-0.8-2.4c-0.5-0.5-1.2-0.8-2.2-0.8
			c-1.1,0-1.9,0.3-2.5,1c-0.6,0.6-0.9,1.6-0.9,2.7v6.2h-2.9v-12.3h2.7v1.6c0.5-0.6,1.1-1,1.8-1.3c0.7-0.3,1.5-0.4,2.4-0.4
			C382.3,184,383.5,184.4,384.5,185.3z"/>
		<path class="st1" d="M389.7,181.6c-0.4-0.3-0.5-0.7-0.5-1.2c0-0.5,0.2-0.9,0.5-1.2c0.4-0.3,0.8-0.5,1.3-0.5s1,0.2,1.3,0.5
			c0.4,0.3,0.5,0.7,0.5,1.2c0,0.5-0.2,0.9-0.5,1.3c-0.3,0.3-0.8,0.5-1.3,0.5C390.5,182.1,390,181.9,389.7,181.6z M389.5,184.1h2.9
			v12.3h-2.9V184.1z"/>
		<path class="st1" d="M397.1,196.2c-1-0.3-1.7-0.6-2.3-1l1.1-2.2c0.6,0.4,1.2,0.7,2,0.9c0.8,0.2,1.5,0.3,2.3,0.3
			c1.7,0,2.6-0.5,2.6-1.4c0-0.4-0.2-0.7-0.7-0.9c-0.4-0.2-1.1-0.3-2.1-0.5c-1-0.2-1.8-0.3-2.5-0.5c-0.6-0.2-1.2-0.5-1.7-1
			s-0.7-1.2-0.7-2.1c0-1.2,0.5-2.1,1.5-2.8c1-0.7,2.3-1,3.9-1c0.8,0,1.7,0.1,2.5,0.3c0.8,0.2,1.5,0.4,2.1,0.8l-1.1,2.2
			c-1-0.6-2.2-0.9-3.5-0.9c-0.8,0-1.5,0.1-1.9,0.4s-0.7,0.6-0.7,1c0,0.5,0.2,0.8,0.7,1s1.2,0.4,2.2,0.5c1,0.2,1.8,0.3,2.4,0.5
			c0.6,0.2,1.2,0.5,1.6,1c0.5,0.5,0.7,1.2,0.7,2c0,1.1-0.5,2.1-1.5,2.8s-2.4,1-4.1,1C399,196.6,398,196.4,397.1,196.2z"/>
		<path class="st1" d="M415.4,195.7c-0.3,0.3-0.7,0.5-1.2,0.6c-0.5,0.1-1,0.2-1.5,0.2c-1.3,0-2.4-0.4-3.1-1.1
			c-0.7-0.7-1.1-1.7-1.1-3.1v-5.9h-2v-2.3h2v-2.8h2.9v2.8h3.3v2.3h-3.3v5.8c0,0.6,0.1,1.1,0.4,1.4c0.3,0.3,0.7,0.5,1.3,0.5
			c0.6,0,1.2-0.2,1.6-0.5L415.4,195.7z"/>
		<path class="st1" d="M424.9,184v2.7c-0.2,0-0.5-0.1-0.7-0.1c-1.1,0-2,0.3-2.6,1s-0.9,1.6-0.9,2.8v6h-2.9v-12.3h2.7v1.8
			C421.4,184.6,422.8,184,424.9,184z"/>
		<path class="st1" d="M436.1,185.3c1,0.9,1.4,2.2,1.4,3.9v7.2h-2.7v-1.5c-0.4,0.5-0.9,0.9-1.5,1.2c-0.7,0.3-1.4,0.4-2.4,0.4
			s-1.7-0.2-2.4-0.5c-0.7-0.3-1.2-0.8-1.6-1.3s-0.6-1.2-0.6-1.9c0-1.1,0.4-2,1.2-2.7s2.1-1,3.9-1h3.2V189c0-0.9-0.3-1.5-0.8-2
			s-1.3-0.7-2.3-0.7c-0.7,0-1.4,0.1-2,0.3s-1.2,0.5-1.7,0.9l-1.1-2.1c0.6-0.5,1.4-0.9,2.3-1.1c0.9-0.3,1.9-0.4,2.9-0.4
			C433.8,184,435.1,184.4,436.1,185.3z M433.5,194c0.6-0.3,1-0.8,1.2-1.4v-1.4h-3c-1.7,0-2.5,0.5-2.5,1.6c0,0.5,0.2,0.9,0.6,1.2
			s1,0.5,1.7,0.5C432.3,194.5,432.9,194.3,433.5,194z"/>
		<path class="st1" d="M448.6,195.7c-0.3,0.3-0.7,0.5-1.2,0.6c-0.5,0.1-1,0.2-1.5,0.2c-1.3,0-2.4-0.4-3.1-1.1
			c-0.7-0.7-1.1-1.7-1.1-3.1v-5.9h-2v-2.3h2v-2.8h2.9v2.8h3.3v2.3h-3.3v5.8c0,0.6,0.1,1.1,0.4,1.4c0.3,0.3,0.7,0.5,1.3,0.5
			c0.6,0,1.2-0.2,1.6-0.5L448.6,195.7z"/>
		<path class="st1" d="M451.1,181.6c-0.4-0.3-0.5-0.7-0.5-1.2c0-0.5,0.2-0.9,0.5-1.2c0.4-0.3,0.8-0.5,1.3-0.5s1,0.2,1.3,0.5
			c0.4,0.3,0.5,0.7,0.5,1.2c0,0.5-0.2,0.9-0.5,1.3c-0.3,0.3-0.8,0.5-1.3,0.5C451.9,182.1,451.5,181.9,451.1,181.6z M451,184.1h2.9
			v12.3H451V184.1z"/>
		<path class="st1" d="M469.1,184.1l-5.3,12.3h-3l-5.3-12.3h3l3.8,9.1l3.9-9.1H469.1z"/>
		<path class="st1" d="M479.4,185.3c1,0.9,1.4,2.2,1.4,3.9v7.2h-2.7v-1.5c-0.4,0.5-0.9,0.9-1.5,1.2c-0.7,0.3-1.4,0.4-2.4,0.4
			s-1.7-0.2-2.4-0.5c-0.7-0.3-1.2-0.8-1.6-1.3s-0.6-1.2-0.6-1.9c0-1.1,0.4-2,1.2-2.7s2.1-1,3.9-1h3.2V189c0-0.9-0.3-1.5-0.8-2
			s-1.3-0.7-2.3-0.7c-0.7,0-1.4,0.1-2,0.3s-1.2,0.5-1.7,0.9l-1.1-2.1c0.6-0.5,1.4-0.9,2.3-1.1c0.9-0.3,1.9-0.4,2.9-0.4
			C477,184,478.4,184.4,479.4,185.3z M476.7,194c0.6-0.3,1-0.8,1.2-1.4v-1.4h-3c-1.7,0-2.5,0.5-2.5,1.6c0,0.5,0.2,0.9,0.6,1.2
			s1,0.5,1.7,0.5C475.5,194.5,476.2,194.3,476.7,194z"/>
	</g>
</g>
</svg>
