<?xml version="1.0" encoding="iso-8859-1"?>
<!-- Generator: Adobe Illustrator 23.0.1, SVG Export Plug-In . SVG Version: 6.00 Build 0)  -->
<svg version="1.1" id="Capa_1" xmlns="http://www.w3.org/2000/svg" xmlns:xlink="http://www.w3.org/1999/xlink" x="0px" y="0px"
	 viewBox="0 0 600 600" style="enable-background:new 0 0 600 600;" xml:space="preserve">
<g>
	<rect x="220.271" y="236.189" style="fill:#FFFFFF;" width="39.039" height="100.672"/>
	<polygon style="fill:#FFFFFF;" points="586,254.611 586,236.125 491.489,236.125 491.489,236.123 452.452,236.123 452.452,336.795 
		479.102,336.795 491.489,336.795 586,336.795 586,318.124 491.489,318.124 491.489,295.704 586,295.704 586,277.216 
		491.489,277.216 491.489,254.611 	"/>
	<polygon style="fill:#FFFFFF;" points="394.916,236.189 394.916,295.77 316.839,236.189 277.802,236.189 277.802,336.861 
		316.839,336.861 316.839,277.277 394.916,336.861 433.955,336.861 433.955,236.189 	"/>
	<g>
		<path style="fill:#FFFFFF;" d="M174.598,304.228h-29.407c10.752-8.788,21.927-17.078,33.533-24.785
			c-26.768-16.467-49.3-39.128-65.627-65.988c-26.788,16.981-49.708,39.492-67.209,65.914c6.309,8.883,13.368,17.185,21.054,24.86
			H41.868l-26.711,8.629H201.31L174.598,304.228z M33.647,309.573l8.221-3.29h27.144c1.145,1.11,2.302,2.208,3.473,3.29H33.647z
			 M142.691,306.283h31.907l8.218,3.29h-44.054C140.064,308.467,141.376,307.374,142.691,306.283z"/>
		<path style="fill:#FFFFFF;" d="M109.742,336.587c7.336-7.506,14.962-14.723,22.828-21.669H78.491
			C88.139,323.114,98.6,330.383,109.742,336.587z"/>
	</g>
	<g>
		<path style="fill:#FFFFFF;" d="M15.332,359.401h8.447v27.272h-8.447V359.401z"/>
		<path style="fill:#FFFFFF;" d="M29.322,366.914h7.049v3.217c1.057-1.311,2.124-2.251,3.203-2.814
			c1.077-0.569,2.392-0.852,3.941-0.852c2.096,0,3.737,0.626,4.923,1.871c1.183,1.248,1.774,3.174,1.774,5.78v12.558h-7.608v-10.864
			c0-1.246-0.23-2.12-0.688-2.634c-0.46-0.514-1.105-0.774-1.935-0.774c-0.919,0-1.663,0.348-2.233,1.043
			c-0.569,0.694-0.856,1.938-0.856,3.743v9.486h-7.571V366.914z"/>
		<path style="fill:#FFFFFF;" d="M53.396,381.182l7.513-0.706c0.311,0.895,0.745,1.528,1.305,1.912
			c0.557,0.389,1.301,0.578,2.231,0.578c1.017,0,1.806-0.212,2.361-0.649c0.434-0.321,0.651-0.72,0.651-1.206
			c0-0.542-0.284-0.97-0.856-1.261c-0.409-0.209-1.495-0.473-3.255-0.785c-2.63-0.455-4.454-0.877-5.477-1.268
			c-1.024-0.392-1.885-1.054-2.587-1.981c-0.701-0.926-1.051-1.987-1.051-3.18c0-1.3,0.377-2.422,1.135-3.362
			c0.756-0.945,1.797-1.644,3.125-2.11c1.328-0.467,3.107-0.701,5.34-0.701c2.358,0,4.094,0.184,5.219,0.542
			c1.122,0.36,2.057,0.92,2.809,1.675c0.749,0.756,1.373,1.78,1.868,3.069l-7.179,0.71c-0.189-0.633-0.497-1.102-0.931-1.398
			c-0.596-0.398-1.313-0.594-2.157-0.594c-0.856,0-1.48,0.152-1.87,0.457c-0.393,0.301-0.587,0.667-0.587,1.102
			c0,0.483,0.248,0.851,0.746,1.095c0.494,0.25,1.574,0.474,3.236,0.672c2.517,0.284,4.392,0.678,5.618,1.188
			c1.227,0.51,2.166,1.238,2.818,2.172c0.651,0.943,0.977,1.978,0.977,3.107c0,1.138-0.342,2.247-1.031,3.324
			c-0.689,1.081-1.775,1.937-3.257,2.577c-1.482,0.637-3.5,0.954-6.056,0.954c-3.607,0-6.179-0.514-7.709-1.544
			C54.811,384.544,53.828,383.082,53.396,381.182z"/>
		<path style="fill:#FFFFFF;" d="M87.14,359.401v7.513h4.167v5.546H87.14v7c0,0.84,0.081,1.398,0.242,1.669
			c0.248,0.421,0.682,0.63,1.302,0.63c0.557,0,1.339-0.157,2.343-0.48l0.559,5.223c-1.873,0.408-3.622,0.613-5.246,0.613
			c-1.885,0-3.276-0.243-4.167-0.724c-0.894-0.483-1.553-1.213-1.982-2.199c-0.428-0.984-0.641-2.581-0.641-4.785v-6.948H76.76
			v-5.546h2.791v-3.627L87.14,359.401z"/>
		<path style="fill:#FFFFFF;" d="M95.195,359.401h7.57v5.152h-7.57V359.401z M95.195,366.914h7.57v19.759h-7.57V366.914z"/>
		<path style="fill:#FFFFFF;" d="M116.738,359.401v7.513h4.166v5.546h-4.166v7c0,0.84,0.078,1.398,0.24,1.669
			c0.248,0.421,0.682,0.63,1.302,0.63c0.559,0,1.341-0.157,2.345-0.48l0.559,5.223c-1.874,0.408-3.621,0.613-5.246,0.613
			c-1.885,0-3.276-0.243-4.166-0.724c-0.894-0.483-1.553-1.213-1.982-2.199c-0.428-0.984-0.643-2.581-0.643-4.785v-6.948h-2.791
			v-5.546h2.791v-3.627L116.738,359.401z"/>
		<path style="fill:#FFFFFF;" d="M145.33,386.673h-7.068v-3.203c-1.055,1.314-2.117,2.249-3.19,2.81
			c-1.073,0.558-2.391,0.835-3.954,0.835c-2.084,0-3.718-0.622-4.901-1.871c-1.186-1.245-1.777-3.164-1.777-5.753v-12.578h7.609
			v10.866c0,1.238,0.228,2.122,0.687,2.639c0.46,0.521,1.105,0.783,1.935,0.783c0.906,0,1.648-0.35,2.221-1.043
			c0.579-0.694,0.867-1.937,0.867-3.74v-9.505h7.572V386.673z"/>
		<path style="fill:#FFFFFF;" d="M159.058,359.401v7.513h4.169v5.546h-4.169v7c0,0.84,0.079,1.398,0.243,1.669
			c0.248,0.421,0.682,0.63,1.302,0.63c0.56,0,1.339-0.157,2.345-0.48l0.558,5.223c-1.873,0.408-3.622,0.613-5.246,0.613
			c-1.885,0-3.274-0.243-4.167-0.724c-0.892-0.483-1.553-1.213-1.982-2.199c-0.43-0.984-0.641-2.581-0.641-4.785v-6.948h-2.791
			v-5.546h2.791v-3.627L159.058,359.401z"/>
		<path style="fill:#FFFFFF;" d="M165.905,376.853c0-3.019,1.014-5.502,3.05-7.456c2.034-1.954,4.781-2.932,8.242-2.932
			c3.956,0,6.943,1.152,8.964,3.445c1.626,1.849,2.439,4.119,2.439,6.827c0,3.039-1.009,5.527-3.023,7.47
			c-2.015,1.94-4.803,2.909-8.361,2.909c-3.175,0-5.743-0.806-7.703-2.418C167.108,382.702,165.905,380.084,165.905,376.853z
			 M173.494,376.828c0,1.762,0.357,3.064,1.071,3.909c0.712,0.844,1.61,1.263,2.687,1.263c1.092,0,1.99-0.412,2.69-1.247
			c0.701-0.827,1.05-2.163,1.05-3.996c0-1.716-0.353-2.985-1.058-3.825c-0.708-0.836-1.583-1.255-2.625-1.255
			c-1.104,0-2.014,0.424-2.735,1.273C173.855,373.799,173.494,375.091,173.494,376.828z"/>
		<path style="fill:#FFFFFF;" d="M205.51,359.401h7.87l10.269,15.085v-15.085h7.943v27.272h-7.943l-10.213-14.978v14.978h-7.926
			V359.401z"/>
		<path style="fill:#FFFFFF;" d="M243.59,373.313l-7.236-0.76c0.274-1.27,0.667-2.263,1.182-2.989
			c0.514-0.724,1.257-1.354,2.223-1.889c0.695-0.385,1.65-0.679,2.864-0.893c1.217-0.209,2.531-0.317,3.943-0.317
			c2.27,0,4.094,0.128,5.47,0.383c1.378,0.255,2.523,0.786,3.44,1.596c0.645,0.551,1.155,1.345,1.526,2.366
			c0.374,1.024,0.56,1.999,0.56,2.928v8.726c0,0.931,0.056,1.66,0.176,2.188c0.116,0.526,0.375,1.198,0.772,2.021h-7.106
			c-0.286-0.512-0.472-0.897-0.557-1.166c-0.088-0.267-0.176-0.683-0.261-1.257c-0.992,0.956-1.977,1.639-2.956,2.047
			c-1.341,0.547-2.897,0.819-4.67,0.819c-2.359,0-4.148-0.542-5.367-1.635c-1.222-1.091-1.833-2.44-1.833-4.034
			c0-1.503,0.44-2.741,1.319-3.709c0.883-0.963,2.507-1.682,4.874-2.153c2.842-0.569,4.683-0.97,5.526-1.204
			c0.841-0.227,1.736-0.526,2.678-0.902c0-0.926-0.192-1.576-0.576-1.953c-0.384-0.367-1.062-0.56-2.029-0.56
			c-1.238,0-2.169,0.202-2.789,0.601C244.278,371.875,243.888,372.46,243.59,373.313z M250.157,377.295
			c-1.042,0.367-2.127,0.701-3.255,0.984c-1.539,0.41-2.511,0.811-2.921,1.213c-0.424,0.41-0.633,0.872-0.633,1.393
			c0,0.596,0.207,1.083,0.622,1.464c0.416,0.375,1.025,0.567,1.833,0.567c0.843,0,1.628-0.21,2.352-0.619
			c0.725-0.408,1.241-0.906,1.545-1.494c0.303-0.59,0.455-1.357,0.455-2.299V377.295z"/>
		<path style="fill:#FFFFFF;" d="M276.833,378.932l7.201,0.818c-0.397,1.503-1.048,2.796-1.952,3.895
			c-0.906,1.099-2.065,1.949-3.472,2.561c-1.405,0.608-3.196,0.91-5.365,0.91c-2.098,0-3.841-0.193-5.238-0.585
			c-1.395-0.389-2.595-1.024-3.599-1.896c-1.004-0.872-1.79-1.896-2.363-3.078c-0.569-1.172-0.856-2.732-0.856-4.679
			c0-2.033,0.349-3.724,1.044-5.077c0.507-0.993,1.201-1.88,2.082-2.668c0.881-0.785,1.785-1.373,2.716-1.753
			c1.476-0.606,3.367-0.915,5.674-0.915c3.226,0,5.685,0.581,7.378,1.733c1.691,1.156,2.881,2.841,3.561,5.054l-7.124,0.954
			c-0.224-0.843-0.629-1.478-1.22-1.905c-0.586-0.43-1.378-0.644-2.369-0.644c-1.254,0-2.267,0.453-3.043,1.345
			c-0.774,0.899-1.163,2.256-1.163,4.08c0,1.619,0.386,2.852,1.155,3.695c0.768,0.838,1.749,1.261,2.939,1.261
			c0.991,0,1.824-0.255,2.501-0.765C275.993,380.765,276.499,379.984,276.833,378.932z"/>
		<path style="fill:#FFFFFF;" d="M287.791,359.401h7.572v5.152h-7.572V359.401z M287.791,366.914h7.572v19.759h-7.572V366.914z"/>
		<path style="fill:#FFFFFF;" d="M299.269,376.853c0-3.019,1.017-5.502,3.05-7.456c2.036-1.954,4.785-2.932,8.241-2.932
			c3.959,0,6.948,1.152,8.968,3.445c1.625,1.849,2.44,4.119,2.44,6.827c0,3.039-1.011,5.527-3.023,7.47
			c-2.022,1.94-4.803,2.909-8.367,2.909c-3.174,0-5.741-0.806-7.7-2.418C300.473,382.702,299.269,380.084,299.269,376.853z
			 M306.861,376.828c0,1.762,0.355,3.064,1.07,3.909c0.708,0.844,1.607,1.263,2.687,1.263c1.09,0,1.988-0.412,2.689-1.247
			c0.697-0.827,1.052-2.163,1.052-3.996c0-1.716-0.358-2.985-1.065-3.825c-0.706-0.836-1.584-1.255-2.623-1.255
			c-1.106,0-2.015,0.424-2.734,1.273C307.22,373.799,306.861,375.091,306.861,376.828z"/>
		<path style="fill:#FFFFFF;" d="M325.613,366.914h7.051v3.217c1.052-1.311,2.12-2.251,3.197-2.814
			c1.079-0.569,2.397-0.852,3.947-0.852c2.092,0,3.736,0.626,4.922,1.871c1.182,1.248,1.778,3.174,1.778,5.78v12.558h-7.615v-10.864
			c0-1.246-0.225-2.12-0.688-2.634c-0.455-0.514-1.102-0.774-1.933-0.774c-0.918,0-1.662,0.348-2.229,1.043
			c-0.578,0.694-0.861,1.938-0.861,3.743v9.486h-7.568V366.914z"/>
		<path style="fill:#FFFFFF;" d="M357.925,373.313l-7.237-0.76c0.276-1.27,0.669-2.263,1.182-2.989
			c0.514-0.724,1.255-1.354,2.22-1.889c0.697-0.385,1.655-0.679,2.869-0.893c1.214-0.209,2.525-0.317,3.945-0.317
			c2.268,0,4.093,0.128,5.466,0.383c1.373,0.255,2.527,0.786,3.444,1.596c0.644,0.551,1.154,1.345,1.521,2.366
			c0.374,1.024,0.564,1.999,0.564,2.928v8.726c0,0.931,0.053,1.66,0.175,2.188c0.121,0.526,0.376,1.198,0.772,2.021h-7.105
			c-0.289-0.512-0.478-0.897-0.56-1.166c-0.089-0.267-0.175-0.683-0.259-1.257c-0.995,0.956-1.979,1.639-2.96,2.047
			c-1.341,0.547-2.894,0.819-4.669,0.819c-2.354,0-4.146-0.542-5.364-1.635c-1.225-1.091-1.837-2.44-1.837-4.034
			c0-1.503,0.442-2.741,1.327-3.709c0.877-0.963,2.502-1.682,4.868-2.153c2.839-0.569,4.685-0.97,5.528-1.204
			c0.844-0.227,1.735-0.526,2.68-0.902c0-0.926-0.193-1.576-0.581-1.953c-0.383-0.367-1.059-0.56-2.024-0.56
			c-1.245,0-2.17,0.202-2.794,0.601C358.617,371.875,358.225,372.46,357.925,373.313z M364.496,377.295
			c-1.043,0.367-2.129,0.701-3.256,0.984c-1.537,0.41-2.514,0.811-2.923,1.213c-0.423,0.41-0.635,0.872-0.635,1.393
			c0,0.596,0.209,1.083,0.626,1.464c0.417,0.375,1.024,0.567,1.83,0.567c0.842,0,1.628-0.21,2.358-0.619
			c0.722-0.408,1.236-0.906,1.541-1.494c0.305-0.59,0.46-1.357,0.46-2.299V377.295z"/>
		<path style="fill:#FFFFFF;" d="M376.696,359.401h7.59v27.272h-7.59V359.401z"/>
		<path style="fill:#FFFFFF;" d="M402.312,359.401H424.9v5.819h-14.142v4.335h13.118v5.56h-13.118v5.377h14.547v6.181h-22.992
			V359.401z"/>
		<path style="fill:#FFFFFF;" d="M429.604,359.401h7.592v27.272h-7.592V359.401z"/>
		<path style="fill:#FFFFFF;" d="M463.962,378.672h-15.18c0.137,1.213,0.467,2.122,0.99,2.716c0.726,0.856,1.682,1.284,2.864,1.284
			c0.744,0,1.453-0.191,2.12-0.556c0.408-0.235,0.852-0.653,1.32-1.245l7.456,0.683c-1.134,1.987-2.513,3.408-4.125,4.271
			c-1.612,0.861-3.923,1.291-6.939,1.291c-2.622,0-4.676-0.369-6.179-1.107c-1.5-0.738-2.743-1.906-3.729-3.511
			c-0.984-1.612-1.482-3.497-1.482-5.669c0-3.089,0.993-5.585,2.969-7.497c1.98-1.906,4.713-2.866,8.196-2.866
			c2.83,0,5.059,0.43,6.696,1.286c1.637,0.86,2.882,2.097,3.736,3.725c0.856,1.617,1.286,3.733,1.286,6.338V378.672z
			 M456.259,375.041c-0.152-1.461-0.542-2.509-1.177-3.139c-0.644-0.637-1.482-0.954-2.522-0.954c-1.204,0-2.163,0.476-2.882,1.437
			c-0.458,0.594-0.751,1.478-0.876,2.655H456.259z"/>
		<path style="fill:#FFFFFF;" d="M482.175,378.932l7.203,0.818c-0.401,1.503-1.052,2.796-1.954,3.895
			c-0.91,1.099-2.063,1.949-3.47,2.561c-1.414,0.608-3.197,0.91-5.368,0.91c-2.097,0-3.838-0.193-5.236-0.585
			c-1.395-0.389-2.593-1.024-3.604-1.896c-1.002-0.872-1.791-1.896-2.363-3.078c-0.567-1.172-0.852-2.732-0.852-4.679
			c0-2.033,0.348-3.724,1.04-5.077c0.514-0.993,1.204-1.88,2.085-2.668c0.881-0.785,1.787-1.373,2.714-1.753
			c1.482-0.606,3.372-0.915,5.678-0.915c3.222,0,5.682,0.581,7.378,1.733c1.691,1.156,2.877,2.841,3.56,5.054l-7.126,0.954
			c-0.221-0.843-0.631-1.478-1.214-1.905c-0.594-0.43-1.382-0.644-2.375-0.644c-1.254,0-2.263,0.453-3.044,1.345
			c-0.772,0.899-1.161,2.256-1.161,4.08c0,1.619,0.385,2.852,1.152,3.695c0.769,0.838,1.746,1.261,2.939,1.261
			c0.993,0,1.83-0.255,2.506-0.765C481.335,380.765,481.841,379.984,482.175,378.932z"/>
		<path style="fill:#FFFFFF;" d="M501.987,359.401v7.513h4.166v5.546h-4.166v7c0,0.84,0.082,1.398,0.241,1.669
			c0.251,0.421,0.687,0.63,1.302,0.63c0.562,0,1.341-0.157,2.347-0.48l0.562,5.223c-1.881,0.408-3.625,0.613-5.254,0.613
			c-1.88,0-3.269-0.243-4.164-0.724c-0.893-0.483-1.551-1.213-1.983-2.199c-0.424-0.984-0.638-2.581-0.638-4.785v-6.948h-2.793
			v-5.546h2.793v-3.627L501.987,359.401z"/>
		<path style="fill:#FFFFFF;" d="M508.834,376.853c0-3.019,1.015-5.502,3.053-7.456c2.033-1.954,4.779-2.932,8.241-2.932
			c3.954,0,6.944,1.152,8.965,3.445c1.619,1.849,2.434,4.119,2.434,6.827c0,3.039-1.006,5.527-3.019,7.47
			c-2.021,1.94-4.801,2.909-8.367,2.909c-3.172,0-5.737-0.806-7.699-2.418C510.036,382.702,508.834,380.084,508.834,376.853z
			 M516.425,376.828c0,1.762,0.355,3.064,1.068,3.909c0.713,0.844,1.607,1.263,2.689,1.263c1.093,0,1.987-0.412,2.689-1.247
			c0.695-0.827,1.052-2.163,1.052-3.996c0-1.716-0.36-2.985-1.066-3.825c-0.704-0.836-1.582-1.255-2.625-1.255
			c-1.104,0-2.013,0.424-2.732,1.273C516.784,373.799,516.425,375.091,516.425,376.828z"/>
		<path style="fill:#FFFFFF;" d="M535.246,366.914h7.089v3.233c0.681-1.398,1.388-2.363,2.113-2.889
			c0.726-0.526,1.621-0.794,2.689-0.794c1.113,0,2.338,0.351,3.667,1.045l-2.347,5.393c-0.893-0.371-1.6-0.558-2.122-0.558
			c-0.993,0-1.762,0.408-2.309,1.225c-0.779,1.157-1.168,3.317-1.168,6.481v6.623h-7.611V366.914z"/>
		<path style="fill:#FFFFFF;" d="M559.637,373.313l-7.238-0.76c0.275-1.27,0.667-2.263,1.186-2.989
			c0.514-0.724,1.252-1.354,2.222-1.889c0.692-0.385,1.651-0.679,2.862-0.893c1.22-0.209,2.531-0.317,3.941-0.317
			c2.272,0,4.1,0.128,5.471,0.383c1.379,0.255,2.531,0.786,3.449,1.596c0.642,0.551,1.152,1.345,1.518,2.366
			c0.378,1.024,0.56,1.999,0.56,2.928v8.726c0,0.931,0.059,1.66,0.18,2.188c0.112,0.526,0.373,1.198,0.772,2.021h-7.107
			c-0.287-0.512-0.474-0.897-0.562-1.166c-0.086-0.267-0.173-0.683-0.255-1.257c-0.993,0.956-1.981,1.639-2.962,2.047
			c-1.339,0.547-2.893,0.819-4.667,0.819c-2.359,0-4.152-0.542-5.37-1.635c-1.22-1.091-1.831-2.44-1.831-4.034
			c0-1.503,0.442-2.741,1.318-3.709c0.886-0.963,2.506-1.682,4.877-2.153c2.839-0.569,4.679-0.97,5.525-1.204
			c0.845-0.227,1.739-0.526,2.675-0.902c0-0.926-0.193-1.576-0.567-1.953c-0.389-0.367-1.066-0.56-2.031-0.56
			c-1.243,0-2.174,0.202-2.793,0.601C560.327,371.875,559.935,372.46,559.637,373.313z M566.201,377.295
			c-1.04,0.367-2.124,0.701-3.256,0.984c-1.537,0.41-2.506,0.811-2.914,1.213c-0.426,0.41-0.635,0.872-0.635,1.393
			c0,0.596,0.209,1.083,0.626,1.464c0.414,0.375,1.027,0.567,1.828,0.567c0.845,0,1.628-0.21,2.356-0.619
			c0.726-0.408,1.239-0.906,1.539-1.494c0.31-0.59,0.456-1.357,0.456-2.299V377.295z"/>
		<path style="fill:#FFFFFF;" d="M578.41,359.401H586v27.272h-7.59V359.401z"/>
	</g>
</g>
</svg>
