<?xml version="1.0" encoding="utf-8"?>
<!-- Generator: Adobe Illustrator 24.3.0, SVG Export Plug-In . SVG Version: 6.00 Build 0)  -->
<svg version="1.1" id="Capa_1" xmlns="http://www.w3.org/2000/svg" xmlns:xlink="http://www.w3.org/1999/xlink" x="0px" y="0px"
	 viewBox="0 0 100 100" style="enable-background:new 0 0 100 100;" xml:space="preserve">
<style type="text/css">
	.st0{fill:#D0308C;}
	.st1{fill:#29323C;}
	.st2{stroke:#000000;stroke-miterlimit:10;}
</style>
<g>
	<path class="st0" d="M50,1.5C23.3,1.5,1.5,23.3,1.5,50S23.3,98.5,50,98.5S98.5,76.7,98.5,50S76.7,1.5,50,1.5z M50,90
		c-22.1,0-40-17.9-40-40s17.9-40,40-40s40,17.9,40,40S72.1,90,50,90z"/>
	<path class="st1" d="M54.2,48.3V28.8c0-2.3-1.9-4.2-4.2-4.2c-2.3,0-4.2,1.9-4.2,4.2V50c0,0.3,0,0.5,0.1,0.8c0,0.1,0.1,0.2,0.1,0.3
		c0,0.1,0.1,0.3,0.1,0.4c0.1,0.1,0.1,0.3,0.2,0.4c0.1,0.1,0.1,0.2,0.2,0.3c0.1,0.2,0.3,0.4,0.5,0.6l15.3,15.1c0.8,0.8,1.9,1.2,3,1.2
		c1.1,0,2.2-0.4,3-1.2c1.6-1.6,1.6-4.3,0-6L54.2,48.3z"/>
</g>
</svg>
