<?xml version="1.0" standalone="no"?><svg xmlns="http://www.w3.org/2000/svg" viewBox="0 0 1440 320"><path fill="#00d157" fill-opacity="1" d="M0,32L30,58.7C60,85,120,139,180,138.7C240,139,300,85,360,106.7C420,128,480,224,540,272C600,320,660,320,720,288C780,256,840,192,900,165.3C960,139,1020,149,1080,165.3C1140,181,1200,203,1260,224C1320,245,1380,267,1410,277.3L1440,288L1440,320L1410,320C1380,320,1320,320,1260,320C1200,320,1140,320,1080,320C1020,320,960,320,900,320C840,320,780,320,720,320C660,320,600,320,540,320C480,320,420,320,360,320C300,320,240,320,180,320C120,320,60,320,30,320L0,320Z"></path></svg>