<?xml version="1.0" standalone="no"?><svg xmlns="http://www.w3.org/2000/svg" viewBox="0 0 1440 320"><path fill="#00ced1" fill-opacity="1" d="M0,0L40,42.7C80,85,160,171,240,181.3C320,192,400,128,480,106.7C560,85,640,107,720,106.7C800,107,880,85,960,101.3C1040,117,1120,171,1200,170.7C1280,171,1360,117,1400,90.7L1440,64L1440,320L1400,320C1360,320,1280,320,1200,320C1120,320,1040,320,960,320C880,320,800,320,720,320C640,320,560,320,480,320C400,320,320,320,240,320C160,320,80,320,40,320L0,320Z"></path></svg>