<?xml version="1.0" standalone="no"?><svg xmlns="http://www.w3.org/2000/svg" viewBox="0 0 1440 320"><path fill="#e7008a" fill-opacity="1" d="M0,64L30,101.3C60,139,120,213,180,229.3C240,245,300,203,360,165.3C420,128,480,96,540,106.7C600,117,660,171,720,186.7C780,203,840,181,900,165.3C960,149,1020,139,1080,122.7C1140,107,1200,85,1260,90.7C1320,96,1380,128,1410,144L1440,160L1440,320L1410,320C1380,320,1320,320,1260,320C1200,320,1140,320,1080,320C1020,320,960,320,900,320C840,320,780,320,720,320C660,320,600,320,540,320C480,320,420,320,360,320C300,320,240,320,180,320C120,320,60,320,30,320L0,320Z"></path></svg>